<?xml version="1.0" encoding="utf-8"?>
<!-- Generator: Adobe Illustrator 27.5.0, SVG Export Plug-In . SVG Version: 6.00 Build 0)  -->
<svg version="1.1" id="_x3C_Layer_x3E_" xmlns="http://www.w3.org/2000/svg" xmlns:xlink="http://www.w3.org/1999/xlink" x="0px"
	 y="0px" viewBox="0 0 2760 1840" style="enable-background:new 0 0 2760 1840;" xml:space="preserve">
<rect style="fill:#FFFFFF;" width="2760" height="1840"/>
<g>
	<g>
		<path style="fill:#DAEBE8;" d="M2612.324,388.204v1057.582c0,171.422-146.664,284.339-318.547,307.068
			c-218.095,28.883-469.397,12.047-841.123-12.476c-240.384-15.81-720.724,10.299-965.147,12.476
			c-175.529,1.544-318.547-137.128-318.547-307.068V388.204c0-169.589,142.919-317.033,318.547-307.055
			c163.083,9.253,402.975,45.929,653.042,23.475c297.415-26.712,861.936-49.394,1153.228-23.475
			C2468.962,96.727,2612.324,218.615,2612.324,388.204z"/>
	</g>
	<g>
		<ellipse style="fill:#B8D5DC;" cx="1386.581" cy="1482.294" rx="1018.95" ry="105.022"/>
	</g>
	<g>
		<g>
			<path style="fill:#68A1BF;" d="M715.273,1449.066H483.345c-17.994,0-32.68-13.6-33.035-30.593L435.65,716.65
				c-0.365-17.474,14.531-31.824,33.034-31.824h266.268c18.591,0,33.522,14.481,33.029,32.035l-19.68,701.822
				C747.828,1435.592,733.18,1449.066,715.273,1449.066z"/>
		</g>
		<g>
			<path style="fill:#331832;" d="M692.716,1421.966H506.902c-14.749,0-26.987-12.917-27.278-28.794l-11.747-642.145
				c-0.152-8.248,2.96-16.234,8.533-21.911c5.082-5.179,11.741-8.029,18.745-8.029h213.329c7.035,0,13.718,2.869,18.812,8.09
				c5.579,5.725,8.666,13.76,8.46,22.05l-15.768,642.151C719.6,1409.412,707.622,1421.966,692.716,1421.966z M495.155,722.712
				c-6.562,0-12.808,2.68-17.587,7.544c-5.264,5.367-8.205,12.923-8.066,20.746l11.747,642.145
				c0.279,14.991,11.783,27.193,25.653,27.193h185.814c14.009,0,25.276-11.862,25.646-27.011l15.768-642.139
				c0.188-7.86-2.729-15.464-8.005-20.874c-4.785-4.9-11.049-7.605-17.641-7.605H495.155z"/>
		</g>
		<g>
			<rect x="470.776" y="864.414" style="fill:#331832;" width="261.929" height="1.625"/>
		</g>
		<g>
			<rect x="477.119" y="1211.178" style="fill:#331832;" width="246.507" height="1.625"/>
		</g>
		<g>
			<rect x="473.468" y="1011.622" style="fill:#331832;" width="255.034" height="1.625"/>
		</g>
		<g>
			<path style="fill:#331832;" d="M617.438,752.495h-25.895c-3.105,0-5.628-2.523-5.628-5.628c0-3.105,2.523-5.628,5.628-5.628
				h25.895c3.105,0,5.628,2.523,5.628,5.628C623.066,749.972,620.543,752.495,617.438,752.495z M591.543,742.864
				c-2.208,0-4.003,1.795-4.003,4.003s1.795,4.003,4.003,4.003h25.895c2.208,0,4.003-1.795,4.003-4.003s-1.795-4.003-4.003-4.003
				H591.543z"/>
		</g>
		<g>
			<path style="fill:#331832;" d="M617.438,1044.376h-25.895c-3.105,0-5.628-2.523-5.628-5.628c0-3.105,2.523-5.628,5.628-5.628
				h25.895c3.105,0,5.628,2.523,5.628,5.628C623.066,1041.853,620.543,1044.376,617.438,1044.376z M591.543,1034.745
				c-2.208,0-4.003,1.795-4.003,4.003c0,2.207,1.795,4.002,4.003,4.002h25.895c2.208,0,4.003-1.795,4.003-4.002
				c0-2.208-1.795-4.003-4.003-4.003H591.543z"/>
		</g>
	</g>
	<g>
		<g>
			<path style="fill:#F4A26F;" d="M1555.749,948.019l-22.543-30.542c2.108-2.872,77.621-77.087,112.464-200.142
				c0,0,0.834-6.388,27.511-2.227c27.343,4.265,28.629,14.001,28.629,14.001C1682.112,853.142,1556.955,946.376,1555.749,948.019z"
				/>
		</g>
	</g>
	<g>
		
			<rect x="1405.737" y="672.706" transform="matrix(0.2852 -0.9585 0.9585 0.2852 199.5883 2019.1696)" style="fill:#D78A6C;" width="95.554" height="406.136"/>
	</g>
	<g>
		<g>
			<path style="fill:#C47055;" d="M1286.346,808.736c21.088-3.996,38.31,14.576,58.236,17.53
				c24.06,3.566,42.508,3.607,64.358,16.306c2.747,1.597,5.231-2.661,2.487-4.255c-21.9-12.728-41.91-13.38-66.122-17.32
				c-21.676-3.527-37.402-21.345-60.269-17.013C1281.923,804.573,1283.241,809.324,1286.346,808.736L1286.346,808.736z"/>
		</g>
	</g>
	<g>
		<g>
			<path style="fill:#C47055;" d="M1394.516,849.849c-13.589-7.209-32.327-14.304-47.958-10.378
				c-8.58,2.155-14.903,8.294-6.014,14.7c6.66,4.8,16.68,7.691,24.485,9.749c6.601,1.741,15.645,4.587,22.433,2.797
				c11.339-2.991,8.827-13.488,1.514-19.621c-2.415-2.025-5.919,1.444-3.485,3.485c4.859,2.64,4.302,6.505-1.671,11.594
				c-2.226-0.24-4.451-0.481-6.677-0.721c-3.625-0.546-7.261-1.345-10.803-2.286c-3.554-0.944-7.075-2.075-10.515-3.373
				c-1.006-0.38-11.535-4.035-12.793-5.879c-5.967-8.75,20.191-5.66,23.306-5.048c9.009,1.772,17.586,4.937,25.691,9.237
				C1394.829,855.59,1397.322,851.338,1394.516,849.849L1394.516,849.849z"/>
		</g>
	</g>
	<g>
		<g>
			<path style="fill:#C47055;" d="M1271.035,849.526c19.572,1.777,33.731,14.693,51.363,21.28
				c21.503,8.033,47.7,12.791,69.668,19.326c14.758,4.39,29.573,3.583,44.319,7.535c19.239,5.156,33.436,16.694,53.538,19.489
				c3.102,0.431,4.443-4.317,1.31-4.752c-19.658-2.734-34.899-14.255-53.538-19.489c-18.495-5.193-37.039-7.424-55.872-12.965
				c-21.199-6.237-43.148-8.121-63.434-16.939c-17.623-7.661-28.543-16.705-47.355-18.413
				C1267.877,844.312,1267.897,849.242,1271.035,849.526L1271.035,849.526z"/>
		</g>
	</g>
	<g>
		<g>
			<path style="fill:#C47055;" d="M1618.838,901.306c-24.108-11.63-61.145-23.417-88.196-14.737
				c-12.453,3.996-12.148,11.506-1.25,18.447c11.446,7.289,27.882,10.019,41.036,13.093c11.721,2.739,29.322,9.649,41.504,6.583
				c10.856-2.733,16.578-15.015,4.951-21.169c-2.802-1.483-5.295,2.77-2.487,4.255c-4.725,9.414-10.826,12.951-18.304,10.609
				c-3.489-0.668-6.974-1.351-10.456-2.051c-4.641-0.947-9.284-1.906-13.898-2.979c-6.9-1.604-13.784-3.359-20.55-5.466
				c-7.528-2.344-13.622-1.671-13.534-10.941c0.089-9.295,4.688-6.928,13.578-6.954c6.809-0.02,13.51,0.607,20.247,1.562
				c15.892,2.253,30.372,7.011,44.872,14.006C1619.194,906.933,1621.697,902.685,1618.838,901.306L1618.838,901.306z"/>
		</g>
	</g>
	<g>
		<g>
			<path style="fill:#C47055;" d="M1536.531,872.601c-16.111-2.941-51.369-4.077-39.582,22.834
				c4.621,10.55,15.834,16.865,25.656,21.644c17.05,8.296,35.104,14.416,53.422,19.192c3.071,0.801,4.381-3.951,1.31-4.752
				c-18.535-4.832-36.99-10.936-54.113-19.618c-6.462-3.277-17.789-8.287-20.107-15.456c1.384-6.531,2.768-13.062,4.151-19.593
				c2.178-0.367,4.355-0.734,6.533-1.102c7.082-0.662,14.512,0.343,21.418,1.603
				C1538.322,877.919,1539.652,873.171,1536.531,872.601L1536.531,872.601z"/>
		</g>
	</g>
	<g>
		<g>
			<path style="fill:#C47055;" d="M1630,895.861c8.699,9.629,14.438,24.774,2.382,34.248c-7.6,5.972-17.449,9.3-26.762,11.347
				c-3.096,0.68-1.786,5.433,1.31,4.752c11.095-2.439,30.61-8.328,36.16-19.495c5.451-10.967-2.351-26.308-9.605-34.338
				C1631.354,890.017,1627.878,893.511,1630,895.861L1630,895.861z"/>
		</g>
	</g>
	<g>
		<g>
			<path style="fill:#86BDD5;" d="M1495.63,943.343c3.696,12.074,16.756,39.919,9.117,38.687
				c-7.639-1.232-13.247-14.292-10.931-6.653c0.562,1.853,1.518,4.455,2.533,7.432h-91.034c-2.316,1.419-4.899,2.198-7.619,2.198
				c-0.72,0-1.429-0.059-2.129-0.167c-1.942-0.296-3.795-0.996-5.5-2.031h-98.762c-0.315-2.089,0.67-3.075,3.745-2.168
				c11.167,3.282-8.546-20.698-4.761-29.737c3.775-9.038,9.107,15.445,7.264-10.675c-1.843-26.12,0.946-39.337,4.15-31.876
				c3.203,7.471,3.45,2.957,7.639-16.756c4.189-19.713,7.323-15.603,7.146-7.885c-0.177,7.727,17.002-34.251,23.409-33.512
				c6.407,0.739-5.145,12.715,2.71,9.364c7.856-3.341,22.749-23.656,27.844-21.191c5.096,2.464-4.761,9.038,1.804,6.407
				c6.574-2.622,33.512-13.631,28.584-9.029c-4.928,4.593-7.668,7.55,0.601,6.407c8.27-1.153,32.26-1.863,27.332,0.877
				c-4.928,2.73-9.206,3.716-2.464,4.702c6.732,0.986,25.341,6.899,24.72,8.624c-0.621,1.725-8.743-2.711-5.786,0.621
				c2.957,3.322,25.371,9.856,24.513,12.567c-0.858,2.711-12.813-0.867-8.378,1.971c4.436,2.829,24.769,14.903,21.32,17.121
				c-3.45,2.218-11.217-3.943-8.142,0.739c3.085,4.682,24.71,19.466,19.26,20.699c-5.46,1.232-11.118-3.075-7.432,1.36
				c3.706,4.435,25.509,25.745,20.827,32.645C1502.53,950.981,1491.934,931.268,1495.63,943.343z"/>
		</g>
		<g>
			<path style="fill:#86BDD5;" d="M1493.817,960.542c0,7.609-0.601,15.061-1.764,22.266h-86.737
				c-2.316,1.419-4.899,2.198-7.619,2.198c-0.72,0-1.429-0.059-2.129-0.167c-1.942-0.296-3.795-0.996-5.5-2.031h-90.748
				c-1.163-7.205-1.764-14.656-1.764-22.266c0-64.895,43.93-117.509,98.131-117.509
				C1449.877,843.033,1493.817,895.647,1493.817,960.542z"/>
		</g>
		<g>
			<path style="fill:#331832;" d="M1416.109,960.542c0,9.906-4.426,18.422-10.793,22.266c-2.316,1.419-4.899,2.198-7.619,2.198
				c-0.72,0-1.429-0.059-2.129-0.167c-1.942-0.296-3.795-0.996-5.5-2.031c-6.367-3.854-10.793-12.37-10.793-22.266
				c0-12.557,7.126-22.897,16.293-24.296c0.7-0.109,1.409-0.168,2.129-0.168C1407.869,936.078,1416.109,947.029,1416.109,960.542z"
				/>
		</g>
		<g>
			<path style="fill:#366F90;" d="M1411.85,960.542c0,9.886-4.416,18.412-10.783,22.266c-1.705,1.035-3.558,1.735-5.5,2.031
				c-1.942-0.296-3.795-0.996-5.5-2.031c-6.367-3.854-10.793-12.37-10.793-22.266c0-12.557,7.126-22.897,16.293-24.296
				C1404.734,937.646,1411.85,947.995,1411.85,960.542z"/>
		</g>
		<g style="opacity:0.6;">
			<path style="fill:#DAEBE8;" d="M1430.825,864.547c0,0-8.255-14.801-23.002-14.795c-14.747,0.006-26.243,6.498-7.208,13.497
				C1419.65,870.248,1439.895,880.797,1430.825,864.547z"/>
		</g>
	</g>
	<g>
		<g>
			<path style="fill:#331832;" d="M1748.059,1402.303c0,0-0.446,17.796-12.487,22.816c-12.042,5.02-46.932,9.55-33.895,20.991
				c7.481,6.565,42.736,2.323,52.689,2.323c9.955,0,19.3,4.338,26.697-2.325c8.138-7.329-0.001-43.806-0.001-43.806
				s-8.589,4.475-16.314,4.274C1753.616,1406.287,1748.059,1402.303,1748.059,1402.303z"/>
		</g>
		<g>
			<path style="fill:#331832;" d="M1955.572,1402.827c0,0,5.013,17.082-4.919,25.54c-9.932,8.459-41.77,23.433-25.86,30.344
				c9.129,3.965,41.402-10.846,50.88-13.887c9.479-3.042,19.702-1.766,24.71-10.37c5.509-9.465-13.385-41.711-13.385-41.711
				s-6.811,6.885-14.228,9.054C1962.081,1404.923,1955.572,1402.827,1955.572,1402.827z"/>
		</g>
		<g>
			<g>
				<path style="fill:#EC865C;" d="M1772.604,1040.434c-0.983,0-1.995-0.224-3.008-0.673c-2.838-1.261-5.343-4.166-6.707-7.781
					c-2.347-6.192-0.782-12.365,3.56-14.063c1.619-0.631,3.438-0.534,5.24,0.261c2.832,1.261,5.337,4.166,6.701,7.781
					c2.347,6.192,0.788,12.365-3.554,14.063C1774.126,1040.301,1773.374,1040.434,1772.604,1040.434z M1768.68,1019.712
					c-0.503,0-0.983,0.091-1.431,0.267c-3.093,1.207-4.148,6.343-2.298,11.219c1.165,3.075,3.232,5.519,5.543,6.544
					c1.261,0.558,2.492,0.625,3.542,0.218c3.087-1.207,4.142-6.343,2.292-11.219v-0.006c-1.164-3.069-3.232-5.513-5.537-6.537
					C1770.069,1019.875,1769.354,1019.712,1768.68,1019.712z"/>
			</g>
			<g>
				<path style="fill:#366F90;" d="M1690.471,977.158c3.087,34.045,12.465,111.634,21.388,165.292
					c17.165,103.167,37.431,207.123,47.36,256.959c3.564,17.831,18.552,30.862,36.33,31.569l9.548,0.381
					c19.205,0.775,34.806-15.723,33.405-35.35l-22.361-312.507l-1.768-24.66l-4.286-80.117
					c-14.771,4.733,32.441-17.283,22.362-7.191l21.658-19.023C1854.107,952.511,1725.644,937.605,1690.471,977.158z"/>
			</g>
			<g>
				<path style="fill:#366F90;" d="M1770.385,979.137l45.755,104.364l137.919,314.561c7.576,17.287,25.068,27.761,43.47,26.02
					l8.025-0.762c18.933-1.795,31.419-20.878,25.856-39.512c0,0-109.96-430.42-115.047-445.789c0,0-60.181,10.275-102.277,23.768
					C1799.316,966.519,1780.464,969.045,1770.385,979.137z"/>
			</g>
			<g>
				<path style="fill:#EF8062;" d="M1833.866,691.146c0,0-31.391-45.991-101.685-30.26c-77.405,17.323-82.654,59.32-73.454,139.994
					c5.828,51.105,23.277,146.672,36.289,219.01c0,0,68.103-82.626,197.938-159.226
					C1892.954,860.665,1863.305,733.778,1833.866,691.146z"/>
			</g>
			<g>
				<path style="fill:#EF8062;" d="M1890.636,851.126c0,0-12.956,16.68-48.574,0c-42.16-19.743-126.603-62.231-161.072-59.608
					c-34.469,2.623-59.816-34.415-59.816-34.415s23.3-62.375,80.91-86.757c5.411-2.298,11.091-4.402,17.056-6.275
					c10.015-3.137,20.32-4.953,30.47-6.793C1874.062,634.714,1890.636,851.126,1890.636,851.126z"/>
			</g>
			<g>
				<g>
					<path style="fill:#FFB27D;" d="M1737.257,667.607c1.675-7.409-4.096-5.862-8.094-11.246l-12.371-16.659l-3.6-4.85
						l-21.173-28.517l9.894,32.295l5.942,19.383l1.881,6.136c1.276,4.165,0.363,5.14-1.428,9.78
						c-0.725,1.88-3.271,9.339,3.762,10.013C1718.378,684.545,1735.123,677.052,1737.257,667.607z"/>
				</g>
				<g>
					<path style="fill:#331832;" d="M1721.256,629.877c0,0,27.119-22.386,13.906-43.836c-13.213-21.449-20.637,31.464-20.637,31.464
						l3.227,12.581L1721.256,629.877z"/>
				</g>
				<g>
					<path style="fill:#331832;" d="M1716.704,639.151c0.035,0.183,0.065,0.367,0.089,0.552c1.608,10.77-8.854,18.353-8.854,18.353
						l-0.083-0.042l-5.942-19.383c3.254-2.075,8.003-4.527,11.279-3.778C1714.905,635.243,1716.213,636.508,1716.704,639.151z"/>
				</g>
				<g>
					
						<ellipse transform="matrix(0.9751 -0.2219 0.2219 0.9751 -94.3941 390.9335)" style="fill:#FFB27D;" cx="1692.832" cy="615.611" rx="29.73" ry="35.848"/>
				</g>
				<g>
					<path style="fill:#331832;" d="M1716.646,605.904c0,0-8.503,5.255-14.937-0.149c-6.434-5.404-10.9-10.414-26.621-3.919
						c-15.721,6.495-32.104,1.92-34.571-6.821c-2.467-8.74,5.228-14.756,14.737-13.658c9.509,1.098-1.682-4.899,5.588-13.388
						c7.269-8.489,23.446,1.931,32.104-1.92c8.658-3.851,38.652-5.606,42.215,19.992L1716.646,605.904z"/>
				</g>
				<g>
					<path style="fill:#FFB27D;" d="M1722.637,611.405c-2.162,2.844-5.974,3.584-8.516,1.652c-2.542-1.932-2.85-5.803-0.688-8.647
						c2.162-2.844,5.974-3.584,8.516-1.652C1724.491,604.689,1724.799,608.56,1722.637,611.405z"/>
				</g>
				<g>
					<path style="fill:#FFFFFF;" d="M1658.126,592.927c-0.752,0-1.468-0.097-2.129-0.315c-3.129-1.025-3.924-2.674-3.626-3.875
						c0.303-1.213,1.783-2.256,3.881-2.256c0.37,0,0.758,0.03,1.17,0.103c4.639,0.807,7.295-0.594,7.326-0.6l0.194,0.352
						c-0.115,0.055-2.796,1.474-7.593,0.649c-2.486-0.443-4.276,0.607-4.585,1.85c-0.255,1.025,0.491,2.456,3.354,3.39
						c0.619,0.2,1.286,0.291,1.989,0.291c6.071,0,14.828-6.756,14.925-6.828l0.255,0.315
						C1672.88,586.317,1664.318,592.927,1658.126,592.927z"/>
				</g>
				<g>
					<path style="fill:#FFFFFF;" d="M1686.75,573.679c-6.616,0-12.778-3.402-13.196-3.948l0.328-0.243l-0.164,0.121l0.164-0.121
						c0.328,0.406,9.467,5.652,17.557,3.117c2.674-0.825,5.039-1.856,7.32-2.85c4.609-2.007,8.539-3.748,12.82-2.602l-0.109,0.388
						c-4.075-1.08-8.023,0.606-12.547,2.583c-2.292,1.001-4.664,2.038-7.362,2.868
						C1689.976,573.478,1688.351,573.679,1686.75,573.679z"/>
				</g>
				<g>
					<path style="fill:#FFFFFF;" d="M1727.667,583.843c-1.352,0-4.227-2.614-4.912-4.288c-0.37-0.91,0.012-1.28,0.273-1.419
						c2.129-1.128,5.191,3.912,5.325,4.13l0.024,0.067c0.206,1.043-0.146,1.377-0.473,1.474
						C1727.83,583.83,1727.751,583.843,1727.667,583.843z M1723.694,578.378c-0.164,0-0.328,0.036-0.473,0.121
						c-0.097,0.048-0.376,0.194-0.091,0.904c0.649,1.583,3.432,4.039,4.506,4.039c0.054,0,0.103-0.006,0.151-0.024
						c0.291-0.085,0.273-0.57,0.194-0.976C1727.224,581.192,1725.168,578.378,1723.694,578.378z"/>
				</g>
				<g>
					<g>
						<path style="fill:#080435;" d="M1687.072,616.14c-0.179-0.038-0.338-0.156-0.422-0.335c-0.141-0.301-0.011-0.659,0.29-0.8
							c0.177-0.083,4.11-2.394,7.887,1.299c0.238,0.233,0.255,0.61,0.027,0.852c-0.228,0.242-0.565,0.197-0.852,0.026
							c-2.868-1.702-6.402-1.153-6.55-1.085C1687.328,616.154,1687.196,616.167,1687.072,616.14z"/>
					</g>
				</g>
				<g>
					<path style="fill:#080435;" d="M1692.205,622.485c0.126,1.432-0.614,2.668-1.654,2.76c-1.039,0.092-1.985-0.995-2.111-2.428
						c-0.126-1.432,0.614-2.668,1.653-2.76C1691.133,619.965,1692.078,621.052,1692.205,622.485z"/>
				</g>
				<g>
					<g>
						<path style="fill:#080435;" d="M1665.541,622.197c-0.139,0.025-0.291-0.031-0.41-0.169c-0.2-0.233-0.229-0.611-0.063-0.845
							c0.098-0.138,2.102-3.634,6.005-1.477c0.246,0.136,0.384,0.482,0.304,0.786c-0.08,0.304-0.333,0.376-0.593,0.315
							c-2.595-0.61-4.908,1.107-4.989,1.221C1665.726,622.123,1665.637,622.179,1665.541,622.197z"/>
					</g>
				</g>
				<g>
					<path style="fill:#080435;" d="M1672.838,626.083c0.662,1.276,0.449,2.701-0.478,3.182c-0.926,0.481-2.214-0.164-2.877-1.441
						c-0.662-1.276-0.449-2.701,0.478-3.182C1670.887,624.161,1672.175,624.807,1672.838,626.083z"/>
				</g>
				<g>
					<g>
						<path style="fill:#020202;" d="M1690.249,642.407c-2.784,0-4.845-0.661-4.894-0.673c-0.218-0.073-0.34-0.309-0.267-0.534
							c0.073-0.218,0.321-0.333,0.534-0.267c0.394,0.139,10.024,3.19,15.434-4.894c0.127-0.188,0.388-0.249,0.588-0.115
							c0.188,0.133,0.243,0.394,0.115,0.588C1698.527,641.339,1693.803,642.407,1690.249,642.407z"/>
					</g>
					<g>
						<path style="fill:#020202;" d="M1702.542,638.04c-0.188,0-0.358-0.121-0.406-0.315c-0.152-0.594-0.661-1.522-2.226-2.565
							c-0.006,0-0.103-0.067-0.109-0.073c-0.182-0.139-0.219-0.4-0.079-0.588c0.133-0.194,0.394-0.23,0.588-0.079
							c1.498,0.995,2.365,2.026,2.638,3.099c0.061,0.224-0.079,0.455-0.303,0.509C1702.608,638.04,1702.578,638.04,1702.542,638.04z
							"/>
					</g>
				</g>
				<g>
					<path style="fill:#FFFFFF;" d="M1668.635,646.124c-0.6,0-1.213-0.061-1.838-0.194c-4.409-0.91-8.769-4.967-11.674-10.855
						c-4.712-9.582-4.13-21.128,1.292-25.75c2.007-1.71,4.457-2.335,7.101-1.777c4.409,0.91,8.769,4.973,11.668,10.855l0,0
						c4.712,9.582,4.136,21.128-1.286,25.75C1672.365,645.457,1670.57,646.124,1668.635,646.124z M1661.698,608.604
						c-1.643,0-3.172,0.57-4.47,1.68c-5.015,4.269-5.458,15.143-0.976,24.234c2.729,5.549,6.768,9.357,10.801,10.188
						c2.262,0.473,4.336-0.061,6.034-1.51c5.015-4.263,5.452-15.143,0.97-24.234l0,0c-2.723-5.549-6.762-9.357-10.795-10.188
						C1662.735,608.658,1662.207,608.604,1661.698,608.604z"/>
				</g>
				<g style="opacity:0.3;">
					
						<ellipse transform="matrix(0.9868 -0.1618 0.1618 0.9868 -77.0916 282.3268)" style="fill:#FFFFFF;" cx="1695.212" cy="614.58" rx="12.797" ry="18.843"/>
				</g>
				<g style="opacity:0.3;">
					<path style="fill:#FFFFFF;" d="M1675.567,619.173c3.709,9.499,2.331,20.608-3.078,24.813
						c-5.409,4.205-12.801-0.086-16.51-9.584c-3.709-9.499-2.331-20.608,3.078-24.813
						C1664.467,605.384,1671.858,609.675,1675.567,619.173z"/>
				</g>
				<g>
					<path style="fill:#FFFFFF;" d="M1695.938,633.722c-1.073,0-2.165-0.17-3.263-0.509c-4.579-1.431-8.545-5.622-10.874-11.498
						c-3.99-10.091-1.722-21.99,5.058-26.514c2.741-1.825,5.852-2.262,9.018-1.28c4.579,1.431,8.539,5.622,10.867,11.498
						c3.996,10.091,1.728,21.99-5.058,26.514C1699.904,633.122,1697.951,633.722,1695.938,633.722z M1692.62,594.661
						c-1.777,0-3.493,0.534-5.07,1.583c-6.319,4.215-8.375,15.434-4.585,25.01c2.153,5.44,5.925,9.466,10.079,10.764
						c2.79,0.873,5.531,0.485,7.951-1.128c6.325-4.215,8.381-15.434,4.585-25.01c-2.153-5.44-5.925-9.467-10.079-10.764
						C1694.537,594.813,1693.572,594.661,1692.62,594.661z"/>
				</g>
				<g>
					<path style="fill:#FFFFFF;" d="M1674.627,623.043c-0.279,0-0.558-0.097-0.782-0.303c-0.473-0.424-0.516-1.158-0.091-1.637
						c0.14-0.158,3.469-3.663,9.915-3.475c0.643,0.024,1.14,0.576,1.11,1.219c-0.024,0.643-0.503,1.104-1.219,1.11
						c-5.422-0.182-7.957,2.589-8.066,2.705C1675.264,622.916,1674.948,623.043,1674.627,623.043z"/>
				</g>
				<g>
					<path style="fill:#331832;" d="M1735.405,586.268l-0.485-0.449c3.663-3.93,0.679-8.46,0.649-8.508l0.546-0.364
						C1736.151,576.996,1739.413,581.963,1735.405,586.268z"/>
				</g>
				<g>
					<path style="fill:#331832;" d="M1741.093,591.66c-0.03-0.024-3.335-2.474-6.083-2.474c-0.188,0-0.376,0.012-0.564,0.036
						l-0.085-0.655c0.212-0.03,0.431-0.042,0.649-0.042c2.965,0,6.331,2.499,6.483,2.614L1741.093,591.66z"/>
				</g>
			</g>
			<g>
				
					<ellipse transform="matrix(0.7031 -0.7111 0.7111 0.7031 17.4798 1515.2682)" style="fill:#331832;" cx="1823.342" cy="736.701" rx="15.247" ry="41.563"/>
			</g>
			<g>
				<path style="fill:#366F90;" d="M1697.007,1036.601c0,0-44.508-204.369-44.666-226.075c-0.159-21.706-8.185-52.78,44.666-62.566
					c52.851-9.786,70.537-14.642,80.184,9.893c9.647,24.536,31.433,78.273,73.532,78.012c42.099-0.261,50.841,28.522,50.841,28.522
					l36.994,157.763L1697.007,1036.601z"/>
			</g>
			<g>
				<path style="fill:#020202;" d="M1815.092,1083.892l-13.245-31.796c-8.375-19.97-13.93-29.619-31.941-38.115l0.958-2.038
					c18.642,8.793,24.646,19.212,33.063,39.285l13.251,31.802L1815.092,1083.892z"/>
			</g>
			<g>
				<path style="fill:#366F90;" d="M1690.323,671.852c0,0-20.081,66.925-19.162,94.057l16.447-3.015
					c0,0,12.224-78.982,14.477-92.549C1702.084,670.346,1691.953,666.254,1690.323,671.852z"/>
			</g>
			<g>
				<path style="fill:#366F90;" d="M1742.321,748.726c-0.301-1.809-8.908-57.91,3.083-90.153c0,0,5.358-5.602,11.388-2.945
					c0,0-13.867,66.267-1.507,93.097h-9.88H1742.321z"/>
			</g>
			<g>
				<path style="fill:#331832;" d="M1684.892,767.869c0,0,5.126-4.685,3.241-8.372c-1.885-3.687-5.05-4.591-8.065-3.385
					c-3.015,1.206-3.354,6.19-2.356,8.597C1678.712,767.116,1683.083,769.921,1684.892,767.869z"/>
			</g>
			<g>
				<path style="fill:#331832;" d="M1754.078,751.729c0,0-2.467-5.113-6.157-6.117c-3.691-1.005-6.705,2.186-6.303,6.117
					c0.402,3.931,2.759,5.573,6.303,5.355C1751.466,756.866,1754.882,754.831,1754.078,751.729z"/>
			</g>
		</g>
	</g>
	<g>
		<g>
			<path style="fill:#EF8062;" d="M1104.194,1085.833l6.969,61.439c0.696,6.139,5.817,10.773,11.906,10.773h188.365
				c6.342,0,11.586-5.015,11.964-11.44l3.75-63.814c0.414-7.047-5.15-12.97-12.105-12.887l-199.084,2.376
				C1108.854,1072.364,1103.381,1078.668,1104.194,1085.833z"/>
		</g>
		<g>
			<path style="fill:#331832;" d="M1176.215,1061.805l-10.261-2.923l5.397-18.909c2.541-8.897,10.71-15.113,19.867-15.113h50.517
				c10.322,0,19.133,7.799,20.492,18.145l2.189,16.641l-10.576,1.395l-2.189-16.641c-0.667-5.058-4.93-8.866-9.915-8.866h-50.517
				c-4.421,0-8.369,3.026-9.606,7.362L1176.215,1061.805z"/>
		</g>
		<g>
			<path style="fill:#764678;" d="M1090.317,1067.501v7.459c0,6.423,5.088,11.652,11.416,11.734l223.229,2.869
				c6.442,0.083,11.708-5.195,11.708-11.734v-7.893c0-6.432-5.101-11.665-11.438-11.734l-223.229-2.435
				C1095.569,1055.697,1090.317,1060.971,1090.317,1067.501z"/>
		</g>
	</g>
	<g>
		<path style="fill:#331832;" d="M1717.353,1000.115H917.865c-9.559,0-17.309-7.749-17.309-17.309l0,0
			c0-9.56,7.749-17.309,17.309-17.309h799.488c9.559,0,17.309,7.749,17.309,17.309l0,0
			C1734.661,992.366,1726.912,1000.115,1717.353,1000.115z"/>
	</g>
	<g>
		<g>
			<path style="fill:#331832;" d="M976.377,1482.328L976.377,1482.328c-3.25,0-5.906-2.594-5.983-5.843l-11.545-487.553
				c-0.08-3.36,2.622-6.126,5.983-6.126h11.546c3.305,0,5.985,2.679,5.985,5.984v487.553
				C982.361,1479.649,979.682,1482.328,976.377,1482.328z"/>
		</g>
		<g>
			<path style="fill:#331832;" d="M1629.277,1482.328L1629.277,1482.328c3.25,0,5.906-2.594,5.983-5.843l11.545-487.553
				c0.08-3.36-2.622-6.126-5.983-6.126h-11.546c-3.305,0-5.984,2.679-5.984,5.984v487.553
				C1623.293,1479.649,1625.972,1482.328,1629.277,1482.328z"/>
		</g>
	</g>
	<g>
		<g>
			<path style="fill:#B0B271;" d="M625.275,585.429c0,0,33.241-125.275,5.565-171.378c-27.676-46.103-120.435-52.906-154.548-19.293
				c-34.114,33.613-38.366,74.651,14.802,91.987c53.168,17.336,123.942-45.391,137.206-38.944
				c13.263,6.447-13.166,132.699-13.166,132.699L625.275,585.429z"/>
		</g>
		<g>
			<g>
				<path style="fill:#C2C68E;" d="M469.976,453.992l-0.831-1.075c0.257-0.195,26.009-19.671,58.648-34.189
					c19.193-8.537,36.985-13.719,52.881-15.401c19.94-2.113,36.946,1.307,50.541,10.158l-0.748,1.133
					c-13.324-8.676-30.028-12.023-49.648-9.944c-15.753,1.667-33.405,6.811-52.467,15.29
					C495.856,434.417,470.23,453.797,469.976,453.992z"/>
			</g>
		</g>
		<g>
			<path style="fill:#366F90;" d="M662.637,684.826h-70.363c-10.763,0-19.737-6.516-20.661-15.001l-10.15-93.221H690.68
				l-9.194,94.412C680.727,678.809,672.515,684.826,662.637,684.826z"/>
		</g>
		<g>
			<path style="fill:#66A8BE;" d="M695.325,556.742v18.535c0,11.469-30.724,20.763-68.631,20.763
				c-37.9,0-68.631-9.294-68.631-20.763v-18.535c0-5.822,17.698-10.813,42.788-12.873c7.977-0.664,16.702-1.03,25.844-1.03
				C664.601,542.839,695.325,549.058,695.325,556.742z"/>
		</g>
		<g>
			<path style="fill:#080435;" d="M695.326,556.745c0,1.116-0.646,2.199-1.872,3.24c-3.055,2.591-9.728,4.914-18.877,6.714
				c-3.567,0.708-7.521,1.341-11.776,1.874c-1.1,0.142-2.224,0.275-3.374,0.392c-0.663,0.083-1.343,0.15-2.023,0.216
				c-3.534,0.367-7.252,0.667-11.105,0.891c-0.269,0.025-0.537,0.042-0.814,0.05c-2.006,0.117-4.046,0.216-6.119,0.291
				c-1.41,0.058-2.837,0.1-4.281,0.142c-0.554,0.008-1.116,0.025-1.679,0.033c-2.207,0.042-4.448,0.067-6.715,0.067
				c-0.974,0-1.939-0.008-2.904-0.017c-0.579,0-1.167-0.008-1.737-0.017c-2.283-0.033-4.541-0.083-6.757-0.167
				c-3.702-0.117-7.311-0.308-10.786-0.55c-0.655-0.05-1.292-0.092-1.939-0.142h-0.008c-0.52-0.042-1.032-0.083-1.544-0.125
				c-0.588-0.05-1.167-0.1-1.746-0.15c-3.811-0.333-7.445-0.741-10.861-1.208c-18.306-2.491-30.343-6.73-30.343-11.537
				c0-2.949,4.532-5.681,12.263-7.93c4.39-1.274,9.812-2.399,16.023-3.307c0.336-0.058,0.68-0.108,1.024-0.15h0.008
				c0.613-0.092,1.234-0.175,1.863-0.258c3.643-0.483,7.521-0.9,11.6-1.233c0.218-0.017,0.428-0.033,0.646-0.05
				c4.037-0.325,8.268-0.575,12.641-0.733c2.644-0.108,5.347-0.175,8.1-0.208c1.469-0.025,2.963-0.033,4.457-0.033
				c2.35,0,4.667,0.025,6.95,0.075c0.571,0.008,1.133,0.017,1.695,0.033c4.037,0.1,7.965,0.275,11.751,0.517
				c1.024,0.058,2.048,0.133,3.055,0.208c3.232,0.233,6.346,0.516,9.334,0.85c4.281,0.466,8.293,1.033,11.961,1.674
				c0.621,0.108,1.234,0.217,1.83,0.333c0.411,0.075,0.823,0.15,1.226,0.233c6.077,1.191,11.071,2.615,14.638,4.198
				C693.11,552.721,695.326,554.679,695.326,556.745z"/>
		</g>
		<g>
			<path style="fill:#C2C68E;" d="M638.195,567.589c0,0,25.674-127.016,70.964-156.338c45.29-29.322,131.608,5.059,147.346,50.137
				c15.737,45.078,1.366,83.789-54.066,76.149c-55.432-7.64-91.189-94.867-105.958-94.867s-46.994,124.919-46.994,124.919H638.195z"
				/>
		</g>
		<g>
			<g>
				<path style="fill:#CCD39C;" d="M823.99,530.001c-0.143-0.286-14.578-28.896-37.358-56.06
					c-13.359-15.93-26.93-28.252-40.336-36.622c-16.696-10.426-33.176-14.711-48.984-12.736l-0.17-1.344
					c16.131-2.015,32.918,2.339,49.892,12.939c13.53,8.45,27.211,20.87,40.664,36.915c22.877,27.285,37.372,56.019,37.515,56.305
					L823.99,530.001z"/>
			</g>
		</g>
		<g>
			<path style="fill:#92BCB5;" d="M621.756,623.99c0,0,0.684-129.544-37.711-167.333c-38.395-37.789-129.929-21.403-154.51,19.595
				c-24.581,40.998-18.378,81.791,37.468,85.41s108.605-74.652,123.07-71.694c14.465,2.958,20.623,131.761,20.623,131.761
				L621.756,623.99z"/>
		</g>
		<g>
			<path style="fill:#A5D7CD;" d="M438.313,535.175l-1.067-0.837c0.2-0.255,20.237-25.495,48.194-47.636
				c25.883-20.492,64.047-42.433,98.826-30.686l-0.437,1.286C518.169,435.106,439.101,534.175,438.313,535.175z"/>
		</g>
		<g>
			<path style="fill:#CCD39C;" d="M700.886,525.021c0,0-15.577-28.09-50.77-26.827c-35.193,1.263-69.184,106.296-56.115,135.772
				c20.013,45.137,88.101,50.436,115.999,0C723.962,608.726,718.17,548.328,700.886,525.021z"/>
		</g>
		<g>
			<g>
				<path style="fill:#C2C68E;" d="M650.613,640.425l-1.335-0.279c0.153-0.723,15.223-72.983,7.208-127.398l1.35-0.197
					C665.886,567.208,650.767,639.699,650.613,640.425z"/>
			</g>
		</g>
	</g>
	<g>
		<g>
			<path style="fill:#366F90;" d="M1083.339,965.497h-39.475c-1.205,0-2.183-0.977-2.183-2.183v-80.901
				c0-1.205,0.977-2.183,2.183-2.183h39.475c1.205,0,2.182,0.977,2.182,2.182v80.901
				C1085.521,964.52,1084.544,965.497,1083.339,965.497z"/>
		</g>
		<g>
			<path style="fill:#275F7A;" d="M1155.893,965.497h-79.178c-1.681,0-3.044-1.363-3.044-3.044v-79.178
				c0-1.681,1.363-3.044,3.044-3.044h79.178c1.681,0,3.044,1.363,3.044,3.044v79.178
				C1158.937,964.135,1157.574,965.497,1155.893,965.497z"/>
		</g>
		<g>
			<g>
				<g>
					
						<ellipse transform="matrix(0.7071 -0.7071 0.7071 0.7071 -255.2513 1061.2241)" style="fill:#68A1BF;" cx="1153.385" cy="838.728" rx="80.575" ry="80.575"/>
				</g>
				<g>
					<polygon style="fill:#68A1BF;" points="1122.255,758.153 1153.385,758.153 1153.385,919.268 1123.333,919.268 1122.255,761.36 
											"/>
				</g>
				<g>
					
						<ellipse transform="matrix(0.1602 -0.9871 0.9871 0.1602 114.5926 1812.1426)" style="fill:#86BDD5;" cx="1122.255" cy="838.728" rx="80.575" ry="80.575"/>
				</g>
			</g>
			<g>
				<g>
					<ellipse style="fill:#366F90;" cx="1116.304" cy="838.728" rx="82.154" ry="80.575"/>
				</g>
				<g>
					<polygon style="fill:#366F90;" points="1084.563,758.174 1116.304,758.174 1116.304,919.29 1085.662,919.29 1084.563,761.381 
											"/>
				</g>
			</g>
			<g>
				<g>
					
						<ellipse transform="matrix(0.7071 -0.7071 0.7071 0.7071 -284.4689 990.7294)" style="fill:#68A1BF;" cx="1053.682" cy="838.749" rx="102.048" ry="102.048"/>
				</g>
				<g>
					<polygon style="fill:#68A1BF;" points="1014.256,736.701 1053.682,736.701 1053.682,940.754 1015.621,940.754 
						1014.256,740.763 					"/>
				</g>
				<g>
					
						<ellipse transform="matrix(0.7071 -0.7071 0.7071 0.7071 -296.0164 962.8511)" style="fill:#86BDD5;" cx="1014.256" cy="838.749" rx="102.048" ry="102.048"/>
				</g>
			</g>
			<g>
				<g>
					<circle style="fill:#366F90;" cx="1015.057" cy="838.749" r="24.556"/>
				</g>
				<g>
					<polygon style="fill:#366F90;" points="1005.57,814.193 1015.057,814.193 1015.057,863.294 1005.898,863.294 1005.57,815.171 
											"/>
				</g>
				<g>
					<circle style="fill:#68A1BF;" cx="1005.57" cy="838.749" r="24.556"/>
				</g>
			</g>
			<g style="opacity:0.6;">
				<path style="fill:#DAEBE8;" d="M1077.224,775.753c0,0-17.198-21.52-40.083-28.255c-22.885-6.735-42.054,7.885-36.797,14.128
					c5.257,6.242,39.426,12.813,55.196,29.898C1071.31,808.608,1086.423,792.838,1077.224,775.753z"/>
			</g>
		</g>
		<g>
			<rect x="1002.972" y="954.812" style="fill:#68A1BF;" width="171.174" height="10.685"/>
		</g>
		<g>
			<rect x="1057.839" y="954.812" style="fill:#275F7A;" width="171.174" height="10.685"/>
		</g>
	</g>
	<g>
		<g>
			<g>
				<path style="fill:#FFB27D;" d="M1617.507,893.02l14.045,50.027c107.84-55.433,190.376-144.923,208.306-167.619
					c2.637-3.338,3.495-7.717,2.346-11.813c-1.755-6.25-5.617-15.832-13.994-25.062c-8.159-8.989-14.955-14.807-19.527-18.281
					c-3.345-2.542-8.093-2.006-10.741,1.255C1778.558,745.394,1710.642,845.146,1617.507,893.02z"/>
			</g>
		</g>
		<g>
			<g>
				<path style="fill:#FFB27D;" d="M1613.774,932.958l0.221,0.307c1.819,2.534,1.234,6.094-1.3,7.913l-25.592,18.37
					c-2.534,1.819-6.094,1.234-7.913-1.3l-0.221-0.308c-1.818-2.534-1.234-6.094,1.3-7.913l25.591-18.369
					C1608.395,929.84,1611.955,930.424,1613.774,932.958z"/>
			</g>
			<g>
				<path style="fill:#FFB27D;" d="M1604.969,920.688l0.34,0.474c1.786,2.488,1.211,5.985-1.277,7.77l-29.558,21.217
					c-2.488,1.786-5.985,1.211-7.771-1.276l-0.34-0.473c-1.786-2.488-1.212-5.984,1.276-7.77l29.559-21.217
					C1599.687,917.625,1603.184,918.2,1604.969,920.688z"/>
			</g>
			<g>
				<path style="fill:#FFB27D;" d="M1626.384,901.661l-0.005,0.112c-0.22,4.434-4.027,7.882-8.461,7.662l-41.065-2.036
					c-4.434-0.22-7.882-4.028-7.662-8.462l0.005-0.111c0.22-4.434,4.028-7.882,8.462-7.662l41.064,2.036
					C1623.155,893.42,1626.603,897.228,1626.384,901.661z"/>
			</g>
			<g>
				<path style="fill:#FFB27D;" d="M1596.282,908.584l0.221,0.308c1.818,2.534,1.233,6.094-1.3,7.913l-25.939,18.619
					c-2.533,1.819-6.094,1.234-7.913-1.3l-0.221-0.308c-1.819-2.534-1.234-6.094,1.3-7.913l25.94-18.62
					C1590.903,905.466,1594.463,906.051,1596.282,908.584z"/>
			</g>
			<g>
				<path style="fill:#FFB27D;" d="M1642.958,924.772c0,0-13.569,30.616-36.637,36.449c-7.984,2.019-41.394-27.84-37.016-35.961
					c4.377-8.121,39.349-30.108,39.349-30.108L1642.958,924.772z"/>
			</g>
			<g>
				<path style="fill:#FFB27D;" d="M1622.256,944.712l0.69,0.962c1.686,2.348,1.143,5.648-1.205,7.334l-18.446,13.24
					c-2.348,1.686-5.649,1.143-7.334-1.205l-0.691-0.962c-1.685-2.348-1.143-5.648,1.205-7.334l18.446-13.24
					C1617.27,941.821,1620.57,942.364,1622.256,944.712z"/>
			</g>
		</g>
	</g>
	<g>
		<path style="fill:#D78A6C;" d="M1458.852,846.857c0,0-5.112,22.789-9.054,75.721l64.922,21.254l-33.381-78.18L1458.852,846.857z"
			/>
	</g>
	<g>
		<g>
			<path style="fill:#EF8062;" d="M1572.292,1485.061h-155.5c-6.968,0-12.794-5.296-13.457-12.232l-12.388-129.544
				c-0.759-7.938,5.483-14.806,13.457-14.806h178.56c7.904,0,14.122,6.751,13.473,14.628l-10.671,129.545
				C1585.187,1479.664,1579.327,1485.061,1572.292,1485.061z"/>
		</g>
		<g>
			<path style="fill:#DAEBE8;" d="M1531.565,1360.708h-75.764c-4.167,0-7.576-3.409-7.576-7.576l0,0
				c0-4.167,3.409-7.576,7.576-7.576h75.764c4.167,0,7.576,3.409,7.576,7.576l0,0
				C1539.141,1357.299,1535.732,1360.708,1531.565,1360.708z"/>
		</g>
	</g>
	<g>
		<g>
			<path style="fill:#EF8062;" d="M1873.048,365.32c0,5.468-40.943,9.899-91.454,9.899c-50.511,0-91.269,7.902-91.269,2.434
				c-0.002-39.096,40.758-75.79,91.269-75.79C1832.105,301.863,1873.048,330.272,1873.048,365.32z"/>
		</g>
		<g>
			<path style="fill:#C0E0DB;" d="M1872.866,365.874c0.236,3.817-19.503,8.414-48.63,11.955c-1.678,0.2-3.394,0.4-5.137,0.6
				c-11.255,1.266-23.735,2.37-36.876,3.217c-11.161,0.723-21.86,1.19-31.767,1.428c-3.591,0.095-7.07,0.152-10.435,0.181
				c-29.297,0.238-49.451-1.78-49.696-5.597c-0.207-3.293,14.469-7.167,37.215-10.432c1.81-0.257,3.667-0.514,5.58-0.771
				c9.624-1.276,20.465-2.437,32.078-3.398c5.128-0.428,10.388-0.828,15.77-1.171c3.752-0.247,7.466-0.457,11.095-0.638
				c15.374-0.79,29.608-1.094,41.693-0.942c0.292,0,0.575,0.009,0.858,0.009C1857.595,360.629,1872.649,362.59,1872.866,365.874z"/>
		</g>
		<g>
			<path style="fill:#FFFFFF;" d="M1833.756,360.306c-2.668,5.083-6.042,9.728-9.992,13.801c-1.48,1.523-3.035,2.97-4.666,4.321
				c-10.19,8.49-23.274,13.592-37.536,13.592c-11.415,0-22.077-3.274-31.107-8.947c-4.044-2.532-7.767-5.559-11.076-8.976
				c-2.291-2.37-4.393-4.921-6.259-7.643c9.624-1.276,20.465-2.437,32.078-3.398c5.128-0.428,10.388-0.828,15.77-1.171
				c3.752-0.247,7.466-0.457,11.095-0.638C1807.438,360.458,1821.671,360.154,1833.756,360.306z"/>
		</g>
		<g>
			<path style="fill:#EF8062;" d="M1781.594,308.419L1781.594,308.419c-2.169,0-3.927-1.758-3.927-3.927V239.75
				c0-2.169,1.758-3.927,3.927-3.927l0,0c2.169,0,3.927,1.758,3.927,3.927v64.742
				C1785.522,306.661,1783.763,308.419,1781.594,308.419z"/>
		</g>
		<g>
			<ellipse style="fill:#EF8062;" cx="1781.594" cy="303.579" rx="11.385" ry="11.496"/>
		</g>
	</g>
	<g style="opacity:0.5;">
		<g>
			<path style="fill:#68A1BF;" d="M2098.703,499.881c-1.72-37.204-35.14-68.662-72.385-68.662c-52.765,0-70.073,40.424-72.153,77.61
				c-2.161,38.624,31.883,65.057,69.127,65.057C2060.537,573.886,2100.84,546.101,2098.703,499.881z"/>
		</g>
		<g>
			<path style="fill:#BFD7D3;" d="M2085.612,503.776c0-29.627-29.574-61.189-59.186-62.137
				c-43.807-1.403-61.574,43.043-61.574,72.669c0,29.627,30.582,47.289,60.209,47.289
				C2054.688,561.597,2085.612,533.403,2085.612,503.776z"/>
		</g>
		<g>
			<path style="fill:#68A1BF;" d="M2032.771,502.775c-0.397-4.045-4.697-6.741-8.761-6.741c-4.064,0-8.425,4.897-8.425,8.961
				c0,4.064,4.361,7.384,8.425,7.384C2028.073,512.379,2033.507,510.274,2032.771,502.775z"/>
		</g>
		<g>
			<g>
				<path style="fill:#68A1BF;" d="M2024.01,506.482h-1.472c-0.807,0-1.46-0.653-1.46-1.461c0-0.807-1.84-3.545-1.033-3.545
					l0.818-1.719l1.755-40.019l-1.823,1.117c-0.462,0.665-1.372,0.826-2.031,0.374c-0.662-0.458-0.83-1.368-0.371-2.031l4.495-6.518
					c0.362-0.529,1.024-0.757,1.638-0.565c0.61,0.19,1.024,0.756,1.024,1.396l2.433,51.401
					C2027.983,505.718,2024.814,506.482,2024.01,506.482z"/>
			</g>
			<g>
				<path style="fill:#68A1BF;" d="M2029.055,461.067c-0.422,0-0.844-0.184-1.132-0.538l-5.546-3.971
					c-0.51-0.626,0.163-3.672,0.791-4.181c0.621-0.508,1.543-0.416,2.054,0.21l4.966,6.097c0.511,0.626,0.417,1.546-0.211,2.055
					C2029.705,460.96,2029.38,461.067,2029.055,461.067z"/>
			</g>
		</g>
		<g>
			<g>
				<path style="fill:#68A1BF;" d="M1997.546,511.212c-0.382,0-0.764-0.15-1.05-0.446l-4.338-4.494
					c-0.407-0.422-0.525-1.047-0.294-1.586c0.228-0.539,0.758-0.888,1.343-0.888h0.003l34.465-1.81
					c0.804,0.001,1.263,2.543,1.263,3.349v1.472c0,0.807-0.654,1.46-1.461,1.46s-2.625,0.725-2.625-0.082l1.165-1.393l-29.361-0.067
					l1.94,2.011c0.562,0.581,0.545,1.505-0.035,2.065C1998.276,511.077,1997.911,511.212,1997.546,511.212z"/>
			</g>
			<g>
				<path style="fill:#68A1BF;" d="M1993.208,506.719c-0.324,0-0.653-0.108-0.924-0.33c-0.625-0.51-0.716-1.43-0.208-2.055
					l4.056-4.967c0.516-0.626,1.434-0.714,2.056-0.207c0.625,0.51,0.716,1.43,0.208,2.055l-1.594,3.719
					C1996.512,505.287,1993.63,506.719,1993.208,506.719z"/>
			</g>
		</g>
	</g>
	<g>
		<g>
			<path style="fill:#E8AC9C;" d="M1564.188,668.96H991.732c-6.527,0-11.955-5.301-12.458-12.168l-22.466-306.445
				c-0.561-7.66,5.177-14.202,12.458-14.202h594.921c6.901,0,12.495,5.903,12.495,13.185v306.445
				C1576.683,663.057,1571.089,668.96,1564.188,668.96z"/>
		</g>
		<g>
			<g>
				<path style="fill:#D78A6C;" d="M983.519,428.991c91.533-7.824,182.74,5.633,274.302,0.981
					c87.279-4.435,173.164-0.775,260.542,2.637c3.334,0.13,3.328-5.051,0-5.181c-87.294-3.409-173.328-7.328-260.542-2.637
					c-91.567,4.925-182.741-8.808-274.302-0.981C980.222,424.093,980.193,429.276,983.519,428.991L983.519,428.991z"/>
			</g>
		</g>
		<g>
			<g>
				<path style="fill:#D78A6C;" d="M1266.929,362.555c-5.047-0.539-23.579-1.558-23.274,6.989
					c0.335,9.382,17.28,10.183,23.466,10.403c5.059,0.18,21.755,1.289,18.83-8.48c-2.7-9.016-17.665-10.421-25.207-10.098
					c-3.321,0.142-3.339,5.323,0,5.181c4.42-0.189,11.796-0.386,15.448,2.683c2.841,0.52,3.049,2.259,0.625,5.218
					c-0.922,0.077-1.843,0.155-2.765,0.232c-2.313,0.566-5.965,0.164-8.319,0.034c-1.163-0.064-16.127-1.18-15.936-4.223
					c0.277-4.438,14.325-3.058,17.131-2.758C1270.24,368.089,1270.215,362.906,1266.929,362.555L1266.929,362.555z"/>
			</g>
		</g>
		<g>
			<g>
				<path style="fill:#D78A6C;" d="M1264.907,351.12c-11.76,0.475-24.153-0.091-35.777,1.844
					c-7.261,1.209-14.661,4.509-17.816,11.657c-8.544,19.355,19.112,21.115,30.033,25.438c3.1,1.227,4.446-3.781,1.377-4.996
					c-5.37-2.125-10.88-2.53-16.381-4.119c-1.589-0.577-3.178-1.155-4.767-1.732c-4.568-1.52-5.782-4.641-3.644-9.365
					c0.462-7.471,1.694-9.253,9.211-11.241c11.74-3.105,25.699-1.817,37.764-2.305
					C1268.23,356.166,1268.247,350.984,1264.907,351.12L1264.907,351.12z"/>
			</g>
		</g>
		<g>
			<g>
				<path style="fill:#D78A6C;" d="M995.541,515.944c88.753-15.415,180.039,2.782,269.723-1.839
					c36.724-1.892,73.063-3.916,109.775-0.501c49.423,4.597,101.802,1.612,150.449,8.295c3.26,0.448,4.671-4.543,1.377-4.996
					c-43.286-5.946-86.546-0.988-130.224-5.606c-44.609-4.716-86.651-4.673-131.378-2.374c-90.223,4.639-181.812-13.484-271.1,2.024
					C990.885,511.517,992.275,516.511,995.541,515.944L995.541,515.944z"/>
			</g>
		</g>
		<g>
			<g>
				<path style="fill:#D78A6C;" d="M1007.186,605.337c44.035-5.656,85.998-1.248,129.984,1.742
					c43.201,2.936,85.173-3.36,128.193-2.939c81.656,0.8,162.53,2.5,244.302,0.135c3.326-0.096,3.34-5.277,0-5.181
					c-81.768,2.366-162.622,1.205-244.302-0.135c-43.145-0.707-84.823,5.738-128.193,2.939c-44.024-2.841-85.853-7.41-129.984-1.742
					C1003.925,600.576,1003.883,605.762,1007.186,605.337L1007.186,605.337z"/>
			</g>
		</g>
		<g>
			<g>
				<path style="fill:#D78A6C;" d="M1169.911,533.392c-6.498-1.197-12.963-1.487-19.483-0.198c-4.343,0.858-13.48,2.914-16.357,6.77
					c-5.292,7.094,6.701,9.778,11.425,10.295c9.157,1.003,32.525,3.01,38.861-6.422c6.802-10.126-14.152-11.412-19.263-11.751
					c-3.328-0.221-3.315,4.96,0,5.181c1.754,0.117,12.475,0.377,13.265,2.132c1.656,3.676-5.181,4.383-7.859,5.019
					c-6.544,1.552-13.506,1.402-20.168,1.012c-2.756-0.162-6.34,0.03-8.974-0.956c-5.712-2.141,0.839-3.458,4.575-4.734
					c7.39-2.523,14.981-2.755,22.601-1.351C1171.793,538.988,1173.19,533.996,1169.911,533.392L1169.911,533.392z"/>
			</g>
		</g>
		<g>
			<g>
				<path style="fill:#D78A6C;" d="M1481.803,561.234c-9.497-1.189-40.602-2.518-45.428,9.863
					c-3.248,8.333,12.558,10.967,17.502,11.901c8.617,1.627,17.718,1.478,26.433,0.904c8.201-0.541,24.859-1.13,31.169-6.601
					c4.834-4.192,4.515-6.648-1.977-9.895c-1.533-0.767-2.888,1.537-1.349,2.307c4.018,2.01-6.525,7.961-7.362,8.354
					c-4.268,2.006-10.649,2.242-15.206,2.728c-7.752,0.827-15.863,1.13-23.626,0.44c-7.514-0.668-11.437-0.618-16.044-6.872
					c-5.73-7.777,0.726-7.242,8.138-9.161c9.245-2.393,18.363-2.473,27.751-1.297
					C1483.505,564.119,1483.49,561.445,1481.803,561.234L1481.803,561.234z"/>
			</g>
		</g>
		<g>
			<g>
				<path style="fill:#D78A6C;" d="M1087.645,622.181c-9.497-1.189-40.602-2.518-45.428,9.863
					c-3.248,8.333,12.557,10.967,17.502,11.901c8.617,1.627,17.718,1.478,26.433,0.904c8.201-0.541,24.859-1.13,31.169-6.601
					c4.834-4.192,4.515-6.648-1.977-9.895c-1.533-0.767-2.888,1.537-1.348,2.307c4.018,2.01-6.525,7.961-7.362,8.354
					c-4.268,2.006-10.649,2.242-15.206,2.728c-7.752,0.827-15.863,1.13-23.626,0.44c-7.514-0.668-11.437-0.618-16.045-6.872
					c-5.73-7.777,0.726-7.242,8.138-9.161c9.245-2.393,18.363-2.473,27.751-1.297
					C1089.347,625.066,1089.331,622.392,1087.645,622.181L1087.645,622.181z"/>
			</g>
		</g>
		<g>
			<g>
				<path style="fill:#D78A6C;" d="M1236.737,535.681c2.101,0.792,4.094,1.729,5.957,2.979c3.549,2.382,4.909,3.711,5.573,7.942
					c0.643,4.094-0.214,5.403-3.177,8.093c-2.309,2.096-4.806,3.418-7.734,4.427c-3.133,1.08-1.787,6.086,1.377,4.995
					c6.952-2.396,16.559-8.88,16.326-17.29c-0.22-7.947-10.51-13.716-16.945-16.142
					C1234.991,529.508,1233.642,534.514,1236.737,535.681L1236.737,535.681z"/>
			</g>
		</g>
		<g>
			<g>
				<path style="fill:#D78A6C;" d="M1177.546,349.733c-21.82,1.591-43.756-2.128-65.511,0.312
					c-5.964,0.669-24.693,2.348-27.432,10.435c-7.265,21.446,57.597,18.716,67.468,17.83c2.797-0.251,2.823-4.652,0-4.398
					c-12.847,1.153-25.599,1.181-38.383-0.931c-4.117-0.68-12.664-0.847-15.55-3.579c-4.653-0.285-4.659-2.605-0.017-6.96
					c0.654-5.315,3.548-7.736,8.682-7.263c9.15-3.509,22.947-1.545,32.589-1.193c12.802,0.467,25.351,1.078,38.155,0.145
					C1180.353,353.926,1180.375,349.526,1177.546,349.733L1177.546,349.733z"/>
			</g>
		</g>
		<g>
			<g>
				<path style="fill:#D78A6C;" d="M1465.063,364.444c18.796,1.431,44.832-0.946,61.751,8.096c2.29,1.652,4.579,3.303,6.869,4.955
					c8.501,9.597,8.247,16.632-0.763,21.105c-6.792,5.684-12.167,5.819-20.597,6.421c-11.574,0.826-23.133,0.765-34.717,0.207
					c-3.333-0.161-3.324,5.02,0,5.181c17.066,0.823,72.326,7.849,66.455-24.308c-5.512-30.193-57.659-25.213-78.998-26.837
					C1461.738,359.01,1461.754,364.192,1465.063,364.444L1465.063,364.444z"/>
			</g>
		</g>
		<g>
			<g>
				<path style="fill:#D78A6C;" d="M1276.048,470.733c10.58-0.583,21.151-0.81,31.742-0.326c3.717,0.17,23.545-1.246,9.454,9.762
					c-2.428,1.897-12.645-0.245-15.516-0.301c-8.37-0.163-16.449,0.337-24.727,1.443c-3.818,0.763-7.674,1.271-11.569,1.521
					c-2.076-2.812-4.152-5.623-6.228-8.435c0.507-1.338,15.491-2.088,16.753-2.258c3.289-0.443,1.888-5.436-1.377-4.995
					c-7.108,0.958-31.337,0.433-23.893,14.034c2.709,4.949,9.667,6.602,14.745,6.834c12.998,0.595,26.171-3.095,39.399-2.88
					c5.825,0.095,38.628,3.145,31.637-13.261c-1.707-4.007-6.152-4.16-9.685-5.137c-15.332-4.24-35.041-2.047-50.734-1.182
					C1272.733,465.736,1272.711,470.918,1276.048,470.733L1276.048,470.733z"/>
			</g>
		</g>
		<g>
			<g>
				<path style="fill:#D78A6C;" d="M1319.837,461.559c9.103,0.681,24.097-1.593,32.213,2.14c1.776,0.441,3.552,0.882,5.328,1.322
					c1.68,7.955,3.36,15.909,5.039,23.864c-1.615,3.239-19.113,2.796-21.974,3.051c-18.574,1.654-37.265,1.138-55.88,0.67
					c-3.019-0.076-3.018,4.615,0,4.69c21.873,0.55,43.868,1.116,65.623-1.695c8.325-1.076,24.106-1.243,27.447-11.558
					c8.947-27.624-45.27-26.237-57.797-27.174C1316.827,456.644,1316.841,461.335,1319.837,461.559L1319.837,461.559z"/>
			</g>
		</g>
		<g>
			<path style="fill:#68A1BF;" d="M1564.188,673.627H991.735c-8.921,0-16.441-7.247-17.12-16.495l-22.463-306.442
				c-0.376-5.082,1.365-10.103,4.773-13.766c3.263-3.511,7.641-5.446,12.341-5.446h594.921c9.46,0,17.162,8.011,17.162,17.854
				v306.442C1581.35,665.615,1573.648,673.627,1564.188,673.627z M969.266,340.816c-2.074,0-4.027,0.873-5.5,2.462
				c-1.643,1.771-2.481,4.221-2.299,6.725l22.463,306.448c0.322,4.391,3.748,7.835,7.805,7.835h572.452
				c4.312,0,7.823-3.821,7.823-8.514V349.331c0-4.694-3.511-8.514-7.823-8.514H969.266z"/>
		</g>
		<g>
			<g>
				<path style="fill:#92A5E6;" d="M1491.918,468.961l-31.332,47.361l-28.762-19.033l-55.235-36.544l-46.355-30.669l-48.262-31.933
					c-2.777-1.844-2.435-6.03,0.611-7.388l26.369-11.801c6.082-2.725,13.034-2.59,18.982,0.332c0.3,0.145,0.59,0.3,0.881,0.456
					l45.713,25.001l53.069,29.032h0.01L1491.918,468.961z"/>
			</g>
			<g>
				<path style="fill:#B7CBFC;" d="M1330.233,430.075l-48.262-31.933c-2.777-1.844-2.435-6.03,0.611-7.388l26.369-11.801
					c6.082-2.725,13.034-2.59,18.982,0.332C1328.399,392.009,1329.373,412.617,1330.233,430.075z"/>
			</g>
			<g>
				<polygon style="fill:#B7CBFC;" points="1431.824,497.288 1376.589,460.744 1374.527,404.743 1427.596,433.774 1427.606,433.774 
									"/>
			</g>
			<g>
				<path style="fill:#DE9A85;" d="M1314.977,386.104c1.109-1.677,3.368-2.137,5.045-1.027c1.677,1.109,2.136,3.368,1.027,5.045
					c-1.109,1.677-3.368,2.137-5.044,1.027C1314.327,390.039,1313.868,387.78,1314.977,386.104z"/>
			</g>
			<g>
				<g>
					
						<rect x="1473.511" y="504.293" transform="matrix(0.4196 -0.9077 0.9077 0.4196 411.1875 1666.9297)" style="fill:#331832;" width="71.071" height="15.289"/>
				</g>
			</g>
			<g>
				<g>
					<path style="fill:#EF8062;" d="M1498.531,554.729l-39.518-26.148c-2.603-1.723-3.572-5.08-2.286-7.924l28.549-63.171
						c1.613-3.57,6.039-4.847,9.307-2.685l48.733,32.245c2.93,1.939,3.733,5.885,1.795,8.815v0c-1.939,2.93-5.885,3.733-8.815,1.795
						l-36.274-24.001c-3.267-2.162-7.693-0.885-9.307,2.685l-17.935,39.685c-1.285,2.845-0.317,6.202,2.287,7.924l30.484,20.17
						c2.93,1.939,3.733,5.885,1.795,8.815l0,0C1505.408,555.865,1501.461,556.668,1498.531,554.729z"/>
				</g>
			</g>
		</g>
		<g>
			<g>
				<path style="fill:#92A5E6;" d="M1152.994,566.306l-22.178,33.523l-20.359-13.472l-39.097-25.866l-32.812-21.708l-34.161-22.603
					c-1.965-1.305-1.723-4.268,0.433-5.229l18.665-8.353c4.305-1.929,9.226-1.833,13.436,0.235c0.213,0.103,0.418,0.213,0.623,0.323
					l32.357,17.697l37.564,20.55h0.007L1152.994,566.306z"/>
			</g>
			<g>
				<path style="fill:#B7CBFC;" d="M1038.549,538.782l-34.161-22.603c-1.965-1.305-1.723-4.268,0.433-5.229l18.665-8.353
					c4.305-1.929,9.226-1.833,13.436,0.235C1037.251,511.838,1037.94,526.425,1038.549,538.782z"/>
			</g>
			<g>
				<polygon style="fill:#B7CBFC;" points="1110.458,586.357 1071.361,560.491 1069.901,520.851 1107.465,541.401 1107.473,541.401 
									"/>
			</g>
			<g>
				<path style="fill:#DE9A85;" d="M1027.75,507.658c0.785-1.187,2.384-1.512,3.571-0.727c1.187,0.785,1.512,2.384,0.727,3.571
					c-0.785,1.187-2.384,1.512-3.571,0.727C1027.29,510.443,1026.965,508.845,1027.75,507.658z"/>
			</g>
			<g>
				<g>
					
						<rect x="1139.965" y="591.316" transform="matrix(0.4196 -0.9077 0.9077 0.4196 134.5993 1403.9528)" style="fill:#331832;" width="50.306" height="10.822"/>
				</g>
			</g>
			<g>
				<g>
					<path style="fill:#EF8062;" d="M1157.675,627.016l-27.972-18.508c-1.843-1.219-2.528-3.596-1.618-5.609l20.208-44.714
						c1.142-2.527,4.275-3.431,6.588-1.901l34.495,22.824c2.074,1.372,2.643,4.166,1.27,6.24l0,0
						c-1.372,2.074-4.166,2.643-6.24,1.27l-25.675-16.988c-2.313-1.53-5.446-0.626-6.588,1.901l-12.694,28.09
						c-0.91,2.013-0.224,4.39,1.618,5.609l21.578,14.277c2.074,1.372,2.642,4.166,1.27,6.24l0,0
						C1162.542,627.819,1159.749,628.388,1157.675,627.016z"/>
				</g>
			</g>
		</g>
		<g>
			<g>
				<path style="fill:#366F90;" d="M1036.216,440.828l-28.44-43.96c0,0-10.299,0.716-15.301-9.642
					c-5.002-10.358,3.33-8.314,7.487-4.843c4.157,3.47,9.38,1.366,9.785-2.932c0.405-4.298-2.906-11.714,2.784-11.784
					c5.689-0.07,11.651,12.428,5.23,22.53l27.737,42.873c0,0,23.998-3.065,24.078,18.124c0,0-4.613,6.383-7.651,0.702
					c-3.038-5.681-8.137-12.577-15.087-7.232c-6.949,5.346-7.029,7.521-4.713,11.757c2.316,4.236,8.313,7.597,4.561,10.333
					c-3.752,2.737-7.75,2.137-11.326-4.045C1031.786,456.525,1030.877,444.833,1036.216,440.828z"/>
			</g>
			<g>
				<path style="fill:#366F90;" d="M1089.837,444.108l-25.338-34.81c0,0-8.424,1.053-12.999-7.226
					c-4.575-8.279,2.358-6.977,5.928-4.315s7.763,0.698,7.902-2.85c0.139-3.547-2.915-9.487,1.753-9.801
					c4.669-0.315,10.128,9.678,5.312,18.262l24.711,33.949c0,0,19.566-3.601,20.589,13.793c0,0-3.499,5.449-6.25,0.922
					c-2.751-4.527-7.249-9.96-12.714-5.256c-5.465,4.703-5.431,6.493-3.338,9.867s7.169,5.862,4.212,8.279
					c-2.957,2.417-6.267,2.105-9.482-2.81C1086.909,457.197,1085.634,447.637,1089.837,444.108z"/>
			</g>
			<g>
				<path style="fill:#366F90;" d="M1147.792,442.771l-26.852-29.828c0,0-7.708,1.789-12.749-5.444
					c-5.041-7.234,1.513-6.696,5.08-4.573c3.567,2.123,7.265-0.103,7.051-3.405c-0.214-3.302-3.618-8.514,0.68-9.257
					c4.298-0.742,10.324,7.995,6.688,16.419l26.188,29.09c0,0,17.793-5.227,20.421,10.8c0,0-2.718,5.39-5.706,1.458
					c-2.988-3.932-7.683-8.534-12.295-3.646c-4.612,4.888-4.409,6.544-2.143,9.47c2.266,2.926,7.213,4.743,4.704,7.269
					c-2.508,2.526-5.607,2.557-9.063-1.69C1146.34,455.189,1144.236,446.449,1147.792,442.771z"/>
			</g>
			<g>
				<path style="fill:#366F90;" d="M1204.534,445.922l-23.142-25.706c0,0-6.57,1.476-10.926-4.748
					c-4.356-6.224,1.244-5.717,4.305-3.876c3.061,1.842,6.203-0.036,5.997-2.863c-0.206-2.826-3.15-7.309,0.514-7.913
					c3.665-0.604,8.873,6.913,5.828,14.093l22.57,25.071c0,0,15.156-4.345,17.514,9.384c0,0-2.283,4.591-4.862,1.207
					c-2.579-3.385-6.621-7.355-10.525-3.206c-3.904,4.149-3.719,5.567-1.762,8.086c1.956,2.519,6.193,4.108,4.069,6.251
					c-2.124,2.143-4.77,2.147-7.751-1.51C1203.383,456.534,1201.523,449.042,1204.534,445.922z"/>
			</g>
			<g>
				<path style="fill:#366F90;" d="M1252.817,447.405l-19.613-21.787c0,0-5.568,1.251-9.26-4.024
					c-3.692-5.275,1.055-4.846,3.649-3.285c2.594,1.561,5.257-0.031,5.083-2.426c-0.175-2.395-2.67-6.195,0.436-6.707
					s7.52,5.859,4.939,11.944l19.129,21.248c0,0,12.846-3.682,14.844,7.953c0,0-1.935,3.891-4.121,1.023
					c-2.186-2.868-5.612-6.233-8.92-2.717c-3.309,3.516-3.151,4.718-1.494,6.853c1.658,2.135,5.249,3.482,3.448,5.298
					c-1.8,1.816-4.043,1.82-6.569-1.28C1251.842,456.399,1250.266,450.05,1252.817,447.405z"/>
			</g>
		</g>
		<g>
			<g>
				<path style="fill:#080435;" d="M1243.331,588.19L1243.331,588.19c-0.839,0.524-1.954,0.267-2.479-0.571l-37.686-60.268
					c-0.524-0.839-0.267-1.954,0.571-2.479l0,0c0.839-0.524,1.954-0.267,2.479,0.571l37.686,60.268
					C1244.427,586.551,1244.17,587.666,1243.331,588.19z"/>
			</g>
			<g>
				<path style="fill:#EF8062;" d="M1279.714,646.213l-0.146,0.091c-4.649,2.907-10.832,1.482-13.739-3.167l-35.004-55.98
					c-2.907-4.649-1.482-10.832,3.167-13.74l0.145-0.091c4.649-2.907,10.832-1.482,13.739,3.167l35.004,55.98
					C1285.788,637.123,1284.363,643.306,1279.714,646.213z"/>
			</g>
		</g>
		<g>
			<g>
				<path style="fill:#331832;" d="M1474.572,385.172L1474.572,385.172c0.054,0.581-0.377,1.1-0.958,1.153l-41.718,3.865
					c-0.581,0.054-1.1-0.377-1.153-0.958l0,0c-0.054-0.581,0.377-1.1,0.958-1.153l41.718-3.865
					C1473.999,384.161,1474.518,384.592,1474.572,385.172z"/>
			</g>
			<g>
				<path style="fill:#EF8062;" d="M1514.762,381.399l0.009,0.101c0.298,3.218-2.091,6.095-5.309,6.394l-38.75,3.59
					c-3.218,0.298-6.095-2.091-6.394-5.31l-0.009-0.1c-0.298-3.218,2.091-6.096,5.309-6.394l38.75-3.59
					C1511.587,375.791,1514.464,378.18,1514.762,381.399z"/>
			</g>
			<g>
				<path style="fill:#331832;" d="M1403.175,389.118c0.601,0,42.823-5.332,42.823-5.332l8.289,3.417l-7.512,5.542l-43.599,3.367
					V389.118z"/>
			</g>
		</g>
		<g>
			<g>
				<path style="fill:#080435;" d="M1351.742,588.19L1351.742,588.19c-0.839,0.524-1.954,0.267-2.478-0.571l-37.686-60.268
					c-0.524-0.839-0.267-1.954,0.571-2.479l0,0c0.839-0.524,1.954-0.267,2.478,0.571l37.686,60.268
					C1352.838,586.551,1352.58,587.666,1351.742,588.19z"/>
			</g>
			<g>
				<path style="fill:#EF8062;" d="M1388.125,646.213l-0.145,0.091c-4.649,2.907-10.832,1.482-13.74-3.167l-35.004-55.979
					c-2.907-4.649-1.482-10.832,3.167-13.739l0.145-0.091c4.649-2.907,10.832-1.482,13.739,3.167l35.004,55.98
					C1394.199,637.123,1392.774,643.306,1388.125,646.213z"/>
			</g>
			<g>
				<path style="fill:#080435;" d="M1298.98,526.117c3.488,4.401,12.731,15.82,15.064,18.7c0.344,0.424,0.857,0.667,1.403,0.667
					l10.861,5.424c0.794,0,6.997,2.772,3.014-1.965l-1.883-11.562c0.17-0.551,0.066-1.15-0.278-1.613l-13.542-18.193
					c-0.536-0.72-1.52-0.939-2.31-0.513l-11.766,6.34C1298.551,523.937,1298.28,525.234,1298.98,526.117z"/>
			</g>
		</g>
		<g>
			<g>
				<path style="fill:#331832;" d="M1394.607,530.115c0,0-17.096,10.222-16.837,13.661c0.259,3.44-8.289,3.44-8.289,6.548
					c0,3.108,4.144,8.807,7.253,8.548c3.108-0.259,3.885-6.476,6.994-5.958c3.108,0.518,9.843-7.509,12.951-8.417
					c3.108-0.908,13.988-6.866,25.385-3.758l2.331-3.108C1424.395,537.633,1408.594,526.743,1394.607,530.115z"/>
			</g>
			<g>
				<polygon style="fill:#331832;" points="1388.39,544.174 1439.505,616.636 1444.34,611.11 1392.535,539.464 				"/>
			</g>
			<g>
				<path style="fill:#EF8062;" d="M1454.377,628.642l-0.501,0.378c-2.441,1.84-5.943,1.348-7.783-1.094l-27.516-36.513
					c-1.84-2.441-1.348-5.944,1.094-7.783l0.501-0.378c2.441-1.84,5.943-1.347,7.783,1.094l27.516,36.513
					C1457.31,623.3,1456.818,626.803,1454.377,628.642z"/>
			</g>
		</g>
		<g>
			<g>
				<path style="fill:#080435;" d="M1283.307,572.152L1283.307,572.152c-0.607,0.379-1.414,0.193-1.793-0.413l-27.262-43.599
					c-0.379-0.607-0.193-1.414,0.413-1.793l0,0c0.607-0.379,1.414-0.193,1.793,0.413l27.262,43.599
					C1284.1,570.966,1283.914,571.772,1283.307,572.152z"/>
			</g>
			<g>
				<path style="fill:#EF8062;" d="M1309.627,614.126l-0.105,0.066c-3.364,2.103-7.836,1.072-9.939-2.292l-25.322-40.496
					c-2.103-3.363-1.072-7.836,2.291-9.939l0.105-0.066c3.363-2.103,7.836-1.072,9.939,2.291l25.323,40.497
					C1314.021,607.551,1312.99,612.023,1309.627,614.126z"/>
			</g>
		</g>
	</g>
	<g>
		<g>
			<g>
				<polygon style="fill:#CE7960;" points="2208.885,1430.41 2105.312,1441.712 2026.426,824.14 2129.999,812.838 				"/>
			</g>
			<g>
				<polygon style="fill:#CA7F67;" points="2193.625,1432.016 2090.053,1443.318 2011.167,825.747 2114.74,814.444 				"/>
			</g>
			<g>
				<g>
					<path style="fill:#C47055;" d="M2045.261,910.332c-3.118-17.751-7.323-32.318,3.183-49.209
						c1.325-2.13,15.067-17.151,17.429-17.679c14.693-3.285,21.298,8.757,22.944,20.488c1.713,12.206-0.71,24.134-1.949,36.276
						c-0.443,4.341,0.969,12.691-1.02,16.567c-10.717,6.163-21.434,12.326-32.15,18.488c-5.641-7.255-8.21-15.411-7.706-24.47
						c-0.186-2.911-4.742-2.932-4.555,0c1.151,18.014,10.305,40.089,32.607,33.153c9.816-3.053,14.207-10.936,15.859-20.558
						c2.717-15.826,4.211-34.888,4.173-50.903c-0.032-13.593-6.783-45.519-26.751-36.247c-6.104,2.835-11.649,11.064-16.29,15.771
						c-4.531,4.595-13.624,10.988-15.899,17.554c-3.892,11.233,3.775,30.821,5.735,41.979
						C2041.376,914.425,2045.766,913.204,2045.261,910.332L2045.261,910.332z"/>
				</g>
			</g>
			<g>
				<g>
					<path style="fill:#C47055;" d="M2053.511,876.852c-0.804,6.385-0.448,12.622,0.475,18.978
						c0.615,4.232,0.636,10.486,3.66,13.893c4.71,5.307,12.85,1.036,14.172-4.96c1.133-5.139-0.776-11.486-1.505-16.563
						c-0.614-4.276-0.491-10.281-3.765-13.623c-3.944-4.027-11.954-1.81-11.035,4.281c0.436,2.889,4.825,1.661,4.392-1.211
						c2.665-0.558,4.128,0.176,4.388,2.203c0.354,0.903,0.573,1.838,0.658,2.806c0.44,2.222,0.648,4.513,0.969,6.754
						c0.323,2.251,0.655,4.502,0.969,6.754c0.365,1.722,0.57,3.458,0.613,5.209c0.472,3.17-1.974,4.303-7.337,3.399
						c-1.855-1.992-1.912-10.669-2.187-13.218c-0.533-4.938-0.534-9.774,0.086-14.703
						C2058.431,873.951,2053.873,873.978,2053.511,876.852L2053.511,876.852z"/>
				</g>
			</g>
			<g>
				<g>
					<path style="fill:#C47055;" d="M2037.759,950.742c6.643,9.447,10.794,21.782,22.687,25.892
						c10.387,3.589,21.719-1.033,30.854-5.942c8.863-4.763,13.764-9.333,15.909-19.295c2.913-13.531,10.124-24.87,6.835-38.959
						c-0.666-2.853-5.059-1.646-4.392,1.211c2.412,10.332-1.998,16.984-4.888,26.596c-3.044,10.124-1.124,16.8-12.078,24.458
						c-2.434,1.702-5.453,3.085-8.15,4.301c-6.859,3.093-18.967,5.708-25.914,1.855c-7.949-4.408-11.881-15.237-16.93-22.417
						C2040.019,946.063,2036.068,948.337,2037.759,950.742L2037.759,950.742z"/>
				</g>
			</g>
			<g>
				<g>
					<path style="fill:#C47055;" d="M2067.613,1136.244c3.513-26.273-7.104-49.711-5.928-76.033c1.33-8.347,2.66-16.693,3.99-25.04
						c-0.069-18.196,8.594-19.284,25.988-3.265c26.319,2.694,34.306,18.03,23.961,46.006c-1.434,5.641-2.563,11.339-3.389,17.095
						c-2.098,16.055,0.121,29.926,4.1,45.68c2.117,8.379,14.373,31.769,10.91,38.412c-16.311,6.045-32.622,12.091-48.933,18.137
						c-4.869-13.143-7.663-26.763-8.384-40.862c-0.228-2.903-4.785-2.927-4.555,0c1.898,24.169,16.155,92.809,55.498,63.154
						c10.526-7.934,12.361-18.929,12.275-31.289c-0.117-16.764-8.87-32.7-12.42-48.761c-5.587-25.28-0.313-47.16,1.013-71.79
						c1.087-20.18-13.471-85.257-47.814-63.015c-35.229,22.816-6.941,102.202-10.868,131.572
						C2062.672,1139.14,2067.23,1139.111,2067.613,1136.244L2067.613,1136.244z"/>
				</g>
			</g>
			<g>
				<g>
					<path style="fill:#C47055;" d="M2075.21,1061.219c-4.012,14.748,5.934,26.089,6.25,40.916
						c0.348,16.286-1.166,30.077,3.835,46.038c2.307,7.365,8.378,25.034,15.444,11.907c7.372-13.695,1.647-41.313,0.501-55.976
						c-0.931-11.918-0.658-30.618-7.607-40.731c-5.351-7.788-18.827-9.851-17.161,2.513c0.39,2.891,4.779,1.66,4.392-1.211
						c7.966,0.167,11.964,3.878,11.992,11.131c0.493,2.382,0.985,4.764,1.478,7.146c1.722,9.37,2.225,18.945,2.825,28.438
						c0.505,7.998,1.108,16.055,1.012,24.077c-0.098,8.124,2.849,33.75-6.148,17.545c-7.816-14.081-7.014-32.619-6.277-48.035
						c0.682-14.272-9.883-28.807-6.145-42.546C2080.372,1059.598,2075.979,1058.389,2075.21,1061.219L2075.21,1061.219z"/>
				</g>
			</g>
			<g>
				<g>
					<path style="fill:#C47055;" d="M2074.913,1250.705c6.137,7.936,13.871,23.997,23.401,28.104
						c6.445,2.777,17.873-1.017,24.064-2.061c24.631-4.154,31.296-19.928,35.67-43.535c0.531-2.865-3.858-4.094-4.392-1.211
						c-1.288,6.952-2.906,13.799-5.494,20.4c-4.809,12.268-14.542,17.854-26.996,19.954c-9.252,1.56-18.868,2.73-26.417-3.386
						c-6.342-5.139-11.628-15.036-16.616-21.485C2076.344,1245.169,2073.141,1248.413,2074.913,1250.705L2074.913,1250.705z"/>
				</g>
			</g>
			<g>
				<g>
					<path style="fill:#C47055;" d="M2078.883,1298.03c13.025,17.965,24.307,36.862,33.614,57.016
						c4.906,10.625,8.798,18.665,21.62,18.886c33.229,0.573,34.644-42.023,36.619-65.767c0.243-2.921-4.313-2.905-4.554,0
						c-1.066,12.814-1.867,26.199-5.576,38.577c-5.796,19.34-31.332,34.331-42.973,8.725c-9.611-21.142-21.181-40.93-34.816-59.737
						C2081.111,1293.38,2077.158,1295.651,2078.883,1298.03L2078.883,1298.03z"/>
				</g>
			</g>
		</g>
		<g>
			<g>
				
					<rect x="2146.645" y="780.523" transform="matrix(0.9823 0.1872 -0.1872 0.9823 246.6599 -390.9587)" style="fill:#CE7960;" width="93.089" height="659.786"/>
			</g>
			<g>
				
					<rect x="2133.191" y="777.896" transform="matrix(0.9823 0.1872 -0.1872 0.9823 245.9286 -388.4845)" style="fill:#D78A6C;" width="93.089" height="659.786"/>
			</g>
			<g>
				<g>
					<path style="fill:#C47055;" d="M2198.719,870.871c2.186-14.582,1.677-31.903,11.718-42.857
						c4.612-5.031,12.571-13.791,19.831-15.612c6.008-7.046,10.611-5.541,13.807,4.514c8.276,5.949,9.898,13.669,4.868,23.159
						c-2.945,12.209-9.026,23.389-13.484,35.066c-1.317,3.449-5.521,19.443-7.829,21.337c-10.418-2.313-20.836-4.625-31.254-6.938
						c0.171-6.355,1.15-12.567,2.937-18.634c0.682-2.769-3.591-3.951-4.274-1.178c-3.763,15.267-5.469,44.295,18.609,42.593
						c8.42-0.595,14.076-6.635,17.808-13.606c7.655-14.296,12.754-31.484,18.269-46.714c3.98-10.993,14.427-54.096-9.426-50.549
						c-9.243,1.374-29.244,15.493-35.457,22.675c-9.308,10.759-8.33,31.769-10.398,45.566
						C2194.027,872.483,2198.297,873.687,2198.719,870.871L2198.719,870.871z"/>
				</g>
			</g>
			<g>
				<g>
					<path style="fill:#C47055;" d="M2215.988,838.154c-2.438,5.712-4.118,11.547-5.266,17.657
						c-0.866,4.61-2.562,10.31-1.955,15.046c0.982,7.658,9.744,7.745,13.63,2.259c3.129-4.418,3.256-11.099,4.173-16.273
						c0.841-4.752,3.148-11.09,1.578-15.906c-1.721-5.28-10.121-6.516-11.183-0.297c-0.477,2.79,3.794,3.989,4.274,1.178
						c2.236,1.974,3.021,4.149,2.354,6.525c-0.216,1.22-0.432,2.44-0.648,3.661c-0.36,2.034-0.72,4.068-1.08,6.101
						c-0.36,2.032-0.677,4.077-1.08,6.101c-0.158,1.098-0.392,2.178-0.7,3.241c-0.388,2.834-2.692,3.286-6.912,1.355
						c-1.104-2.378,1.514-10.321,2.045-12.991c1.054-5.3,2.474-10.44,4.6-15.421
						C2220.923,837.797,2217.106,835.536,2215.988,838.154L2215.988,838.154z"/>
				</g>
			</g>
			<g>
				<g>
					<path style="fill:#C47055;" d="M2179.685,909.129c2.584,10.831,1.964,25.069,11.631,32.673
						c7.92,6.23,18.964,4.693,28.014,2.336c9.811-2.555,15.007-6.216,19.574-15.289c6.493-12.899,16.138-22.384,17.656-37.249
						c0.29-2.835-4.145-2.815-4.432,0c-1.086,10.631-6.353,16.248-11.768,24.602c-5.919,9.133-6.26,17.824-18.445,22.606
						c-2.36,0.926-5.114,1.466-7.597,1.955c-10.038,1.98-13.228,1.549-20.289-5.746c-8.278-8.552-7.445-16.06-10.071-27.066
						C2183.297,905.177,2179.022,906.352,2179.685,909.129L2179.685,909.129z"/>
				</g>
			</g>
			<g>
				<g>
					<path style="fill:#C47055;" d="M2147.905,1106.036c9.381-21.708,8.993-43.585,14.689-66.224
						c2.5-9.937,11.131-46.381,21.622-49.436c56.312-16.401,25.868,60.559,19.438,74.961c-7.787,17.439-13.274,32.06-15.266,51.372
						c-1.5,14.541,1.695,33.368-3.505,47.119c1.127,23.58-14.38,25.762-46.522,6.547c-0.076-14.805,1.765-29.41,5.524-43.813
						c0.648-2.775-3.625-3.959-4.274-1.178c-4.402,18.857-17.284,98.509,28.071,79.283c11.667-4.946,16.494-16.326,19.942-27.531
						c3.845-12.498,2.864-26.688,3.897-39.473c2.307-28.542,8.604-49.165,18.761-75.513c7.051-18.29,27.664-78.814-4.917-87.682
						c-45.081-12.27-52.568,109.153-61.288,129.331C2142.958,1106.39,2146.776,1108.65,2147.905,1106.036L2147.905,1106.036z"/>
				</g>
			</g>
			<g>
				<g>
					<path style="fill:#C47055;" d="M2177.285,1031.716c-4.33,7.527-4.865,13.122-4.955,21.83
						c-0.161,15.555-5.725,27.602-9.456,42.39c-2.635,10.446-9.941,37.775-0.815,46.109c0.558,0.51,1.401,0.838,2.156,0.57
						c8.119-2.88,10.546-17.41,12.888-24.623c6.558-20.2,12.197-41.739,14.697-62.846c0.749-6.326,3.823-20.443-3.907-24.716
						c-5.78-3.196-9.763-0.085-10.825,5.672c-0.515,2.788,3.756,3.984,4.274,1.178c6.776,2.81,8.942,7.489,6.5,14.038
						c-0.726,4.894-1.453,9.788-2.179,14.682c-1.399,7.613-3.329,15.128-5.182,22.641c-1.748,7.084-3.475,14.191-5.535,21.194
						c-1.333,4.674-2.819,9.299-4.461,13.874c-3.148,14.414-5.216,17.39-6.206,8.927c-6.152-15.108,3.847-39.193,8.895-53.772
						c4.96-14.328,0.382-31.773,7.939-44.911C2182.537,1031.476,2178.708,1029.241,2177.285,1031.716L2177.285,1031.716z"/>
				</g>
			</g>
			<g>
				<g>
					<path style="fill:#C47055;" d="M2118.543,1223.039c2.079,7.338,4.157,14.676,6.236,22.014
						c1.135,4.007,1.742,9.925,4.909,13.045c4.472,4.407,13.807,4.019,19.637,4.746c9.498,1.183,18.678,1.852,26.462-4.615
						c8.701-7.229,14.5-19.321,19.261-29.25c1.228-2.56-2.593-4.811-3.827-2.237c-2.994,6.245-6.261,12.292-10.19,18.002
						c-8.273,12.026-16.408,15.523-31.121,13.716c-9.885-1.214-15.983-1.873-20.164-12.138c-3.135-7.697-4.663-16.462-6.929-24.46
						C2122.041,1219.121,2117.763,1220.286,2118.543,1223.039L2118.543,1223.039z"/>
				</g>
			</g>
			<g>
				<g>
					<path style="fill:#C47055;" d="M2107.475,1272.693c6.278,24.933,8.099,49.605,11.398,74.963
						c1.172,9.009,4.761,15.504,14.173,17.883c29.396,7.432,42.083-37.273,49.621-56.97c1.021-2.666-3.263-3.82-4.274-1.178
						c-4.559,11.912-9.101,24.111-15.382,35.245c-3.388,6.005-8.168,13.629-14.8,16.811c-17.078,8.192-22.715-8.218-25.464-20.724
						c-4.861-22.105-5.398-44.967-10.998-67.208C2111.052,1268.75,2106.777,1269.922,2107.475,1272.693L2107.475,1272.693z"/>
				</g>
			</g>
		</g>
		<g>
			<g>
				<polygon style="fill:#CE7960;" points="2189.928,1437.475 2096.893,1435.776 2096.84,879.739 2189.874,881.437 				"/>
			</g>
			<g>
				<polygon style="fill:#EC987E;" points="2176.229,1437.172 2083.194,1435.474 2083.14,879.437 2176.175,881.135 				"/>
			</g>
			<g>
				<g>
					<path style="fill:#C47055;" d="M2103.8,958.516c-0.531-11.308-5.031-29.663,2.745-39.13
						c2.506-3.051,10.502-9.021,13.952-10.953c4.222-5.41,9.375-5.414,15.458-0.015c9.958-0.287,13.927,4.248,11.907,13.607
						c0.219,13.777-5.444,27.525-7.983,40.964c-0.809,4.28-0.993,8.64-2.783,12.693c-2.856,12.713-13.57,12.259-32.14-1.36
						c-0.988-5.277-1.176-10.564-0.564-15.86c0.165-2.614-3.903-2.604-4.068,0c-1.025,16.202,6.167,39.257,27.666,32.359
						c7.685-2.466,11.473-8.403,13.779-15.816c4.105-13.195,7.128-28.755,9.204-42.416c1.803-11.862,0.43-43.894-19.256-37.493
						c-8.286,2.694-28.097,18.154-32.123,25.672c-4.722,8.819-0.321,27.943,0.14,37.748
						C2099.854,961.122,2103.923,961.137,2103.8,958.516L2103.8,958.516z"/>
				</g>
			</g>
			<g>
				<g>
					<path style="fill:#C47055;" d="M2114.931,929.217c-1.433,5.561-1.893,11.121-1.801,16.862c0.06,3.772-0.52,8.888,1.354,12.353
						c3.106,5.744,11.241,3.52,13.365-1.872c1.747-4.434,0.72-10.19,0.648-14.818c-0.061-3.883,0.717-9.142-1.667-12.565
						c-2.716-3.898-10.555-3.554-10.428,2.039c0.059,2.614,4.127,2.623,4.068,0c2.662,0.538,3.941,1.779,3.837,3.723
						c0.046,1.048,0.068,2.097,0.066,3.147c0.03,1.625,0.051,3.25,0.076,4.875c0.048,3.052,0.759,19.025-5.119,12.773
						c-4.778-5.083-2.096-19.15-0.477-25.434C2119.507,927.762,2115.584,926.68,2114.931,929.217L2114.931,929.217z"/>
				</g>
			</g>
			<g>
				<g>
					<path style="fill:#C47055;" d="M2092.68,993.41c4.662,9.147,7.349,20.811,17.512,25.519c9.591,4.444,21.771,0.774,30.791-3.337
						c7.283-3.319,10.275-6.72,13.047-13.96c4.275-11.161,11.743-21.053,10.467-33.473c-0.265-2.579-4.335-2.606-4.068,0
						c0.939,9.138-3.458,15.173-7.197,23.055c-3.285,6.926-3.007,13.809-10.471,19.026c-4.889,3.417-17.423,7.737-23.312,6.6
						c-14.34-2.768-17.696-14.572-23.257-25.483C2095.003,989.024,2091.493,991.08,2092.68,993.41L2092.68,993.41z"/>
				</g>
			</g>
			<g>
				<g>
					<path style="fill:#C47055;" d="M2097.98,1161.177c4.709-17.711,1.686-33.331,2.036-51.443
						c0.172-8.882-0.161-31.76,7.815-38.845c50.828-45.151,42.813,30.107,39.249,44.001c-4.479,17.461-8.123,29.447-7.336,48.132
						c0.418,9.918,9.293,38.543,6.255,42.293c-15.145,3.523-30.289,7.047-45.434,10.57c-3.199-12.285-4.111-24.67-2.738-37.153
						c0.127-2.617-3.941-2.61-4.068,0c-1.039,21.366,3.779,84.347,42.272,61.851c10.15-5.932,12.791-15.238,14.202-25.928
						c1.648-12.484-2.9-25.807-4.419-38.099c-3.45-27.912,3.366-44.685,8.01-70.521c3.255-18.107,1.146-65.194-28.061-62.698
						c-41.008,3.505-25.632,93.91-31.706,116.759C2093.385,1162.628,2097.307,1163.709,2097.98,1161.177L2097.98,1161.177z"/>
				</g>
			</g>
			<g>
				<g>
					<path style="fill:#C47055;" d="M2113.166,1095.531c-5.563,13.437,2.315,27.182-0.066,41.401
						c-2.336,13.945-3.258,27.981,0.363,41.849c2.746,10.519,7.309,14.848,12.145,3.76c5.06-11.603,4.684-27.74,5.467-40.068
						c0.78-12.268,4.074-31.262-1.656-42.939c-3.595-7.327-15.675-11.416-15.596-0.258c0.019,2.617,4.086,2.622,4.068,0
						c8.915,1.966,12.19,7.679,9.827,17.138c0.047,2.171,0.093,4.342,0.14,6.513c0.045,6.508-0.435,13.055-0.849,19.545
						c-0.492,7.703,0.181,40.711-9.622,35.227c-3.603-2.016-2.48-23.039-2.23-26.7c0.426-6.235,2.507-12.336,3.058-18.501
						c1.038-11.605-5.656-24.942-1.124-35.887C2118.089,1094.196,2114.155,1093.143,2113.166,1095.531L2113.166,1095.531z"/>
				</g>
			</g>
			<g>
				<g>
					<path style="fill:#C47055;" d="M2091.414,1262.904c4.56,7.758,9.571,22.765,17.504,27.588c5.609,3.41,15.822,1.345,21.852,1.07
						c22.396-1.021,30.005-14.501,36.505-34.78c0.801-2.499-3.125-3.568-3.923-1.081c-2.245,7.003-4.755,15.181-9.35,21.121
						c-8.59,11.105-17.724,10.543-29.655,10.842c-9.002,0.225-12.755-1.059-18.496-8.223c-4.321-5.392-7.419-12.624-10.925-18.589
						C2093.601,1258.596,2090.083,1260.64,2091.414,1262.904L2091.414,1262.904z"/>
				</g>
			</g>
			<g>
				<g>
					<path style="fill:#C47055;" d="M2089.842,1305.728c10.393,19.009,17.423,38.609,24.642,58.919
						c2.935,8.256,6.744,13.255,16.038,14.465c28.917,3.765,35.04-33.616,39.375-53.965c0.544-2.553-3.376-3.644-3.922-1.081
						c-2.323,10.903-4.683,22.229-8.96,32.568c-6.757,16.335-28.164,28.611-38.609,6.932c-4.528-9.397-6.563-20.493-10.624-30.208
						c-4.252-10.17-9.141-20.012-14.428-29.682C2092.098,1301.377,2088.584,1303.428,2089.842,1305.728L2089.842,1305.728z"/>
				</g>
			</g>
		</g>
		<g>
			<path style="fill:#68A1BF;" d="M2224.692,1462.251h-134.463c-11.449,0-20.99-8.772-21.948-20.181l-19.468-231.827
				c-1.079-12.846,9.057-23.868,21.947-23.868h167.248c12.66,0,22.714,10.648,21.988,23.288l-13.316,231.827
				C2246.011,1453.144,2236.366,1462.251,2224.692,1462.251z"/>
		</g>
	</g>
	<g>
		<g>
			<path style="fill:#68A1BF;" d="M1339.749,1485.248h-221.792c-11.552,0-21.09-9.029-21.723-20.563l-15.712-286.152
				c-0.684-12.465,9.239-22.949,21.723-22.949h249.971c12.387,0,22.275,10.328,21.735,22.703l-12.467,286.152
				C1360.977,1476.075,1351.396,1485.248,1339.749,1485.248z"/>
		</g>
		<g>
			<g>
				<path style="fill:#331832;" d="M1319.488,1467.097h-181.854c-9.982,0-18.224-8.211-18.77-18.703l-12.887-247.611
					c-0.285-5.604,1.71-11.098,5.482-15.064c3.548-3.736,8.266-5.798,13.287-5.798h204.966c4.985,0,9.685,2.032,13.221,5.725
					c3.766,3.918,5.792,9.357,5.561,14.918l-10.225,247.599C1337.827,1458.777,1329.579,1467.097,1319.488,1467.097z
					 M1124.746,1181.838c-4.494,0-8.721,1.844-11.904,5.197c-3.408,3.59-5.216,8.569-4.949,13.651l12.887,247.611
					c0.485,9.473,7.89,16.884,16.853,16.884h181.854c9.06,0,16.471-7.508,16.865-17.09l10.225-247.599
					c0.212-5.046-1.619-9.976-5.021-13.524c-3.178-3.311-7.387-5.131-11.844-5.131H1124.746z"/>
			</g>
			<g>
				<path style="fill:#331832;" d="M1230.941,1466.163c-0.018-0.716-1.953-72.13-3.493-142.781
					c-3.117-143.606-1.704-144.164-0.57-144.613l0.703,1.783l-0.352-0.891l0.794,0.485c-2.171,5.895,2.214,189.629,4.833,285.969
					L1230.941,1466.163z"/>
			</g>
		</g>
		<g>
			<path style="fill:#331832;" d="M1205.967,1327.495c0-2.538,2.057-4.595,4.595-4.595c2.538,0,4.595,2.057,4.595,4.595
				c0,2.538-2.057,4.595-4.595,4.595C1208.024,1332.09,1205.967,1330.033,1205.967,1327.495z"/>
		</g>
		<g>
			<path style="fill:#331832;" d="M1242.44,1327.495c0-2.538,2.057-4.595,4.595-4.595c2.538,0,4.595,2.057,4.595,4.595
				c0,2.538-2.057,4.595-4.595,4.595C1244.498,1332.09,1242.44,1330.033,1242.44,1327.495z"/>
		</g>
	</g>
	<g>
		<g>
			<path style="fill:#FFB27D;" d="M844.415,995.897c0,0-38.403,26.334-67.725,41.094l21.126,29.956c0,0,63.105-32.108,73.127-51.68
				c3.422-6.684-3.307-29.854-3.307-29.854l-7.151-7.71L844.415,995.897z"/>
		</g>
		<g>
			<path style="fill:#FFB27D;" d="M713.892,1002.806c0,0,42.592,57.657,78.437,32.329l16.632,12.982
				c0,0-29.596,63.593-93.283,23.171C651.99,1030.867,713.892,1002.806,713.892,1002.806z"/>
		</g>
		<g>
			<path style="fill:#331832;" d="M759.888,1454.16c0,0-0.271,11.91,8.133,15.689c8.404,3.779,33.085,8.035,23.428,15.224
				c-5.541,4.125-30.491,0.048-37.575-0.302c-7.084-0.351-13.879,2.22-18.923-2.494c-5.549-5.185,1.449-29.279,1.449-29.279
				s5.965,3.293,11.469,3.431C755.801,1456.627,759.888,1454.16,759.888,1454.16z"/>
		</g>
		<g>
			<path style="fill:#331832;" d="M661.669,1456.236c0,0,0.451,11.905,9.068,15.168c8.617,3.263,33.511,6.017,24.307,13.777
				c-5.281,4.453-30.433,1.894-37.524,1.973c-7.093,0.079-13.719,3.056-19.039-1.343c-5.853-4.84-0.326-29.313-0.326-29.313
				s6.153,2.926,11.656,2.73C657.739,1458.947,661.669,1456.236,661.669,1456.236z"/>
		</g>
		<g>
			<path style="fill:#331832;" d="M615.04,1202.737c0.786,6.378,35.642,5.453,78.289-0.322
				c42.647-5.775,76.183-15.809,75.397-22.187c-0.786-6.378-35.874-11.283-78.521-5.508
				C647.559,1180.495,614.254,1196.359,615.04,1202.737z"/>
		</g>
		<g>
			<path style="fill:#92BCB5;" d="M571.416,1029.507c0,0,12.031-30.237,66.375-44.223c78.369-20.168,92.957,74.329,130.935,194.943
				c0,0-87.365-16.142-154.036,21.94C614.69,1202.168,560.708,1069.086,571.416,1029.507z"/>
		</g>
		<g>
			<path style="fill:#92BCB5;" d="M571.838,1051.025l19.42-5.54c0,0,95.895-7.279,120.271-17.281
				c13.209-5.42,16.95-23.591,16.95-23.591s-38.382-35.293-99.462-19.97C553.676,1003.544,571.838,1051.025,571.838,1051.025z"/>
		</g>
		<g>
			<path style="fill:#FFB27D;" d="M618.334,987.801c10.725,7.41,28.957,9.57,36.408,4.769c9.289-5.978,3.767-10.989,2.106-12.074
				c-4.075-2.653-5.7-4.939-6.789-9.001l-0.261-0.987l-1.337-4.995l-2.513-9.4l-2.539-9.506l-8.422-31.5l-3.664,35.051l-0.622,5.964
				l-0.878,8.413l-1.267,12.06C627.861,983.223,618.397,987.772,618.334,987.801z"/>
		</g>
		<g>
			<path style="fill:#331832;" d="M575.89,1049.442c4.375,4.901,16.571,1.325,27.24-7.988c10.669-9.313,15.772-20.836,11.397-25.738
				c-4.375-4.901-16.571-1.325-27.24,7.988C576.617,1033.018,571.515,1044.541,575.89,1049.442z"/>
		</g>
		<g>
			<path style="fill:#764678;" d="M756.731,1186.019c4.991,21.638,9.697,52.617,12.383,98.461
				c3.724,63.573,5.661,128.058,6.45,159.006c0.282,11.07-7.103,20.933-17.89,23.891l-5.797,1.59
				c-11.663,3.198-23.494-4.355-25.342-16.181l-31.763-203.217l-7.754-44.234c0,0,3.944-3.089,10.672-6.351
				C717.833,1189.22,754.978,1178.417,756.731,1186.019z"/>
		</g>
		<g>
			<path style="fill:#764678;" d="M693.86,1193.168c16.514,6.635,10.572,40.319,7.548,87.88
				c-4.041,63.554-19.312,139.125-22.296,169.939c-1.067,11.022-9.598,19.913-20.665,21.536l-5.947,0.872
				c-11.966,1.755-22.789-7.183-23.184-19.145l-6.791-205.572l-2.188-42.426c-0.1-1.939,1.317-3.782,3.565-4.621
				C638.777,1196.078,678.781,1187.109,693.86,1193.168z"/>
		</g>
		<g>
			<path style="fill:#5C305D;" d="M629.823,964.536c0,0,8.382,7.184,19.975,5.974l-1.337-4.995l-2.513-9.4L629.823,964.536z"/>
		</g>
		<g>
			<path style="fill:#EF8062;" d="M650.024,895.263c0,0,19.23,10.589,12.073,25.459C654.94,935.592,650.024,895.263,650.024,895.263
				z"/>
		</g>
		<g>
			<path style="fill:#EF8062;" d="M619.146,960.852c0,0-31.326-4.355-37.859-30.397c-2.897-11.548-0.578-17.559,4.69-23.612
				C611.869,877.086,619.146,960.852,619.146,960.852z"/>
		</g>
		<g>
			
				<ellipse transform="matrix(0.93 -0.3675 0.3675 0.93 -297.2781 297.2526)" style="fill:#FFB27D;" cx="631.865" cy="929.197" rx="32.149" ry="36.239"/>
		</g>
		<g>
			<g>
				<path style="fill:#080435;" d="M632.182,924.861c0.136-0.143,0.206-0.346,0.172-0.556c-0.059-0.355-0.392-0.595-0.747-0.537
					c-0.209,0.034-5.13,0.374-6.246,5.975c-0.07,0.353,0.145,0.699,0.497,0.777c0.352,0.077,0.625-0.17,0.777-0.497
					c1.52-3.27,5.01-4.939,5.183-4.968C631.962,925.03,632.087,924.959,632.182,924.861z"/>
			</g>
		</g>
		<g>
			<path style="fill:#080435;" d="M631.475,933.657c0.762,1.356,2.177,2.006,3.161,1.453c0.984-0.553,1.164-2.1,0.401-3.456
				c-0.762-1.356-2.177-2.006-3.161-1.453C630.893,930.754,630.713,932.301,631.475,933.657z"/>
		</g>
		<g>
			<g>
				<path style="fill:#080435;" d="M655.096,917.117c0.14-0.062,0.241-0.205,0.263-0.401c0.036-0.33-0.169-0.685-0.46-0.793
					c-0.171-0.063-4.096-1.96-6.261,2.349c-0.136,0.272-0.048,0.665,0.209,0.887c0.257,0.222,0.527,0.132,0.722-0.081
					c1.943-2.129,5.056-2.009,5.198-1.957C654.885,917.165,655,917.16,655.096,917.117z"/>
			</g>
		</g>
		<g>
			<path style="fill:#080435;" d="M650.957,925.042c0.188,1.544,1.249,2.685,2.369,2.548c1.12-0.136,1.876-1.499,1.688-3.042
				c-0.188-1.544-1.249-2.684-2.369-2.548C651.525,922.136,650.769,923.498,650.957,925.042z"/>
		</g>
		<g>
			<path style="fill:#FFFFFF;" d="M656.396,938.391c0,0-9.061,5.069-19.939,6.705c0,0,4.026,9.444,14.281,4.789
				C656.702,947.177,656.396,938.391,656.396,938.391z"/>
		</g>
		<g>
			<path style="fill:#EF8062;" d="M572.046,917.647c-0.037,0-0.079,0-0.115-0.006c-0.552-0.061-0.946-0.558-0.879-1.11
				c0.91-7.817,8.023-10.121,8.326-10.218c0.522-0.188,1.086,0.127,1.255,0.655c0.164,0.528-0.127,1.092-0.655,1.261
				c-0.255,0.079-6.174,2.032-6.938,8.533C572.98,917.271,572.549,917.647,572.046,917.647z"/>
		</g>
		<g>
			<path style="fill:#EF8062;" d="M580.178,904.002c-0.267,0-0.54-0.103-0.734-0.315c-3.918-4.221-3.875-10.14-3.869-10.388
				c0.006-0.558,0.406-1.055,1.013-0.988c0.552,0.006,0.995,0.461,0.988,1.013c0,0.055-0.018,5.379,3.336,8.994
				c0.376,0.406,0.352,1.043-0.049,1.419C580.67,903.917,580.421,904.002,580.178,904.002z"/>
		</g>
		<g>
			<path style="fill:#EF8062;" d="M585.977,906.842c0,0-0.433-0.799-0.911-2.21c-1.436-4.233-3.283-13.969,4.911-24.134
				c10.925-13.553,44.868-1.08,58.568-7.379c13.699-6.299,19.666,2.435,15.122,10.226c-4.544,7.79-10.473,8.304-10.473,8.304
				s14.229-4.186,14.908,2.322c0.679,6.508-14.481,15.399-30.689,11.833c-16.208-3.566-24.658,27.342-38.269,19.383
				C585.531,917.229,585.977,906.842,585.977,906.842z"/>
		</g>
		<g>
			<path style="fill:#EF8062;" d="M619.781,874.18c0,0,11.05-2.011,16.592-4.162c5.542-2.152,14.041,0.963,9.068,6.98
				C640.469,883.016,619.781,874.18,619.781,874.18z"/>
		</g>
		<g>
			<path style="fill:#ED955F;" d="M865.116,1016.334c-0.655-0.061-16.174-1.534-20.916-4.864c-1.14-0.807-1.686-1.668-1.619-2.553
				c0.085-1.037,1.007-2.001,2.747-2.85c1.304-0.643,5.343-0.819,8.909-0.837c-6.101-1.098-10.637-4.87-11.498-5.622
				c-0.746-0.655-1.067-1.328-0.952-2.007c0.146-0.843,0.94-1.553,2.444-2.171c1.643-0.673,8.06-0.891,12.584-0.958
				c-4.579-1.383-10.449-3.893-12.305-5.227c-1.831-1.31-2.632-2.499-2.444-3.621c0.182-1.098,1.292-1.947,3.384-2.577
				c2.492-0.764,8.381-0.249,13.342,0.413c-4.488-1.407-9.091-3.105-9.582-4.288c-0.212-0.503-0.188-1.007,0.055-1.462
				c0.734-1.365,3.317-1.886,3.614-1.941l0.182,0.982c-0.922,0.176-2.529,0.722-2.911,1.431c-0.103,0.194-0.109,0.376-0.018,0.6
				c0.449,1.061,9.024,3.906,16.714,5.937l-0.218,0.976c-0.158-0.03-16.483-3.032-20.886-1.692c-1.65,0.497-2.577,1.116-2.687,1.783
				c-0.115,0.679,0.612,1.619,2.038,2.644c2.474,1.771,12.893,5.919,16.356,6.004l-0.012,1.007
				c-4.021,0.006-14.858,0.115-16.829,0.922c-1.486,0.606-1.783,1.14-1.832,1.407c-0.061,0.382,0.309,0.8,0.631,1.085
				c0.831,0.734,5.3,4.439,11.274,5.428l5.646,1.043l-0.109,0.995c-3.402-0.109-12.638-0.243-14.445,0.643
				c-1.358,0.667-2.135,1.389-2.189,2.032c-0.049,0.637,0.625,1.249,1.201,1.649c4.524,3.178,20.273,4.676,20.431,4.694
				L865.116,1016.334z"/>
		</g>
		<g>
			<path style="fill:#FFB27D;" d="M599.18,936.845c4.004,1.864,8.43,0.837,9.887-2.292c1.457-3.13-0.608-7.178-4.611-9.041
				c-4.004-1.864-8.43-0.837-9.887,2.292C593.112,930.933,595.177,934.981,599.18,936.845z"/>
		</g>
		<g>
			<g>
				<polygon style="fill:#CE7960;" points="669.216,1306.395 587.002,1253.502 894.004,756.501 976.218,809.394 				"/>
			</g>
			<g>
				<polygon style="fill:#EC987E;" points="657.139,1298.56 574.925,1245.667 881.927,748.666 964.141,801.558 				"/>
			</g>
			<g>
				<g>
					<path style="fill:#C47055;" d="M856.751,830.709c3.474-6.262,6.948-12.524,10.423-18.787
						c5.402-9.737,7.414-13.849,19.293-15.264c6.867-0.818,17.977-4.189,24.69-2.78c14.638,3.073,12.324,15.02,6.67,25.881
						c-7.25,13.926-21.046,23.51-31.385,34.97c-6.378,7.069-12.384,16.895-24.77,14.142c-25.761-5.726-10.985-28.655-4.363-37.885
						c1.606-2.238-2.099-4.375-3.69-2.157c-5.957,8.305-11.538,17.282-8.973,27.89c2.276,9.411,10.696,16.543,20.51,16.914
						c9.473,0.359,15.867-6.345,21.732-12.859c9.959-11.063,22.164-20.628,30.777-32.813c8.348-11.81,17.074-37.797-4.778-38.477
						c-8.625-0.268-17.823,1.928-26.42,2.901c-3.583,0.405-9.947,0.457-13.245,2.542c-9.228,5.832-15.054,24.421-20.16,33.626
						C851.725,830.959,855.415,833.117,856.751,830.709L856.751,830.709z"/>
				</g>
			</g>
			<g>
				<g>
					<path style="fill:#C47055;" d="M882.795,810.768c-3.989,3.813-7.264,8.128-10.145,12.825
						c-2.226,3.629-6.323,8.775-6.409,13.289c-0.137,7.23,9.035,8.866,13.615,4.915c3.601-3.106,5.759-8.298,8.138-12.286
						c2.089-3.503,5.748-7.883,5.494-12.226c-0.283-4.842-7.645-9.308-10.453-3.928c-1.271,2.435,2.416,4.599,3.69,2.157
						c2.452,1.426,3,3.009,1.645,4.749c-0.508,1.159-1.114,2.266-1.817,3.32c-1.092,1.902-2.25,3.772-3.374,5.656
						c-0.937,1.571-1.868,3.146-2.811,4.713c-2.092,3.477-1.758,5.184-5.853,2.212c-3.812-2.767-2.693-2.566-0.853-5.827
						c1.044-1.85,2.101-3.694,3.231-5.493c2.557-4.069,5.454-7.738,8.923-11.055C887.809,811.886,884.784,808.867,882.795,810.768
						L882.795,810.768z"/>
				</g>
			</g>
			<g>
				<g>
					<path style="fill:#C47055;" d="M827.516,855.852c-0.892,10.842-4.906,22.575,1.609,32.493
						c5.431,8.268,16.255,11.602,25.444,13.287c9.509,1.744,15.658,1.172,23.297-4.66c10.037-7.664,22.069-12.274,27.81-24.126
						c1.194-2.465-2.49-4.634-3.69-2.157c-5.95,12.285-33.06,28.221-46.28,26.823c-6.48-0.685-16.853-3.7-20.905-8.938
						c-7.551-9.76-3.917-21.69-3.01-32.721C832.015,853.111,827.74,853.126,827.516,855.852L827.516,855.852z"/>
				</g>
			</g>
			<g>
				<g>
					<path style="fill:#C47055;" d="M739.667,1008.618c18.377-16.706,24.2-40.581,40.556-58.955
						c9.201-10.336,58.211-56.395,54.33,5.876c-1.07,17.173-17.904,31.997-29.812,42.356
						c-16.802,14.616-24.956,26.974-33.958,47.272c-3.165,7.137-6.817,24.232-12.655,29.517
						c-43.381,2.51-56.349-8.726-38.904-33.708c2.866-5.999,6.394-11.58,10.584-16.742c1.607-2.237-2.098-4.373-3.69-2.157
						c-13.538,18.842-40.456,69.348-1.81,77.884c15.656,3.458,27.16-6.53,35.006-18.9c6.599-10.404,10.544-22.676,15.371-33.914
						c9.079-21.138,20.614-34.355,37.336-49.652c15.711-14.373,48.845-62.419,17.718-78.702
						c-38.512-20.146-74.028,69.471-93.094,86.804C734.606,1007.45,737.635,1010.465,739.667,1008.618L739.667,1008.618z"/>
				</g>
			</g>
			<g>
				<g>
					<path style="fill:#C47055;" d="M789.809,958.107c-7.793,4.907-9.146,11.499-12.354,19.657
						c-5.787,14.711-18.604,24.446-26.251,38.22c-2.633,4.743-18.378,34.945-2.415,30.085c9.459-2.88,18.435-18.989,24.157-26.702
						c9.784-13.191,22.672-28.502,27.485-44.476c2.629-8.727-4.933-25.206-12.507-12.751c-1.433,2.356,2.261,4.506,3.69,2.157
						c4.376,6.94,4.442,13.312,0.199,19.116c-1.854,3.447-3.846,6.813-5.974,10.097c-4.145,6.54-8.709,12.86-13.264,19.12
						c-4.322,5.94-8.659,11.909-13.478,17.462c-2.459,2.858-5.042,5.599-7.75,8.223c-4.76-1.295-5.48-3.958-2.161-7.99
						c1.868-16.415,19.126-27.15,27.369-39.871c5.995-9.252,5.209-22.232,15.413-28.657
						C794.288,960.335,792.145,956.636,789.809,958.107L789.809,958.107z"/>
				</g>
			</g>
			<g>
				<g>
					<path style="fill:#C47055;" d="M677.566,1096.02c-0.208,9.401-3.486,24.077-0.016,33c2.771,7.125,13.29,10.915,19.41,14.321
						c8.275,4.606,16.661,8.447,26.194,5.482c9.492-2.952,18.223-10.086,25.651-16.492c2.086-1.799-0.948-4.811-3.022-3.022
						c-5.429,4.682-11.498,9.909-18.191,12.709c-13.211,5.527-23.132,0.776-34.309-5.763c-7.46-4.364-10.937-7.855-11.966-16.644
						c-0.88-7.516,0.354-15.997,0.521-23.592C681.901,1093.269,677.627,1093.27,677.566,1096.02L677.566,1096.02z"/>
				</g>
			</g>
			<g>
				<g>
					<path style="fill:#C47055;" d="M652.514,1133.427c-1.253,22.783-5.937,44.055-10.52,66.247
						c-1.776,8.601-1.346,15.12,5.781,21.28c23.611,20.408,50.505-10.344,65.624-26.071c1.906-1.983-1.112-5.009-3.022-3.022
						c-7.584,7.889-15.293,16.032-24.097,22.592c-7.863,5.859-22.411,12.62-32.22,5.699c-7.972-5.625-7.34-21.162-5.414-29.074
						c4.614-18.961,7.071-38.186,8.142-57.651C656.939,1130.679,652.665,1130.687,652.514,1133.427L652.514,1133.427z"/>
				</g>
			</g>
		</g>
		<g>
			<g>
				<g>
					<path style="fill:#FFB27D;" d="M764.657,1119.404L764.657,1119.404c-0.077,1.953,1.458,3.613,3.41,3.689l30.306,1.191
						c1.952,0.077,3.613-1.458,3.689-3.411l0,0c0.077-1.952-1.458-3.613-3.411-3.689l-30.305-1.191
						C766.394,1115.917,764.734,1117.451,764.657,1119.404z"/>
				</g>
				<g>
					<path style="fill:#FFB27D;" d="M765.014,1110.316L765.014,1110.316c-0.077,1.952,1.458,3.613,3.41,3.689l33.893,1.332
						c1.952,0.077,3.613-1.458,3.689-3.41l0,0c0.077-1.953-1.458-3.613-3.41-3.689l-33.893-1.332
						C766.751,1106.829,765.091,1108.363,765.014,1110.316z"/>
				</g>
				<g>
					<path style="fill:#FFB27D;" d="M747.692,1107.481l0.306,0.417c1.519,2.071,4.456,2.522,6.526,1.003l17.956-13.17
						c2.071-1.519,2.522-4.456,1.003-6.526l-0.306-0.417c-1.519-2.071-4.456-2.522-6.526-1.003l-17.956,13.17
						C746.625,1102.473,746.173,1105.41,747.692,1107.481z"/>
				</g>
				<g>
					<path style="fill:#FFB27D;" d="M765.372,1101.228L765.372,1101.228c-0.077,1.953,1.458,3.613,3.41,3.689l27.168,1.068
						c1.952,0.077,3.613-1.458,3.689-3.41l0,0c0.077-1.953-1.458-3.613-3.41-3.689l-27.168-1.068
						C767.109,1097.741,765.448,1099.276,765.372,1101.228z"/>
				</g>
				<g>
					<path style="fill:#FFB27D;" d="M747.155,1124.892c0,0,17.091,10.962,30.712,6.211c4.714-1.645,5.031-28.427,0.103-31.075
						c-4.927-2.648-23.346-1.581-23.346-1.581L747.155,1124.892z"/>
				</g>
				<g>
					<path style="fill:#FFB27D;" d="M764.276,1128.428L764.276,1128.428c-0.077,1.948,1.455,3.605,3.403,3.682l27.112,1.065
						c1.948,0.077,3.605-1.455,3.682-3.403l0,0c0.076-1.948-1.455-3.605-3.403-3.682l-27.112-1.066
						C766.009,1124.948,764.352,1126.479,764.276,1128.428z"/>
				</g>
			</g>
			<g>
				<g>
					<path style="fill:#FFB27D;" d="M758.295,1093.761c-37.71-12.168-90.944-32.588-130.398-60.768
						c-9.142-6.529-12.536-9.156-17.303-13.716c-3.836-3.67-14.667-1.086-21.017,5.409c-5.959,6.095-8.982,16.332-5.959,19.507
						c3.337,3.505,9.334,8.543,19.404,15.985c34.987,25.858,82.852,47.41,146.605,66.134L758.295,1093.761z"/>
				</g>
			</g>
			<g style="opacity:0.5;">
				<path style="fill:#EC865C;" d="M663.843,1086.948c-1.237,0-2.559-0.249-3.869-0.776l0,0c-4.015-1.631-6.343-5.276-5.185-8.132
					c0.443-1.092,1.328-1.941,2.559-2.462c1.916-0.825,4.463-0.716,6.823,0.237c4.015,1.631,6.343,5.276,5.191,8.132
					C668.58,1085.869,666.409,1086.948,663.843,1086.948z M660.532,1084.801c3.202,1.298,6.622,0.637,7.459-1.413
					c0.849-2.098-1.116-4.882-4.379-6.204c-1.989-0.801-4.124-0.904-5.688-0.249c-0.867,0.364-1.474,0.94-1.765,1.662
					C655.305,1080.696,657.269,1083.479,660.532,1084.801L660.532,1084.801z"/>
			</g>
		</g>
		<g>
			<g>
				<path style="fill:#FFB27D;" d="M879.063,991.619c0,0,4.637-9.806-4.344-13.975c-11.442-5.312-30.79-0.959-23.586,2.506
					c6.387,3.072,16.504,5.263,16.504,5.263s-25.801-5.212-25.052,0.515c0.75,5.727,22.996,9.907,22.996,9.907
					s-25.597-2.705-23.137,2.476c2.46,5.181,22.636,9.103,22.636,9.103s-24.874-3.992-21.876,1.96
					c2.998,5.951,16.279,5.408,21.958,6.464c5.367,0.997,7.747-2.139,8.338-7.385c0,0,3.624-4.88,3.145-8.405
					c-0.184-1.351,1.261-2.391,1.548-3.308C878.741,994.985,879.063,991.619,879.063,991.619z"/>
			</g>
		</g>
	</g>
	<g>
		<g>
			<path style="fill:#EF8062;" d="M2299.085,1479.428h-80.49c-13.347,0-24.408-10.349-25.294-23.667l-7.604-114.243h148.676
				l-10.641,115.431C2322.557,1469.684,2311.874,1479.428,2299.085,1479.428z"/>
		</g>
		<g>
			<g>
				<path style="fill:#331832;" d="M2329.904,1338.179c-1.089,19.283-17.125,55.895-70.093,56.381h-1.06
					c-65.357,0-68.566-55.895-68.595-56.459l5.64-0.263c3.112,15.219,15.394,49.263,63.042,49.263h0.992
					c43.856-0.428,60.602-29.26,64.54-49.234L2329.904,1338.179z"/>
			</g>
		</g>
		<g>
			<path style="fill:#331832;" d="M2335.56,1341.519h-151.052c-2.045,0-3.703-1.658-3.703-3.703l0,0
				c0-2.045,1.658-3.703,3.703-3.703h151.052c2.045,0,3.703,1.658,3.703,3.703l0,0
				C2339.263,1339.861,2337.605,1341.519,2335.56,1341.519z"/>
		</g>
	</g>
</g>
</svg>
