<?xml version="1.0" standalone="no"?>
<!DOCTYPE svg PUBLIC "-//W3C//DTD SVG 20010904//EN"
 "http://www.w3.org/TR/2001/REC-SVG-20010904/DTD/svg10.dtd">
<svg version="1.0" xmlns="http://www.w3.org/2000/svg"
 width="1000.000000pt" height="560.000000pt" viewBox="0 0 1000.000000 560.000000"
 preserveAspectRatio="xMidYMid meet">

<g transform="translate(0.000000,560.000000) scale(0.100000,-0.100000)"
fill="#000000" stroke="none">
<path d="M9842 5425 c0 -16 2 -22 5 -12 2 9 2 23 0 30 -3 6 -5 -1 -5 -18z"/>
<path d="M9841 5374 c0 -11 3 -14 6 -6 3 7 2 16 -1 19 -3 4 -6 -2 -5 -13z"/>
<path d="M9881 5354 c0 -11 3 -14 6 -6 3 7 2 16 -1 19 -3 4 -6 -2 -5 -13z"/>
<path d="M9976 5331 c-24 -26 -76 -38 -87 -20 -6 10 -9 8 -9 -8 0 -13 -4 -23
-10 -23 -5 0 -13 -1 -17 -2 -4 -2 -11 11 -14 27 -6 29 -7 29 -8 -7 0 -21 -5
-39 -11 -39 -5 -1 -14 -3 -20 -4 -5 -1 -21 -3 -35 -4 -30 -1 -34 -21 -3 -21
20 0 20 -1 5 -18 -10 -11 -13 -22 -8 -28 6 -5 11 -27 13 -48 3 -44 15 -50 113
-64 42 -6 50 -11 47 -27 -12 -94 -16 -115 -22 -115 -4 0 -10 -18 -14 -40 -6
-38 -8 -40 -44 -41 -20 0 -46 -4 -57 -8 -16 -7 -14 -9 14 -14 19 -4 44 -7 57
-7 13 0 24 -2 24 -6 0 -11 -92 -459 -95 -462 -1 -2 -14 22 -28 52 -29 63 -55
75 -49 24 2 -18 -1 -51 -6 -73 l-9 -40 -38 78 c-27 57 -42 77 -57 77 -13 0
-17 -4 -12 -12 8 -13 7 -70 -2 -101 -7 -23 -20 -14 -45 31 -11 20 -17 28 -13
17 18 -56 18 -57 -12 -53 -27 3 -29 6 -28 45 0 32 7 48 24 63 l23 20 -31 0
c-21 0 -30 -4 -27 -12 7 -20 -9 -101 -21 -105 -5 -2 -18 11 -27 29 -11 20 -15
24 -11 10 8 -31 -16 -82 -40 -82 -17 0 -18 6 -11 73 4 45 12 75 21 80 24 14
15 27 -18 26 -18 0 -27 -3 -20 -6 13 -5 14 -56 3 -107 -6 -28 -7 -27 -36 33
-16 35 -33 65 -37 67 -4 3 8 -28 27 -68 41 -85 43 -98 13 -98 -60 1 -68 8 -68
71 0 75 13 109 42 110 13 1 -6 7 -42 15 -73 15 -152 18 -132 6 9 -6 11 -21 6
-50 -4 -23 -11 -39 -16 -36 -6 4 -7 -12 -3 -40 l7 -46 -30 0 c-17 0 -33 4 -36
9 -8 12 5 161 14 161 3 0 11 -12 17 -27 l12 -28 -6 29 c-4 18 -1 31 8 37 11 7
9 9 -8 9 -12 0 -24 4 -27 8 -3 5 -19 7 -36 4 -16 -2 -30 0 -30 6 0 5 -18 8
-42 5 -54 -6 -272 23 -276 36 -2 6 -17 8 -33 4 -45 -9 -35 5 24 33 96 46 151
79 155 93 5 14 -11 12 -70 -5 -10 -3 -18 -1 -18 4 0 21 81 389 90 410 6 13 19
22 32 23 19 1 18 2 -7 10 -28 8 -60 6 -125 -7 -24 -5 -24 -6 -6 -20 11 -8 30
-14 43 -14 14 0 23 -6 23 -15 0 -8 -20 -104 -45 -212 -50 -215 -52 -219 -135
-259 -19 -9 -46 -23 -60 -30 -30 -15 -57 -4 -45 17 5 8 0 6 -11 -3 -16 -14
-31 -16 -72 -11 -34 4 -52 10 -52 19 0 17 -12 18 -28 2 -17 -17 -27 18 -13 48
10 22 9 25 -6 22 -10 -2 -27 -18 -38 -35 -16 -26 -25 -31 -50 -28 -16 1 -42 3
-57 4 -22 1 -28 6 -28 24 -1 18 -2 19 -10 7 -6 -11 -25 -16 -67 -15 -52 0 -58
2 -61 22 l-3 23 -27 -20 c-31 -22 -72 -17 -72 9 -1 14 -2 14 -10 -1 -7 -12
-20 -16 -43 -13 -96 12 -137 13 -132 5 4 -6 27 -10 52 -10 l45 0 -7 -47 c-4
-27 -11 -56 -16 -65 -5 -9 -9 -28 -9 -42 0 -19 -5 -26 -19 -26 -32 0 -51 11
-51 30 0 32 -22 35 -45 7 -27 -34 -32 -34 -40 3 -10 45 -28 49 -19 4 7 -35 6
-37 -17 -31 -13 4 -37 7 -53 7 l-29 0 6 73 c3 45 2 60 -3 39 -11 -46 -15 -47
-30 -10 -8 18 -22 44 -32 57 -24 31 -23 41 4 41 34 0 10 14 -26 16 -33 1 -34
0 -41 -50 -3 -27 -8 -53 -11 -58 -3 -4 -23 12 -46 35 -25 26 -36 33 -29 19 7
-13 10 -30 7 -38 -3 -9 3 -33 14 -56 16 -33 16 -39 4 -34 -9 3 -29 6 -46 6
l-31 0 6 66 c4 36 13 80 22 97 15 30 14 44 -3 33 -5 -3 -15 -39 -22 -80 -8
-46 -17 -73 -23 -69 -6 4 -8 -2 -5 -15 7 -27 -5 -36 -37 -28 -26 7 -65 70 -65
104 0 30 21 82 31 76 5 -3 9 2 9 10 0 31 -27 16 -36 -20 -12 -49 -25 -47 -45
5 -10 28 -18 39 -22 30 -3 -9 -8 -10 -14 -4 -19 23 -56 35 -112 35 l-59 0 -7
-67 c-9 -89 -13 -98 -32 -76 -13 17 -13 16 -4 -4 22 -44 15 -53 -36 -47 -75 9
-72 3 -57 96 8 46 14 85 14 87 0 2 6 -2 14 -8 11 -9 12 -6 8 14 -10 52 -29 25
-42 -60 -7 -47 -17 -85 -21 -85 -5 0 -6 -7 -3 -15 10 -25 -51 -19 -76 8 -20
21 -22 21 -34 4 -8 -9 -20 -15 -27 -12 -17 7 -105 192 -101 211 2 10 -9 14
-41 14 -47 0 -68 13 -61 39 3 9 -1 6 -7 -7 -12 -21 -17 -22 -68 -16 -31 3 -61
12 -67 20 -7 9 -14 10 -21 3 -7 -7 -32 -6 -78 1 -79 13 -85 15 -85 37 0 15 -2
14 -18 0 -22 -20 -90 -23 -98 -4 -3 9 -16 12 -35 9 -25 -4 -28 -2 -23 14 6 18
6 18 -7 2 -13 -16 -24 -17 -107 -8 -52 6 -99 13 -105 18 -7 4 22 10 63 13 69
5 65 6 -42 7 -81 1 -118 6 -118 14 0 8 -27 9 -97 5 -64 -4 -136 -1 -208 9
-115 16 -275 28 -200 16 44 -8 45 -10 27 -92 -5 -25 -10 -37 -11 -27 -1 11
-15 24 -36 33 -42 17 -79 79 -56 93 19 12 3 17 -59 18 -51 1 -50 0 7 -12 21
-5 21 -6 7 -57 -7 -29 -14 -68 -14 -85 0 -47 -13 -41 -40 18 -13 28 -28 53
-33 56 -4 3 3 -18 17 -46 40 -79 37 -85 -36 -77 -34 3 -63 7 -64 9 -4 4 13 83
28 130 l12 39 18 -24 c19 -23 19 -23 4 9 -20 41 -20 43 7 44 21 1 21 1 -3 9
-14 4 -36 8 -49 9 -23 1 -23 0 -7 -12 15 -11 15 -17 6 -42 -7 -17 -18 -59 -24
-95 -12 -60 -14 -63 -24 -40 -6 14 -27 61 -46 105 -31 72 -33 81 -18 87 14 6
14 7 -3 7 -12 1 -27 7 -34 14 -11 10 -13 9 -9 -3 5 -14 -69 -177 -93 -206 -7
-8 -20 -12 -30 -9 -25 8 -33 -11 -17 -45 9 -22 17 -28 28 -23 38 19 288 -3
850 -73 327 -41 669 -83 760 -94 91 -11 305 -35 475 -55 464 -53 889 -106 898
-112 4 -2 7 -23 7 -46 0 -23 3 -51 6 -62 5 -21 104 -75 136 -75 31 0 29 19 -7
47 -39 31 -47 63 -15 63 11 0 20 -5 20 -12 0 -9 3 -9 12 0 14 14 74 16 82 3 3
-5 14 -8 24 -6 76 15 83 15 80 -3 -2 -9 -10 -17 -18 -17 -19 0 -70 -39 -70
-54 0 -6 10 -11 23 -11 24 0 92 22 103 33 4 4 16 7 26 7 15 0 18 8 18 45 0 39
3 45 20 45 27 0 693 -76 790 -90 41 -6 109 -13 150 -16 41 -3 201 -20 355 -39
154 -18 321 -36 370 -40 108 -7 145 -14 145 -26 0 -4 -69 -10 -152 -11 l-153
-3 -5 -165 c-3 -91 -3 -168 0 -172 5 -7 149 -17 253 -18 l58 0 -7 -46 c-4 -26
-13 -59 -20 -73 -8 -14 -14 -45 -14 -68 0 -42 -1 -43 -34 -43 -35 0 -35 0 -38
50 -4 68 -22 64 -26 -5 -4 -73 -22 -61 -22 15 0 32 -4 62 -10 65 -6 4 -10 -23
-10 -73 0 -84 5 -92 51 -92 10 0 19 -4 19 -9 0 -6 15 -11 33 -13 l32 -3 -3
-56 c-3 -48 0 -60 22 -86 20 -24 26 -42 26 -81 0 -33 -5 -54 -14 -59 -8 -4
-16 -17 -19 -28 -4 -18 -5 -18 -6 3 -1 21 -5 22 -81 22 l-80 0 0 -75 0 -75 30
-6 c52 -11 55 -21 61 -238 4 -111 10 -283 14 -384 l8 -182 -47 0 c-25 0 -46
-3 -46 -8 0 -4 20 -6 44 -4 51 4 52 2 55 -115 l2 -73 -40 0 c-23 0 -41 5 -41
10 0 6 -7 10 -15 10 -9 0 -12 6 -9 15 4 8 2 15 -2 16 -5 0 -26 2 -46 5 -37 5
-61 -12 -38 -26 8 -5 2 -12 -19 -23 -29 -15 -31 -14 -31 4 0 10 -7 19 -15 19
-8 0 -17 12 -20 28 -3 15 -12 49 -20 76 -8 28 -13 50 -12 51 30 16 136 98 140
109 3 8 -9 36 -26 62 -18 26 -41 63 -52 81 -27 45 -110 102 -158 110 l-39 6 6
206 c11 372 11 396 1 399 -6 1 -13 -106 -18 -295 -5 -164 -11 -300 -13 -302
-2 -3 -11 2 -20 10 -12 13 -13 26 -5 75 8 55 7 62 -18 99 l-26 40 7 189 c5
104 6 192 3 194 -3 3 -12 -3 -20 -14 -11 -15 -14 -55 -15 -185 l0 -166 -50 5
c-29 3 -55 0 -63 -7 -12 -9 -15 3 -21 66 -3 42 -6 125 -6 185 0 67 -4 108 -10
108 -19 0 -20 -23 -12 -210 5 -102 5 -193 0 -202 -12 -24 -19 -120 -8 -113 15
9 20 -25 20 -128 0 -116 -30 -284 -41 -232 -4 17 -7 63 -8 103 -1 68 0 72 22
73 l22 0 -22 9 c-22 9 -23 13 -23 160 0 107 -3 149 -11 144 -7 -4 -9 -51 -4
-155 7 -134 6 -149 -9 -149 -14 0 -16 32 -16 338 -1 279 -3 340 -15 356 -8 11
-17 18 -19 15 -3 -3 0 -146 16 -627 3 -70 1 -82 -13 -82 -9 0 -19 10 -22 23
-3 12 -9 158 -13 325 -3 167 -11 317 -15 335 -9 32 -5 -256 8 -535 l6 -148
-26 0 c-19 0 -24 4 -22 18 10 47 14 245 5 236 -5 -5 -12 -78 -16 -162 -6 -132
-9 -152 -24 -152 -13 0 -15 -8 -12 -36 3 -26 1 -35 -7 -30 -8 6 -11 63 -11
198 1 104 -1 192 -4 196 -3 3 -6 17 -6 31 0 15 -4 21 -9 15 -8 -8 -23 -147
-35 -324 -1 -25 -4 27 -6 115 l-3 160 -7 -100 c-4 -55 -8 -148 -9 -207 0 -59
-5 -109 -10 -112 -4 -3 -6 -17 -3 -31 4 -24 2 -25 -41 -25 -82 0 -77 -17 -70
246 6 214 5 234 -10 234 -15 0 -17 -23 -17 -235 l0 -235 -50 0 -50 0 0 238
c-1 164 -4 232 -11 220 -6 -11 -9 -103 -7 -238 l3 -220 -88 0 -87 0 -30 62
c-16 35 -50 119 -75 188 -25 69 -55 137 -65 151 -14 19 -16 29 -8 37 8 8 6 13
-8 17 -10 4 -42 17 -71 30 -50 23 -52 26 -51 62 0 21 5 48 9 61 6 16 3 34 -10
60 -36 71 -83 96 -152 81 -39 -8 -48 -15 -66 -52 -12 -23 -24 -63 -26 -89 -4
-42 -2 -48 14 -48 12 0 19 -7 19 -19 0 -10 10 -30 21 -45 12 -15 20 -28 18
-30 -2 -2 -60 3 -129 10 -69 6 -190 18 -270 24 -80 7 -201 19 -270 26 -69 8
-132 15 -140 15 -8 0 -34 2 -57 5 -36 4 -43 9 -44 27 0 21 -1 21 -11 -3 -6
-14 -12 -20 -14 -15 -3 6 -20 9 -38 7 -31 -4 -35 -1 -39 24 l-4 29 -2 -27 c-1
-35 -37 -39 -51 -5 -7 17 -9 18 -9 5 -1 -10 -5 -18 -10 -18 -5 0 -12 8 -14 18
-4 15 -5 15 -6 -2 -1 -16 -7 -18 -48 -12 -27 3 -136 15 -243 26 -107 12 -207
23 -222 25 -16 2 -30 -1 -34 -6 -3 -5 3 -9 12 -9 16 0 17 -14 10 -182 -3 -101
-9 -324 -13 -496 l-6 -312 -40 0 -40 0 7 348 c3 191 9 419 12 507 4 88 3 157
-1 153 -7 -6 -33 -670 -34 -875 -1 -35 -4 -63 -8 -63 -5 0 -7 75 -6 167 7 464
7 803 1 803 -5 0 -8 -127 -8 -282 0 -347 -10 -688 -21 -688 -4 0 -6 46 -4 102
10 222 13 872 5 853 -5 -11 -12 -230 -16 -487 l-6 -468 -46 0 -45 0 6 163 c15
365 20 807 10 807 -10 0 -14 -93 -29 -713 l-7 -257 -50 0 -50 0 8 480 c5 348
4 480 -4 480 -8 0 -11 -100 -12 -342 -1 -189 -5 -406 -9 -483 -5 -90 -7 37 -5
350 2 398 1 450 -6 275 -5 -118 -11 -340 -15 -492 l-6 -278 -31 0 -30 0 6 488
c4 279 3 481 -2 472 -4 -8 -11 -226 -15 -485 -5 -307 -11 -474 -18 -482 -7 -9
-7 -13 1 -13 6 0 11 -5 11 -11 0 -6 -20 -9 -52 -8 -41 2 -53 0 -53 -11 0 -10
12 -16 33 -18 17 -2 32 -7 32 -13 0 -5 9 -9 20 -9 24 0 27 -18 4 -27 -16 -6
-16 -7 -1 -18 13 -10 -13 -14 -131 -24 -271 -21 -282 -23 -282 -37 0 -18 39
-18 245 1 88 8 163 15 168 15 22 0 -2 -61 -77 -203 -46 -87 -86 -160 -89 -163
-3 -3 -16 1 -29 10 -12 9 -39 16 -59 16 -24 0 -39 5 -43 15 -3 9 -18 15 -35
15 -34 0 -71 -39 -71 -76 0 -22 -4 -24 -50 -24 l-50 0 0 125 c0 77 -4 125 -10
125 -6 0 -10 -48 -10 -124 0 -104 -3 -125 -16 -130 -43 -16 -44 -13 -44 143 0
145 1 149 23 156 l22 8 -22 4 c-22 4 -23 8 -23 134 l0 129 25 0 c14 0 25 5 25
10 0 6 -11 10 -25 10 l-25 0 0 120 0 120 103 0 c105 0 147 6 147 21 0 4 -55 5
-122 2 l-123 -6 4 287 c2 204 0 286 -8 286 -8 0 -11 -84 -11 -284 l0 -284 -40
-7 c-21 -4 -44 -4 -50 0 -6 4 -10 101 -10 276 0 195 -3 268 -11 263 -8 -5 -9
-83 -4 -275 l8 -269 -22 0 c-20 0 -21 5 -21 93 0 166 -13 436 -21 432 -4 -3
-5 -122 -2 -265 6 -255 6 -260 -14 -260 -18 0 -21 9 -26 98 -4 53 -7 174 -7
269 0 118 -4 174 -11 179 -9 5 -10 -63 -4 -270 4 -169 3 -276 -2 -276 -6 0
-16 120 -23 273 -7 149 -16 279 -21 287 -11 20 -11 -51 1 -267 5 -98 11 -204
13 -235 3 -55 2 -58 -20 -58 l-23 0 -1 228 c0 125 -5 250 -9 277 -6 31 -7 -55
-4 -227 2 -153 0 -278 -4 -278 -5 0 -12 82 -16 183 -10 264 -18 367 -29 367
-5 0 -7 -25 -3 -62 3 -35 9 -161 12 -281 l7 -217 -60 0 c-108 0 -243 -13 -243
-23 0 -7 45 -7 133 -2 72 4 162 9 200 11 l67 3 0 -35 0 -36 -31 26 c-21 18
-42 26 -69 26 -77 0 -120 -41 -120 -114 0 -26 -5 -36 -20 -41 -30 -10 -24 -25
10 -25 25 0 30 -4 30 -25 0 -41 31 -95 55 -95 12 0 29 -6 39 -13 15 -11 16
-19 7 -53 -6 -22 -15 -85 -21 -139 l-10 -100 -53 -53 c-45 -46 -125 -95 -189
-116 -10 -3 -18 -13 -18 -21 0 -9 -5 -13 -10 -10 -6 3 -10 48 -10 100 0 128
-19 136 -22 8 l-2 -98 -3 95 c-4 109 -9 133 -23 110 -7 -10 -10 -11 -10 -2 0
6 -4 12 -10 12 -6 0 -10 -45 -10 -115 0 -108 -1 -115 -20 -115 -17 0 -20 7
-21 55 -1 30 -3 60 -4 65 -1 6 -3 28 -4 50 0 22 -5 40 -11 40 -5 0 -11 -47
-12 -107 l-3 -108 -40 0 -40 0 -2 45 c-11 192 -33 232 -33 58 0 -149 -18 -131
-22 22 -4 154 -21 146 -28 -12 l-6 -123 -2 128 c-2 108 -4 127 -18 127 -14 0
-15 -15 -8 -124 l7 -125 -34 6 c-19 3 -36 7 -39 10 -3 2 -6 169 -8 369 l-3
364 31 0 c16 0 30 5 30 10 0 6 -13 10 -30 10 -29 0 -30 2 -30 45 0 50 3 51 92
46 37 -3 38 -2 38 33 0 36 0 36 45 36 33 0 45 4 45 15 0 12 -19 15 -110 15
l-110 0 -1 223 c-1 122 -5 233 -9 247 -5 14 -8 -83 -9 -222 l-1 -248 -30 0
-30 0 0 244 c0 153 -4 247 -10 251 -6 4 -11 -26 -12 -82 l-2 -88 -6 85 c-5 54
-7 -5 -7 -165 l0 -250 -51 -3 -52 -3 0 252 c0 175 -3 250 -10 243 -7 -7 -10
-92 -8 -242 2 -128 1 -232 -2 -232 -3 0 -12 6 -21 13 -14 10 -18 48 -26 232
l-10 220 -3 -210 -4 -210 -5 185 c-4 102 -3 212 1 245 8 74 -5 99 -69 127 -65
29 -118 19 -167 -31 -23 -24 -35 -43 -31 -53 4 -9 2 -19 -4 -23 -6 -3 -11 -14
-11 -23 0 -17 -47 -52 -69 -52 -6 0 -11 19 -11 46 0 29 -4 43 -11 39 -6 -5 -8
-22 -4 -47 6 -32 3 -42 -12 -53 -29 -23 -33 -18 -33 40 0 30 -4 55 -10 55 -6
0 -10 -29 -10 -68 0 -65 -2 -70 -36 -103 l-36 -34 8 75 c5 41 7 256 5 476 -1
221 1 404 6 407 4 2 127 7 273 11 146 3 363 9 482 12 l218 7 0 -30 0 -29 110
3 c73 3 110 1 110 -7 0 -6 7 -6 20 2 15 10 24 10 39 1 25 -16 31 -8 24 33 l-6
34 54 0 c30 0 216 5 414 10 360 10 510 18 502 26 -2 3 -70 5 -151 5 -81 0
-145 3 -142 7 2 4 -7 7 -20 7 -13 0 -24 -3 -24 -7 0 -5 -18 -8 -40 -8 -23 0
-40 5 -40 11 0 8 -4 8 -15 -1 -21 -18 -111 -19 -107 -1 2 11 0 12 -10 4 -20
-17 -104 -27 -113 -14 -3 6 -11 8 -17 5 -19 -12 -138 -15 -138 -4 0 6 -16 3
-39 -6 -45 -18 -87 -15 -83 5 3 12 0 12 -12 1 -13 -10 -16 -10 -16 4 0 20 -26
21 -37 2 -7 -12 -47 -22 -63 -16 -17 6 -50 5 -50 -2 0 -11 -67 -10 -74 1 -8
13 -79 6 -84 -8 -2 -6 -25 -11 -53 -11 -40 0 -49 3 -49 18 -1 16 -1 16 -11 0
-14 -25 -124 -27 -115 -2 6 15 4 15 -16 2 -13 -8 -49 -18 -81 -21 -47 -5 -57
-3 -57 10 0 12 -3 13 -14 4 -11 -10 -17 -8 -25 6 -9 16 -10 16 -11 -4 0 -20
-5 -23 -36 -23 -31 0 -36 3 -31 20 5 19 4 19 -22 -1 -20 -14 -40 -19 -67 -17
-35 3 -39 6 -42 32 -2 18 -11 30 -23 33 -26 7 -24 31 4 36 12 2 -21 5 -73 6
l-96 1 -1 -42 c0 -31 1 -36 6 -19 8 28 31 41 31 17 0 -24 15 -19 34 9 9 14 25
25 36 25 17 0 19 -4 14 -27 -10 -41 -14 -45 -30 -32 -11 9 -14 7 -14 -10 0
-23 -14 -28 -26 -10 -5 8 -10 6 -16 -5 -11 -19 -54 -22 -61 -3 -3 8 -9 7 -18
-5 -9 -12 -22 -16 -36 -12 -26 7 -28 13 -11 48 10 24 12 24 24 9 11 -15 11
-14 7 10 -4 20 -1 27 11 27 9 0 16 4 16 9 0 4 -28 8 -62 7 l-63 -1 -3 79 c-2
47 3 97 11 127 8 27 11 49 7 49 -15 0 -40 31 -34 42 4 6 24 7 48 4 27 -4 50
-1 66 9 l25 14 -32 -3 c-42 -4 -47 0 -66 64 -19 65 -36 264 -24 277 2 1 156 6
343 9 186 4 377 9 423 11 95 5 101 2 101 -64 l0 -43 116 0 117 0 -6 60 c-4 49
-2 62 11 70 16 9 16 11 0 20 -21 13 -24 36 -5 43 9 4 9 6 0 6 -8 1 -14 15 -14
34 -1 21 -3 25 -6 12 -3 -11 -19 -33 -36 -49 -25 -23 -40 -29 -71 -28 -21 1
-44 7 -51 12 -15 12 -41 4 -49 -16 -7 -18 -36 -18 -36 0 0 22 -20 30 -33 13
-15 -18 -95 -29 -119 -16 -11 6 -18 6 -18 1 0 -14 -47 -21 -59 -9 -7 7 -16 6
-27 -4 -13 -10 -18 -11 -21 -2 -3 9 -11 9 -31 1 -15 -7 -68 -12 -119 -12 -78
-1 -93 2 -96 16 -4 14 -15 16 -68 12 -35 -2 -85 -4 -110 -4 -39 1 -47 -3 -52
-20 -6 -22 -38 -27 -79 -11 -21 8 -26 21 -41 98 -9 48 -21 124 -27 168 -6 44
-15 98 -20 120 -5 22 -10 58 -10 81 0 22 -6 48 -13 57 -11 17 -15 16 -54 -3
-23 -11 -48 -20 -55 -20 -7 -1 -24 -7 -38 -15 -22 -13 -23 -14 -5 -15 11 0 37
5 58 11 48 13 55 8 48 -38 -6 -37 -7 -38 -49 -35 -32 3 -42 0 -42 -11 0 -8 6
-15 12 -14 46 1 68 -5 68 -18 0 -8 -5 -15 -12 -15 -8 0 -7 -5 3 -15 13 -13 13
-29 4 -115 -8 -70 -8 -100 0 -100 5 0 5 -4 -2 -8 -7 -4 -13 -23 -15 -41 -1
-18 -6 -35 -10 -37 -4 -3 -8 -16 -8 -29 0 -30 -10 -32 -103 -26 -44 4 -81 3
-84 -1 -2 -5 -14 -8 -26 -9 -12 -1 -2 -5 23 -11 25 -5 75 -8 112 -6 73 3 96
-13 31 -22 l-38 -5 3 -65 c3 -73 19 -147 37 -170 7 -9 9 -26 5 -40 -6 -23 -10
-25 -53 -22 -36 2 -47 0 -47 -12 0 -17 75 -32 115 -22 29 7 33 -8 9 -35 -15
-17 -15 -20 0 -43 12 -19 16 -50 16 -126 l0 -100 -46 0 c-30 0 -43 -4 -38 -11
3 -6 2 -21 -4 -32 -6 -12 -13 -30 -16 -40 -8 -24 -24 -8 -49 46 -10 20 -24 37
-32 37 -18 0 -29 -17 -14 -22 8 -3 4 -18 -10 -46 -12 -23 -24 -42 -27 -42 -8
0 -43 84 -38 92 3 4 -10 8 -28 8 -21 0 -28 -3 -20 -8 13 -9 8 -35 -12 -61 -9
-11 -12 -10 -16 8 -3 12 -9 21 -14 19 -5 -2 -12 7 -17 20 -12 32 -23 28 -54
-23 -31 -49 -43 -48 -65 6 -17 39 -39 34 -66 -15 -20 -36 -23 -37 -33 -19 -6
12 -15 54 -21 94 -11 80 -28 188 -36 230 -4 19 1 28 18 37 l23 11 -22 0 c-16
1 -23 7 -23 21 0 17 8 19 78 22 78 3 103 20 37 26 -30 3 -35 7 -36 30 -1 27
-1 27 -8 -3 -5 -26 -10 -30 -41 -30 -32 0 -35 3 -42 40 -12 53 -5 65 37 65 28
0 38 -5 45 -22 7 -19 9 -20 9 -5 1 16 7 18 39 13 103 -17 208 -23 219 -12 4 3
-5 6 -19 6 -33 0 -216 37 -231 47 -7 4 -20 6 -30 5 -30 -5 -87 18 -87 36 0 11
-8 4 -22 -17 -15 -23 -21 -47 -19 -76 1 -23 -8 -96 -19 -161 -23 -128 -24
-133 -39 -241 -6 -39 -18 -88 -28 -107 l-16 -35 -73 1 c-57 2 -74 6 -78 18 -3
12 -4 11 -5 -2 -1 -13 -10 -18 -31 -18 -30 0 -30 0 -30 56 0 46 -2 54 -14 45
-7 -6 -11 -22 -9 -35 4 -21 1 -25 -23 -29 l-29 -4 28 -2 c43 -2 22 -21 -24
-21 -53 0 -99 33 -99 72 0 39 -37 40 -42 1 -2 -23 -10 -30 -39 -37 -57 -14
-86 -2 -93 39 -9 44 -30 45 -42 3 -9 -31 -13 -33 -61 -36 -49 -3 -53 -1 -68
28 -9 17 -13 34 -10 39 2 5 -2 12 -11 15 -15 6 -15 8 1 26 26 29 11 36 -36 17
-23 -9 -47 -13 -52 -10 -6 4 -21 8 -33 9 -17 2 -24 -3 -26 -19 -2 -18 -11 -23
-53 -28 -42 -4 -47 -7 -28 -15 21 -9 23 -12 23 -35 0 -6 10 -10 23 -9 35 3 47
1 47 -9 0 -14 -141 -12 -158 1 -10 9 -15 9 -21 -1 -5 -7 -23 -11 -47 -9 l-39
3 0 45 c-1 65 -11 76 -74 82 l-54 5 6 -158 c3 -88 9 -163 12 -169 4 -6 60 -10
136 -10 l129 0 0 50 0 51 505 -3 505 -2 0 -110 c-1 -70 -6 -126 -15 -151 -18
-50 -18 -55 0 -55 16 0 21 -16 8 -23 -5 -3 -27 -8 -50 -12 -39 -6 -44 -5 -54
19 -14 29 -29 25 -29 -8 0 -25 24 -39 87 -51 37 -7 38 -8 21 -35 -10 -16 -10
-24 0 -40 7 -12 12 -54 12 -105 0 -83 -1 -85 -24 -85 -13 0 -27 6 -29 13 -4 9
-6 9 -6 0 -1 -7 -13 -13 -27 -13 -20 0 -24 4 -19 19 7 23 -4 71 -16 71 -5 0
-9 -25 -9 -55 0 -53 1 -55 32 -63 30 -7 33 -12 31 -43 -1 -19 1 -24 3 -12 7
30 28 45 56 40 20 -4 20 -4 -4 -6 -16 0 -28 -6 -28 -12 0 -5 4 -8 9 -5 5 4 16
3 25 0 13 -5 15 -17 12 -53 -7 -76 -16 -103 -31 -91 -11 9 -13 4 -11 -25 2
-19 0 -38 -5 -40 -8 -5 -13 8 -24 63 -7 33 -19 42 -28 20 -4 -10 -6 -10 -6 0
-1 6 -6 12 -12 12 -11 0 -9 -216 7 -618 l6 -152 -46 0 c-25 0 -46 -4 -46 -10
0 -5 20 -10 44 -10 l43 0 6 -162 c3 -90 5 -164 4 -164 -6 -5 -547 -37 -551
-33 -6 6 -6 27 -2 297 2 122 0 225 -5 228 -14 8 -10 44 5 44 19 0 152 68 166
85 16 19 -9 60 -42 70 -32 10 -298 104 -327 116 -15 6 -21 13 -14 17 5 4 10
29 9 56 -1 41 -6 55 -31 81 -39 40 -105 63 -140 47 -59 -27 -87 -175 -36 -193
11 -5 21 -14 21 -22 0 -7 13 -26 29 -41 20 -19 26 -32 20 -40 -5 -6 -27 -36
-48 -66 -57 -78 -59 -80 -90 -80 -20 0 -30 6 -34 20 -4 16 -14 20 -46 20 l-41
0 4 -42 c7 -64 43 -90 115 -81 l54 6 -7 -94 c-4 -51 -8 -94 -9 -96 -2 -1 -13
0 -25 4 -19 5 -22 10 -16 38 4 25 2 34 -11 39 -15 5 -17 1 -13 -29 3 -28 0
-36 -17 -42 -11 -4 -23 -6 -28 -5 -4 1 -10 -11 -13 -28 -8 -36 -25 -39 -39 -7
-6 12 -16 23 -22 23 -7 1 -17 2 -23 3 -5 0 -10 6 -10 12 0 5 5 7 11 3 7 -4 6
2 -1 17 -10 17 -10 24 -1 27 16 5 14 22 -4 22 -8 0 -15 5 -15 11 0 5 5 7 10 4
6 -4 10 5 10 20 0 15 4 23 10 20 6 -4 8 7 4 27 -7 48 -6 76 7 100 6 12 7 18 1
14 -6 -4 -8 9 -5 36 4 40 3 42 -11 24 -9 -11 -16 -15 -16 -10 0 6 -9 20 -21
33 -17 18 -18 25 -8 37 6 8 9 17 5 21 -3 3 -6 1 -6 -5 0 -7 -7 -12 -16 -12
-11 0 -14 -6 -9 -21 5 -14 3 -19 -3 -15 -6 3 -13 0 -15 -6 -4 -10 -6 -10 -6 0
-1 7 -6 10 -11 7 -16 -10 -50 5 -50 21 0 19 -36 18 -44 -1 -8 -23 -21 -18 -32
12 l-9 28 -24 -38 c-20 -33 -23 -49 -22 -151 0 -62 4 -124 8 -137 5 -13 8 -51
7 -84 0 -33 4 -63 10 -67 6 -4 -26 -8 -71 -8 -69 0 -81 2 -77 15 4 11 21 15
55 15 27 0 49 5 49 10 0 6 -22 10 -50 10 -49 0 -50 1 -50 30 0 25 4 30 25 30
16 0 25 6 25 15 0 9 -9 15 -25 15 -25 0 -25 1 -25 85 l0 85 50 0 c38 0 50 4
50 15 0 11 -12 15 -50 15 l-50 0 0 108 0 109 100 -5 c88 -4 100 -3 100 12 0
16 -7 17 -172 18 -16 1 -28 5 -28 10 0 6 49 9 122 7 81 -2 123 0 125 7 5 14
-41 24 -116 25 -31 1 -47 3 -36 6 11 2 30 6 42 9 15 3 23 12 23 25 0 13 -5 19
-13 16 -8 -3 -43 -8 -79 -12 l-66 -7 1 33 2 34 123 6 c68 4 126 9 129 13 15
14 -13 18 -129 17 -80 -1 -120 1 -113 8 6 5 25 11 44 13 19 2 36 9 39 16 3 11
-6 12 -42 7 l-46 -7 0 286 c0 189 -3 285 -10 281 -6 -4 -10 -110 -10 -285 0
-198 -3 -281 -11 -286 -9 -5 -10 63 -4 270 4 179 3 276 -3 276 -17 0 -21 -58
-23 -307 l-2 -241 -30 -6 c-16 -3 -46 -6 -66 -6 l-37 0 17 218 c10 119 20 245
24 280 4 42 3 62 -4 62 -6 0 -11 -6 -11 -12 0 -7 -9 -125 -20 -263 -11 -137
-20 -258 -20 -267 0 -10 -5 -18 -10 -18 -7 0 -9 100 -8 295 2 162 0 295 -4
295 -5 0 -9 -15 -9 -32 -1 -18 -3 -25 -6 -15 -2 9 -10 17 -16 17 -9 0 -13
-391 -16 -1640 l-4 -1640 5002 0 5001 0 0 1510 c0 993 -4 1510 -10 1510 -6 0
-10 14 -10 30 0 17 5 30 10 30 6 0 10 106 10 299 0 295 0 299 -21 304 -12 3
-18 10 -14 17 4 6 13 9 21 6 12 -5 14 68 13 492 0 427 -2 493 -14 467 l-13
-30 -1 48 c-1 33 3 49 13 53 12 5 15 56 16 310 0 167 -1 304 -3 304 -2 0 -12
-9 -21 -19z m-1 -108 c-9 -51 -11 -53 -45 -49 -35 4 -41 -11 -7 -16 33 -5 27
-23 -9 -26 -30 -3 -31 -2 -32 42 0 38 4 50 25 66 14 11 37 20 50 20 24 0 25
-2 18 -37z m-105 -43 c0 -38 -4 -50 -15 -50 -11 0 -15 11 -15 43 0 24 3 47 7
50 16 17 23 3 23 -43z m-40 -10 c0 -36 -2 -40 -25 -40 -21 0 -25 5 -25 28 0
30 16 52 37 52 9 0 13 -14 13 -40z m-5190 -205 c0 -84 0 -85 -25 -85 -27 0
-30 11 -15 56 5 16 14 48 20 72 6 23 13 42 15 42 3 0 5 -38 5 -85z m49 -5 c17
-41 31 -78 31 -82 0 -15 -58 -8 -64 8 -6 17 -9 160 -2 153 2 -2 18 -38 35 -79z
m555 40 c4 -5 0 -43 -10 -85 -15 -62 -20 -74 -29 -60 -5 9 -16 24 -23 33 -11
15 -12 14 -3 -5 6 -12 16 -34 21 -49 l11 -27 -62 6 c-33 4 -64 9 -69 12 -10 6
16 145 30 159 7 7 10 6 10 -2 0 -7 5 -18 10 -25 6 -7 17 -21 25 -32 9 -11 7
-1 -5 25 -30 68 -28 72 33 64 28 -4 56 -10 61 -14z m-264 -40 c0 -9 -5 -21
-11 -27 -8 -8 -5 -15 12 -24 31 -16 48 -39 49 -63 0 -17 -5 -18 -52 -12 -29 4
-53 8 -54 9 -1 1 5 40 13 86 14 76 17 82 29 66 8 -10 14 -26 14 -35z m373 31
c21 -5 41 -12 44 -15 3 -3 0 -29 -7 -58 -18 -82 -21 -89 -31 -82 -6 3 -7 -4
-3 -20 7 -29 1 -31 -80 -20 -54 8 -54 8 -29 120 l17 76 18 -37 c11 -20 22 -35
25 -32 3 3 -2 16 -11 29 -33 46 -18 56 57 39z m-764 -55 c-6 -25 -15 -46 -20
-46 -13 0 -11 14 7 60 21 53 28 45 13 -14z m957 21 c3 -3 1 -30 -5 -59 -7 -29
-15 -64 -18 -78 l-5 -25 -9 24 c-5 13 -12 21 -15 18 -3 -3 -1 -14 5 -25 21
-40 15 -45 -46 -37 -32 4 -61 10 -65 13 -6 6 19 152 28 161 2 3 11 -4 20 -15
15 -18 15 -18 5 3 -6 12 -11 25 -11 29 0 8 107 0 116 -9z m154 -15 c0 -12 -22
-138 -26 -152 -3 -9 -20 12 -44 55 -22 39 -40 66 -40 61 0 -4 17 -39 37 -76
21 -38 35 -72 31 -76 -4 -3 -33 -2 -65 2 -66 10 -63 2 -42 122 9 49 14 60 24
52 10 -9 12 -7 9 7 -5 16 1 18 55 15 34 -2 61 -6 61 -10z m101 -32 c4 -16 7
-18 8 -7 1 10 9 17 21 17 23 0 23 1 9 -76 -14 -71 -29 -92 -30 -43 -1 30 -2
31 -8 9 -7 -24 -8 -23 -24 18 -9 23 -19 42 -22 42 -6 0 9 -39 35 -91 12 -22
19 -43 16 -46 -3 -3 -31 -1 -63 3 l-58 9 3 41 c2 22 9 65 16 95 l12 54 18 -30
c16 -27 16 -19 0 21 -6 13 0 15 27 12 26 -2 35 -9 40 -28z m103 -6 c9 -8 16
-11 16 -5 0 13 66 15 74 2 6 -8 -9 -110 -20 -141 -4 -11 -10 -7 -21 15 -9 17
-19 32 -23 35 -10 7 -50 87 -50 100 0 14 6 13 24 -6z m-2990 -92 c5 -39 3 -51
-5 -46 -7 4 -5 -6 4 -22 15 -27 47 -169 47 -207 0 -11 -8 -17 -24 -17 -14 0
-28 -4 -31 -10 -9 -15 -41 -12 -54 4 -10 11 -10 20 0 37 9 17 9 24 0 27 -6 2
-11 13 -11 23 0 11 5 17 10 14 6 -3 10 4 11 17 1 56 10 144 16 158 6 15 7 22
12 85 2 26 3 27 10 10 5 -11 11 -44 15 -73z m3002 -3 c25 -50 43 -93 41 -96
-3 -2 -31 0 -63 4 -58 8 -59 9 -57 38 4 39 25 145 29 145 2 0 24 -41 50 -91z
m236 72 c4 -3 3 -24 -1 -46 -5 -22 -12 -58 -16 -80 l-7 -40 -14 28 c-21 39
-27 33 -7 -8 9 -19 15 -37 12 -39 -2 -3 -23 -2 -46 1 -39 5 -41 7 -48 47 l-8
41 -7 -33 c-8 -34 -17 -49 -25 -41 -5 6 23 170 30 178 3 2 12 -4 20 -15 13
-18 14 -18 8 5 -6 23 -5 23 48 16 30 -4 57 -10 61 -14z m-1087 -39 c-6 -15 -8
-14 -16 6 -11 29 0 52 13 28 5 -10 7 -25 3 -34z m1235 3 c0 -50 -23 -126 -37
-121 -10 4 -11 1 -3 -14 5 -10 10 -23 10 -28 0 -8 -117 2 -127 11 -5 6 16 146
24 160 3 4 11 3 18 -3 11 -9 12 -7 9 7 -5 16 1 18 50 15 51 -4 56 -6 56 -27z
m140 -13 c0 -33 -24 -132 -33 -132 -4 0 -5 -9 -2 -20 7 -22 3 -23 -69 -14 -41
6 -46 9 -46 33 0 39 27 143 38 150 6 3 33 4 61 3 39 -3 51 -8 51 -20z m68 -94
c23 -50 40 -93 37 -96 -2 -2 -30 0 -62 4 -54 8 -58 11 -55 34 6 60 25 150 31
150 3 0 25 -41 49 -92z m3449 48 c-4 -9 -11 -16 -17 -16 -11 0 -14 33 -3 44
11 10 26 -11 20 -28z m-2968 -185 c1 -11 -11 -12 -56 -7 -31 4 -59 9 -61 11
-6 5 18 156 26 169 6 10 91 -150 91 -173z m2961 133 c0 -7 -9 -18 -20 -24 -21
-11 -23 -8 -14 27 6 23 34 21 34 -3z m-2465 -153 c8 -24 15 -45 15 -47 0 -2
-14 -4 -31 -4 -26 0 -30 3 -24 18 15 33 11 66 -9 70 -10 2 -23 -2 -28 -10 -11
-15 -3 85 7 103 7 11 45 -60 70 -130z m2465 90 c0 -46 -12 -91 -24 -91 -6 0
-17 9 -23 19 -10 16 -10 27 1 53 24 56 46 66 46 19z m-2031 -11 c23 0 23 -2
17 -52 -11 -80 -21 -90 -41 -40 -10 24 -19 41 -21 39 -3 -2 3 -20 11 -41 14
-34 14 -37 -2 -42 -10 -3 -26 -10 -37 -16 -29 -15 -34 1 -25 76 9 73 20 90 54
81 11 -2 31 -5 44 -5z m51 -22 c0 -10 2 -10 9 0 5 8 23 12 47 10 43 -3 42 2
26 -93 l-8 -50 -32 60 c-17 33 -31 56 -32 52 0 -4 14 -34 30 -67 41 -81 40
-84 -21 -77 -29 4 -54 8 -56 11 -8 7 19 166 28 166 5 0 9 -6 9 -12z m193 -8
c19 0 23 -38 11 -100 l-7 -32 -33 58 c-42 73 -44 60 -4 -16 34 -62 39 -96 14
-86 -9 3 -31 6 -50 6 l-34 0 1 53 c2 69 12 113 27 110 7 -2 12 2 12 8 0 7 9 9
23 5 12 -3 30 -6 40 -6z m57 -22 c0 17 15 15 34 -4 9 -8 16 -11 16 -5 0 5 19
9 41 9 l42 0 -6 -58 c-8 -69 -23 -113 -37 -105 -6 4 -24 33 -40 66 -17 32 -33
59 -35 59 -3 0 9 -27 26 -61 16 -34 28 -63 26 -66 -3 -2 -28 -1 -57 3 l-52 7
7 69 c8 85 14 105 26 86 7 -10 9 -10 9 0z m228 -4 c15 -4 22 -14 23 -33 1 -17
3 -20 6 -8 7 26 20 21 32 -13 5 -16 12 -30 15 -30 3 0 1 12 -4 26 -14 35 -13
43 7 40 9 -2 19 -11 23 -21 6 -17 7 -17 13 -2 9 24 27 21 27 -5 l0 -21 19 21
c22 26 25 27 45 6 9 -8 16 -11 16 -5 0 6 10 11 21 11 20 0 21 -3 14 -57 -4
-32 -10 -62 -14 -66 -4 -4 -16 11 -26 33 -10 23 -22 43 -27 46 -4 3 6 -23 22
-57 16 -34 28 -65 26 -68 -2 -3 -28 -4 -56 -2 l-53 3 6 57 c5 49 4 52 -5 21
l-10 -35 -15 25 c-9 16 -12 18 -7 5 20 -60 19 -65 -22 -65 -60 0 -67 9 -59 71
7 55 0 67 -9 15 -8 -42 -11 -41 -31 9 -9 26 -19 44 -22 41 -3 -2 5 -26 16 -51
32 -72 29 -77 -26 -69 -27 3 -49 8 -51 9 -3 3 17 133 24 155 4 11 9 9 20 -10
l14 -25 -6 28 c-7 29 5 34 54 21z m1467 -44 c0 -22 -29 -18 -33 3 -3 14 1 18
15 15 10 -2 18 -10 18 -18z m-1137 -2 c7 -7 12 -28 12 -47 l-1 -36 -19 35
c-28 52 -24 80 8 48z m-1348 -8 c0 -5 -7 -10 -15 -10 -8 0 -15 5 -15 10 0 6 7
10 15 10 8 0 15 -4 15 -10z m1338 -68 c42 -104 42 -105 -15 -96 -27 3 -49 8
-51 9 -6 5 21 165 28 165 3 0 20 -35 38 -78z m1212 7 c0 -44 -4 -68 -10 -64
-18 11 -12 135 7 135 2 0 3 -32 3 -71z m-1026 52 c3 -4 1 -37 -6 -71 l-11 -63
-32 69 c-42 88 -44 78 -4 -16 17 -40 28 -74 26 -77 -3 -2 -22 5 -43 16 -30 16
-41 29 -45 53 l-6 33 -2 -32 c-2 -66 -31 -25 -31 45 0 36 22 44 39 15 9 -16
10 -16 11 4 0 12 6 24 13 26 21 9 86 7 91 -2z m93 -15 c3 -2 1 -30 -2 -61 -5
-37 -10 -52 -16 -44 -5 8 -6 -2 -2 -23 6 -41 4 -42 -46 -32 -31 7 -32 7 -26
53 15 115 15 118 31 96 14 -18 14 -18 14 3 0 16 5 20 21 17 12 -3 24 -6 26 -9z
m143 -15 c0 -5 -5 -11 -11 -13 -7 -2 0 -29 20 -72 17 -38 31 -73 31 -78 0 -5
-19 -8 -42 -6 l-43 3 1 72 c0 43 5 78 13 87 15 18 31 21 31 7z m740 -37 c0
-63 -33 -54 -42 11 -3 26 0 30 19 31 21 2 23 -3 23 -42z m-2020 26 c0 -5 -7
-10 -15 -10 -8 0 -15 5 -15 10 0 6 7 10 15 10 8 0 15 -4 15 -10z m1342 5 c8
-8 -3 -55 -12 -55 -5 0 -13 14 -19 30 -9 26 -8 30 8 30 10 0 20 -2 23 -5z
m624 -42 c-10 -10 -19 5 -10 18 6 11 8 11 12 0 2 -7 1 -15 -2 -18z m-6965 4
c-1 -12 -15 -9 -19 4 -3 6 1 10 8 8 6 -3 11 -8 11 -12z m50 -10 c-13 -13 -26
-3 -16 12 3 6 11 8 17 5 6 -4 6 -10 -1 -17z m-91 3 c0 -5 -4 -10 -10 -10 -5 0
-10 5 -10 10 0 6 5 10 10 10 6 0 10 -4 10 -10z m6827 -176 c-2 -2 -23 0 -48 4
-49 9 -49 7 -32 122 l6 45 39 -84 c21 -46 37 -85 35 -87z m193 141 c10 -12 7
-19 -16 -40 -15 -14 -29 -23 -31 -21 -2 2 -1 20 2 40 8 38 24 46 45 21z m-110
-87 c0 -10 -7 -18 -15 -18 -8 0 -14 -3 -14 -7 4 -22 -3 -33 -17 -33 -14 0 -15
9 -9 68 4 37 10 71 13 77 7 11 41 -61 42 -87z m-2220 51 c0 -10 -4 -19 -10
-19 -5 0 -10 12 -10 26 0 14 4 23 10 19 6 -3 10 -15 10 -26z m330 6 c0 -14 -4
-25 -10 -25 -5 0 -9 11 -8 25 1 14 6 25 10 25 4 0 8 -11 8 -25z m2038 -52 c-3
-45 -5 -48 -34 -51 -19 -2 -36 3 -44 13 -11 13 -7 20 24 50 21 19 42 35 47 35
6 0 9 -21 7 -47z m47 -2 c-4 -17 -11 -31 -16 -31 -10 0 -12 63 -2 74 14 13 25
-13 18 -43z m-6998 -87 c-3 -3 -12 -4 -19 -1 -8 3 -5 6 6 6 11 1 17 -2 13 -5z
m-857 -66 c0 -13 5 -65 10 -117 7 -68 7 -98 -1 -107 -7 -9 -8 -14 -1 -14 14 0
20 -133 7 -142 -6 -4 -2 -13 9 -21 15 -11 17 -21 12 -49 -6 -33 -10 -36 -48
-41 -23 -3 -46 -3 -50 -1 -13 8 -9 48 8 72 13 19 18 21 32 10 13 -11 14 -11 8
1 -5 8 -3 17 5 22 10 6 6 9 -13 9 -26 0 -27 1 -23 64 1 35 6 69 10 76 4 6 2
17 -4 24 -8 9 -7 42 4 117 8 57 15 107 15 112 0 19 20 4 20 -15z m850 -3 c0
-8 -7 -15 -15 -15 -8 0 -15 7 -15 15 0 8 7 15 15 15 8 0 15 -7 15 -15z m58
-28 c2 -10 -3 -17 -12 -17 -10 0 -16 9 -16 21 0 24 23 21 28 -4z m6500 -69
c-3 -88 -4 -93 -25 -96 -22 -3 -23 -1 -23 92 l0 96 25 0 26 0 -3 -92z m-6718
73 c0 -5 -7 -11 -15 -15 -9 -3 -15 0 -15 9 0 8 7 15 15 15 8 0 15 -4 15 -9z
m60 5 c0 -3 -4 -8 -10 -11 -5 -3 -10 -1 -10 4 0 6 5 11 10 11 6 0 10 -2 10 -4z
m90 -71 c0 -11 -12 -15 -50 -15 -38 0 -50 4 -50 15 0 11 12 15 50 15 38 0 50
-4 50 -15z m0 -45 c6 -11 9 -20 6 -20 -3 0 1 -15 8 -32 8 -18 14 -66 14 -106
1 -63 -1 -73 -16 -70 -9 1 -23 -1 -30 -6 -19 -11 -79 2 -86 19 -3 8 -5 55 -5
105 l0 90 42 1 c36 0 39 2 19 10 -13 5 -20 13 -17 19 11 18 54 11 65 -10z
m-2170 -224 c0 -13 -3 -32 -6 -40 -10 -25 -34 0 -34 35 0 22 5 29 20 29 14 0
20 -7 20 -24z m406 -29 c3 -19 -23 -50 -36 -42 -4 3 -10 19 -12 35 -4 28 -2
31 20 28 15 -2 26 -10 28 -21z m1611 -38 c-6 -46 -19 -59 -59 -59 -32 0 -34 7
-12 58 l16 37 15 -34 c16 -38 29 -37 14 2 -11 27 -6 37 17 37 11 0 13 -9 9
-41z m148 9 c-9 -39 -25 -62 -36 -51 -4 4 -11 25 -14 46 -7 36 -7 37 25 37 30
0 31 -1 25 -32z m115 4 c0 -27 -32 -66 -44 -55 -3 4 -6 24 -6 45 0 34 3 38 25
38 21 0 25 -5 25 -28z m-180 8 c0 -5 -2 -10 -4 -10 -3 0 -8 5 -11 10 -3 6 -1
10 4 10 6 0 11 -4 11 -10z m-1660 -10 c0 -5 -4 -10 -10 -10 -5 0 -10 5 -10 10
0 6 5 10 10 10 6 0 10 -4 10 -10z m1763 -52 c-5 -9 -43 -11 -43 -2 0 3 8 19
18 36 l17 29 6 -28 c3 -15 4 -31 2 -35z m-552 0 c8 -14 6 -18 -10 -18 -11 0
-26 -3 -35 -6 -19 -7 -21 12 -5 53 10 27 11 28 25 8 9 -11 20 -28 25 -37z m94
21 c19 -36 16 -42 -17 -37 -22 3 -24 6 -16 36 5 17 11 32 13 32 2 0 12 -14 20
-31z m105 17 c0 -7 7 -19 15 -26 23 -19 18 -30 -15 -30 -31 0 -34 7 -24 48 7
24 24 30 24 8z m-338 -31 l18 -35 -40 0 c-22 0 -40 5 -40 11 0 5 4 7 10 4 6
-3 7 1 4 9 -3 9 -1 16 5 16 6 0 8 7 5 15 -12 31 22 13 38 -20z m588 11 c0 -26
-14 -41 -29 -32 -13 8 0 56 15 56 8 0 14 -10 14 -24z m6950 -23 c0 -20 -3 -24
-11 -16 -7 7 -9 19 -6 27 10 24 17 19 17 -11z m-8325 7 c-3 -5 -17 -10 -30
-10 -13 0 -27 5 -30 10 -4 6 8 10 30 10 22 0 34 -4 30 -10z m1815 0 c0 -5 -7
-10 -15 -10 -8 0 -15 5 -15 10 0 6 7 10 15 10 8 0 15 -4 15 -10z m-340 -228
c4 -306 3 -331 -10 -347 -9 -11 -9 -19 -2 -28 7 -7 9 -29 6 -49 -4 -20 -2 -44
4 -53 14 -25 4 -55 -16 -48 -13 4 -12 2 2 -9 18 -14 19 -25 12 -153 -5 -106
-11 -145 -26 -174 l-19 -36 -1 64 c0 49 4 67 18 78 13 10 13 13 2 11 -13 -3
-15 13 -12 100 1 57 -1 102 -6 102 -15 0 -18 -33 -20 -190 -3 -160 -10 -232
-23 -225 -4 3 -6 -4 -4 -15 2 -11 -4 -39 -14 -62 -17 -41 -17 -38 -16 218 1
142 0 263 -3 268 -3 5 -6 26 -6 47 -2 33 1 38 26 43 33 6 37 21 8 29 -24 6
-28 47 -5 47 12 0 12 3 -2 18 -10 11 -21 17 -26 15 -4 -3 -7 18 -6 46 1 28 6
51 11 51 5 0 6 5 2 12 -4 7 -9 60 -10 118 -1 58 -3 141 -4 185 -3 119 -5 113
38 117 20 2 51 1 68 0 l32 -4 2 -176z m-179 146 c1 -18 3 -51 4 -73 2 -22 7
-329 11 -682 l7 -643 -106 0 c-65 0 -107 -4 -107 -10 0 -6 42 -10 105 -10
l105 0 0 -105 0 -105 -65 0 c-82 0 -85 -16 -5 -22 33 -2 62 -6 65 -9 2 -3 6
-71 8 -152 2 -81 7 -150 10 -154 8 -7 9 6 13 177 2 63 3 118 3 123 1 4 7 7 15
7 16 0 16 18 -4 -304 -6 -88 -10 -174 -10 -193 0 -30 -3 -33 -30 -33 l-30 0 7
130 c4 85 3 130 -4 130 -10 0 -23 -120 -23 -212 l0 -48 -56 0 -55 0 3 125 c2
78 -1 125 -7 125 -6 0 -11 -50 -13 -125 l-3 -125 -30 0 -31 0 2 103 c2 138 2
149 -10 142 -5 -3 -10 1 -10 9 0 9 -4 16 -9 16 -12 0 -21 -78 -21 -183 0 -88
0 -89 -22 -83 -13 3 -27 6 -31 6 -5 0 -5 59 -1 130 5 87 3 130 -4 130 -18 0
-22 -29 -22 -151 l0 -119 -90 0 -90 0 0 63 c0 34 3 106 7 160 l6 97 29 0 c18
0 28 5 28 15 0 10 -10 15 -31 15 l-32 0 6 83 c4 45 7 97 7 115 0 30 2 32 34
32 19 0 38 5 41 10 4 6 -10 10 -36 10 l-42 0 7 113 c3 61 9 195 12 297 3 102
11 203 17 225 21 76 12 133 -19 121 -8 -3 -14 -1 -14 4 0 6 -4 10 -10 10 -6 0
-10 -26 -10 -59 0 -52 -2 -59 -18 -54 -14 3 -21 20 -28 63 -5 32 -6 68 -2 79
4 12 3 21 -1 21 -5 0 -8 18 -8 40 2 28 6 40 17 40 24 0 38 -13 43 -40 4 -15 5
-11 3 12 -2 36 -1 37 34 40 35 3 35 3 38 56 l3 52 -45 0 c-25 0 -48 -4 -51
-10 -4 -6 5 -10 20 -10 20 0 26 -4 21 -15 -3 -8 0 -14 6 -12 6 1 13 -4 15 -10
3 -9 -4 -12 -21 -11 -14 1 -26 7 -26 12 0 5 -7 1 -15 -10 -14 -18 -14 -18 -16
6 -2 41 -8 83 -14 108 -4 16 2 33 20 54 19 22 25 40 23 62 -3 27 2 33 35 49
37 19 45 39 27 67 -8 12 -10 10 -11 -10 -1 -14 -1 -28 -1 -31 1 -3 -19 -6 -44
-7 -33 0 -44 3 -41 12 3 7 -1 44 -9 82 -19 91 -15 253 6 255 33 3 381 16 473
17 l97 2 1 -32z m7099 22 c0 -5 -14 -10 -31 -10 -17 0 -28 4 -24 10 3 6 17 10
31 10 13 0 24 -4 24 -10z m20 -170 c0 -5 -25 -10 -55 -10 -30 0 -55 5 -55 10
0 6 25 10 55 10 30 0 55 -4 55 -10z m-13 -64 c-3 -7 -1 -18 5 -24 8 -8 8 -15
-1 -26 -8 -10 -9 -16 -1 -21 16 -10 12 -45 -6 -52 -13 -5 -13 -7 -2 -14 8 -6
2 -9 -21 -9 -30 0 -32 2 -20 16 12 14 11 16 -6 13 -11 -3 -20 -10 -20 -17 0
-6 -4 -12 -10 -12 -11 0 -20 103 -11 127 5 13 9 14 18 5 18 -18 30 -14 23 8
-5 17 -2 20 25 20 23 0 31 -4 27 -14z m-7857 -86 c0 -5 -5 -10 -11 -10 -5 0
-7 5 -4 10 3 6 8 10 11 10 2 0 4 -4 4 -10z m131 -3 c-1 -12 -15 -9 -19 4 -3 6
1 10 8 8 6 -3 11 -8 11 -12z m60 -140 c-8 -8 -11 -7 -11 4 0 20 13 34 18 19 3
-7 -1 -17 -7 -23z m-123 -64 c2 -9 -7 -13 -27 -13 -19 0 -31 5 -31 14 0 17 52
16 58 -1z m-29 -45 c11 -10 13 -10 7 0 -4 6 -3 12 2 12 9 0 22 -23 22 -40 0
-4 -16 -10 -35 -12 -33 -4 -35 -2 -35 24 0 30 17 37 39 16z m7591 -34 c0 -8
11 -19 25 -24 25 -9 25 -11 25 -129 0 -99 -3 -120 -16 -125 -9 -3 -20 -4 -25
0 -5 3 -12 -3 -16 -12 -14 -37 -22 21 -22 168 -1 127 1 147 14 142 8 -4 15
-13 15 -20z m260 -9 c0 -26 -7 -29 -34 -19 -27 10 -20 44 9 44 20 0 25 -5 25
-25z m-7870 -25 c0 -5 -4 -10 -10 -10 -5 0 -10 5 -10 10 0 6 5 10 10 10 6 0
10 -4 10 -10z m7791 -47 c13 -34 -8 -65 -33 -50 -17 11 -26 66 -12 80 11 11
35 -5 45 -30z m-3604 -4 c66 -6 125 -14 131 -18 5 -3 11 -188 15 -448 l6 -443
-50 0 c-27 0 -49 -4 -49 -10 0 -5 20 -10 44 -10 41 0 44 -2 48 -31 l5 -31 -96
6 c-53 4 -136 9 -185 13 l-88 6 6 156 c3 86 8 275 11 421 3 146 8 298 11 338
l6 74 31 -6 c18 -3 87 -10 154 -17z m-4137 -32 c0 -9 -11 -12 -35 -9 -19 2
-35 7 -35 11 0 4 16 8 35 9 22 1 35 -3 35 -11z m4360 3 c13 -8 16 -72 19 -451
l3 -441 -33 7 c-19 4 -37 10 -40 14 -4 3 -9 203 -11 444 l-5 437 26 0 c14 0
33 -5 41 -10z m3430 -16 c0 -8 -4 -14 -10 -14 -5 0 -10 9 -10 21 0 11 5 17 10
14 6 -3 10 -13 10 -21z m-3353 8 c8 -5 13 -130 19 -445 l7 -437 -30 0 -30 0
-6 308 c-4 169 -7 369 -7 445 0 124 2 137 18 137 9 0 22 -4 29 -8z m47 -39 c3
-21 6 -132 7 -248 1 -115 4 -297 8 -403 4 -141 3 -192 -5 -192 -14 0 -22 180
-27 593 -3 268 2 339 17 250z m57 -68 c4 -55 10 -169 13 -252 7 -150 7 -153
-13 -153 -27 0 -27 -20 -1 -27 26 -7 26 -40 -1 -48 -11 -4 -22 -5 -24 -3 -2 2
-7 135 -11 297 -7 285 -7 293 12 289 17 -3 20 -16 25 -103z m69 -155 c0 -206
-2 -250 -14 -250 -16 0 -23 63 -32 323 l-7 177 27 0 26 0 0 -250z m20 -10 l-6
-245 -2 255 c-1 139 1 250 6 245 4 -6 5 -120 2 -255z m106 3 c-4 -136 -8 -248
-9 -250 -1 -1 -22 1 -46 4 -41 6 -43 7 -37 36 3 16 6 126 6 243 l0 214 47 0
46 0 -7 -247z m3121 180 c-2 -16 -4 -5 -4 22 0 28 2 40 4 28 2 -13 2 -35 0
-50z m-2802 32 c138 -13 309 -31 380 -40 72 -8 135 -15 141 -15 19 0 27 -63 9
-73 -8 -4 -22 -22 -31 -39 -15 -28 -14 -31 5 -52 12 -12 19 -25 16 -28 -3 -3
-12 -27 -19 -54 -30 -103 -48 -142 -77 -163 -30 -22 -32 -22 -309 -15 -236 6
-280 9 -280 22 0 10 -6 12 -22 8 -13 -4 -44 -9 -70 -13 l-48 -6 0 164 c0 90 3
201 7 247 5 75 8 82 27 82 12 0 134 -11 271 -25z m2765 11 c0 -22 -13 -26 -33
-11 -18 13 -18 13 0 18 31 8 33 7 33 -7z m-7833 -6 c6 0 11 -15 10 -35 -1 -28
-4 -34 -16 -29 -9 3 -23 8 -32 11 -10 3 -16 15 -15 34 1 25 4 29 21 25 11 -3
25 -6 32 -6z m7680 -72 c-3 -8 -6 -5 -6 6 -1 11 2 17 5 13 3 -3 4 -12 1 -19z
m-1123 -172 c-4 -106 -11 -176 -17 -176 -11 0 -3 267 9 328 13 63 15 23 8
-152z m1185 175 c10 -7 11 -13 2 -30 -15 -27 -17 -27 -30 9 -11 32 -1 39 28
21z m-6361 -174 l3 -152 -36 38 c-35 38 -35 38 -35 133 0 52 4 94 9 94 5 0 14
14 20 32 9 25 14 29 24 19 8 -8 13 -60 15 -164z m6432 112 c0 -5 -7 -9 -15 -9
-9 0 -15 9 -15 21 0 18 2 19 15 9 8 -7 15 -16 15 -21z m20 -49 c0 -13 -7 -20
-20 -20 -19 0 -27 20 -13 33 13 14 33 6 33 -13z m-9740 1 c0 -11 -120 -19
-126 -9 -5 7 31 14 89 17 20 0 37 -3 37 -8z m3200 -63 c-1 -66 -2 -71 -15 -54
-8 11 -15 27 -15 35 0 9 -7 25 -15 35 -25 33 -19 56 15 56 l30 0 0 -72z
m-3340 52 c0 -5 -5 -10 -11 -10 -5 0 -7 5 -4 10 3 6 8 10 11 10 2 0 4 -4 4
-10z m8939 -31 c22 -29 22 -31 5 -50 -27 -30 -34 -23 -34 31 0 28 1 50 3 50 2
0 13 -14 26 -31z m-8799 -33 l0 -44 -66 -7 c-36 -4 -67 -5 -68 -3 -1 1 -1 24
2 51 l4 47 64 0 64 0 0 -44z m48 4 c2 -23 -2 -40 -8 -40 -5 0 -10 18 -10 40 0
22 4 40 8 40 4 0 9 -18 10 -40z m1686 26 c22 8 25 -27 32 -318 l7 -278 -30 0
-30 0 -6 203 c-9 259 -9 371 0 393 4 10 8 13 10 7 3 -7 10 -10 17 -7z m326
-211 c-5 -121 -9 -257 -10 -302 l0 -83 -30 0 c-17 0 -30 5 -30 13 0 8 -4 7
-10 -3 -8 -13 -10 -12 -10 3 0 9 7 17 17 17 15 0 14 2 -3 15 -13 11 -14 14 -4
13 11 -2 14 5 13 25 -1 15 3 27 10 27 7 0 6 4 -3 10 -8 5 -10 10 -4 10 8 0 12
32 13 93 1 83 9 312 10 329 1 4 10 10 22 13 20 7 20 7 2 22 -10 8 -13 12 -6 9
6 -4 15 -1 18 5 4 5 8 9 10 7 2 -2 -1 -102 -5 -223z m-183 -82 c-4 -164 -7
-299 -7 -300 0 -2 -4 -3 -9 -3 -5 0 -9 126 -10 279 -2 214 1 284 11 300 7 12
15 21 17 21 2 0 1 -134 -2 -297z m53 257 c0 -5 -4 -10 -10 -10 -5 0 -10 5 -10
10 0 6 5 10 10 10 6 0 10 -4 10 -10z m-2083 -42 c-3 -7 -5 -2 -5 12 0 14 2 19
5 13 2 -7 2 -19 0 -25z m9631 -93 c-1 -94 -1 -96 -8 -40 -12 92 -12 173 0 155
5 -8 9 -60 8 -115z m-7553 105 c3 -5 -1 -10 -9 -10 -9 0 -16 5 -16 10 0 6 4
10 9 10 6 0 13 -4 16 -10z m7675 -32 c0 -18 -2 -20 -9 -8 -6 8 -7 18 -5 22 9
14 14 9 14 -14z m80 -2 c0 -16 -7 -26 -22 -30 -36 -9 -38 -8 -38 24 0 27 3 30
30 30 25 0 30 -4 30 -24z m-7765 -6 c-4 -11 -2 -20 4 -20 12 0 10 -48 -3 -68
-4 -7 -1 -12 9 -12 12 0 14 -4 6 -19 -9 -17 -8 -52 5 -92 2 -9 -2 -24 -11 -32
-19 -20 -19 -34 1 -45 14 -8 14 -13 4 -32 -8 -15 -8 -20 -1 -16 6 4 11 3 11
-2 0 -6 -6 -12 -13 -15 -9 -3 -12 -16 -9 -36 2 -17 9 -28 14 -25 6 4 5 -2 -1
-14 -14 -26 -14 -35 -1 -27 6 3 10 -3 10 -14 0 -14 -6 -21 -19 -21 -18 0 -19
11 -20 238 0 221 3 272 15 272 3 0 2 -9 -1 -20z m6775 -80 c0 -60 -4 -100 -10
-100 -6 0 -10 40 -10 100 0 60 4 100 10 100 6 0 10 -40 10 -100z m-90 -5 c0
-93 0 -95 -24 -95 -21 0 -24 5 -30 61 -3 34 -6 77 -6 95 0 31 3 34 30 34 l30
0 0 -95z m50 0 c0 -88 -1 -95 -20 -95 -19 0 -20 7 -20 95 0 88 1 95 20 95 19
0 20 -7 20 -95z m-6973 -97 c-2 -35 -3 -7 -3 62 0 69 1 97 3 63 2 -35 2 -91 0
-125z m8100 160 c-3 -8 -6 -5 -6 6 -1 11 2 17 5 13 3 -3 4 -12 1 -19z m-252
-38 c0 -54 -21 -65 -31 -16 -7 42 1 69 19 63 7 -2 12 -21 12 -47z m-9557 33
c-21 -2 -55 -2 -75 0 -21 2 -4 4 37 4 41 0 58 -2 38 -4z m1849 -110 c-2 -21
-4 -4 -4 37 0 41 2 58 4 38 2 -21 2 -55 0 -75z m7783 85 c0 -18 -2 -20 -9 -8
-6 8 -7 18 -5 22 9 14 14 9 14 -14z m-6442 -19 l24 -29 -40 0 c-34 0 -38 3
-38 23 1 20 13 37 26 36 3 0 15 -13 28 -30z m6567 21 c3 -5 1 -10 -4 -10 -6 0
-11 5 -11 10 0 6 2 10 4 10 3 0 8 -4 11 -10z m-9747 -6 c21 -6 22 -11 22 -110
l0 -104 -75 0 -75 0 0 33 c0 19 3 68 6 110 l7 77 46 0 c25 0 56 -3 69 -6z
m8539 -31 c-3 -10 -5 -4 -5 12 0 17 2 24 5 18 2 -7 2 -21 0 -30z m-8477 -78
c0 -63 -4 -105 -10 -105 -6 0 -10 42 -10 105 0 63 4 105 10 105 6 0 10 -42 10
-105z m9150 36 c-4 -9 -17 -25 -29 -35 -22 -20 -23 -19 -34 33 -3 13 -1 31 5
41 11 17 13 17 39 -3 21 -15 26 -24 19 -36z m-6000 -21 c0 -5 -11 -10 -24 -10
-14 0 -28 5 -31 10 -4 6 7 10 24 10 17 0 31 -4 31 -10z m6500 1 c0 -13 -27
-21 -45 -15 -8 4 -12 10 -9 15 7 12 54 12 54 0z m-3162 -29 c2 -7 -3 -12 -12
-12 -9 0 -16 7 -16 16 0 17 22 14 28 -4z m62 8 c0 -5 -8 -10 -17 -10 -15 0
-16 2 -3 10 19 12 20 12 20 0z m532 -22 c212 -10 237 -13 241 -29 5 -18 32
-20 70 -6 48 19 49 19 42 -16 -4 -17 -10 -35 -14 -38 -3 -4 -143 -23 -311 -43
-167 -20 -306 -39 -309 -41 -20 -20 32 -16 489 41 153 19 144 20 136 -18 -4
-18 -12 -60 -17 -93 -16 -96 -17 -98 -42 -80 -12 8 -29 15 -39 15 -10 0 -18 7
-18 15 0 15 21 20 34 8 3 -4 17 -8 29 -10 18 -2 16 1 -10 18 -28 18 -37 19
-67 9 -35 -11 -69 -40 -47 -40 6 0 11 -5 11 -11 0 -5 -5 -7 -10 -4 -6 3 -13
-1 -16 -9 -9 -23 -44 -20 -44 3 0 11 -9 21 -22 24 -21 5 -21 5 -5 -7 9 -7 17
-16 17 -20 0 -11 -41 -6 -72 10 -22 12 -27 19 -19 27 6 6 11 21 11 34 0 13 6
23 14 23 8 0 16 7 20 15 3 8 17 15 31 15 14 0 25 5 25 11 0 7 -10 9 -27 4 -76
-19 -92 -27 -88 -38 2 -7 -11 -22 -30 -34 -37 -24 -44 -20 -21 13 13 18 12 20
-4 21 -12 1 -34 -18 -59 -51 -22 -29 -55 -65 -72 -80 l-32 -29 -116 8 c-64 4
-118 8 -120 10 -9 10 17 25 94 55 47 19 85 40 85 47 0 18 -5 17 -90 -12 -40
-14 -77 -25 -82 -25 -10 0 -11 304 -1 313 10 11 193 9 455 -5z m-476 -75 c-3
-42 -6 -111 -6 -153 l0 -78 -40 -4 -40 -4 0 147 c0 141 1 146 23 157 12 6 33
11 46 11 24 1 24 0 17 -76z m1483 61 c8 -7 -104 -2 -134 6 -18 5 3 6 50 3 44
-3 82 -7 84 -9z m1561 6 c0 -5 -11 -10 -24 -10 -14 0 -28 5 -31 10 -4 6 7 10
24 10 17 0 31 -4 31 -10z m60 0 c0 -5 -9 -10 -19 -10 -11 0 -23 5 -26 10 -4 6
5 10 19 10 14 0 26 -4 26 -10z m-1510 -10 c0 -6 -16 -8 -42 -4 -59 9 -60 14
-5 14 26 0 47 -5 47 -10z m149 -187 c-3 -140 -7 -196 -16 -201 -11 -7 -48 -8
-95 -3 -5 1 -8 82 -8 181 l0 180 38 0 c20 0 44 5 52 10 11 7 0 10 -37 10 -30
0 -53 5 -53 11 0 6 24 9 61 8 l61 -2 -3 -194z m211 161 c0 -29 -11 -30 -36 -3
-15 16 -16 22 -5 29 22 13 41 0 41 -26z m53 7 c3 -13 -1 -21 -14 -24 -11 -3
-19 -1 -19 4 0 5 6 9 13 10 10 0 10 2 0 6 -17 6 -16 23 1 23 7 0 16 -9 19 -19z
m37 15 c0 -3 -4 -8 -10 -11 -5 -3 -10 -1 -10 4 0 6 5 11 10 11 6 0 10 -2 10
-4z m140 -10 c0 -8 -7 -16 -15 -20 -13 -4 -14 -2 -5 14 13 23 20 26 20 6z
m-2341 -173 l1 -103 -25 0 c-24 0 -25 2 -25 68 0 37 -3 97 -6 134 -7 64 -6 66
17 70 20 2 25 -2 31 -32 4 -19 7 -81 7 -137z m41 38 c0 -83 -4 -142 -10 -146
-6 -4 -10 12 -10 42 0 26 -3 92 -7 146 -5 86 -4 97 10 97 15 0 17 -16 17 -139z
m1597 125 c5 -4 6 -344 0 -353 -4 -6 -4 -14 1 -17 5 -3 7 -19 4 -36 -5 -35
-33 -41 -54 -12 -7 11 -23 24 -35 31 -29 15 -30 35 -2 26 l22 -7 -21 29 c-27
38 -102 69 -131 53 -21 -11 -122 -12 -139 -1 -16 9 -26 78 -13 86 6 3 9 11 5
16 -3 6 -3 17 0 26 5 12 9 13 21 3 28 -23 109 -3 157 39 39 35 42 41 39 85
l-2 47 73 -7 c40 -3 74 -7 75 -8z m-6987 0 c0 -2 -11 -11 -25 -20 -24 -16 -25
-16 -25 4 0 15 7 20 25 20 14 0 25 -2 25 -4z m7101 -171 c-2 -116 -6 -172 -14
-177 -9 -6 -8 -10 2 -17 11 -7 9 -10 -8 -16 -12 -3 -21 -15 -21 -26 0 -22 -35
-27 -43 -5 -3 7 -6 104 -7 215 l-1 202 47 -3 48 -3 -3 -170z m1509 166 c0 -11
-26 -22 -34 -14 -12 12 -5 23 14 23 11 0 20 -4 20 -9z m-6150 -46 c0 -43 -1
-45 -30 -45 -29 0 -30 2 -30 45 0 43 1 45 30 45 29 0 30 -2 30 -45z m-283 -17
c-2 -13 -4 -5 -4 17 -1 22 1 32 4 23 2 -10 2 -28 0 -40z m63 17 c0 -28 -4 -35
-20 -35 -16 0 -20 7 -20 35 0 28 4 35 20 35 16 0 20 -7 20 -35z m130 0 l0 -35
-55 0 -55 0 0 35 0 35 55 0 55 0 0 -35z m1204 18 c-1 -7 -2 -60 -2 -118 l-2
-105 -40 0 -40 0 0 114 c0 111 1 115 23 119 36 7 62 3 61 -10z m4763 -20 c-3
-10 -5 -4 -5 12 0 17 2 24 5 18 2 -7 2 -21 0 -30z m-6187 -20 c0 -39 -2 -44
-12 -31 -7 9 -22 18 -33 21 -19 5 -19 5 3 12 12 4 22 15 22 26 0 11 5 19 10
19 6 0 10 -21 10 -47z m1197 -45 c-2 -18 -4 -4 -4 32 0 36 2 50 4 33 2 -18 2
-48 0 -65z m63 -12 c0 -57 3 -111 6 -120 5 -12 0 -16 -20 -16 l-26 0 0 120 c0
113 1 120 20 120 19 0 20 -7 20 -104z m60 -16 c0 -113 -1 -120 -20 -120 -19 0
-20 7 -20 120 0 113 1 120 20 120 19 0 20 -7 20 -120z m4201 83 c-7 -42 -24
-51 -29 -15 -3 22 13 52 28 52 4 0 4 -17 1 -37z m-6131 -4 c0 -5 -11 -9 -25
-9 -22 0 -24 2 -13 19 9 15 15 17 25 9 7 -6 13 -14 13 -19z m340 5 c0 -8 -4
-14 -10 -14 -5 0 -10 9 -10 21 0 11 5 17 10 14 6 -3 10 -13 10 -21z m6648 10
c27 -19 31 -81 6 -91 -30 -11 -49 11 -50 61 -1 50 7 56 44 30z m-9678 -100 l0
-97 -52 7 c-29 3 -61 6 -70 6 -16 0 -18 11 -18 90 l0 90 70 0 70 0 0 -96z
m820 63 c0 -19 3 -67 6 -108 l6 -74 -32 -19 -33 -19 6 34 c3 19 9 72 13 119 4
47 8 88 11 93 11 18 23 4 23 -26z m2260 18 c0 -9 -6 -12 -15 -9 -8 4 -15 10
-15 15 0 5 7 9 15 9 8 0 15 -7 15 -15z m88 6 c6 0 12 -6 12 -11 0 -7 -6 -7
-19 0 -14 7 -22 7 -26 0 -4 -6 -11 -8 -16 -5 -17 11 -9 22 14 20 12 -1 28 -3
35 -4z m5285 -193 c-4 -59 -9 -78 -20 -78 -12 0 -14 19 -8 123 4 67 9 131 13
142 10 33 21 -103 15 -187z m327 180 c0 -20 -6 -23 -45 -26 -77 -5 -47 32 38
47 4 0 7 -9 7 -21z m-8730 -78 c0 -76 -3 -90 -16 -90 -11 0 -14 5 -10 16 3 9
6 49 6 90 0 43 4 74 10 74 6 0 10 -37 10 -90z m8427 58 c-3 -7 -5 -2 -5 12 0
14 2 19 5 13 2 -7 2 -19 0 -25z m143 12 c0 -16 -7 -20 -31 -20 -17 0 -28 -4
-24 -10 3 -5 17 -10 31 -10 31 0 32 -27 2 -32 -29 -4 -26 -21 4 -29 21 -5 20
-7 -15 -24 -24 -11 -36 -23 -33 -31 3 -8 1 -14 -4 -14 -6 0 -10 38 -10 89 l0
90 38 4 c20 2 38 4 40 5 1 1 2 -7 2 -18z m998 -12 c1 -27 -1 -29 -14 -16 -8 8
-12 22 -8 31 10 27 21 20 22 -15z m-958 7 c0 -8 -7 -15 -15 -15 -8 0 -15 7
-15 15 0 8 7 15 15 15 8 0 15 -7 15 -15z m-7899 -116 c-6 -61 -13 -115 -17
-118 -3 -3 -3 19 0 49 3 30 8 86 12 123 3 38 8 66 11 64 2 -3 0 -56 -6 -118z
m2424 81 l25 0 0 -115 0 -115 -56 0 -57 0 7 122 c6 97 11 124 24 134 14 10 18
9 24 -7 5 -12 17 -19 33 -19z m-1488 -92 c-2 -24 -4 -5 -4 42 0 47 2 66 4 43
2 -24 2 -62 0 -85z m999 70 c-3 -29 -6 -79 -6 -111 0 -49 -3 -58 -17 -55 -14
3 -16 16 -15 102 3 107 5 116 29 116 13 0 15 -9 9 -52z m334 8 l-1 -31 -14 25
c-19 33 -19 51 0 44 9 -4 15 -19 15 -38z m5487 -62 c-5 -102 -12 -123 -41
-124 -14 0 -2 195 13 214 29 34 34 17 28 -90z m982 49 c-1 -57 -1 -58 -10 -18
-11 55 -11 75 1 75 6 0 9 -25 9 -57z m-6409 -35 c0 -93 -9 -158 -20 -158 -8 0
-14 40 -26 173 l-6 67 26 0 c26 0 26 0 26 -82z m6448 39 c2 -21 -1 -37 -7 -37
-6 0 -11 11 -11 24 0 13 -3 32 -7 42 -4 12 -2 15 8 12 8 -2 15 -21 17 -41z
m-8806 -24 c-2 -32 -7 -80 -12 -108 -7 -46 -8 -44 -9 35 -1 86 5 130 18 130 4
0 6 -26 3 -57z m2878 -78 c0 -80 -4 -135 -10 -135 -5 0 -7 7 -4 15 5 11 -1 15
-20 15 l-26 0 0 120 0 120 30 0 30 0 0 -135z m5170 115 c0 -17 -7 -20 -45 -20
-51 0 -65 26 -17 33 56 8 62 7 62 -13z m-5512 -2 c8 -8 12 -48 12 -115 l0
-103 -25 0 -25 0 0 115 c0 117 6 135 38 103z m59 -160 c-2 -35 -3 -9 -3 57 0
66 1 94 3 63 2 -32 2 -86 0 -120z m63 58 c0 -105 -1 -114 -20 -119 -19 -5 -20
0 -20 114 0 112 1 119 20 119 19 0 20 -7 20 -114z m130 67 c0 -27 3 -78 7
-115 l6 -68 -62 0 -61 0 0 115 0 115 55 0 55 0 0 -47z m5140 32 c0 -8 -7 -15
-15 -15 -8 0 -15 7 -15 15 0 8 7 15 15 15 8 0 15 -7 15 -15z m170 0 c0 -8 -7
-15 -15 -15 -8 0 -15 7 -15 15 0 8 7 15 15 15 8 0 15 -7 15 -15z m-6063 -137
c6 -49 4 -52 -34 -42 -25 7 -29 37 -16 130 l6 48 20 -44 c11 -25 22 -66 24
-92z m6997 107 c4 -10 -1 -15 -14 -15 -20 0 -26 11 -13 23 10 11 20 8 27 -8z
m-987 -36 c2 -20 -26 -34 -40 -20 -6 6 -4 15 4 24 18 19 35 17 36 -4z m593 5
c0 -11 -5 -14 -16 -10 -9 3 -21 6 -27 6 -16 0 14 20 31 20 6 0 12 -7 12 -16z
m-2317 -9 c-3 -9 -8 -14 -10 -11 -3 3 -2 9 2 15 9 16 15 13 8 -4z m1787 -30
c0 -23 -2 -24 -20 -15 -21 11 -25 22 -13 33 15 16 33 6 33 -18z m-4363 -17
c-3 -8 -6 -5 -6 6 -1 11 2 17 5 13 3 -3 4 -12 1 -19z m4993 -4 c0 -8 -5 -12
-10 -9 -6 4 -8 11 -5 16 9 14 15 11 15 -7z m27 -21 c-3 -10 -5 -4 -5 12 0 17
2 24 5 18 2 -7 2 -21 0 -30z m207 15 c14 -54 8 -73 -29 -84 l-35 -11 0 58 c0
58 0 59 29 59 21 0 30 -6 35 -22z m-9756 3 c51 -1 52 -2 52 -31 l0 -30 -70 0
-70 0 0 34 c0 27 4 34 18 31 9 -2 41 -4 70 -4z m5615 2 c-7 -2 -19 -2 -25 0
-7 3 -2 5 12 5 14 0 19 -2 13 -5z m-5513 -38 c0 -24 -5 -35 -15 -35 -10 0 -15
11 -15 35 0 24 5 35 15 35 10 0 15 -11 15 -35z m7290 25 c0 -5 -5 -10 -11 -10
-5 0 -7 5 -4 10 3 6 8 10 11 10 2 0 4 -4 4 -10z m2425 -24 c7 -21 6 -29 -5
-36 -25 -16 -30 -11 -30 31 0 47 19 50 35 5z m-9311 15 c3 -5 -1 -11 -9 -14
-9 -4 -12 -1 -8 9 6 16 10 17 17 5z m4966 -6 c0 -16 -17 -19 -44 -9 -26 10
-18 24 14 24 20 0 30 -5 30 -15z m26 -12 c-10 -10 -19 5 -10 18 6 11 8 11 12
0 2 -7 1 -15 -2 -18z m124 10 c0 -9 -17 -13 -50 -13 -33 0 -50 4 -50 13 0 8
17 12 50 12 33 0 50 -4 50 -12z m693 10 c-7 -2 -19 -2 -25 0 -7 3 -2 5 12 5
14 0 19 -2 13 -5z m127 -2 c0 -4 -11 -6 -25 -3 -14 2 -25 6 -25 8 0 2 11 4 25
4 14 0 25 -4 25 -9z m40 -1 c0 -5 -4 -10 -10 -10 -5 0 -10 5 -10 10 0 6 5 10
10 10 6 0 10 -4 10 -10z m-4480 -35 c0 -24 -6 -37 -20 -45 -19 -10 -20 -8 -20
35 0 38 3 45 20 45 16 0 20 -7 20 -35z m100 -80 l0 -115 -41 0 -41 0 23 18
c20 17 21 22 12 61 -7 27 -8 54 -2 74 5 20 5 35 -1 41 -19 19 -10 36 20 36
l30 0 0 -115z m2518 70 l3 -40 -25 24 c-33 31 -35 64 -3 59 18 -2 23 -10 25
-43z m52 -30 c0 -41 -2 -75 -5 -75 -13 0 -35 65 -35 105 0 38 3 45 20 45 18 0
20 -7 20 -75z m100 -54 l0 -129 -30 -11 c-23 -8 -32 -7 -35 2 -14 49 -20 104
-17 180 l3 87 39 0 40 0 0 -129z m960 114 c0 -11 -12 -15 -45 -15 -33 0 -45 4
-45 15 0 11 12 15 45 15 33 0 45 -4 45 -15z m30 0 c0 -8 -4 -15 -10 -15 -5 0
-10 7 -10 15 0 8 5 15 10 15 6 0 10 -7 10 -15z m30 0 c0 -8 -4 -15 -10 -15 -5
0 -10 7 -10 15 0 8 5 15 10 15 6 0 10 -7 10 -15z m753 8 c-7 -2 -21 -2 -30 0
-10 3 -4 5 12 5 17 0 24 -2 18 -5z m-4796 -85 c-2 -18 -4 -6 -4 27 0 33 2 48
4 33 2 -15 2 -42 0 -60z m83 -28 l0 -110 -25 0 c-24 0 -25 2 -25 64 0 35 -3
84 -6 110 l-7 46 32 0 31 0 0 -110z m1017 88 c-3 -8 -6 -5 -6 6 -1 11 2 17 5
13 3 -3 4 -12 1 -19z m-917 -90 c0 -63 -4 -98 -9 -89 -13 20 -14 191 -1 191 6
0 10 -39 10 -102z m7485 81 c10 -31 1 -32 -25 -4 -23 25 -23 25 -2 25 12 0 23
-8 27 -21z m-9021 -5 c3 -8 2 -12 -4 -9 -6 3 -10 10 -10 16 0 14 7 11 14 -7z
m5966 4 c0 -4 -18 -8 -41 -8 -25 0 -38 4 -34 10 7 12 75 10 75 -2z m3307 -10
c-3 -8 -6 -5 -6 6 -1 11 2 17 5 13 3 -3 4 -12 1 -19z m-3877 -14 c0 -8 -5 -12
-10 -9 -6 4 -8 11 -5 16 9 14 15 11 15 -7z m643 9 c-7 -2 -19 -2 -25 0 -7 3
-2 5 12 5 14 0 19 -2 13 -5z m-3617 -25 c-3 -13 -8 -81 -11 -152 -3 -71 -11
-138 -16 -148 -6 -11 -12 -42 -14 -69 -2 -28 -6 -53 -9 -56 -3 -4 -6 -21 -6
-40 0 -24 -5 -33 -16 -33 -13 0 -15 9 -10 58 3 31 8 116 11 187 3 72 8 163 11
203 6 72 6 72 35 72 25 0 29 -3 25 -22z m44 -26 c0 -20 -7 -57 -14 -82 l-15
-45 0 65 c-1 73 7 112 20 104 5 -3 9 -22 9 -42z m2853 41 c-13 -2 -33 -2 -45
0 -13 2 -3 4 22 4 25 0 35 -2 23 -4z m47 -8 c0 -8 -2 -15 -4 -15 -2 0 -6 7
-10 15 -3 8 -1 15 4 15 6 0 10 -7 10 -15z m-5710 -10 c0 -11 -12 -15 -45 -15
-35 0 -43 3 -39 15 4 10 20 15 45 15 28 0 39 -4 39 -15z m50 0 c0 -8 -7 -15
-15 -15 -8 0 -15 7 -15 15 0 8 7 15 15 15 8 0 15 -7 15 -15z m5339 -7 c-14
-27 -24 -28 -25 -3 -1 17 3 23 16 22 14 -1 16 -5 9 -19z m434 15 c-13 -2 -35
-2 -50 0 -16 2 -5 4 22 4 28 0 40 -2 28 -4z m75 0 c-10 -2 -26 -2 -35 0 -10 3
-2 5 17 5 19 0 27 -2 18 -5z m-2818 -244 c0 -185 -3 -240 -12 -237 -22 8 -26
48 -27 250 -1 204 2 228 25 228 12 0 14 -42 14 -241z m3797 231 l52 0 -15 -35
c-18 -43 -5 -46 18 -5 12 22 25 30 44 30 26 0 26 -1 10 -22 -9 -13 -21 -33
-26 -46 -8 -19 -13 -21 -30 -12 -19 10 -47 9 -138 -6 -39 -6 -44 -5 -49 15 -4
17 -13 21 -44 21 -28 0 -39 4 -39 15 0 18 23 19 70 2 43 -15 82 -16 87 -1 2 7
-21 14 -62 18 -35 4 -72 9 -82 13 -32 13 18 23 87 18 36 -3 88 -5 117 -5z
m-3727 -10 c0 -5 14 -10 30 -10 l30 0 0 -143 c0 -79 -3 -185 -6 -235 l-7 -92
-48 0 -49 0 0 245 0 245 25 0 c14 0 25 -4 25 -10z m2300 0 c0 -5 -5 -10 -11
-10 -5 0 -7 5 -4 10 3 6 8 10 11 10 2 0 4 -4 4 -10z m115 5 c-23 -8 -85 -10
-85 -3 0 4 21 8 48 7 26 0 43 -2 37 -4z m1082 -1 c-3 -3 -12 -4 -19 -1 -8 3
-5 6 6 6 11 1 17 -2 13 -5z m2639 -21 c-10 -10 -19 5 -10 18 6 11 8 11 12 0 2
-7 1 -15 -2 -18z m-5954 -306 c2 -86 0 -157 -4 -157 -5 0 -7 109 -6 243 2 241
6 213 10 -86z m2888 315 c0 -8 -141 -5 -165 3 -5 2 29 4 78 4 48 1 87 -3 87
-7z m70 -2 c0 -5 -11 -10 -25 -10 -14 0 -25 5 -25 10 0 6 11 10 25 10 14 0 25
-4 25 -10z m-3010 -235 l0 -235 -31 0 -32 0 7 61 c3 34 6 140 6 235 l0 174 25
0 25 0 0 -235z m110 6 c0 -199 -2 -230 -16 -235 -9 -3 -18 -6 -20 -6 -2 0 -4
106 -4 235 0 228 1 235 20 235 19 0 20 -7 20 -229z m138 127 c2 -80 0 -98 -12
-98 -21 0 -26 -23 -26 -132 0 -56 -3 -98 -7 -95 -3 4 -12 2 -20 -4 -7 -6 -13
-8 -13 -4 0 5 -9 0 -20 -10 -20 -18 -20 -17 -20 214 l0 232 58 -3 57 -3 3 -97z
m82 -100 c0 -112 3 -212 5 -223 4 -15 -1 -23 -21 -32 -15 -7 -28 -12 -29 -10
-1 1 -5 104 -9 229 -6 212 -6 227 11 231 44 11 43 16 43 -195z m2220 173 c0
-21 -6 -30 -22 -35 -47 -12 -58 -7 -58 23 0 30 3 32 68 40 7 0 12 -11 12 -28z
m180 14 c135 -6 214 -14 208 -21 -4 -3 -353 -104 -363 -104 -3 0 -5 14 -5 30
0 27 3 30 29 30 17 0 33 5 36 10 4 6 -8 10 -29 10 -33 0 -36 2 -36 31 0 24 4
29 18 25 9 -3 73 -7 142 -11z m430 -11 c0 -8 -7 -14 -15 -14 -15 0 -21 21 -9
33 10 9 24 -2 24 -19z m60 6 c0 -15 -7 -20 -25 -20 -24 0 -34 18 -18 33 15 15
43 7 43 -13z m133 10 c9 0 17 -7 17 -15 0 -18 -20 -19 -55 -3 -31 14 -33 33
-2 24 12 -3 30 -6 40 -6z m-953 -36 c0 -14 -6 -24 -14 -24 -7 0 -28 -3 -45 -6
-29 -6 -31 -5 -31 24 0 28 3 31 38 34 48 4 52 2 52 -28z m30 6 c0 -16 -4 -30
-10 -30 -5 0 -10 14 -10 30 0 17 5 30 10 30 6 0 10 -13 10 -30z m30 0 c0 -16
-4 -30 -10 -30 -5 0 -10 14 -10 30 0 17 5 30 10 30 6 0 10 -13 10 -30z m-170
-10 c0 -30 -1 -30 -55 -30 -52 0 -55 1 -55 24 0 25 0 25 93 34 13 2 17 -5 17
-28z m-5570 -12 c-1 -33 -1 -33 -18 -12 -10 11 -31 26 -47 32 -29 10 -28 10
18 11 47 1 47 1 47 -31z m40 20 c0 -7 3 -30 6 -51 6 -32 4 -36 -10 -31 -11 4
-16 19 -16 50 0 24 5 44 10 44 6 0 10 -6 10 -12z m167 -50 c2 -51 0 -56 -17
-53 -22 4 -50 -19 -50 -41 0 -12 -4 -12 -25 2 -23 15 -25 23 -25 86 l0 69 58
-3 57 -3 2 -57z m1731 17 c2 -40 0 -45 -18 -45 -11 0 -20 5 -20 10 0 12 27 80
32 80 2 0 4 -20 6 -45z m3465 -206 c-4 -4 -18 -10 -30 -14 -23 -6 -23 -6 -23
99 0 99 1 106 28 137 l27 33 3 -124 c1 -68 -1 -127 -5 -131z m47 226 c0 -14
-4 -25 -10 -25 -5 0 -10 11 -10 25 0 14 5 25 10 25 6 0 10 -11 10 -25z m923 8
c-7 -2 -19 -2 -25 0 -7 3 -2 5 12 5 14 0 19 -2 13 -5z m-59 -123 c-3 -30 -10
-63 -15 -72 -12 -22 -38 -48 -50 -48 -5 0 -9 51 -9 114 l0 115 33 3 c28 3 33
0 40 -27 4 -16 4 -55 1 -85z m-94 -20 l0 -120 -105 0 -105 0 0 40 c0 23 -5 40
-11 40 -7 0 -10 -15 -7 -40 l4 -40 -43 0 -43 0 0 50 c0 28 -4 50 -10 50 -5 0
-10 -22 -10 -48 0 -37 -4 -49 -15 -49 -11 0 -15 12 -15 48 0 26 -5 51 -11 54
-26 17 10 33 177 81 98 29 182 52 187 53 4 1 7 -53 7 -119z m-6251 84 c43 -36
42 -104 -3 -104 -42 -1 -61 -27 -61 -83 0 -41 -4 -52 -17 -55 -16 -3 -18 8
-18 132 l0 136 34 0 c22 0 45 -9 65 -26z m1738 -11 c-3 -10 -5 -4 -5 12 0 17
2 24 5 18 2 -7 2 -21 0 -30z m4123 3 c0 -29 -4 -36 -31 -45 -47 -16 -49 -15
-49 28 0 37 2 40 33 44 17 2 35 5 40 5 4 1 7 -13 7 -32z m550 -18 c-6 -7 -17
-21 -24 -32 -11 -17 -13 -14 -14 27 -2 40 0 46 20 49 26 3 37 -23 18 -44z m60
28 c0 -13 -7 -26 -15 -30 -11 -4 -15 2 -15 24 0 20 5 30 15 30 9 0 15 -9 15
-24z m60 -6 c0 -10 -9 -20 -20 -23 -16 -4 -20 0 -20 23 0 23 4 27 20 23 11 -3
20 -13 20 -23z m-830 -4 c0 -13 3 -37 6 -53 5 -27 3 -31 -23 -37 -15 -4 -36
-9 -45 -12 -16 -5 -18 2 -18 55 0 64 -3 61 68 70 6 0 12 -10 12 -23z m40 -26
c0 -27 -4 -50 -10 -50 -5 0 -10 23 -10 50 0 28 5 50 10 50 6 0 10 -22 10 -50z
m30 5 c0 -25 -4 -45 -10 -45 -5 0 -10 20 -10 45 0 25 5 45 10 45 6 0 10 -20
10 -45z m797 13 c-3 -7 -5 -2 -5 12 0 14 2 19 5 13 2 -7 2 -19 0 -25z m83 22
c0 -5 -9 -10 -21 -10 -11 0 -17 5 -14 10 3 6 13 10 21 10 8 0 14 -4 14 -10z
m-1171 -53 c0 -23 -4 -60 -8 -82 -7 -34 -9 -26 -10 48 -1 57 3 86 9 82 6 -3
10 -25 9 -48z m121 -11 l0 -64 -47 -16 c-26 -9 -50 -16 -55 -16 -10 0 -11 144
-1 153 3 4 28 7 55 7 l48 0 0 -64z m-4720 34 c0 -5 -5 -10 -11 -10 -5 0 -7 5
-4 10 3 6 8 10 11 10 2 0 4 -4 4 -10z m-815 -30 c3 -5 1 -10 -4 -10 -6 0 -11
5 -11 10 0 6 2 10 4 10 3 0 8 -4 11 -10z m1672 -52 c-2 -13 -4 -3 -4 22 0 25
2 35 4 23 2 -13 2 -33 0 -45z m73 27 c0 -31 -3 -35 -25 -35 -22 0 -25 4 -25
35 0 31 3 35 25 35 22 0 25 -4 25 -35z m98 -53 c2 -52 -1 -82 -8 -82 -5 0 -10
15 -10 33 -1 17 -3 56 -6 85 -3 40 -1 53 8 50 9 -3 14 -32 16 -86z m62 33 c0
-48 -2 -55 -20 -55 -11 0 -20 5 -20 11 0 6 7 9 15 5 8 -3 15 -1 15 4 0 6 -7
10 -15 10 -11 0 -15 11 -15 40 0 33 3 40 20 40 18 0 20 -7 20 -55z m100 -46
c0 -84 -2 -100 -14 -90 -7 6 -12 23 -10 38 3 28 -9 104 -21 136 -6 13 -2 17
19 17 l26 0 0 -101z m27 49 c-2 -13 -4 -5 -4 17 -1 22 1 32 4 23 2 -10 2 -28
0 -40z m3263 -26 l0 -79 -39 -11 c-21 -7 -44 -12 -50 -12 -7 0 8 40 35 90 26
50 49 90 51 90 2 0 3 -35 3 -78z m-610 -87 c0 -136 -1 -145 -19 -145 -17 0
-20 10 -26 88 -3 48 -8 108 -11 134 -5 43 -4 49 18 57 12 6 26 10 31 10 4 1 7
-64 7 -144z m-4689 82 c-8 -8 -11 -4 -11 14 0 33 14 47 18 19 2 -12 -1 -27 -7
-33z m5797 -9 c-1 -50 -2 -54 -5 -20 -4 41 -5 42 -39 42 -19 0 -34 4 -34 8 0
7 45 25 73 31 4 0 6 -27 5 -61z m-4994 3 c-4 -22 -11 -41 -16 -41 -12 0 -28
44 -17 48 5 2 9 10 9 18 0 9 5 12 10 9 6 -3 10 -1 10 6 0 7 2 10 5 7 3 -3 3
-24 -1 -47z m2186 -31 c0 -68 -15 -98 -22 -42 -3 25 11 112 19 112 2 0 3 -31
3 -70z m-2062 10 c11 -18 10 -20 -13 -20 -20 0 -25 5 -25 25 0 28 19 26 38 -5z
m749 -22 c-3 -8 -6 -5 -6 6 -1 11 2 17 5 13 3 -3 4 -12 1 -19z m73 -2 c0 -19
-4 -22 -25 -18 -16 3 -25 11 -25 23 0 14 7 19 25 19 20 0 25 -5 25 -24z m3780
2 c0 -21 -4 -23 -52 -19 l-53 4 50 17 c28 10 51 18 53 19 1 0 2 -9 2 -21z
m-3880 4 c0 -4 -21 -6 -47 -4 -83 5 -90 9 -20 11 37 0 67 -2 67 -7z m260 -10
c0 -9 -3 -12 -7 -9 -3 4 -12 2 -20 -4 -9 -9 -13 -8 -13 0 0 6 5 11 11 11 5 0
8 4 5 8 -3 5 1 9 9 9 8 0 15 -7 15 -15z m427 -134 c-2 -29 -3 -6 -3 52 0 58 1
81 3 53 2 -29 2 -77 0 -105z m-2377 107 c0 -22 -4 -25 -32 -25 -30 1 -31 2
-13 12 11 6 24 17 28 25 12 19 17 16 17 -12z m41 -18 c-16 -16 -20 -5 -8 23 9
22 11 23 14 6 3 -10 0 -23 -6 -29z m189 11 c0 -5 -21 -8 -46 -8 -25 0 -43 3
-40 8 2 4 23 7 45 7 23 0 41 -3 41 -7z m153 5 c-7 -2 -19 -2 -25 0 -7 3 -2 5
12 5 14 0 19 -2 13 -5z m514 -40 c-3 -10 -5 -4 -5 12 0 17 2 24 5 18 2 -7 2
-21 0 -30z m108 -26 c11 -34 19 -77 17 -95 -3 -31 -4 -32 -52 -32 -59 0 -63 8
-54 112 l7 78 31 0 c30 0 32 -3 51 -63z m-337 8 c2 -40 -10 -45 -27 -12 -11
22 -11 22 -6 -3 5 -22 4 -23 -5 -7 -9 14 -15 16 -26 6 -8 -6 -18 -8 -22 -4 -4
4 -1 10 6 12 7 3 19 11 27 20 8 8 15 12 15 8 0 -3 8 -1 18 4 9 6 17 11 18 11
0 0 1 -16 2 -35z m897 20 l40 -13 -55 -1 c-30 -1 -70 -5 -88 -10 -17 -5 -32
-6 -32 -1 0 5 -3 15 -6 24 -5 13 3 16 47 15 30 0 72 -6 94 -14z m205 5 c0 -5
-2 -10 -4 -10 -3 0 -8 5 -11 10 -3 6 -1 10 4 10 6 0 11 -4 11 -10z m116 -50
c-1 -32 -5 -63 -10 -67 -4 -4 -6 23 -5 60 1 37 6 67 10 67 4 0 6 -27 5 -60z
m2499 41 c-3 -6 -14 -11 -23 -11 -13 0 -13 2 4 14 21 15 30 14 19 -3z m955
-36 l0 -55 -75 0 c-80 0 -86 4 -61 49 11 20 83 54 129 60 4 1 7 -24 7 -54z
m-3402 -68 c12 -3 11 -5 -5 -6 -22 -1 -23 2 -21 62 l2 62 3 -57 c3 -43 8 -58
21 -61z m-1237 52 l-10 -24 0 26 c-1 14 2 29 6 33 12 12 14 -9 4 -35z m-541
18 c11 3 20 0 20 -6 0 -5 7 -8 15 -5 12 5 14 2 8 -12 -6 -17 -5 -17 10 -5 16
12 17 12 8 -10 -9 -24 -39 -28 -52 -7 -4 7 -9 6 -13 -1 -4 -6 -18 -11 -32 -11
-19 0 -24 5 -24 25 0 16 6 25 15 25 8 0 15 6 16 13 0 8 2 8 5 1 3 -7 14 -10
24 -7z m727 -19 c-3 -8 -6 -5 -6 6 -1 11 2 17 5 13 3 -3 4 -12 1 -19z m750 16
c-3 -3 -12 -4 -19 -1 -8 3 -5 6 6 6 11 1 17 -2 13 -5z m-124 -11 c-18 -2 -48
-2 -65 0 -18 2 -4 4 32 4 36 0 50 -2 33 -4z m527 -33 c0 -27 -3 -30 -31 -30
l-30 0 28 30 c15 16 29 29 31 30 1 0 2 -13 2 -30z m27 -17 c-3 -10 -5 -2 -5
17 0 19 2 27 5 18 2 -10 2 -26 0 -35z m2600 5 c-3 -8 -6 -5 -6 6 -1 11 2 17 5
13 3 -3 4 -12 1 -19z m-4669 -23 c-3 -3 -9 2 -12 12 -6 14 -5 15 5 6 7 -7 10
-15 7 -18z m29 -17 c-3 -7 -5 -2 -5 12 0 14 2 19 5 13 2 -7 2 -19 0 -25z m522
-11 c1 -10 -31 -5 -45 8 -15 13 -6 28 12 21 8 -3 14 0 15 7 0 12 17 -20 18
-36z m94 14 c10 -1 15 -5 12 -11 -8 -12 -72 -13 -79 -1 -8 12 1 18 26 15 13
-1 31 -3 41 -3z m-203 -11 c0 -5 -4 -10 -10 -10 -5 0 -10 5 -10 10 0 6 5 10
10 10 6 0 10 -4 10 -10z m-502 -17 c-10 -2 -26 -2 -35 0 -10 3 -2 5 17 5 19 0
27 -2 18 -5z m7620 -308 c-3 -3 -9 2 -12 12 -6 14 -5 15 5 6 7 -7 10 -15 7
-18z m-124 -12 c-6 -23 -49 -29 -57 -8 -4 8 3 10 19 7 16 -3 26 1 30 12 9 23
14 15 8 -11z m28 -9 c-6 -11 -11 -13 -16 -5 -4 6 -2 11 3 11 6 0 11 8 12 18 0
9 3 12 5 5 3 -7 1 -20 -4 -29z m188 3 c0 -16 3 -18 9 -8 5 7 11 9 14 5 5 -9
10 -66 8 -91 -2 -23 -19 -14 -26 14 -6 26 -55 93 -55 76 0 -4 -5 -1 -10 7 -7
12 -3 16 18 21 35 7 42 3 42 -24z m-30 -77 c0 -15 -5 -12 -26 11 -19 22 -19
22 4 10 12 -6 22 -16 22 -21z m87 -22 c-3 -8 -6 -5 -6 6 -1 11 2 17 5 13 3 -3
4 -12 1 -19z m-4257 -198 c0 -5 -2 -10 -4 -10 -3 0 -8 5 -11 10 -3 6 -1 10 4
10 6 0 11 -4 11 -10z m-241 -23 c-13 -5 -32 -13 -41 -18 -31 -16 -20 0 14 21
17 10 36 16 42 13 5 -4 -1 -11 -15 -16z m205 -1 c-5 -13 -9 -14 -21 -4 -13 10
-13 13 4 19 23 8 25 6 17 -15z m-157 -12 c-3 -3 -12 -4 -19 -1 -8 3 -5 6 6 6
11 1 17 -2 13 -5z m-107 -28 c0 -2 -9 -6 -20 -9 -11 -3 -18 -1 -14 4 5 9 34
13 34 5z m2888 -193 c-10 -2 -26 -2 -35 0 -10 3 -2 5 17 5 19 0 27 -2 18 -5z
m-2318 -53 c-14 -4 -43 -8 -65 -8 l-40 1 45 7 c65 10 92 10 60 0z m-440 -20
c-14 -4 -54 -8 -90 -7 l-65 0 60 7 c33 4 74 7 90 7 29 1 29 1 5 -7z m257 4
c-3 -3 -12 -4 -19 -1 -8 3 -5 6 6 6 11 1 17 -2 13 -5z m-490 -20 c-3 -3 -12
-4 -19 -1 -8 3 -5 6 6 6 11 1 17 -2 13 -5z m46 -1 c-7 -2 -19 -2 -25 0 -7 3
-2 5 12 5 14 0 19 -2 13 -5z m5252 -14 c-49 -4 -220 -6 -380 -6 l-290 2 275 5
c151 3 322 6 380 6 l105 1 -90 -8z m138 4 c-7 -2 -21 -2 -30 0 -10 3 -4 5 12
5 17 0 24 -2 18 -5z m190 0 c-13 -2 -35 -2 -50 0 -16 2 -5 4 22 4 28 0 40 -2
28 -4z m70 0 c-7 -2 -21 -2 -30 0 -10 3 -4 5 12 5 17 0 24 -2 18 -5z m70 0
c-7 -2 -21 -2 -30 0 -10 3 -4 5 12 5 17 0 24 -2 18 -5z m44 1 c-3 -3 -12 -4
-19 -1 -8 3 -5 6 6 6 11 1 17 -2 13 -5z m60 0 c-3 -3 -12 -4 -19 -1 -8 3 -5 6
6 6 11 1 17 -2 13 -5z m116 -1 c-18 -2 -48 -2 -65 0 -18 2 -4 4 32 4 36 0 50
-2 33 -4z m90 0 c-7 -2 -19 -2 -25 0 -7 3 -2 5 12 5 14 0 19 -2 13 -5z m-3973
-52 c0 -4 -12 -7 -26 -5 -38 4 -42 14 -6 14 18 0 32 -4 32 -9z m380 -1 c0 -5
-11 -10 -25 -10 -14 0 -25 5 -25 10 0 6 11 10 25 10 14 0 25 -4 25 -10z
m-1300 -21 c0 -5 -4 -9 -10 -9 -5 0 -10 7 -10 16 0 8 5 12 10 9 6 -3 10 -10
10 -16z m66 14 c-10 -11 -36 -12 -36 -2 0 5 10 9 22 9 12 0 18 -3 14 -7z m274
-3 c0 -5 -5 -10 -11 -10 -5 0 -7 5 -4 10 3 6 8 10 11 10 2 0 4 -4 4 -10z m50
0 c0 -5 -4 -10 -10 -10 -5 0 -10 5 -10 10 0 6 5 10 10 10 6 0 10 -4 10 -10z
m110 0 c0 -5 -16 -10 -35 -10 -19 0 -35 5 -35 10 0 6 16 10 35 10 19 0 35 -4
35 -10z m120 0 c0 -5 -20 -10 -45 -10 -25 0 -45 5 -45 10 0 6 20 10 45 10 25
0 45 -4 45 -10z m-800 -10 c0 -5 -18 -10 -40 -10 -22 0 -40 5 -40 10 0 6 18
10 40 10 22 0 40 -4 40 -10z m95 0 c-3 -5 -15 -10 -26 -10 -10 0 -19 5 -19 10
0 6 12 10 26 10 14 0 23 -4 19 -10z m35 0 c0 -5 -2 -10 -4 -10 -3 0 -8 5 -11
10 -3 6 -1 10 4 10 6 0 11 -4 11 -10z m-773 -6 c-3 -3 -12 -4 -19 -1 -8 3 -5
6 6 6 11 1 17 -2 13 -5z m-1132 -24 c-3 -5 -15 -10 -26 -10 -11 0 -17 5 -14
10 3 6 15 10 26 10 11 0 17 -4 14 -10z m65 6 c0 -2 -9 -6 -20 -9 -11 -3 -20
-1 -20 4 0 5 9 9 20 9 11 0 20 -2 20 -4z m63 -3 c-7 -2 -19 -2 -25 0 -7 3 -2
5 12 5 14 0 19 -2 13 -5z m120 0 c-7 -2 -19 -2 -25 0 -7 3 -2 5 12 5 14 0 19
-2 13 -5z"/>
<path d="M5330 4870 c6 -11 13 -20 16 -20 2 0 0 9 -6 20 -6 11 -13 20 -16 20
-2 0 0 -9 6 -20z"/>
<path d="M6350 4790 c6 -11 13 -20 16 -20 2 0 0 9 -6 20 -6 11 -13 20 -16 20
-2 0 0 -9 6 -20z"/>
<path d="M2920 3194 c0 -8 5 -12 10 -9 6 4 8 11 5 16 -9 14 -15 11 -15 -7z"/>
<path d="M2930 3060 c-6 -12 -6 -90 1 -90 12 0 15 23 8 60 -3 19 -8 33 -9 30z"/>
<path d="M9850 3360 c0 -5 5 -10 10 -10 6 0 10 5 10 10 0 6 -4 10 -10 10 -5 0
-10 -4 -10 -10z"/>
<path d="M7986 2071 c-3 -4 -2 -12 2 -18 5 -8 12 -8 25 2 16 12 16 13 -3 18
-11 3 -22 2 -24 -2z"/>
<path d="M8183 2053 c9 -2 23 -2 30 0 6 3 -1 5 -18 5 -16 0 -22 -2 -12 -5z"/>
<path d="M7065 1910 c-3 -5 1 -10 9 -10 9 0 16 5 16 10 0 6 -4 10 -9 10 -6 0
-13 -4 -16 -10z"/>
<path d="M6150 1672 c0 -33 4 -51 10 -47 13 8 13 65 0 85 -7 11 -10 0 -10 -38z"/>
<path d="M6121 1666 c-1 -30 3 -46 8 -40 5 5 6 27 1 49 l-8 40 -1 -49z"/>
<path d="M1135 1480 c3 -5 11 -10 16 -10 6 0 7 5 4 10 -3 6 -11 10 -16 10 -6
0 -7 -4 -4 -10z"/>
<path d="M7717 5103 c-15 -15 -5 -23 27 -23 42 0 68 9 60 21 -6 10 -77 12 -87
2z"/>
<path d="M4728 5073 c7 -3 16 -2 19 1 4 3 -2 6 -13 5 -11 0 -14 -3 -6 -6z"/>
<path d="M6890 5051 c-34 -7 -33 -7 22 -15 59 -8 98 -2 98 15 0 10 -66 10
-120 0z"/>
<path d="M7083 5053 c9 -2 25 -2 35 0 9 3 1 5 -18 5 -19 0 -27 -2 -17 -5z"/>
<path d="M6738 5033 c6 -2 18 -2 25 0 6 3 1 5 -13 5 -14 0 -19 -2 -12 -5z"/>
<path d="M6205 5020 c-11 -5 -49 -10 -85 -11 -59 -2 -56 -3 38 -10 66 -6 110
-5 122 1 10 6 44 10 76 10 32 0 55 2 53 4 -9 8 -186 13 -204 6z"/>
<path d="M6517 5023 c18 -2 50 -2 70 0 21 2 7 4 -32 4 -38 0 -55 -2 -38 -4z"/>
<path d="M5886 5012 c-4 -7 -19 -12 -34 -13 l-27 -1 25 -7 c14 -4 63 -4 110
-1 l85 7 -72 1 c-45 1 -73 6 -75 14 -3 9 -6 9 -12 0z"/>
<path d="M9291 4977 c-26 -13 -40 -37 -21 -37 18 0 70 30 70 40 0 13 -20 12
-49 -3z"/>
<path d="M2708 4973 c7 -3 16 -2 19 1 4 3 -2 6 -13 5 -11 0 -14 -3 -6 -6z"/>
<path d="M6507 4856 c-25 -19 -21 -26 17 -26 19 0 38 -5 41 -10 4 -7 13 -7 26
0 27 15 13 32 -22 28 -17 -1 -33 2 -37 9 -5 8 -12 8 -25 -1z"/>
<path d="M6637 4839 c-24 -28 -16 -33 30 -21 24 6 30 10 16 11 -12 1 -23 8
-25 16 -2 13 -6 12 -21 -6z"/>
<path d="M1965 4830 c4 -6 11 -8 16 -5 14 9 11 15 -7 15 -8 0 -12 -5 -9 -10z"/>
<path d="M6801 4730 c14 -31 19 -36 19 -24 0 6 -7 19 -16 30 -14 18 -14 18 -3
-6z"/>
<path d="M7531 4693 c1 -18 3 -21 6 -10 2 9 9 15 14 12 5 -4 9 1 9 9 0 9 -7
16 -15 16 -10 0 -15 -9 -14 -27z"/>
<path d="M3700 4659 c0 -5 5 -7 10 -4 6 3 10 8 10 11 0 2 -4 4 -10 4 -5 0 -10
-5 -10 -11z"/>
<path d="M1887 4644 c-4 -4 -7 -14 -7 -23 0 -11 3 -12 11 -4 6 6 10 16 7 23
-2 6 -7 8 -11 4z"/>
<path d="M7596 4607 c3 -10 9 -15 12 -12 3 3 0 11 -7 18 -10 9 -11 8 -5 -6z"/>
<path d="M1810 4585 c-24 -13 -24 -14 -4 -15 12 0 27 7 34 15 16 19 3 19 -30
0z"/>
<path d="M2135 4491 c-16 -3 -30 -10 -30 -16 0 -11 106 -7 118 4 4 4 2 8 -5 8
-7 0 -22 2 -33 5 -11 3 -33 3 -50 -1z"/>
<path d="M1530 4480 c0 -5 5 -10 11 -10 5 0 7 5 4 10 -3 6 -8 10 -11 10 -2 0
-4 -4 -4 -10z"/>
<path d="M1580 4483 c0 -5 16 -23 35 -42 19 -19 32 -38 29 -42 -2 -4 5 -13 16
-19 13 -7 20 -7 20 0 0 5 -4 10 -10 10 -5 0 -10 7 -10 15 0 12 13 15 59 15 65
0 80 -9 55 -34 -18 -19 -5 -21 31 -4 20 9 25 18 25 49 0 38 -16 54 -40 39 -7
-4 -9 -13 -5 -20 6 -9 -1 -10 -26 -5 -19 4 -35 11 -37 16 -2 5 -8 9 -13 9 -6
0 -7 -5 -3 -12 5 -8 2 -9 -12 -4 -18 8 -106 36 -111 36 -2 0 -3 -3 -3 -7z"/>
<path d="M3365 4124 c13 -13 15 -35 13 -117 -3 -99 -4 -101 -28 -107 -21 -5
-14 -10 50 -35 41 -16 77 -32 80 -35 3 -4 13 -9 23 -13 13 -5 17 -13 12 -28
-7 -20 -7 -21 12 -2 11 10 28 23 39 30 18 11 17 12 -7 12 -46 1 -89 22 -93 44
-14 67 -20 120 -20 182 -1 39 -5 73 -11 77 -5 4 -27 8 -48 8 -35 0 -37 -1 -22
-16z"/>
<path d="M2218 4093 c12 -2 30 -2 40 0 9 3 -1 5 -23 4 -22 0 -30 -2 -17 -4z"/>
<path d="M4090 4070 c0 -5 15 -10 33 -9 27 0 29 2 12 9 -28 12 -45 12 -45 0z"/>
<path d="M6072 3898 c-8 -10 3 -13 59 -13 38 0 69 3 69 8 0 4 -20 7 -44 7 -24
0 -51 2 -59 5 -7 3 -19 0 -25 -7z"/>
<path d="M6736 3882 c-3 -5 9 -9 27 -9 26 -1 28 1 12 7 -27 11 -33 12 -39 2z"/>
<path d="M3827 3852 c4 -15 -2 -18 -39 -19 -91 -1 -98 -2 -92 -18 5 -11 10
-13 19 -5 9 7 15 8 19 1 5 -7 16 -7 34 0 16 6 28 6 30 1 1 -5 27 -2 57 6 30 8
52 18 50 23 -3 4 -13 5 -23 2 -10 -2 -24 3 -31 11 -18 21 -30 20 -24 -2z"/>
<path d="M4043 3850 c-15 -22 0 -31 40 -23 18 4 27 1 27 -7 0 -10 3 -10 15 0
19 16 10 30 -15 23 -12 -3 -28 2 -38 10 -16 15 -19 15 -29 -3z"/>
<path d="M5009 3848 c-12 -22 -11 -22 7 -8 10 8 20 15 22 16 2 1 -1 5 -7 8 -5
4 -15 -4 -22 -16z"/>
<path d="M4570 3852 c0 -4 4 -13 9 -21 7 -11 11 -10 19 6 9 15 7 19 -9 20 -10
1 -19 -1 -19 -5z"/>
<path d="M4640 3845 c0 -8 5 -15 10 -15 6 0 10 7 10 15 0 8 -4 15 -10 15 -5 0
-10 -7 -10 -15z"/>
<path d="M4750 3856 c0 -2 7 -9 15 -16 12 -10 15 -10 15 4 0 9 -7 16 -15 16
-8 0 -15 -2 -15 -4z"/>
<path d="M4880 3844 c0 -14 3 -14 15 -4 8 7 15 14 15 16 0 2 -7 4 -15 4 -8 0
-15 -7 -15 -16z"/>
<path d="M7017 3853 c-3 -5 -2 -15 4 -23 14 -24 11 -33 -11 -27 -11 3 -20 1
-20 -4 0 -13 -207 -11 -216 2 -4 8 -9 7 -15 -2 -5 -8 -9 -16 -9 -19 0 -3 76
-5 170 -5 93 0 170 2 170 6 0 3 -4 9 -9 15 -5 5 -11 20 -13 34 -3 25 -40 41
-51 23z"/>
<path d="M4170 3839 c0 -5 5 -7 10 -4 6 3 10 8 10 11 0 2 -4 4 -10 4 -5 0 -10
-5 -10 -11z"/>
<path d="M4357 3829 c-4 -16 -3 -18 9 -8 7 6 11 15 8 20 -8 13 -11 11 -17 -12z"/>
<path d="M4470 3835 c0 -8 2 -15 4 -15 2 0 6 7 10 15 3 8 1 15 -4 15 -6 0 -10
-7 -10 -15z"/>
<path d="M3933 3833 c-18 -7 -16 -20 2 -20 8 0 16 6 19 14 6 13 0 15 -21 6z"/>
<path d="M3978 3833 c7 -3 16 -2 19 1 4 3 -2 6 -13 5 -11 0 -14 -3 -6 -6z"/>
<path d="M4011 3808 c-1 -42 5 -49 37 -37 28 11 31 43 2 34 -15 -5 -22 -1 -29
17 -9 21 -10 19 -10 -14z"/>
<path d="M4219 3831 c7 -5 10 -14 6 -21 -4 -7 4 -4 19 5 34 22 33 25 -6 25
-23 0 -29 -3 -19 -9z"/>
<path d="M3630 3809 c0 -18 2 -19 15 -5 8 8 15 17 15 20 0 3 -7 6 -15 6 -9 0
-15 -9 -15 -21z"/>
<path d="M3393 3813 c13 -3 16 -11 12 -26 -5 -19 -4 -20 5 -5 6 10 18 22 28
27 13 8 8 10 -23 10 -22 -1 -32 -3 -22 -6z"/>
<path d="M5885 3778 l-25 -28 115 0 c63 0 115 2 115 4 0 12 -72 39 -122 45
-55 7 -59 6 -83 -21z"/>
<path d="M6643 3773 c9 -2 23 -2 30 0 6 3 -1 5 -18 5 -16 0 -22 -2 -12 -5z"/>
<path d="M6273 3763 c9 -2 25 -2 35 0 9 3 1 5 -18 5 -19 0 -27 -2 -17 -5z"/>
<path d="M1911 3054 c0 -11 3 -14 6 -6 3 7 2 16 -1 19 -3 4 -6 -2 -5 -13z"/>
<path d="M4163 2970 c-26 -11 -30 -45 -9 -69 9 -10 19 -59 26 -121 6 -58 13
-107 16 -109 2 -2 4 30 4 72 0 43 5 79 11 83 6 3 8 16 5 29 -4 14 0 28 9 35 8
7 15 27 15 45 0 25 -5 34 -22 39 -28 7 -27 7 -55 -4z"/>
<path d="M427 2445 c-8 -20 -4 -29 11 -24 5 2 6 13 2 23 -6 19 -7 19 -13 1z"/>
<path d="M820 2150 c-8 -14 -8 -26 0 -40 6 -11 12 -20 13 -20 1 0 2 18 2 40 1
46 0 47 -15 20z"/>
<path d="M4182 1870 c0 -14 2 -19 5 -12 2 6 2 18 0 25 -3 6 -5 1 -5 -13z"/>
</g>
</svg>
