<svg width="134" height="40" viewBox="0 0 134 40" fill="none" xmlns="http://www.w3.org/2000/svg">
  <g clip-path="url(#clip0_1_63)">
    <path d="M128.4 39.5H4.94A4.95 4.95 0 0 1 0 34.58V4.94A4.95 4.95 0 0 1 4.94 0H128.4a4.95 4.95 0 0 1 4.93 4.94v29.63a4.95 4.95 0 0 1-4.94 4.94Z" fill="#100F0D"/>
    <path d="M128.4 0H4.94A4.95 4.95 0 0 0 0 4.94v29.63a4.95 4.95 0 0 0 4.94 4.94H128.4a4.95 4.95 0 0 0 4.93-4.94V4.94A4.95 4.95 0 0 0 128.4 0Zm0 .79a4.15 4.15 0 0 1 4.14 4.15v29.63a4.15 4.15 0 0 1-4.14 4.15H4.94a4.15 4.15 0 0 1-4.15-4.15V4.94A4.15 4.15 0 0 1 4.94.79H128.4Z" fill="#A2A2A1"/>
    <path d="M46.78 9.67h-2.86v.71h2.14a1.97 1.97 0 0 1-.67 1.37c-.4.33-.89.5-1.47.5-.65 0-1.2-.23-1.64-.67a2.35 2.35 0 0 1-.66-1.7c0-.68.22-1.24.66-1.7.44-.44.99-.66 1.64-.66.33 0 .64.05.93.18.29.12.52.3.7.52l.55-.55c-.25-.28-.57-.5-.95-.65-.4-.16-.8-.23-1.23-.23-.86 0-1.6.3-2.19.9a3 3 0 0 0-.89 2.2c0 .86.3 1.6.9 2.19.59.6 1.32.9 2.18.9.9 0 1.61-.3 2.17-.88.49-.5.73-1.15.73-1.98 0-.14-.01-.29-.04-.45Zm1.15-2.75v5.92h3.45v-.73h-2.7v-1.87h2.44v-.72h-2.44V7.65h2.7v-.73h-3.45Zm8.32.73v-.73h-4.07v.73h1.65v5.19h.76V7.65h1.66Zm3.7-.73h-.75v5.92h.76V6.92Zm5.04.73v-.73h-4.07v.73h1.65v5.19h.76V7.65H65Zm7.7.04a2.9 2.9 0 0 0-2.17-.9c-.86 0-1.58.3-2.16.9a2.99 2.99 0 0 0-.88 2.2c0 .87.3 1.6.88 2.19.58.6 1.3.9 2.16.9.86 0 1.58-.3 2.17-.9.59-.59.87-1.32.87-2.2 0-.87-.28-1.6-.87-2.19Zm-3.79.5c.44-.45.98-.67 1.62-.67.65 0 1.19.22 1.62.67.43.44.65 1 .65 1.7a2.3 2.3 0 0 1-.65 1.69c-.43.44-.97.66-1.62.66-.64 0-1.18-.22-1.62-.66-.43-.45-.64-1.01-.64-1.7s.21-1.25.64-1.7Zm6.5.96-.03-1.14h.03l3.01 4.83h.8V6.92h-.77v3.46l.04 1.14h-.04l-2.87-4.6h-.93v5.92h.76V9.15Z" fill="#fff"/>
    <path d="M105.62 29.63h1.84V17.28h-1.84v12.35Zm16.6-7.9-2.12 5.35h-.06l-2.2-5.35h-1.98l3.3 7.48-1.88 4.16h1.92l5.06-11.64h-2.05Zm-10.46 6.5c-.6 0-1.44-.3-1.44-1.05 0-.95 1.05-1.32 1.95-1.32.81 0 1.2.17 1.69.41a2.24 2.24 0 0 1-2.2 1.96Zm.23-6.77c-1.34 0-2.72.59-3.3 1.9l1.64.67c.35-.68 1-.9 1.69-.9.95 0 1.92.57 1.94 1.59v.12a4.08 4.08 0 0 0-1.93-.47c-1.76 0-3.56.97-3.56 2.78 0 1.65 1.45 2.71 3.07 2.71a2.6 2.6 0 0 0 2.35-1.2h.07v.95h1.78v-4.73c0-2.2-1.64-3.42-3.75-3.42Zm-11.4 1.77h-2.61V19h2.62a2.14 2.14 0 0 1 2.16 2.12c0 .95-.79 2.11-2.16 2.11Zm-.04-5.95h-4.42v12.35h1.85v-4.68h2.57c2.04 0 4.05-1.48 4.05-3.83 0-2.36-2-3.84-4.05-3.84ZM76.47 28.23c-1.27 0-2.34-1.07-2.34-2.53 0-1.48 1.07-2.56 2.34-2.56 1.26 0 2.24 1.08 2.24 2.56 0 1.46-.98 2.53-2.24 2.53Zm2.11-5.8h-.06c-.41-.5-1.2-.95-2.21-.95a4.18 4.18 0 0 0-4.03 4.22 4.16 4.16 0 0 0 4.03 4.18c1 0 1.8-.44 2.21-.95h.06v.6c0 1.61-.85 2.47-2.24 2.47a2.32 2.32 0 0 1-2.11-1.5l-1.61.67a4 4 0 0 0 3.72 2.49c2.17 0 4-1.28 4-4.38v-7.54h-1.76v.68Zm3.03 7.2h1.84V17.28h-1.84v12.35Zm4.56-4.07a2.3 2.3 0 0 1 2.2-2.45c.73 0 1.35.36 1.56.89l-3.76 1.56Zm5.73-1.4c-.35-.94-1.41-2.68-3.6-2.68-2.16 0-3.96 1.7-3.96 4.2 0 2.36 1.79 4.2 4.17 4.2a4.18 4.18 0 0 0 3.5-1.86l-1.43-.95a2.4 2.4 0 0 1-2.07 1.16c-.93 0-1.6-.43-2.03-1.27l5.61-2.33-.19-.47Zm-44.75-1.39v1.78h4.27c-.13 1-.46 1.74-.97 2.25-.62.62-1.6 1.3-3.3 1.3a4.68 4.68 0 0 1-4.67-4.74 4.68 4.68 0 0 1 7.89-3.47l1.26-1.26a6.22 6.22 0 0 0-4.48-1.8 6.62 6.62 0 0 0-6.62 6.53c0 3.6 3.03 6.52 6.62 6.52 1.95 0 3.4-.63 4.55-1.83a5.89 5.89 0 0 0 1.55-4.16c0-.42-.03-.8-.1-1.12h-6Zm10.95 5.46c-1.28 0-2.37-1.05-2.37-2.55 0-1.5 1.1-2.54 2.37-2.54s2.37 1.03 2.37 2.54c0 1.5-1.1 2.55-2.37 2.55Zm0-6.75a4.14 4.14 0 0 0-4.22 4.2c0 2.42 1.9 4.2 4.22 4.2a4.15 4.15 0 0 0 4.21-4.2c0-2.43-1.9-4.2-4.21-4.2Zm9.2 6.75c-1.28 0-2.38-1.05-2.38-2.55 0-1.5 1.1-2.54 2.37-2.54 1.28 0 2.38 1.03 2.38 2.54 0 1.5-1.1 2.55-2.38 2.55Zm0-6.75a4.14 4.14 0 0 0-4.22 4.2c0 2.42 1.9 4.2 4.21 4.2a4.15 4.15 0 0 0 4.22-4.2c0-2.43-1.9-4.2-4.22-4.2Z" fill="#fff"/>
    <path d="M20.46 19.18 9.95 30.34v.01a2.84 2.84 0 0 0 4.18 1.71l.04-.02L26 25.22l-5.54-6.04Z" fill="#EB3131"/>
    <path d="M31.1 17.28h-.01l-5.11-2.97-5.76 5.13L26 25.2l5.08-2.93a2.84 2.84 0 0 0 .02-5Z" fill="#F6B60B"/>
    <path d="M9.95 9.16c-.07.24-.1.48-.1.73v19.72c0 .26.03.5.1.73l10.87-10.87L9.95 9.17Z" fill="#5778C5"/>
    <path d="m20.54 19.75 5.44-5.44-11.82-6.85a2.85 2.85 0 0 0-4.21 1.7l10.59 10.6Z" fill="#3BAD49"/>
  </g>
  <defs>
    <clipPath id="clip0_1_63">
      <path fill="#fff" d="M0 0h134v40H0z"/>
    </clipPath>
  </defs>
</svg>
