<svg width="500" height="500" fill="none" xmlns="http://www.w3.org/2000/svg">
  <path d="m92.64 317.14-14.84.28-7.51.12H62.3V304h.5l14.95.07c5 0 10 .11 15 .16h.27v.27c0 2.14-.09 4.27-.13 6.38l-.25 6.26Zm0 0-.15-6.37c0-2.1-.11-4.19-.13-6.26l.28.27c-5 .06-10 .16-15 .17l-14.9.05.5-.5-.05 12.63-.45-.44c2.47 0 4.93 0 7.4.05l7.43.12 15.07.28ZM76 333.07l-14.83.28-7.52.12h-7.99v-.45l-.06-12.63v-.5h.5L61 320c5 0 10 .12 14.95.17h.27v.27c0 2.14-.08 4.27-.13 6.38l-.09 6.25Zm0 0-.14-6.37c0-2.1-.11-4.19-.13-6.26l.27.27c-5 .06-10 .16-14.95.17l-14.95.06.5-.5-.05 12.63-.45-.44c2.47 0 4.93 0 7.4.05l7.44.12 15.06.27ZM76 59.71 61.13 60l-7.52.11c-2.51 0-5 0-7.55.06h-.44v-.45l-.06-12.63v-.5h.5l14.94.05c5 0 10 .12 14.95.17h.27v.27c0 2.14-.08 4.27-.13 6.38L76 59.71Zm0 0-.14-6.37c0-2.1-.11-4.19-.13-6.26l.27.27c-5 0-10 .16-14.95.17l-14.95.06.5-.5-.05 12.63-.45-.44h7.4l7.44.12 15.06.32ZM453.94 59.71 439.1 60l-7.51.11c-2.51 0-5 0-7.55.06h-.44V46.59h.5l14.95.06c5 0 10 .12 14.95.17h.27v.27c0 2.14-.09 4.27-.13 6.38l-.2 6.24Zm0 0-.14-6.37c-.05-2.1-.12-4.19-.14-6.26l.28.27c-5 0-10 .16-14.95.17l-14.99.06.5-.5-.05 12.63-.45-.44h7.4l7.43.12 15.11.32ZM437.261 75.64l-14.83.28-7.52.11c-2.51 0-5 0-7.55.06h-.44v-.45l-.06-12.64v-.5h.5l14.95.06c5 0 10 .12 14.95.17h.28V63c0 2.14-.08 4.27-.13 6.38l-.15 6.26Zm0 0-.14-6.37c-.05-2.11-.11-4.19-.13-6.26l.27.27c-5 0-10 .16-14.95.17l-14.95.06.5-.5-.05 12.63-.45-.44h7.4l7.44.12 15.06.32ZM360.691 223.44l-14.83.28-7.52.11h-7.99v-.45l-.05-12.64v-.5h.51l14.94.07c5 0 10 .11 14.95.16h.3v.27c0 2.14-.08 4.27-.13 6.38l-.18 6.32Zm0 0-.14-6.38c-.05-2.1-.11-4.18-.13-6.26l.27.28c-5 0-10 .16-14.95.16l-14.94.06.49-.5-.05 12.64-.44-.45c2.46 0 4.92 0 7.39.06l7.44.11 15.06.28ZM344.001 239.37l-14.83.28-7.51.11c-2.51.05-5 0-7.55.05h-.45v-.45l-.05-12.64v-.5h.5l14.95.07c5 0 10 .11 14.94.16h.28v.27c0 2.14-.09 4.27-.13 6.38l-.15 6.27Zm0 0-.14-6.38c0-2.1-.11-4.18-.13-6.26l.27.28c-5 .05-10 .16-14.94.16l-14.95.06.5-.5-.06 12.64-.44-.45c2.46 0 4.93 0 7.4.06l7.43.11 15.06.28ZM327.4 223.44l-14.83.28-7.51.11h-8v-.45L297 210.8v-.5h.51l14.94.07c5 0 10 .11 14.95.16h.28v.27c0 2.14-.09 4.27-.13 6.38l-.15 6.26Zm0 0-.14-6.38c0-2.1-.11-4.18-.13-6.26l.27.28c-5 0-10 .16-14.95.16l-14.94.06.5-.5-.01 12.64-.44-.45c2.46 0 4.92 0 7.4.06l7.43.11 15.01.28ZM453.94 333.07l-14.84.28-7.51.12h-7.99v-13.58h.5l14.9.11c5 0 10 .12 14.95.17h.27v.27c0 2.14-.09 4.27-.13 6.38l-.15 6.25Zm0 0-.14-6.37c-.05-2.1-.12-4.19-.14-6.26l.28.27c-5 .06-10 .16-14.95.17l-14.95.06.5-.5-.05 12.63-.45-.44c2.47 0 4.93 0 7.4.05l7.43.12 15.07.27ZM199.931 97.28l-14.84.28-7.51.11c-2.51 0-5 0-7.55.06h-.44v-.45l-.05-12.63v-.5h.5l14.95.06c5 0 10 .11 15 .17h.27v.27c0 2.14-.09 4.27-.13 6.37l-.2 6.26Zm0 0-.15-6.37c0-2.11-.11-4.19-.13-6.26l.28.27c-5 0-10 .16-15 .16l-14.93.07.5-.5-.05 12.63-.45-.44h7.4l7.43.11 15.1.33ZM423.23 181l5.88-9.49-2.9-1.8a2.666 2.666 0 0 1-1.24-2.5c.05-.555.07-1.113.06-1.67a2.658 2.658 0 0 1 1.38-2.41l3-1.61-5.28-9.85-3 1.62a2.654 2.654 0 0 1-2.77-.18 15.684 15.684 0 0 0-1.42-.88 2.659 2.659 0 0 1-1.4-2.41l.11-3.42-11.17-.4-.1 3.43a2.675 2.675 0 0 1-.454 1.375 2.678 2.678 0 0 1-1.106.935c-.24.11-.49.24-.73.37s-.48.26-.71.4a2.654 2.654 0 0 1-2.78 0l-2.93-1.81-5.88 9.49 2.91 1.81a2.661 2.661 0 0 1 1.23 2.5 13.142 13.142 0 0 0-.05 1.66 2.68 2.68 0 0 1-1.39 2.41l-3 1.61 5.28 9.85 3-1.62a2.66 2.66 0 0 1 2.77.18c.458.318.932.612 1.42.88a2.644 2.644 0 0 1 1.4 2.4l-.11 3.43 11.17.35.1-3.43a2.658 2.658 0 0 1 1.55-2.3l.74-.38c.25-.13.49-.26.72-.4a2.673 2.673 0 0 1 2.79 0l2.91 1.86Zm-9.46-7.05a9.145 9.145 0 0 1-10.104-.997 9.137 9.137 0 0 1-2.949-9.715 9.143 9.143 0 0 1 7.845-6.446 9.145 9.145 0 0 1 8.958 4.778 9.139 9.139 0 0 1-3.75 12.35v.03ZM101.53 288.51l5.89-9.49-2.91-1.8a2.664 2.664 0 0 1-1.23-2.5c.03-.557.03-1.114 0-1.67a2.661 2.661 0 0 1 1.39-2.41l3-1.61-5.28-9.85-3 1.62a2.684 2.684 0 0 1-2.78-.18c-.456-.322-.93-.616-1.42-.88a2.683 2.683 0 0 1-1.4-2.41l.11-3.42-11.16-.35-.1 3.43a2.668 2.668 0 0 1-1.56 2.32c-.25.11-.49.24-.74.37s-.48.26-.71.4a2.636 2.636 0 0 1-2.77 0L74 258.29l-5.89 9.49 2.89 1.81a2.633 2.633 0 0 1 1.23 2.5c0 .55-.06 1.1 0 1.66a2.663 2.663 0 0 1-1.39 2.41l-3 1.61 5.28 9.85 3-1.62a2.675 2.675 0 0 1 2.78.18c.452.318.923.608 1.41.87a2.674 2.674 0 0 1 1.4 2.41l-.1 3.43 11.16.34.11-3.42a2.66 2.66 0 0 1 1.55-2.31c.25-.11.49-.24.74-.37s.48-.26.71-.41a2.645 2.645 0 0 1 2.79 0l2.86 1.79Zm-9.45-7.05a9.155 9.155 0 0 1-10.122-.981 9.156 9.156 0 0 1-2.964-9.728 9.154 9.154 0 0 1 7.854-6.459 9.151 9.151 0 0 1 8.972 4.788 9.136 9.136 0 0 1-.983 10.114 9.144 9.144 0 0 1-2.757 2.266Z" fill="#EBEBEB"/>
  <path d="M215.87 106.74 212 100l-2.08 1.2a1.856 1.856 0 0 1-1.95-.07 11.058 11.058 0 0 0-1-.58 1.847 1.847 0 0 1-1-1.65v-2.4h-7.82v2.4a1.872 1.872 0 0 1-1 1.65c-.35.18-.69.37-1 .58a1.858 1.858 0 0 1-.99.329 1.857 1.857 0 0 1-1.01-.259L192 100l-3.91 6.78 2.08 1.2a1.848 1.848 0 0 1 .91 1.72v1.16a1.816 1.816 0 0 1-.9 1.71l-2.09 1.21 3.91 6.78 2.08-1.2a1.854 1.854 0 0 1 1.95.07c.323.211.657.404 1 .58a1.864 1.864 0 0 1 1 1.65V124h7.82v-2.4a1.85 1.85 0 0 1 1-1.65c.35-.18.68-.37 1-.58a1.847 1.847 0 0 1 1.95-.07l2.08 1.2 3.91-6.78-2.08-1.2a1.85 1.85 0 0 1-.91-1.72v-1.16a1.854 1.854 0 0 1 .91-1.72l2.16-1.18Zm-7.48 3.5a6.411 6.411 0 1 1-12.822 0 6.411 6.411 0 0 1 12.822 0Z" fill="#EBEBEB"/>
  <path d="M88.84 303.84c-13.07 12.79-15.27 32.59-12.51 49.92.07.4.68.29.68-.08 0-3.95-.12-7.86-.11-11.76.07-.17.13-.34.2-.52 3.41-2.48 6.55-5.28 8.49-9.12 2.18-4.29 3-9.14 4.71-13.62.16-.43-.3-.3-.6-.08-8 5.86-10.48 12.17-12.76 20.6a69.8 69.8 0 0 1 1.38-13.13c1.72-8 5.11-15.93 10.86-21.86.22-.19-.12-.58-.34-.35Z" fill="#263238"/>
  <path d="M91.29 305.33c2.25.08 3.66 3.67 5.41 4.72a1.669 1.669 0 0 0 1.328.362 1.676 1.676 0 0 0 1.152-.752c1.74-2.42-.64-5.41-2.88-7.09 1.6.66 2.93 1.82 4.65 2.15a1.644 1.644 0 0 0 1.339-.154 1.629 1.629 0 0 0 .771-1.106c.76-3.31-3.39-4.77-6.23-4.84 1.38-1 5.33-3.57 3.23-4.85-2.1-1.28-6.76 2.44-8.27 3.67-2.23 1.8-4.88 4.5-5 7.32-.11 3.29 2.77 1.24 4.5.57Z" fill="#407BFF"/>
  <path opacity=".1" d="M91.29 305.33c2.25.08 3.66 3.67 5.41 4.72a1.669 1.669 0 0 0 1.328.362 1.676 1.676 0 0 0 1.152-.752c1.74-2.42-.64-5.41-2.88-7.09 1.6.66 2.93 1.82 4.65 2.15a1.644 1.644 0 0 0 1.339-.154 1.629 1.629 0 0 0 .771-1.106c.76-3.31-3.39-4.77-6.23-4.84 1.38-1 5.33-3.57 3.23-4.85-2.1-1.28-6.76 2.44-8.27 3.67-2.23 1.8-4.88 4.5-5 7.32-.11 3.29 2.77 1.24 4.5.57Z" fill="#000"/>
  <path d="M90.642 305.89c2.88-1.31 8.4.57 8.87-.52.95-2.21-3.46-3.73-5.85-4 2.2-.59 6.4-1.54 6.27-3.65-.16-2.59-6.44-.36-9.63 2.08-4 3.07-4 6-3.32 6.63.91.79 3.19-.33 3.66-.54Z" fill="#407BFF"/>
  <path d="M59.071 302.571c13.55 12.29 16.49 31.999 14.4 49.419-.06.39-.67.31-.68-.059-.15-3.951-.18-7.861-.34-11.75-.08-.181-.15-.34-.22-.52-3.51-2.35-6.75-5.001-8.83-8.79-2.35-4.211-3.39-9-5.23-13.43-.17-.42.29-.321.6-.111 8.17 5.56 10.94 11.771 13.54 20.111a71.376 71.376 0 0 0-1.88-13.07c-2-7.93-5.72-15.721-11.69-21.441-.22-.22.1-.569.33-.359Z" fill="#263238"/>
  <path d="M56.68 304.16c-2.25.16-3.52 3.8-5.23 4.92a1.671 1.671 0 0 1-1.312.408 1.675 1.675 0 0 1-1.177-.708c-1.83-2.35.43-5.43 2.61-7.19-1.58.72-2.86 1.93-4.57 2.32a1.623 1.623 0 0 1-1.866-.551 1.619 1.619 0 0 1-.284-.629c-.89-3.27 3.2-4.9 6-5.07-1.41-.91-5.46-3.36-3.41-4.72 2.05-1.36 6.85 2.18 8.41 3.35 2.29 1.71 5 4.31 5.25 7.12.28 3.29-2.67 1.37-4.42.75Z" fill="#407BFF"/>
  <path opacity=".1" d="M56.68 304.16c-2.25.16-3.52 3.8-5.23 4.92a1.671 1.671 0 0 1-1.312.408 1.675 1.675 0 0 1-1.177-.708c-1.83-2.35.43-5.43 2.61-7.19-1.58.72-2.86 1.93-4.57 2.32a1.623 1.623 0 0 1-1.866-.551 1.619 1.619 0 0 1-.284-.629c-.89-3.27 3.2-4.9 6-5.07-1.41-.91-5.46-3.36-3.41-4.72 2.05-1.36 6.85 2.18 8.41 3.35 2.29 1.71 5 4.31 5.25 7.12.28 3.29-2.67 1.37-4.42.75Z" fill="#000"/>
  <path d="M57.35 304.69c-2.93-1.2-8.37.89-8.88-.18-1-2.18 3.31-3.86 5.68-4.25-2.21-.51-6.45-1.29-6.4-3.41.06-2.59 6.43-.61 9.7 1.71 4.13 2.92 4.21 5.88 3.57 6.5-.87.85-3.19-.18-3.67-.37Z" fill="#407BFF"/>
  <path d="M72.931 335a132.503 132.503 0 0 0 4.2 19.42.509.509 0 1 0 1-.19c-.89-6-2.51-11.86-3.4-17.85a89.22 89.22 0 0 1-1-18.32c.57-10.09 3.31-20.83 9.89-28.72.14-.19-.16-.45-.31-.28-13.31 15.4-11.18 34.24-11.16 35.94-1.87-6.36-3.79-13.65-10.85-20.13-.31-.28-.54-.15-.49.33 1.26 11.8 4.54 18 11.38 24.27.2 1.86.44 3.72.74 5.53Z" fill="#263238"/>
  <path d="M83.65 291.14c2.37-1.06 5.64 2 8 2.17a1.936 1.936 0 0 0 2.088-.892c.14-.231.229-.49.263-.758.59-3.39-3.39-5.3-6.56-5.9 2-.13 4 .41 5.92-.12a1.87 1.87 0 0 0 1.54-2.37c-.9-3.81-5.9-3.27-8.9-1.89.94-1.69 3.73-6.38.91-6.65-2.82-.27-5.79 5.93-6.74 8-1.4 3-2.79 7.12-1.48 10.09 1.54 3.45 3.51-.1 4.96-1.68Z" fill="#407BFF"/>
  <path opacity=".1" d="M83.65 291.14c2.37-1.06 5.64 2 8 2.17a1.936 1.936 0 0 0 2.088-.892c.14-.231.229-.49.263-.758.59-3.39-3.39-5.3-6.56-5.9 2-.13 4 .41 5.92-.12a1.87 1.87 0 0 0 1.54-2.37c-.9-3.81-5.9-3.27-8.9-1.89.94-1.69 3.73-6.38.91-6.65-2.82-.27-5.79 5.93-6.74 8-1.4 3-2.79 7.12-1.48 10.09 1.54 3.45 3.51-.1 4.96-1.68Z" fill="#000"/>
  <path d="M83.251 292c2.33-2.8 9-3.63 8.94-5-.12-2.77-5.47-2.13-8.09-1.23 2-1.73 5.86-4.82 4.67-6.95-1.47-2.6-6.88 2.87-9 7-2.61 5.21-1.09 8.28-.1 8.56 1.4.43 3.2-1.88 3.58-2.38ZM64.251 338.58 58.441 383h35.37c-.72-3.93-7.31-44.46-7.31-44.46l-22.25.04Z" fill="#407BFF"/>
  <path d="m43.37 383.14 51.66-.24 51.659-.09 103.31-.17 103.31.17 51.66.09 51.66.24-51.66.25-51.66.09-103.31.16-103.31-.16-51.66-.09-51.66-.25Z" fill="#263238"/>
  <path d="M249.999 470.12c82.324 0 149.06-9.438 149.06-21.08 0-11.642-66.736-21.08-149.06-21.08-82.323 0-149.06 9.438-149.06 21.08 0 11.642 66.737 21.08 149.06 21.08Z" fill="#EBEBEB"/>
  <path d="m157.571 227.67-6.21-24.43-49 12.47-6.48-25.5L135 100.89l19.47-4.89 18.9 74.36 15.69-4 6.53 25.64-15.69 4 6.2 24.43-28.53 7.24Zm-33.57-44.8 24.26-6.17-8-31.56-16.26 37.73ZM298 146.12a65.571 65.571 0 0 1-3.68 22.35 55.464 55.464 0 0 1-10.12 17.67 45.818 45.818 0 0 1-15.2 11.59 43.91 43.91 0 0 1-19 4.14 44.538 44.538 0 0 1-19.14-4.14 45.77 45.77 0 0 1-15.27-11.59 54.172 54.172 0 0 1-10-17.67 66.826 66.826 0 0 1-3.59-22.35 66.834 66.834 0 0 1 3.59-22.36 54.219 54.219 0 0 1 10-17.66 46.683 46.683 0 0 1 15.27-11.68A43.738 43.738 0 0 1 250 90.19a43.119 43.119 0 0 1 19 4.23 46.759 46.759 0 0 1 15.18 11.68 55.533 55.533 0 0 1 10.12 17.66 65.615 65.615 0 0 1 3.7 22.36Zm-29.62 0c0-8.587-1.716-15.547-5.15-20.88-3.433-5.333-7.85-8-13.25-8-5.64 0-10.147 2.667-13.52 8-3.373 5.333-5.06 12.293-5.06 20.88s1.687 15.517 5.06 20.79c3.373 5.273 7.887 7.91 13.54 7.91 5.4 0 9.817-2.637 13.25-7.91s5.15-12.203 5.15-20.79h-.02ZM350.842 223l4-24.88-49.91-8.12 4.21-26 71.5-66.33 19.8 3.21-12.27 75.74 16 2.59-4.23 26.15-16-2.59-4 24.88-29.1-4.65Zm-13-54.47 24.7 4 5.21-32.15-29.91 28.15ZM208.68 72.46a13.001 13.001 0 0 1-5.68-1.23 13.95 13.95 0 0 1-4.4-3.27 15.192 15.192 0 0 1-3.86-10 14.385 14.385 0 0 1 1.07-5.5 15.173 15.173 0 0 1 2.95-4.64 13.94 13.94 0 0 1 4.46-3.21 13.18 13.18 0 0 1 5.62-1.19c1.964-.026 3.906.41 5.67 1.27a14.215 14.215 0 0 1 4.34 3.31 15.081 15.081 0 0 1 2.83 4.69 14.664 14.664 0 0 1 0 10.8 14.902 14.902 0 0 1-2.91 4.61 13.886 13.886 0 0 1-4.44 3.19 13.306 13.306 0 0 1-5.65 1.17Zm-8.33-14.54a11.4 11.4 0 0 0 .57 3.59 9.547 9.547 0 0 0 1.64 3.07 7.916 7.916 0 0 0 2.62 2.14 7.57 7.57 0 0 0 3.54.81 7.406 7.406 0 0 0 3.57-.83 8.089 8.089 0 0 0 2.63-2.2 9.676 9.676 0 0 0 1.61-3.09c.76-2.302.76-4.788 0-7.09a9.988 9.988 0 0 0-1.65-3.07 7.988 7.988 0 0 0-2.63-2.12 8.156 8.156 0 0 0-7.09 0 8.01 8.01 0 0 0-2.63 2.18 9.85 9.85 0 0 0-1.59 3.07 11.67 11.67 0 0 0-.59 3.54ZM236.231 72.66a11.482 11.482 0 0 1-4.65-.89 10.351 10.351 0 0 1-3.49-2.4 10.684 10.684 0 0 1-2.21-3.49 11.906 11.906 0 0 1 0-8.37 10.677 10.677 0 0 1 2.21-3.51 10.353 10.353 0 0 1 3.49-2.4 11.483 11.483 0 0 1 4.65-.89c1.586-.03 3.16.273 4.62.89 1.309.553 2.49 1.37 3.47 2.4a10.668 10.668 0 0 1 2.21 3.49 11.895 11.895 0 0 1 0 8.37 10.93 10.93 0 0 1-2.18 3.49 10.29 10.29 0 0 1-3.48 2.4 11.458 11.458 0 0 1-4.64.91Zm-5.54-10.94c-.013.872.133 1.74.43 2.56a6.206 6.206 0 0 0 1.17 2c.47.553 1.053 1 1.71 1.31a5.312 5.312 0 0 0 4.37 0 5.103 5.103 0 0 0 1.75-1.31 6.397 6.397 0 0 0 1.18-2 7.608 7.608 0 0 0 .42-2.59 7.47 7.47 0 0 0-.42-2.54 6.4 6.4 0 0 0-1.18-2 5.171 5.171 0 0 0-3.93-1.78 4.923 4.923 0 0 0-2.19.49 5.428 5.428 0 0 0-1.75 1.33 6.207 6.207 0 0 0-1.17 2 7.253 7.253 0 0 0-.39 2.53ZM263.612 72.66a8.339 8.339 0 0 1-4.36-1.11 7.856 7.856 0 0 1-2.91-3v12.31h-5.41V51.09h4.73v3.64a8.577 8.577 0 0 1 3-2.93 8.418 8.418 0 0 1 4.34-1.07 9.101 9.101 0 0 1 4 .87 9.931 9.931 0 0 1 3.13 2.34 11.019 11.019 0 0 1 2.06 3.47c.499 1.35.749 2.78.74 4.22a13.606 13.606 0 0 1-.68 4.33 11.126 11.126 0 0 1-1.92 3.51 8.825 8.825 0 0 1-2.93 2.34 8.143 8.143 0 0 1-3.79.85Zm-1.81-4.6a4.89 4.89 0 0 0 2.24-.53 5.448 5.448 0 0 0 1.75-1.41 6.567 6.567 0 0 0 1.14-2.06 7.385 7.385 0 0 0 .4-2.43 7.02 7.02 0 0 0-.44-2.48 6.204 6.204 0 0 0-1.24-2 5.652 5.652 0 0 0-1.86-1.33 5.422 5.422 0 0 0-2.32-.49 4.938 4.938 0 0 0-1.57.27 5.51 5.51 0 0 0-1.5.74 6.6 6.6 0 0 0-1.23 1.13 4.821 4.821 0 0 0-.83 1.42v5a7.34 7.34 0 0 0 2.22 3 5.13 5.13 0 0 0 3.24 1.17ZM284.54 72.66a16.215 16.215 0 0 1-5.21-.85 12.695 12.695 0 0 1-4.33-2.42l2-3.39a17.927 17.927 0 0 0 3.78 2.08 10.19 10.19 0 0 0 3.66.7 4.66 4.66 0 0 0 2.54-.6 1.996 1.996 0 0 0 .93-1.74 1.727 1.727 0 0 0-1.09-1.65 23.717 23.717 0 0 0-3.55-1.22c-1.38-.37-2.55-.74-3.52-1.09a8.785 8.785 0 0 1-2.34-1.19 3.995 3.995 0 0 1-1.29-1.53 4.91 4.91 0 0 1-.41-2.08 6.533 6.533 0 0 1 .63-2.91 6.262 6.262 0 0 1 1.76-2.2 8.129 8.129 0 0 1 2.64-1.4 10.862 10.862 0 0 1 3.29-.48c1.516-.01 3.025.22 4.47.68a10.793 10.793 0 0 1 3.81 2.23l-2.18 3.27a12.598 12.598 0 0 0-3.13-1.78 8.488 8.488 0 0 0-3-.57 4.33 4.33 0 0 0-2.3.57 2.005 2.005 0 0 0-.93 1.82 1.85 1.85 0 0 0 .22.93c.18.27.424.49.71.64.405.224.83.408 1.27.55.53.17 1.18.36 2 .54 1.46.38 2.7.76 3.74 1.14a9.692 9.692 0 0 1 2.47 1.29 4.59 4.59 0 0 1 1.46 1.67c.331.73.488 1.528.46 2.33a5.916 5.916 0 0 1-2.3 4.91 10.002 10.002 0 0 1-6.26 1.75ZM297.67 61.47V43.29h5.41v18.18h-5.41Zm0 10.79v-6.1h5.41v6.1h-5.41Z" fill="#263238"/>
  <path d="M270.6 313.851h-35.51v2.91h35.51v-2.91ZM270.6 317.63h-35.51v2.91h35.51v-2.91ZM270.6 321.42h-35.51v2.91h35.51v-2.91ZM270.6 325.21h-35.51v2.91h35.51v-2.91ZM270.6 329h-35.51v2.91h35.51V329ZM285.981 404.59h-67.52v2.91h67.52v-2.91ZM285.981 408.38h-67.52v2.91h67.52v-2.91ZM285.981 412.17h-67.52v2.91h67.52v-2.91ZM285.981 415.96h-67.52v2.91h67.52v-2.91ZM285.981 419.75h-67.52v2.91h67.52v-2.91Z" fill="#37474F"/>
  <path d="M188.831 289.8c0-.39-14.77-5.36-14.77-5.36l.87-50.88 19.64-4.22-5.74 60.46Z" fill="#407BFF"/>
  <path opacity=".2" d="M188.831 289.8c0-.39-14.77-5.36-14.77-5.36l.87-50.88 19.64-4.22-5.74 60.46Z" fill="#000"/>
  <path d="M324.49 309.77c.1-.38 15.72.06 15.72.06l16.69-48.08-17-10.71-15.41 58.73Z" fill="#407BFF"/>
  <path opacity=".2" d="M324.49 309.77c.1-.38 15.72.06 15.72.06l16.69-48.08-17-10.71-15.41 58.73Z" fill="#000"/>
  <path d="M186 308.54s5.49-82.3 10.31-109.38c0 0 99.42 7.52 153.09 28 0 0-27.67 96.12-29.1 100.89-.02.04-70.03-13.75-134.3-19.51Z" fill="#407BFF"/>
  <path opacity=".1" d="M274.721 210.15a4566.472 4566.472 0 0 1-4.94 29.72l-5.13 29.67-.27-.41 33.31 7.87 16.64 4 16.61 4.11-16.7-3.74-16.69-3.81-33.34-7.79-.34-.08.06-.34 5.31-29.65c1.78-9.8 3.607-19.65 5.48-29.55ZM271.071 215.8a1.998 1.998 0 0 1-1.75 1.94 2.012 2.012 0 0 1-1.46-.48 1.992 1.992 0 0 1-.66-1.46 2.001 2.001 0 0 1 .66-1.46 1.94 1.94 0 0 1 3.21 1.46Zm0 0a1.605 1.605 0 0 0-.55-1.19 1.566 1.566 0 0 0-2.341.349 1.573 1.573 0 0 0 .665 2.271 1.566 1.566 0 0 0 1.676-.23c.17-.151.307-.336.401-.543a1.62 1.62 0 0 0 .149-.657ZM269.321 228.05a1.93 1.93 0 0 1-1.74 1.93 1.928 1.928 0 0 1-1.96-1.143 1.918 1.918 0 0 1-.16-.787 1.937 1.937 0 0 1 .65-1.46c.201-.173.434-.305.687-.388.252-.082.518-.113.783-.092a1.998 1.998 0 0 1 1.74 1.94Zm0 0a1.61 1.61 0 0 0-.55-1.2 1.564 1.564 0 0 0-1.19-.36 1.57 1.57 0 1 0 1.221 2.732 1.558 1.558 0 0 0 .519-1.172ZM267.171 241a1.931 1.931 0 0 1-1.74 1.93 2.001 2.001 0 0 1-2.009-2.365c.073-.391.26-.751.539-1.035a1.991 1.991 0 0 1 1.47-.47 1.941 1.941 0 0 1 1.74 1.94Zm0 0a1.598 1.598 0 0 0-.55-1.2 1.572 1.572 0 0 0-2.184.154 1.57 1.57 0 0 0 .994 2.606 1.609 1.609 0 0 0 1.19-.37 1.564 1.564 0 0 0 .55-1.19ZM265.001 253.93a1.942 1.942 0 0 1-1.74 1.93 1.933 1.933 0 0 1-1.461-.514 1.945 1.945 0 0 1-.457-2.195 1.945 1.945 0 0 1 1.918-1.161 1.941 1.941 0 0 1 1.74 1.94Zm0 0a1.598 1.598 0 0 0-.55-1.2 1.572 1.572 0 0 0-2.184.155 1.568 1.568 0 0 0 .994 2.605 1.609 1.609 0 0 0 1.19-.37 1.593 1.593 0 0 0 .55-1.19ZM272.351 274.56a1.946 1.946 0 0 1-1.242 1.811 1.943 1.943 0 0 1-2.135-.507 1.935 1.935 0 0 1-.296-2.175 1.94 1.94 0 0 1 3.673.871Zm0 0a1.654 1.654 0 0 0-.55-1.2 1.633 1.633 0 0 0-1.2-.36 1.58 1.58 0 0 0-1.174.779 1.581 1.581 0 0 0-.077 1.406 1.577 1.577 0 0 0 1.081.902 1.567 1.567 0 0 0 1.37-.327 1.65 1.65 0 0 0 .55-1.2ZM284.56 277.54a1.935 1.935 0 0 1-1.137 1.76 1.946 1.946 0 0 1-2.073-.3 1.933 1.933 0 0 1-.662-1.46 1.94 1.94 0 0 1 .662-1.46 1.997 1.997 0 0 1 1.46-.47 1.932 1.932 0 0 1 1.75 1.93Zm0 0a1.607 1.607 0 0 0-.55-1.2 1.616 1.616 0 0 0-1.2-.36 1.568 1.568 0 0 0-1.378 1.473 1.574 1.574 0 0 0 1.208 1.614 1.567 1.567 0 0 0 1.37-.327 1.594 1.594 0 0 0 .55-1.2ZM296.77 280.521a1.924 1.924 0 0 1-1.129 1.762c-.337.154-.712.208-1.08.154a1.937 1.937 0 0 1-.991-.456 2 2 0 0 1-.66-1.46 1.937 1.937 0 0 1 .65-1.46 2.01 2.01 0 0 1 1.47-.47 1.93 1.93 0 0 1 1.74 1.93Zm0 0a1.592 1.592 0 0 0-.54-1.2 1.608 1.608 0 0 0-.583-.284 1.623 1.623 0 0 0-.647-.036 1.567 1.567 0 0 0-1.393 1.56 1.568 1.568 0 0 0 2.029 1.499c.206-.061.398-.163.564-.299a1.584 1.584 0 0 0 .57-1.24ZM309.001 283.501a1.934 1.934 0 0 1-1.137 1.759 1.94 1.94 0 0 1-2.073-.299 2.008 2.008 0 0 1-.66-1.46 2 2 0 0 1 .66-1.46 1.982 1.982 0 0 1 1.46-.48 1.999 1.999 0 0 1 1.75 1.94Zm0 0a1.638 1.638 0 0 0-.55-1.2 1.564 1.564 0 0 0-1.37-.327 1.568 1.568 0 0 0-1.003 2.308 1.56 1.56 0 0 0 1.809.719c.206-.062.398-.164.564-.3a1.64 1.64 0 0 0 .55-1.2ZM321.2 286.61a2 2 0 0 1-1.89 1.79 2.004 2.004 0 0 1-1.43-.58 1.933 1.933 0 0 1-.54-1.506 1.956 1.956 0 0 1 1.477-1.739c.257-.062.523-.07.783-.025a2.002 2.002 0 0 1 1.6 2.06Zm0 0a1.598 1.598 0 0 0-.46-1.23 1.573 1.573 0 0 0-2.362.169 1.58 1.58 0 0 0-.128 1.689 1.573 1.573 0 0 0 2.31.522 1.61 1.61 0 0 0 .64-1.15ZM262.869 266.86a1.939 1.939 0 0 1-1.74 1.94 2.05 2.05 0 0 1-1.47-.47 1.946 1.946 0 0 1-.515-2.241 1.934 1.934 0 0 1 1.985-1.159 1.937 1.937 0 0 1 1.74 1.93Zm0 0a1.589 1.589 0 0 0-.55-1.19 1.566 1.566 0 0 0-2.34.349 1.565 1.565 0 0 0 0 1.692 1.565 1.565 0 0 0 1.536.709c.297-.041.576-.166.804-.36a1.607 1.607 0 0 0 .55-1.2Z" fill="#000"/>
  <path opacity=".2" d="M242.306 288.31c11.594-10.425 12.542-28.274 2.118-39.867-10.425-11.594-28.274-12.542-39.867-2.118-11.594 10.425-12.542 28.274-2.118 39.867 10.425 11.594 28.274 12.542 39.867 2.118Z" fill="#000"/>
  <path d="M244.604 275.307c4.426-11.694-1.466-24.762-13.16-29.188-11.694-4.426-24.762 1.467-29.188 13.161-4.426 11.694 1.466 24.762 13.16 29.188 11.695 4.426 24.763-1.466 29.188-13.161Z" fill="#263238"/>
  <path d="m222.072 258.996-5.291-.857-.857 5.291 5.291.857.857-5.291ZM217.633 252.844l-5.291-.857-.857 5.291 5.291.857.857-5.291ZM238.803 256.275l-5.291-.857-.857 5.291 5.291.857.857-5.291ZM214.223 273.899l-5.291-.857-.857 5.291 5.291.857.857-5.291ZM235.4 277.329l-5.291-.857-.857 5.291 5.291.857.857-5.291ZM220.373 269.459l-5.291-.857-.857 5.291 5.291.857.857-5.291Z" fill="#407BFF"/>
  <path d="m226.512 265.086-5.291-.857-.857 5.292 5.291.856.857-5.291ZM232.654 260.705l-5.291-.857-.857 5.291 5.291.857.857-5.291ZM230.971 271.169l-5.291-.857-.857 5.292 5.291.856.857-5.291ZM321.027 297.011c9.881-12.06 8.115-29.847-3.944-39.728-12.06-9.881-29.847-8.115-39.728 3.944-9.882 12.06-8.116 29.847 3.944 39.728 12.06 9.882 29.847 8.116 39.728-3.944Z" fill="#407BFF"/>
  <path opacity=".2" d="M321.027 297.011c9.881-12.06 8.115-29.847-3.944-39.728-12.06-9.881-29.847-8.115-39.728 3.944-9.882 12.06-8.116 29.847 3.944 39.728 12.06 9.882 29.847 8.116 39.728-3.944Z" fill="#000"/>
  <path opacity=".2" d="M326.661 285.67c-.13.56-.28 1.09-.44 1.63l-55-11.74c.13-1 .3-2 .53-2.95a28.243 28.243 0 0 1 22.982-21.824 28.244 28.244 0 0 1 32.545 23.757 28.258 28.258 0 0 1-.587 11.127h-.03Z" fill="#000"/>
  <path d="M307.927 300.001c11.537-4.821 16.981-18.082 12.159-29.619-4.821-11.537-18.082-16.981-29.619-12.159-11.536 4.821-16.98 18.082-12.159 29.618 4.821 11.537 18.082 16.981 29.619 12.16Z" fill="#263238"/>
  <path d="m304.875 266.79-5.215-1.239-6.172 25.966 5.215 1.24 6.172-25.967Z" fill="#407BFF"/>
  <path d="m328.3 285.14-57.8-13.74a29.707 29.707 0 0 1 35.649-21.522A29.707 29.707 0 0 1 328.3 285.14Z" fill="#407BFF"/>
  <path opacity=".2" d="m328.3 285.14-57.8-13.74a29.707 29.707 0 0 1 35.649-21.522A29.707 29.707 0 0 1 328.3 285.14Z" fill="#000"/>
  <path opacity=".1" d="M250.07 295.92a10.515 10.515 0 0 1 2.61-6.35 7.675 7.675 0 0 1 3.07-2.07 8.668 8.668 0 0 1 3.7-.41 6.908 6.908 0 0 1 3.514 1.343 6.904 6.904 0 0 1 2.286 2.987 11.484 11.484 0 0 1 .59 6.85 17.978 17.978 0 0 0-2-6.14 5.87 5.87 0 0 0-4.61-3.06 7.057 7.057 0 0 0-5.49 1.61 14.78 14.78 0 0 0-3.67 5.24Z" fill="#000"/>
  <path d="M193.721 238.34c.23-3 .57-6 .86-9 .29-3 .65-6 1-9s.74-6 1.12-9c.38-3 .81-6 1.22-9l.1-.8.81.05c6.52.407 13.023.943 19.51 1.61 3.24.33 6.48.71 9.72 1.12 3.24.41 6.47.9 9.68 1.48l-19.52-1.2-19.49-1.27.91-.74c-.44 3-.85 6-1.32 9-.47 3-.92 6-1.42 8.95-.5 2.95-1 5.95-1.52 8.93-.52 2.98-1.05 5.91-1.66 8.87ZM198.41 261.16a24.557 24.557 0 0 1 4.52-10.09c.55-.76 1.18-1.46 1.78-2.18.6-.72 1.33-1.33 2-2 .67-.67 1.47-1.18 2.22-1.75.75-.57 1.58-1 2.39-1.52s1.71-.83 2.57-1.22l2.68-.93 2.78-.57c.93-.14 1.87-.17 2.81-.24a27.309 27.309 0 0 1 10.84 2.1 38.629 38.629 0 0 0-10.78-.72 25.224 25.224 0 0 0-10.07 3.13 29.163 29.163 0 0 0-8.18 6.75 33.241 33.241 0 0 0-5.56 9.24ZM276.291 268.78a24.779 24.779 0 0 1 5.86-9.37c.65-.67 1.37-1.28 2.07-1.91.7-.63 1.5-1.13 2.26-1.69.76-.56 1.61-1 2.44-1.43.83-.43 1.71-.8 2.58-1.17.87-.37 1.8-.59 2.7-.86l2.79-.55 2.83-.18c.94 0 1.88.1 2.82.16a27.196 27.196 0 0 1 10.47 3.56 38.915 38.915 0 0 0-10.58-2.2 25.254 25.254 0 0 0-10.4 1.71 29.457 29.457 0 0 0-9 5.55 33.561 33.561 0 0 0-6.84 8.38Z" fill="#fff"/>
  <path d="M189.141 359.25c-7.23 0-23.06-1.62-33.25-14.72-13-16.76-8.32-48.92-8.12-50.28l5.66.86c0 .31-4.54 31.09 7 45.9 11.26 14.48 31.69 12.41 31.89 12.38l.65 5.69c-.25.02-1.65.17-3.83.17Z" fill="#407BFF"/>
  <path opacity=".4" d="M189.141 359.25c-7.23 0-23.06-1.62-33.25-14.72-13-16.76-8.32-48.92-8.12-50.28l5.66.86c0 .31-4.54 31.09 7 45.9 11.26 14.48 31.69 12.41 31.89 12.38l.65 5.69c-.25.02-1.65.17-3.83.17Z" fill="#fff"/>
  <path d="M155.101 299a18.995 18.995 0 0 1-3.16-.25c-9.55-1.55-13.77-7.26-15.64-11.78-1.87-4.52-2.3-9.97-1.3-16.29l12.1 2c-.63 3.89-.44 7.32.52 9.65.69 1.66 2 3.66 6.26 4.35 1.94.31 4 .15 6.23-3.16a22.874 22.874 0 0 0 3.06-8.23l12.11 2a35.5 35.5 0 0 1-5 13c-3.72 5.71-9.06 8.71-15.18 8.71ZM201.1 375.63c0-.26-10.26-1.89-10.26-1.89l-5-33.41 12.39-4.9 2.87 40.2Z" fill="#407BFF"/>
  <path opacity=".2" d="M201.1 375.63c0-.26-10.26-1.89-10.26-1.89l-5-33.41 12.39-4.9 2.87 40.2Z" fill="#000"/>
  <path d="M302.301 375.69c0-.26 10.29-1.66 10.29-1.66l5.71-33.29-12.3-5.17-3.7 40.12Z" fill="#407BFF"/>
  <path opacity=".2" d="M302.301 375.69c0-.26 10.29-1.66 10.29-1.66l5.71-33.29-12.3-5.17-3.7 40.12Z" fill="#000"/>
  <path d="M196.841 328s82.79-3.53 110.75 1.13c0 0-8.21 80.1-8.65 81.66 0 0-82.36-.23-95.23 0 0-.05-6.97-53.32-6.87-82.79Z" fill="#407BFF"/>
  <path opacity=".2" d="M222 349.91s45.19-1.79 60.46.56c0 0-4.49 40.39-4.73 41.18 0 0-45-.11-52 0 .01 0-3.08-27.65-3.73-41.74Z" fill="#000"/>
  <path opacity=".2" d="M228.16 391.63h-2.43S222.65 364 222 349.9l2.83-.1 3.33 41.83Z" fill="#000"/>
  <path d="M241.491 359.87a4.815 4.815 0 0 0-5.142 1.492 4.81 4.81 0 1 0 5.142-1.492Zm2.58 5.86a4.218 4.218 0 0 1-6.058 2.421 4.224 4.224 0 0 1 .858-7.75 4.233 4.233 0 0 1 2.45.029 4.232 4.232 0 0 1 2.473 2.08c.255.493.411 1.03.459 1.583a4.24 4.24 0 0 1-.182 1.637Zm-2.58-5.86a4.815 4.815 0 0 0-5.142 1.492 4.81 4.81 0 1 0 5.142-1.492Zm2.58 5.86a4.218 4.218 0 0 1-6.058 2.421 4.224 4.224 0 0 1 .858-7.75 4.233 4.233 0 0 1 2.45.029 4.232 4.232 0 0 1 2.473 2.08c.255.493.411 1.03.459 1.583a4.24 4.24 0 0 1-.182 1.637Zm-2.58-5.86a4.815 4.815 0 0 0-5.142 1.492 4.81 4.81 0 1 0 5.142-1.492Zm2.58 5.86a4.218 4.218 0 0 1-6.058 2.421 4.224 4.224 0 0 1 .858-7.75 4.233 4.233 0 0 1 2.45.029 4.232 4.232 0 0 1 2.473 2.08c.255.493.411 1.03.459 1.583a4.24 4.24 0 0 1-.182 1.637Zm-1-10.94a10.132 10.132 0 0 0-12.038 14.334 10.13 10.13 0 0 0 18.648-1.624 10.143 10.143 0 0 0-6.58-12.71h-.03Zm2.25 11.34a5.556 5.556 0 0 1-4.828 3.845 5.559 5.559 0 0 1-2.026-10.877 5.559 5.559 0 0 1 3.224.032 5.582 5.582 0 0 1 3.285 2.739 5.583 5.583 0 0 1 .375 4.261h-.03Zm-.72-.23a4.811 4.811 0 0 0-8.809-3.756 4.806 4.806 0 0 0 2.809 6.896 4.806 4.806 0 0 0 3.666-.318 4.803 4.803 0 0 0 2.364-2.822h-.03Zm-.56-.17a4.218 4.218 0 0 1-6.058 2.421 4.224 4.224 0 0 1 .858-7.75 4.233 4.233 0 0 1 2.45.029 4.224 4.224 0 0 1 2.958 3.658 4.225 4.225 0 0 1-.178 1.642h-.03Zm-2.58-5.86a4.815 4.815 0 0 0-5.142 1.492 4.81 4.81 0 1 0 8.282 4.508 4.813 4.813 0 0 0-3.11-6h-.03Zm2.58 5.86a4.218 4.218 0 0 1-6.058 2.421 4.224 4.224 0 0 1 .858-7.75 4.233 4.233 0 0 1 2.45.029 4.224 4.224 0 0 1 2.958 3.658 4.225 4.225 0 0 1-.178 1.642h-.03Zm-2.58-5.86a4.815 4.815 0 0 0-5.142 1.492 4.81 4.81 0 1 0 8.282 4.508 4.813 4.813 0 0 0-3.11-6h-.03Zm2.58 5.86a4.218 4.218 0 0 1-6.058 2.421 4.224 4.224 0 0 1 .858-7.75 4.233 4.233 0 0 1 2.45.029 4.224 4.224 0 0 1 2.958 3.658 4.225 4.225 0 0 1-.178 1.642h-.03Z" fill="#407BFF"/>
  <path d="m238.99 374.31-3.72-1.18-.62 2.7 3.3 1.04 1.04-2.56ZM232.31 370.82l-1.8-3.45-2.35 1.46 1.6 3.08 2.55-1.09ZM230.05 363.64l1.17-3.71-2.69-.63-1.05 3.31 2.57 1.03ZM233.531 356.96l3.46-1.79-1.47-2.35-3.07 1.6 1.08 2.54ZM240.711 354.701l3.72 1.18.62-2.7-3.3-1.04-1.04 2.56ZM247.391 358.181l1.8 3.46 2.35-1.46-1.6-3.08-2.55 1.08ZM249.65 365.37l-1.17 3.71 2.7.63 1.04-3.31-2.57-1.03ZM246.171 372.04l-3.45 1.8 1.46 2.35 3.07-1.6-1.08-2.55Z" fill="#407BFF"/>
  <path d="M257.839 374a3.24 3.24 0 1 0-3.549 5.421A3.24 3.24 0 0 0 257.84 374Zm.61 4.26a2.84 2.84 0 1 1-.033-3.154 2.848 2.848 0 0 1 .449 2.133c-.069.368-.21.718-.416 1.031v-.01Zm-.61-4.26a3.24 3.24 0 1 0-3.549 5.421A3.24 3.24 0 0 0 257.84 374Zm.61 4.26a2.84 2.84 0 1 1-.033-3.154 2.848 2.848 0 0 1 .449 2.133c-.069.368-.21.718-.416 1.031v-.01Zm-.61-4.26a3.24 3.24 0 1 0-3.549 5.421A3.24 3.24 0 0 0 257.84 374Zm.61 4.26a2.84 2.84 0 1 1-.033-3.154 2.848 2.848 0 0 1 .449 2.133c-.069.368-.21.718-.416 1.031v-.01Zm1.34-7.26a6.824 6.824 0 0 0-7.576.097 6.822 6.822 0 0 0 2.612 12.327 6.822 6.822 0 0 0 7.921-8.118 6.83 6.83 0 0 0-2.957-4.306Zm-.59 7.75a3.733 3.733 0 0 1-5.748.637 3.74 3.74 0 1 1 5.703-4.786 3.735 3.735 0 0 1 .045 4.159v-.01Zm-.42-.27a3.229 3.229 0 1 0-5.887-2.347 3.23 3.23 0 0 0 1.407 3.297 3.252 3.252 0 0 0 4.48-.94v-.01Zm-.33-.22a2.84 2.84 0 1 1-.033-3.154 2.848 2.848 0 0 1 .449 2.133c-.069.368-.21.718-.416 1.031v-.01Zm-.61-4.26a3.24 3.24 0 1 0-3.549 5.421A3.24 3.24 0 0 0 257.84 374Zm.61 4.26a2.84 2.84 0 1 1-.033-3.154 2.848 2.848 0 0 1 .449 2.133c-.069.368-.21.718-.416 1.031v-.01Zm-.61-4.26a3.24 3.24 0 1 0-3.549 5.421A3.24 3.24 0 0 0 257.84 374Zm.61 4.26a2.84 2.84 0 1 1-.033-3.154 2.848 2.848 0 0 1 .449 2.133c-.069.368-.21.718-.416 1.031v-.01Z" fill="#DBDBDB"/>
  <path d="m253.6 382.92-2.2-1.43-.89 1.63 1.96 1.27 1.13-1.47ZM249.9 379.451l-.54-2.56-1.79.52.48 2.29 1.85-.25ZM249.73 374.39l1.43-2.2-1.63-.89-1.28 1.95 1.48 1.14ZM253.201 370.69l2.56-.55-.52-1.78-2.29.48.25 1.85ZM258.26 370.52l2.2 1.43.89-1.64-1.95-1.27-1.14 1.48ZM261.961 373.98l.55 2.57 1.78-.53-.48-2.28-1.85.24ZM262.131 379.05l-1.43 2.2 1.63.89 1.28-1.96-1.48-1.13ZM258.67 382.75l-2.57.54.53 1.79 2.28-.48-.24-1.85Z" fill="#DBDBDB"/>
  <path d="m305.59 401.41 3.19.6 9.1-61.63-3.63-.67-8.66 61.7Z" fill="#407BFF"/>
  <path d="m277.721 391.65 4.73-41.18 31.8-10.76s-8.66 62.37-8.66 61.7l-27.87-9.76Z" fill="#407BFF"/>
  <path opacity=".4" d="m277.721 391.65 4.73-41.18 31.8-10.76s-8.66 62.37-8.66 61.7l-27.87-9.76Z" fill="#fff"/>
  <path d="M200.64 352.14c-.52-3.41-.8-6.85-1-10.29-.1-1.72-.14-3.45-.18-5.17-.04-1.72-.06-3.45 0-5.18v-.45h.44c6.32-.34 12.63-.76 19-1 6.37-.24 12.64-.6 19-.8-6.31.57-12.61 1.06-18.92 1.52-6.31.46-12.63.84-18.94 1.27l.46-.47v5.15l.06 5.15c0 1.72 0 3.44.09 5.15l-.01 5.12ZM286.881 351.08c2-.94 4-1.81 6-2.61 2-.8 4.04-1.573 6.12-2.32 2.06-.7 4.13-1.39 6.24-2a57.543 57.543 0 0 1 6.39-1.49l.53-.09-.09.51c-.5 2.67-1 5.33-1.64 8 .23-2.71.56-5.41.9-8.1l.44.43c-2.1.5-4.18 1.08-6.26 1.7-2.08.62-4.15 1.27-6.21 1.94l-12.42 4.03Z" fill="#fff"/>
  <path opacity=".1" d="m214.4 328.12.54 10.3.46 10.3.79 20.61.62 20.61.25 10.31.17 10.32-.54-10.3-.45-10.31-.8-20.6-.62-20.62-.25-10.31-.17-10.31ZM211.451 334.331a1.923 1.923 0 0 1-.755 1.958 1.935 1.935 0 0 1-2.095.112 2.002 2.002 0 0 1-.94-1.31 1.995 1.995 0 0 1 .36-1.56 1.992 1.992 0 0 1 1.34-.75 1.937 1.937 0 0 1 2.09 1.55Zm0 0a1.56 1.56 0 1 0-3.055.633 1.56 1.56 0 0 0 3.055-.633ZM212.16 346.68a1.995 1.995 0 0 1-1.33 2.24 1.934 1.934 0 0 1-2.147-.74 1.927 1.927 0 0 1-.296-1.557c.062-.269.179-.522.343-.743a2.007 2.007 0 0 1 1.34-.75 1.938 1.938 0 0 1 2.09 1.55Zm0 0a1.547 1.547 0 0 0-.731-1.045 1.536 1.536 0 0 0-1.269-.135 1.572 1.572 0 0 0-1.096 1.317 1.568 1.568 0 0 0 3.022.754c.11-.283.136-.593.074-.891ZM212.611 359.79a1.999 1.999 0 0 1-1.33 2.24 1.999 1.999 0 0 1-1.52-.17 1.994 1.994 0 0 1-.94-1.31 2.008 2.008 0 0 1 .36-1.56 1.933 1.933 0 0 1 2.925-.17c.259.268.434.605.505.97Zm0 0a1.536 1.536 0 0 0-1.351-1.25 1.552 1.552 0 0 0-.649.07 1.57 1.57 0 1 0 2 1.18ZM213.06 372.9a1.997 1.997 0 0 1-1.33 2.24 2 2 0 0 1-2.46-1.48 2.013 2.013 0 0 1 .36-1.56 1.935 1.935 0 0 1 1.974-.711 1.93 1.93 0 0 1 1.456 1.511Zm0 0a1.591 1.591 0 0 0-.77-1.07 1.661 1.661 0 0 0-1.25-.12 1.572 1.572 0 0 0-1.065 1.808 1.571 1.571 0 0 0 2.295 1.068c.189-.102.356-.24.49-.406a1.57 1.57 0 0 0 .3-1.28ZM213.511 386a1.926 1.926 0 0 1-.754 1.958 1.934 1.934 0 0 1-2.096.112 2.008 2.008 0 0 1-.94-1.3 2.003 2.003 0 0 1 .36-1.57 2.003 2.003 0 0 1 1.34-.75 1.999 1.999 0 0 1 2.09 1.55Zm0 0a1.549 1.549 0 0 0-.737-1.036 1.557 1.557 0 0 0-1.263-.144 1.57 1.57 0 0 0 .62 3.06 1.554 1.554 0 0 0 1.398-1.222c.048-.216.048-.441.002-.658h-.02ZM214 399.111a1.942 1.942 0 0 1-1.51 2.28 1.95 1.95 0 0 1-1.989-.815 1.92 1.92 0 0 1-.291-.695 1.928 1.928 0 0 1 .005-.804 1.924 1.924 0 0 1 .929-1.269 1.94 1.94 0 0 1 .766-.247 1.996 1.996 0 0 1 2.09 1.55Zm0 0a1.59 1.59 0 0 0-.77-1.06 1.6 1.6 0 0 0-.613-.186 1.595 1.595 0 0 0-.637.066 1.567 1.567 0 0 0-1.065 1.808 1.57 1.57 0 0 0 1.685 1.252 1.56 1.56 0 0 0 1.4-1.88Z" fill="#000"/>
  <path d="m218.019 419.153-46.874 14.205 1.659 5.475 46.874-14.206-1.659-5.474Z" fill="#407BFF"/>
  <path opacity=".4" d="m218.019 419.153-46.874 14.205 1.659 5.475 46.874-14.206-1.659-5.474Z" fill="#fff"/>
  <path d="m195.553 424.104-5.451 1.733 2.575 8.1 5.451-1.733-2.575-8.1ZM172.43 446.86l-12.1-52.38-36.51 8.66 17.98 51.05 30.63-7.33Z" fill="#407BFF"/>
  <path d="m180.53 444.2-8.1 2.66-12.1-52.38 11.65 2.78 8.55 46.94Z" fill="#407BFF"/>
  <path opacity=".2" d="m180.53 444.2-8.1 2.66-12.1-52.38 11.65 2.78 8.55 46.94Z" fill="#000"/>
  <path d="M218.86 428.1a6.21 6.21 0 1 0 0-12.42 6.21 6.21 0 0 0 0 12.42ZM282.815 419.022l-1.67 5.47 46.844 14.304 1.671-5.47-46.845-14.304Z" fill="#407BFF"/>
  <path opacity=".4" d="m282.815 419.022-1.67 5.47 46.844 14.304 1.671-5.47-46.845-14.304Z" fill="#fff"/>
  <path d="m305.252 423.971-2.594 8.094 5.447 1.746 2.594-8.094-5.447-1.746ZM328.359 446.82l12.2-52.36 36.5 8.74-18.09 51.01-30.61-7.39Z" fill="#407BFF"/>
  <path d="m320.26 444.14 8.1 2.68 12.2-52.36-11.65 2.75-8.65 46.93Z" fill="#407BFF"/>
  <path opacity=".2" d="m320.26 444.14 8.1 2.68 12.2-52.36-11.65 2.75-8.65 46.93Z" fill="#000"/>
  <path d="M275.76 421.74a6.215 6.215 0 0 0 3.823 5.76 6.222 6.222 0 0 0 8.148-8.109 6.216 6.216 0 0 0-5.741-3.851 6.213 6.213 0 0 0-5.753 3.822 6.205 6.205 0 0 0-.477 2.378ZM322.66 357.13c.15-.14 15.21-14.1 32.92-9.32 18.11 4.88 33.06 32.16 33.21 32.44l5-2.72c-.66-1.21-16.26-29.73-36.76-35.25-20.86-5.62-37.65 10-38.35 10.7l3.98 4.15Z" fill="#407BFF"/>
  <path opacity=".4" d="M322.66 357.13c.15-.14 15.21-14.1 32.92-9.32 18.11 4.88 33.06 32.16 33.21 32.44l5-2.72c-.66-1.21-16.26-29.73-36.76-35.25-20.86-5.62-37.65 10-38.35 10.7l3.98 4.15Z" fill="#fff"/>
  <path d="M382.12 407.71 393 402a23 23 0 0 1-2.51-8.42c-.24-4 1.34-5.36 3.07-6.28 3.8-2 6.07-1.21 7.62-.3 2.17 1.29 4.38 3.91 6.22 7.4l10.85-5.73c-3-5.62-6.62-9.74-10.84-12.23s-11-4.5-19.57 0c-6.67 3.52-10.07 9.86-9.59 17.86a35.496 35.496 0 0 0 3.87 13.41Z" fill="#407BFF"/>
  <path d="M325 338.001c2.35-1.62 4.76-3.15 7.17-4.67s4.86-3 7.31-4.44c2.45-1.44 4.92-2.87 7.42-4.24l3.76-2.05c1.27-.65 2.52-1.33 3.81-2-1.17.82-2.38 1.59-3.56 2.38l-3.62 2.29c-2.41 1.53-4.85 3-7.3 4.44-2.45 1.44-4.93 2.87-7.43 4.24s-5.05 2.8-7.56 4.05ZM318.721 361.42c3.37 1.92 6.56 4.09 9.71 6.31 3.15 2.22 6.21 4.56 9.12 7.12a115.021 115.021 0 0 1-9.71-6.31c-3.12-2.25-6.21-4.54-9.12-7.12ZM324.25 358.54c2.6.79 5.16 1.69 7.71 2.59 2.55.9 5.04 1.87 7.61 2.87 2.57 1 5 2 7.52 3l3.74 1.6c1.23.57 2.47 1.11 3.69 1.7-1.3-.38-2.58-.83-3.87-1.24l-3.83-1.34c-2.56-.9-5.09-1.87-7.61-2.84-2.52-.97-5-2-7.53-3-2.53-1-4.98-2.16-7.43-3.34ZM331.631 340.221c2.49-.65 5-1.19 7.51-1.71s5-1 7.56-1.45c2.56-.45 5.05-.86 7.59-1.22l3.81-.53c1.28-.14 2.55-.31 3.84-.42-1.25.33-2.5.6-3.75.91l-3.76.8c-2.51.53-5 1-7.56 1.45-2.56.45-5.06.86-7.6 1.21s-5.08.74-7.64.96ZM271.621 355.79a26.614 26.614 0 0 1 2-5.88 23.797 23.797 0 0 1 3.31-5.28 12.801 12.801 0 0 1 5-3.75 8.854 8.854 0 0 1 6.31.06 8.403 8.403 0 0 1 4.51 4.47c.449.984.733 2.034.84 3.11a6.996 6.996 0 0 1-.37 3.27 2.936 2.936 0 0 1-1.1 1.41 2.134 2.134 0 0 1-.91.34 1.99 1.99 0 0 1-1-.09 2.806 2.806 0 0 1-1.29-1.31 7.31 7.31 0 0 1-.59-1.54 20.118 20.118 0 0 1-.52-6.31 25.873 25.873 0 0 1 3.64-12 15.644 15.644 0 0 1 4.34-4.61 13.152 13.152 0 0 1 5.89-2.28c1.036-.19 2.087-.28 3.14-.27a9.28 9.28 0 0 1 1.58.1c.525.03 1.046.1 1.56.21a19.185 19.185 0 0 1 5.86 2.21 24.692 24.692 0 0 1 4.9 3.85 26.134 26.134 0 0 1 3.86 4.85 27.003 27.003 0 0 0-9-8.27 18.76 18.76 0 0 0-5.73-2 21.067 21.067 0 0 0-3-.23 16.002 16.002 0 0 0-3 .33 13.014 13.014 0 0 0-5.53 2.23 14.65 14.65 0 0 0-4.06 4.38 25.003 25.003 0 0 0-3.43 11.54 19.34 19.34 0 0 0 .45 6c.24.92.67 2 1.3 2.24a1.292 1.292 0 0 0 .53.05c.189-.022.37-.087.53-.19.35-.247.616-.596.76-1a5.993 5.993 0 0 0 .33-2.83 9.369 9.369 0 0 0-.75-2.85 7.82 7.82 0 0 0-4-4.11 8.167 8.167 0 0 0-5.8-.18 12.457 12.457 0 0 0-4.88 3.48 27.002 27.002 0 0 0-5.68 10.85ZM179.221 381.7a13.984 13.984 0 0 1 4-4.63 14.99 14.99 0 0 1 5.6-2.69 12.057 12.057 0 0 1 6.25.13 12.49 12.49 0 0 1 5.34 3.32 15.804 15.804 0 0 1 3.34 5.33 14.649 14.649 0 0 1 1 6.23 5.248 5.248 0 0 1-1.16 3.12 2.44 2.44 0 0 1-1.69.76 3.7 3.7 0 0 1-1.72-.39 2.824 2.824 0 0 1-1.24-1.32 4.366 4.366 0 0 1-.38-1.68 9.145 9.145 0 0 1 .53-3.19 18.542 18.542 0 0 1 3.06-5.51 21.984 21.984 0 0 1 4.53-4.35 16.894 16.894 0 0 1 11.92-3.28c2.091.249 4.113.908 5.95 1.94a16.404 16.404 0 0 1 4.73 4.07 22.328 22.328 0 0 1 3.08 5.38 25.329 25.329 0 0 1 1.64 5.95 25.005 25.005 0 0 0-5.12-11 15.513 15.513 0 0 0-4.64-3.82 15.226 15.226 0 0 0-5.73-1.72 16.27 16.27 0 0 0-11.29 3.22 20.51 20.51 0 0 0-7.19 9.43 8.131 8.131 0 0 0-.51 2.85 2.425 2.425 0 0 0 1.1 2.2c.385.202.815.302 1.25.29a1.491 1.491 0 0 0 1.06-.47 4.363 4.363 0 0 0 .92-2.56 13.715 13.715 0 0 0-1-5.84 15.566 15.566 0 0 0-3.12-5.08 11.803 11.803 0 0 0-5-3.22 11.428 11.428 0 0 0-5.92-.26 15.39 15.39 0 0 0-9.59 6.79ZM133.001 140.21a26.83 26.83 0 0 0-2.9-11.87 12.388 12.388 0 0 0-3.9-4.55 8.21 8.21 0 0 0-5.68-1.21 7.772 7.772 0 0 0-4.87 3 9.004 9.004 0 0 0-1.41 2.58 6.002 6.002 0 0 0-.36 2.83c.047.422.222.82.5 1.14.129.142.29.252.47.32.094.036.191.063.29.08.08.005.16.005.24 0 .68-.13 1.35-1 1.8-1.86a19.642 19.642 0 0 0 1.82-5.67 25.06 25.06 0 0 0-.57-12 14.77 14.77 0 0 0-2.9-5.23 12.95 12.95 0 0 0-4.84-3.48 15.881 15.881 0 0 0-2.84-1 19.149 19.149 0 0 0-3-.5 18.395 18.395 0 0 0-6 .6 26.78 26.78 0 0 0-10.72 5.88 25.885 25.885 0 0 1 4.91-3.8 24.79 24.79 0 0 1 5.67-2.56 19.173 19.173 0 0 1 6.22-.75c1.049.078 2.091.229 3.12.45a17.12 17.12 0 0 1 3 1 13.21 13.21 0 0 1 5.18 3.62 15.54 15.54 0 0 1 3.11 5.51 25.925 25.925 0 0 1 .69 12.49 20.327 20.327 0 0 1-2 6 7.6 7.6 0 0 1-.94 1.35 2.81 2.81 0 0 1-1.57 1 2.098 2.098 0 0 1-1-.15 2.127 2.127 0 0 1-.79-.54 3.048 3.048 0 0 1-.74-1.64 6.995 6.995 0 0 1 .42-3.26 9.985 9.985 0 0 1 1.57-2.82 8.381 8.381 0 0 1 5.44-3.27 8.886 8.886 0 0 1 6.14 1.45 12.782 12.782 0 0 1 4 4.84 23.636 23.636 0 0 1 2 5.92c.384 2.009.532 4.057.44 6.1ZM353.769 192.37a26.997 26.997 0 0 0-12.22 0 12.407 12.407 0 0 0-5.33 2.74 8.096 8.096 0 0 0-2.5 5.23 7.805 7.805 0 0 0 1.81 5.45 9.183 9.183 0 0 0 2.19 2c.796.538 1.708.88 2.66 1 .424.047.852-.033 1.23-.23a1.18 1.18 0 0 0 .42-.38c.06-.07.09-.18.15-.26.06-.08 0-.16.05-.23 0-.69-.68-1.55-1.39-2.19a19.781 19.781 0 0 0-5.12-3.14 25.005 25.005 0 0 0-11.82-2.25c-2.009.135-3.969.68-5.76 1.6a12.894 12.894 0 0 0-4.51 3.89 16.343 16.343 0 0 0-1.68 2.52 9.754 9.754 0 0 0-.64 1.38 9.357 9.357 0 0 0-.54 1.41 18.535 18.535 0 0 0-.83 6 26.829 26.829 0 0 0 3.22 11.79 25.9 25.9 0 0 1-2.55-5.65 24.908 24.908 0 0 1-1.16-6.12 19.274 19.274 0 0 1 .71-6.22c.143-.508.32-1.006.53-1.49.179-.495.393-.976.64-1.44a16.439 16.439 0 0 1 1.68-2.67 13.266 13.266 0 0 1 4.73-4.19 15.828 15.828 0 0 1 6.08-1.74 25.862 25.862 0 0 1 12.3 2.25 20.318 20.318 0 0 1 5.37 3.35c.408.372.776.784 1.1 1.23.379.504.58 1.12.57 1.75a1.98 1.98 0 0 1-.37.93 2.127 2.127 0 0 1-.72.65 2.994 2.994 0 0 1-1.76.33 6.91 6.91 0 0 1-3.07-1.17 10.096 10.096 0 0 1-2.38-2.18 8.414 8.414 0 0 1-1.91-6 8.887 8.887 0 0 1 2.84-5.64 13.01 13.01 0 0 1 5.64-2.74 23.643 23.643 0 0 1 6.21-.51c2.073.077 4.13.392 6.13.94ZM291.86 127.671a16.992 16.992 0 0 1-.39-7.35 17.88 17.88 0 0 1 2.57-7 14.25 14.25 0 0 1 5.44-5.1 14.864 14.864 0 0 1 7.32-1.6c2.523.094 5.002.692 7.29 1.76a17.396 17.396 0 0 1 6.07 4.45 6.122 6.122 0 0 1 1.6 3.59 2.837 2.837 0 0 1-.78 2 4.299 4.299 0 0 1-1.77 1.08 3.285 3.285 0 0 1-2.1-.09 5.221 5.221 0 0 1-1.7-1.11 10.922 10.922 0 0 1-2.2-3.15 22.227 22.227 0 0 1-2-7.25 26.483 26.483 0 0 1 .23-7.49 20.22 20.22 0 0 1 7.42-12.74 19.203 19.203 0 0 1 6.7-3.32 19.42 19.42 0 0 1 7.43-.48c2.463.324 4.867.997 7.14 2a29.911 29.911 0 0 1 6.39 3.7A29.776 29.776 0 0 0 333 84.42a18.831 18.831 0 0 0-7.21.6 18.807 18.807 0 0 0-11 8.79 21.443 21.443 0 0 0-2.35 6.8 24.576 24.576 0 0 0 1.73 14.15 10.073 10.073 0 0 0 2 2.89 3.002 3.002 0 0 0 2.88 1c.514-.162.98-.447 1.36-.83a1.87 1.87 0 0 0 .53-1.35 5.255 5.255 0 0 0-1.38-3 16.512 16.512 0 0 0-5.73-4.23 18.695 18.695 0 0 0-7-1.74 14.333 14.333 0 0 0-7 1.41 13.688 13.688 0 0 0-5.31 4.77 18.381 18.381 0 0 0-2.66 13.99Z" fill="#263238"/>
  <path d="M175.87 381.921a4.254 4.254 0 0 0-4.529 1.326 4.252 4.252 0 0 0 1.212 6.455 4.25 4.25 0 0 0 6.097-2.441 4.259 4.259 0 0 0-2.78-5.34Zm2.29 5.18a3.735 3.735 0 0 1-3.231 2.594 3.73 3.73 0 1 1 .791-7.274 3.739 3.739 0 0 1 2.44 4.68Zm-2.29-5.18a4.254 4.254 0 0 0-4.529 1.326 4.252 4.252 0 0 0 1.212 6.455 4.25 4.25 0 0 0 6.097-2.441 4.259 4.259 0 0 0-2.78-5.34Zm2.29 5.18a3.735 3.735 0 0 1-3.231 2.594 3.73 3.73 0 1 1 .791-7.274 3.739 3.739 0 0 1 2.44 4.68Zm-2.29-5.18a4.254 4.254 0 0 0-4.529 1.326 4.252 4.252 0 0 0 1.212 6.455 4.25 4.25 0 0 0 6.097-2.441 4.259 4.259 0 0 0-2.78-5.34Zm2.29 5.18a3.735 3.735 0 0 1-3.231 2.594 3.73 3.73 0 1 1 .791-7.274 3.739 3.739 0 0 1 2.44 4.68Zm-.87-9.67a9.001 9.001 0 0 0-7.066 16.466 9.005 9.005 0 0 0 9.977-.894 9.005 9.005 0 0 0 2.327-11.156 8.998 8.998 0 0 0-5.238-4.416Zm2 10a4.906 4.906 0 0 1-4.254 3.415 4.905 4.905 0 0 1-4.783-2.622 4.91 4.91 0 1 1 9.027-.773l.01-.02Zm-.63-.19a4.252 4.252 0 0 0-3.585-5.508 4.25 4.25 0 0 0-4.192 2.178 4.252 4.252 0 0 0 2.447 6.1 4.26 4.26 0 0 0 5.32-2.75l.01-.02Zm-.49-.16a3.735 3.735 0 0 1-3.231 2.594 3.73 3.73 0 1 1 .791-7.274 3.734 3.734 0 0 1 2.593 3.249c.042.49-.014.983-.163 1.451l.01-.02Zm-2.29-5.18a4.245 4.245 0 0 0-4.529 1.326 4.244 4.244 0 0 0-.512 4.692 4.25 4.25 0 0 0 7.821-.678 4.26 4.26 0 0 0-2.79-5.32l.01-.02Zm2.29 5.18a3.735 3.735 0 0 1-3.231 2.594 3.73 3.73 0 1 1 .791-7.274 3.734 3.734 0 0 1 2.593 3.249c.042.49-.014.983-.163 1.451l.01-.02Zm-2.29-5.18a4.245 4.245 0 0 0-4.529 1.326 4.244 4.244 0 0 0-.512 4.692 4.25 4.25 0 0 0 7.821-.678 4.26 4.26 0 0 0-2.79-5.32l.01-.02Zm2.29 5.18a3.735 3.735 0 0 1-3.231 2.594 3.73 3.73 0 1 1 .791-7.274 3.734 3.734 0 0 1 2.593 3.249c.042.49-.014.983-.163 1.451l.01-.02Z" fill="#455A64"/>
  <path d="m173.66 394.69-3.29-1.04-.55 2.39 2.92.92.92-2.27ZM167.75 391.611l-1.59-3.06-2.08 1.3 1.42 2.72 2.25-.96ZM165.75 385.26l1.04-3.29-2.39-.55-.92 2.92 2.27.92ZM168.831 379.351l3.05-1.59-1.29-2.08-2.72 1.42.96 2.25ZM175.18 377.35l3.29 1.03.55-2.38-2.92-.92-.92 2.27ZM181.09 380.431l1.59 3.05 2.08-1.29-1.42-2.72-2.25.96ZM183.091 386.78l-1.04 3.29 2.39.55.92-2.92-2.27-.92ZM180.011 392.69l-3.06 1.59 1.3 2.08 2.72-1.42-.96-2.25Z" fill="#455A64"/>
  <path d="M341.67 353.351a13.702 13.702 0 0 0-20.201-18.317 13.705 13.705 0 0 0-3.699 14.768 13.702 13.702 0 0 0 14.908 8.935 13.702 13.702 0 0 0 8.992-5.386Zm-5.86-4.35a6.407 6.407 0 0 1-6.698 2.393 6.406 6.406 0 0 1-4.773-5.274 6.395 6.395 0 0 1 3.047-6.427 6.403 6.403 0 0 1 8.78 2.208 6.396 6.396 0 0 1-.356 7.1Z" fill="#263238"/>
  <path d="m324.96 357.3-4.23-3.14-1.98 3.17 3.76 2.79 2.45-2.82ZM317.971 349.9l-.77-5.21-3.65.83.69 4.64 3.73-.26ZM318.259 339.72l3.14-4.23-3.17-1.99-2.79 3.76 2.82 2.46ZM325.66 332.731l5.21-.77-.83-3.65-4.64.69.26 3.73ZM335.84 333.01l4.23 3.14 1.98-3.16-3.76-2.8-2.45 2.82ZM342.83 340.42l.77 5.21 3.65-.84-.69-4.63-3.73.26ZM342.54 350.59l-3.14 4.23 3.17 1.99 2.79-3.76-2.82-2.46ZM335.14 357.59l-5.21.77.83 3.64 4.64-.68-.26-3.73ZM325.77 345.841l2.91 3.67 4.63-.69 1.72-4.35-2.91-3.67-4.63.69-1.72 4.35Zm5.51-1.87a1.487 1.487 0 0 1 .553 1.552 1.492 1.492 0 0 1-.678.911 1.472 1.472 0 0 1-1.123.165 1.487 1.487 0 0 1-.522-.248 1.491 1.491 0 0 1-.3-2.08 1.474 1.474 0 0 1 2.07-.27v-.03ZM351.94 86.6a3.72 3.72 0 1 0 2.43 4.67 3.701 3.701 0 0 0-.243-2.84 3.704 3.704 0 0 0-2.187-1.83Zm2 4.53a3.27 3.27 0 1 1-6.238-1.966 3.27 3.27 0 0 1 6.238 1.966Zm-2-4.53a3.72 3.72 0 1 0 2.43 4.67 3.701 3.701 0 0 0-.243-2.84 3.704 3.704 0 0 0-2.187-1.83Zm2 4.53a3.27 3.27 0 1 1-6.238-1.966 3.27 3.27 0 0 1 6.238 1.966Zm-2-4.53a3.72 3.72 0 1 0 2.43 4.67 3.701 3.701 0 0 0-.243-2.84 3.704 3.704 0 0 0-2.187-1.83Zm2 4.53a3.27 3.27 0 1 1-6.238-1.966 3.27 3.27 0 0 1 6.238 1.966Zm-.76-8.46a7.842 7.842 0 0 0-10.149 6.623 7.836 7.836 0 0 0 4.02 7.727 7.841 7.841 0 0 0 11.249-4.51 7.85 7.85 0 0 0-5.12-9.84Zm1.74 8.77a4.3 4.3 0 1 1-8.203-2.584 4.3 4.3 0 0 1 8.203 2.584Zm-.55-.17a3.716 3.716 0 0 0-1.157-3.97 3.719 3.719 0 0 0-6.096 3.179 3.717 3.717 0 0 0 2.593 3.22 3.722 3.722 0 0 0 4.66-2.43Zm-.43-.14a3.27 3.27 0 1 1-6.238-1.966 3.27 3.27 0 0 1 6.238 1.966Zm-2-4.53a3.72 3.72 0 1 0 2.43 4.67 3.701 3.701 0 0 0-.243-2.84 3.704 3.704 0 0 0-2.187-1.83Zm2 4.53a3.27 3.27 0 1 1-6.238-1.966 3.27 3.27 0 0 1 6.238 1.966Zm-2-4.53a3.72 3.72 0 1 0 2.43 4.67 3.701 3.701 0 0 0-.243-2.84 3.704 3.704 0 0 0-2.187-1.83Zm2 4.53a3.27 3.27 0 1 1-6.238-1.966 3.27 3.27 0 0 1 6.238 1.966Z" fill="#263238"/>
  <path d="m350.001 97.77-2.87-.9-.49 2.08 2.56.81.8-1.99ZM344.831 95.08l-1.39-2.68-1.81 1.14 1.23 2.38 1.97-.84ZM343.08 89.52l.91-2.88-2.09-.48-.8 2.56 1.98.8ZM345.779 84.35l2.67-1.39-1.13-1.82-2.38 1.24.84 1.97ZM351.34 82.6l2.87.9.49-2.08-2.56-.81-.8 1.99ZM356.51 85.29l1.39 2.68 1.82-1.14-1.24-2.38-1.97.84ZM358.26 90.85l-.91 2.88 2.09.48.8-2.56-1.98-.8ZM355.561 96.02l-2.67 1.4 1.13 1.81 2.38-1.24-.84-1.97ZM313.731 229.47a3.726 3.726 0 0 0-3.97 1.157 3.723 3.723 0 0 0-.448 4.111 3.722 3.722 0 0 0 3.627 1.985 3.72 3.72 0 0 0 .791-7.253Zm2 4.53a3.274 3.274 0 0 1-2.835 2.275 3.267 3.267 0 0 1-2.786-5.363 3.273 3.273 0 0 1 3.491-1.012 3.26 3.26 0 0 1 2.12 4.1h.01Zm-2-4.53a3.726 3.726 0 0 0-3.97 1.157 3.723 3.723 0 0 0-.448 4.111 3.722 3.722 0 0 0 3.627 1.985 3.72 3.72 0 0 0 .791-7.253Zm2 4.53a3.274 3.274 0 0 1-2.835 2.275 3.267 3.267 0 0 1-2.786-5.363 3.273 3.273 0 0 1 3.491-1.012 3.26 3.26 0 0 1 2.12 4.1h.01Zm-2-4.53a3.726 3.726 0 0 0-3.97 1.157 3.723 3.723 0 0 0-.448 4.111 3.722 3.722 0 0 0 3.627 1.985 3.72 3.72 0 0 0 .791-7.253Zm2 4.53a3.274 3.274 0 0 1-2.835 2.275 3.267 3.267 0 0 1-2.786-5.363 3.273 3.273 0 0 1 3.491-1.012 3.26 3.26 0 0 1 2.12 4.1h.01Zm-.75-8.47a7.84 7.84 0 1 0 4.603 3.866 7.853 7.853 0 0 0-4.583-3.866h-.02Zm1.74 8.78a4.297 4.297 0 0 1-3.724 2.995 4.303 4.303 0 0 1-4.653-4.75 4.302 4.302 0 0 1 5.567-3.635 4.303 4.303 0 0 1 2.8 5.39h.01Zm-.55-.18a3.718 3.718 0 0 0-6.809-2.907 3.728 3.728 0 0 0-.446 2.113 3.725 3.725 0 0 0 2.585 3.224 3.722 3.722 0 0 0 4.66-2.43h.01Zm-.44-.13a3.274 3.274 0 0 1-2.835 2.275 3.267 3.267 0 0 1-2.786-5.363 3.273 3.273 0 0 1 3.491-1.012 3.26 3.26 0 0 1 2.12 4.1h.01Zm-2-4.53a3.726 3.726 0 0 0-3.97 1.157 3.723 3.723 0 0 0-.448 4.111 3.722 3.722 0 0 0 3.627 1.985 3.72 3.72 0 0 0 .791-7.253Zm2 4.53a3.274 3.274 0 0 1-2.835 2.275 3.267 3.267 0 0 1-2.786-5.363 3.273 3.273 0 0 1 3.491-1.012 3.26 3.26 0 0 1 2.12 4.1h.01Zm-2-4.53a3.726 3.726 0 0 0-3.97 1.157 3.723 3.723 0 0 0-.448 4.111 3.722 3.722 0 0 0 3.627 1.985 3.72 3.72 0 0 0 .791-7.253Zm2 4.53a3.274 3.274 0 0 1-2.835 2.275 3.267 3.267 0 0 1-2.786-5.363 3.273 3.273 0 0 1 3.491-1.012 3.26 3.26 0 0 1 2.12 4.1h.01Z" fill="#263238"/>
  <path d="m311.79 240.64-2.88-.91-.48 2.09 2.56.8.8-1.98ZM306.62 237.941l-1.39-2.67-1.82 1.129 1.24 2.381 1.97-.84ZM304.871 232.38l.9-2.87-2.08-.48-.81 2.55 1.99.8ZM307.561 227.21l2.68-1.39-1.14-1.82-2.38 1.24.84 1.97ZM313.121 225.46l2.88.91.48-2.09-2.56-.8-.8 1.98ZM318.291 228.16l1.39 2.67 1.82-1.13-1.24-2.38-1.97.84ZM320.041 233.721l-.91 2.87 2.09.49.81-2.56-1.99-.8ZM317.35 238.891l-2.68 1.39 1.14 1.82 2.38-1.24-.84-1.97ZM95 117a11.79 11.79 0 1 0-14.25 8.67A11.797 11.797 0 0 0 95 117Zm-6.11-1.49a5.508 5.508 0 0 1-7.695 3.679 5.511 5.511 0 0 1 3.695-10.329 5.498 5.498 0 0 1 4.02 6.64l-.02.01Z" fill="#263238"/>
  <path d="m83.09 125.72-4.41-1.07-.51 3.18 3.91.95 1.01-3.06ZM75.06 122.19l-2.36-3.87-2.61 1.88 2.1 3.45 2.87-1.46ZM71.88 114.021l1.07-4.4-3.17-.52-.96 3.92 3.06 1ZM75.41 106l3.87-2.36-1.88-2.61-3.44 2.1 1.45 2.87ZM83.58 102.821l4.41 1.07.51-3.18-3.92-.95-1 3.06ZM91.61 106.351l2.35 3.87 2.62-1.88-2.1-3.45-2.87 1.46ZM94.79 114.521l-1.08 4.4 3.18.52.96-3.92-3.06-1ZM91.26 122.54l-3.88 2.36 1.89 2.61 3.44-2.09-1.45-2.88ZM79.89 116.371l3.54 1.93 3.44-2.1-.09-4-3.54-1.94-3.44 2.09.09 4.02Zm3.75-3.37a1.274 1.274 0 0 1 .96 1.049 1.279 1.279 0 0 1-2.022 1.226 1.276 1.276 0 0 1 .095-2.123c.29-.176.638-.231.968-.152Z" fill="#263238"/>
  <path d="M361.59 238.939a24.578 24.578 0 0 1-4.2-13.58c0-17.19 18.88-31.13 42.16-31.13 23.28 0 42.14 13.94 42.14 31.13 0 17.19-18.86 31.14-42.14 31.14-11.29 0-21.52-3.27-29.08-8.61l-14.47 3.69 5.59-12.64Z" fill="#fff"/>
  <path d="M361.589 238.94a23.997 23.997 0 0 1-.94-26 33.017 33.017 0 0 1 9.27-10.06 43.863 43.863 0 0 1 12.23-6.23 57.184 57.184 0 0 1 13.47-2.65 58.377 58.377 0 0 1 13.72.7c1.13.23 2.27.38 3.38.68l3.33.9 3.25 1.14c1.08.39 2.11.92 3.17 1.37a40.988 40.988 0 0 1 11.32 7.83 28.914 28.914 0 0 1 7.29 11.68 23.706 23.706 0 0 1 .14 13.76 28.725 28.725 0 0 1-7.11 11.79 40.412 40.412 0 0 1-11.22 8 49.48 49.48 0 0 1-13.1 4.2 57.776 57.776 0 0 1-13.71.78 53.834 53.834 0 0 1-13.48-2.56 45.29 45.29 0 0 1-12.26-6.12h.18l-14.52 3.54-.22.05.1-.2 5.71-12.6Zm0 0-5.54 12.68-.13-.15 14.49-3.8h.1l.09.06a49.677 49.677 0 0 0 25.52 8.27 56.69 56.69 0 0 0 13.52-.89 48.737 48.737 0 0 0 12.86-4.11 39.595 39.595 0 0 0 10.95-7.82 27.654 27.654 0 0 0 6.84-11.41 22.71 22.71 0 0 0-.16-13.19 27.858 27.858 0 0 0-7-11.3 39.727 39.727 0 0 0-11-7.68c-1-.44-2-1-3.11-1.35l-3.19-1.14-3.27-.89c-1.09-.29-2.21-.45-3.32-.68-4.463-.766-9-1.015-13.52-.74a55.84 55.84 0 0 0-13.3 2.54 43.429 43.429 0 0 0-12.11 6 33.362 33.362 0 0 0-9.24 9.8 24.285 24.285 0 0 0-3.51 12.95 24.685 24.685 0 0 0 4.03 12.85Z" fill="#263238"/>
  <path d="M377.86 230.459v2.32h-9.43v-13.59h9.26v2.32h-6.62v3.27h5.72v2.14h-5.72v3.54h6.79ZM379.93 232.78v-13.59h6a3.869 3.869 0 0 1 1.73.39c.515.244.98.584 1.37 1 .382.427.687.917.9 1.45a4.567 4.567 0 0 1-.34 4 3.773 3.773 0 0 1-1.79 1.56l3.1 5.11h-3l-2.78-4.56h-2.6v4.56l-2.59.08Zm2.64-6.87h3.31c.237-.001.47-.059.68-.17.212-.12.398-.28.55-.47.157-.213.279-.449.36-.7.089-.278.133-.569.13-.86.003-.3-.048-.598-.15-.88a2.314 2.314 0 0 0-.41-.7 1.848 1.848 0 0 0-.59-.46 1.53 1.53 0 0 0-.68-.16h-3.2v4.4ZM392.648 232.78v-13.59h6a3.894 3.894 0 0 1 1.74.39c.511.247.972.586 1.36 1 .39.422.695.914.9 1.45.216.52.328 1.077.33 1.64a4.505 4.505 0 0 1-.66 2.4 3.809 3.809 0 0 1-1.79 1.56l3.1 5.11h-3l-2.77-4.56h-2.6v4.56l-2.61.04Zm2.65-6.87h3.31c.238-.001.471-.059.68-.17.211-.118.395-.278.54-.47.161-.21.283-.447.36-.7.093-.278.14-.568.14-.86.004-.3-.047-.598-.15-.88a2.279 2.279 0 0 0-.42-.7 1.837 1.837 0 0 0-.59-.46 1.501 1.501 0 0 0-.68-.16h-3.19v4.4ZM411.179 232.87a6.14 6.14 0 0 1-2.71-.58 6.551 6.551 0 0 1-2.08-1.55 6.83 6.83 0 0 1-1.35-2.21 6.971 6.971 0 0 1-.48-2.55 6.799 6.799 0 0 1 .51-2.6 7.075 7.075 0 0 1 1.39-2.2 6.741 6.741 0 0 1 2.12-1.52 6.19 6.19 0 0 1 2.66-.56 6.007 6.007 0 0 1 2.69.6 6.65 6.65 0 0 1 2.07 1.58 7.166 7.166 0 0 1 1.34 2.22 6.936 6.936 0 0 1 0 5.12 7.143 7.143 0 0 1-1.34 2.18 6.72 6.72 0 0 1-2.11 1.51 6.22 6.22 0 0 1-2.71.56Zm-3.94-6.87c0 .58.087 1.157.26 1.71.168.527.433 1.019.78 1.45.342.413.763.753 1.24 1a3.675 3.675 0 0 0 1.68.38 3.545 3.545 0 0 0 1.69-.39 3.835 3.835 0 0 0 1.25-1.05 4.71 4.71 0 0 0 .76-1.46 5.495 5.495 0 0 0 .26-1.66 5.202 5.202 0 0 0-.28-1.7 4.506 4.506 0 0 0-.78-1.45 3.749 3.749 0 0 0-1.25-1 3.886 3.886 0 0 0-3.35 0c-.485.239-.911.58-1.25 1-.336.434-.59.926-.75 1.45a5.128 5.128 0 0 0-.26 1.72ZM419.85 232.78v-13.59h6a3.869 3.869 0 0 1 1.73.39c.515.244.98.584 1.37 1 .382.427.687.917.9 1.45a4.56 4.56 0 0 1-.34 4 3.773 3.773 0 0 1-1.79 1.56l3.1 5.11h-3l-2.78-4.56h-2.6v4.56l-2.59.08Zm2.64-6.87h3.31c.237-.001.47-.059.68-.17.212-.12.398-.28.55-.47.157-.213.278-.449.36-.7.089-.278.133-.569.13-.86.003-.3-.048-.598-.15-.88a2.335 2.335 0 0 0-.41-.7 1.848 1.848 0 0 0-.59-.46 1.53 1.53 0 0 0-.68-.16h-3.2v4.4Z" fill="#263238"/>
</svg>
