<?xml version="1.0" encoding="utf-8"?>
<!-- Generator: Adobe Illustrator 27.5.0, SVG Export Plug-In . SVG Version: 6.00 Build 0)  -->
<svg version="1.1" xmlns="http://www.w3.org/2000/svg" xmlns:xlink="http://www.w3.org/1999/xlink" x="0px" y="0px"
	 viewBox="0 0 750 500" style="enable-background:new 0 0 750 500;" xml:space="preserve">
<g id="BACKGROUND">
	<rect style="fill:#F3E1E6;" width="750" height="500"/>
	<g>
		<path style="opacity:0.36;fill:#E4A4A7;" d="M376.253,39.554c-15.637-0.122-30.75,2.038-45.03,6.162
			c-8.076,2.332-10.912,12.307-5.192,18.466l62.38,67.166c5.034,5.42,4.94,13.886-0.209,18.972
			c-4.953,4.892-12.852,4.924-18.041,0.072l-9.492-8.876c-2.617-2.447-6.648-2.247-8.917,0.444
			c-2.077,2.464-1.951,6.178,0.291,8.581l37.159,39.813c5.09,5.453,4.646,14.09-0.963,18.741
			c-5.004,4.149-12.362,3.614-16.923-1.231l-40.742-43.279c-2.936-3.118-7.725-3.304-10.761-0.417
			c-3.142,2.988-3.186,8.096-0.098,11.274l19.024,19.576c3.84,3.876,3.706,10.208-0.291,13.743
			c-3.681,3.256-9.28,2.904-12.684-0.798l-35.71-37.133c-3.096-3.219-8.124-3.252-11.13-0.073c-2.931,3.1-2.827,8.089,0.234,11.186
			l46.362,46.911c4.713,4.883,4.807,12.648,0.211,17.45l0,0c-4.878,5.097-13.042,4.812-17.783-0.62l-69.014-79.077
			c-6.294-7.211-18.081-3.743-19.577,5.711c-1.322,8.349-1.987,16.917-1.942,25.648c0.444,86.514,73.229,157.905,159.737,156.748
			c85.251-1.14,154.161-69.974,155.421-155.197C533.849,113.198,462.577,40.226,376.253,39.554z"/>
		
			<ellipse transform="matrix(0.229 -0.9734 0.9734 0.229 48.3411 383.4409)" style="opacity:0.36;fill:#E4A4A7;" cx="266.237" cy="161.203" rx="7.285" ry="7.285"/>
		<circle style="opacity:0.36;fill:#E4A4A7;" cx="343.629" cy="134.676" r="7.285"/>
		<circle style="opacity:0.36;fill:#E4A4A7;" cx="308.407" cy="37.052" r="7.285"/>
	</g>
	<line style="fill:none;stroke:#99C0CE;stroke-width:2;stroke-miterlimit:10;" x1="0" y1="383.725" x2="750" y2="383.725"/>
	<g>
		<path style="fill:#FFFFFF;" d="M694.524,157.311c0-29.372-23.811-53.183-53.182-53.183s-53.182,23.811-53.182,53.183
			c0,19.258,10.237,36.125,25.565,45.457l-0.411,42.54c-0.031,3.163,2.525,5.743,5.688,5.743c3.141,0,5.688-2.546,5.688-5.688
			v-28.201c0-2.971,2.408-5.379,5.379-5.379c2.971,0,5.379,2.408,5.379,5.379v41.016c0,3.416,2.77,6.186,6.186,6.186
			c3.417,0,6.186-2.77,6.186-6.186v-32.342c0-2.414,1.957-4.371,4.371-4.371c2.414,0,4.371,1.957,4.371,4.371v6.199
			c0,3.446,2.794,6.24,6.24,6.24c3.446,0,6.24-2.794,6.24-6.24v-29.32C684.323,193.373,694.524,176.535,694.524,157.311z"/>
		
			<ellipse transform="matrix(0.8641 -0.5033 0.5033 0.8641 50.4959 359.1165)" style="fill:#FFFFFF;" cx="690.288" cy="86.046" rx="17.329" ry="17.329"/>
		<circle style="fill:#FFFFFF;" cx="635.582" cy="54.673" r="6.139"/>
		<circle style="fill:#FFFFFF;" cx="701.107" cy="293.178" r="6.139"/>
		<circle style="fill:#FFFFFF;" cx="563.678" cy="271.712" r="6.139"/>
		<path style="fill:#FFFFFF;" d="M647.101,277.878c0,3.181-2.579,5.76-5.76,5.76c-3.181,0-5.76-2.579-5.76-5.76
			c0-3.181,2.579-5.76,5.76-5.76C644.522,272.119,647.101,274.697,647.101,277.878z"/>
	</g>
	<g>
		<g>
			<path style="fill:#FFFFFF;" d="M150.471,156.205c0-30.069-24.954-54.309-55.282-53.142
				c-27.602,1.062-50.052,23.573-51.048,51.177c-0.362,10.051,2.069,19.504,6.575,27.65c1.259,2.276,4.727,1.383,4.727-1.218l0,0
				c0-3.906,3.167-7.073,7.073-7.073h0c3.907,0,7.073,3.167,7.073,7.073v20.938v1.68v27.378c0,3.417,2.633,6.396,6.048,6.499
				c3.534,0.106,6.432-2.727,6.432-6.237v-6.011c0-2.283,1.669-4.321,3.941-4.538c2.607-0.249,4.8,1.795,4.8,4.35v32.083
				c0,3.387,2.61,6.341,5.996,6.443c3.503,0.105,6.376-2.704,6.376-6.183v-40.785c0-2.81,2.054-5.318,4.851-5.585
				c3.208-0.306,5.908,2.209,5.908,5.354v28.01c0,2.903,2.094,5.486,4.976,5.835c3.482,0.422,6.432-2.303,6.4-5.699l-0.411-42.54
				C140.234,192.33,150.471,175.463,150.471,156.205z"/>
		</g>
		<circle style="fill:#FFFFFF;" cx="198.606" cy="62.588" r="6.139"/>
		<circle style="fill:#FFFFFF;" cx="50.264" cy="325.746" r="6.139"/>
		
			<ellipse transform="matrix(0.5257 -0.8507 0.8507 0.5257 -9.4368 155.1661)" style="fill:#FFFFFF;" cx="134.435" cy="86.046" rx="11.519" ry="11.519"/>
		<circle style="fill:#FFFFFF;" cx="87.726" cy="62.588" r="21.968"/>
	</g>
</g>
<g id="OBJECTS">
	<g>
		<path style="fill:#C5BAC6;" d="M628.188,429.67c0,3.694-63.256,25.177-95.599,29.595c-25.562,3.492-62.338-4.707-62.338-8.401
			s20.915-6.689,46.714-6.689C542.764,444.175,628.188,425.975,628.188,429.67z"/>
		<ellipse style="fill:#C5BAC6;" cx="659.303" cy="443.237" rx="41.805" ry="4.556"/>
		<path style="fill:#C5BAC6;" d="M584.548,423.762c0,2.517-18.716,4.556-41.805,4.556c-23.088,0-41.805-2.04-41.805-4.556
			c0-2.516,18.717-4.556,41.805-4.556C565.831,419.206,584.548,421.246,584.548,423.762z"/>
		<path style="fill:#C5BAC6;" d="M681.074,423.762c0,2.517-18.717,4.556-41.805,4.556c-23.088,0-41.805-2.04-41.805-4.556
			c0-2.516,18.717-4.556,41.805-4.556C662.357,419.206,681.074,421.246,681.074,423.762z"/>
		<path style="fill:#C5BAC6;" d="M273.303,439.225c0,3.015-57.01,5.46-127.335,5.46c-70.325,0-127.335-2.444-127.335-5.46
			c0-3.015,57.01-5.46,127.335-5.46C216.293,433.765,273.303,436.21,273.303,439.225z"/>
		<ellipse style="fill:#C5BAC6;" cx="273.303" cy="446.32" rx="55.901" ry="7.782"/>
		<ellipse style="fill:#C5BAC6;" cx="404.083" cy="442.953" rx="96.264" ry="7.911"/>
	</g>
	<g>
		<path style="fill:#6C74C3;" d="M185.149,315.889c8.713,44.575,17.376,89.053,24.042,123.336h12.312
			c-6.365-32.738-17.922-92.113-29.366-150.581L185.149,315.889z"/>
		<path style="fill:#6C74C3;" d="M286.086,439.225h12.312c-14.23-73.203-60.389-310.317-62.974-319.279l-0.013,0.004l-6.774,26.41
			C240.281,204.106,269.766,355.279,286.086,439.225z"/>
		<path style="fill:#6C74C3;" d="M186.735,261.066c-11.271-57.467-21.587-109.658-25.645-129.033h-6.689l-3.331,11.179
			c5.442,26.722,16.72,83.986,28.681,145.08L186.735,261.066z"/>
		<path style="fill:#5862AF;" d="M109.693,271.712c0.814-0.192,83.89,5.044,83.89,5.044l65.622-19.431v-4.072l-149.047,13.729
			L109.693,271.712z"/>
		<polygon style="fill:#3C328C;" points="172.245,250 259.205,253.253 194.049,271.712 104.999,267.804 		"/>
		<path style="fill:#5862AF;" d="M83.263,364.017c1.039-0.192,85.342,8.092,85.342,8.092l103.96-20.841v-4.072L83.857,359.288
			L83.263,364.017z"/>
		<polygon style="fill:#3C328C;" points="190.469,343.122 272.566,347.196 169.2,367.065 77.277,360.109 		"/>
		<g>
			<g>
				<path style="fill:#956A69;" d="M177.087,315.141H139.57v37.789c3.825,5.464,31.142,5.646,37.516,0V315.141z"/>
				<path style="fill:#65343B;" d="M139.57,315.141c0,1.861,8.398,3.369,18.758,3.369c10.36,0,18.758-1.508,18.758-3.369
					c0-1.861-8.398-3.369-18.758-3.369C147.969,311.772,139.57,313.28,139.57,315.141z"/>
				<path style="fill:#0F041F;" d="M174.557,316.826c-3.245-1.006-9.289-1.685-16.228-1.685c-6.939,0-12.984,0.679-16.228,1.685
					c3.245,1.006,9.289,1.685,16.228,1.685C165.268,318.51,171.312,317.832,174.557,316.826z"/>
			</g>
			<g>
				<path style="fill:#65343B;" d="M182.611,342.123c7.233,8.185,14.394,13.674,15.995,12.259l-1.778,1.572
					c-1.601,1.415-8.762-4.074-15.995-12.259c-7.233-8.185-11.799-15.967-10.199-17.382l1.778-1.572
					C170.812,326.156,175.378,333.938,182.611,342.123z"/>
				<path style="fill:#AF8282;" d="M182.611,342.123c-7.233-8.185-11.799-15.967-10.199-17.382s8.762,4.074,15.995,12.259
					c7.233,8.185,11.799,15.967,10.199,17.381C197.005,355.797,189.844,350.308,182.611,342.123z"/>
			</g>
			<path style="fill:#291942;" d="M165.9,318.224v13.881c0,1.492-1.21,2.702-2.701,2.702c-1.492,0-2.702-1.21-2.702-2.702v-2.684
				c0-1.045-0.847-1.892-1.892-1.892c-1.045,0-1.892,0.847-1.892,1.892v14.002c0,1.479-1.199,2.678-2.678,2.678
				c-1.479,0-2.678-1.199-2.678-2.678v-17.757c0-1.286-1.043-2.329-2.329-2.329c-1.286,0-2.329,1.043-2.329,2.329v12.209
				c0,1.36-1.103,2.462-2.462,2.462c-1.369,0-2.476-1.117-2.462-2.486l0.203-21.059c3.216,1.026,9.332,1.719,16.352,1.719
				C161.023,318.51,163.583,318.407,165.9,318.224z"/>
			<circle style="fill:#291942;" cx="163.201" cy="339.735" r="2.268"/>
			<path style="fill:#291942;" d="M143.191,347.15c0,1.253,1.016,2.268,2.268,2.268s2.268-1.016,2.268-2.268
				c0-1.253-1.016-2.268-2.268-2.268S143.191,345.897,143.191,347.15z"/>
		</g>
		<polygon style="fill:#555FA3;" points="235.411,119.95 243.121,157.154 224.939,160.775 		"/>
		<polygon style="opacity:0.44;fill:#555FA3;" points="147.777,152.724 153.963,128.083 221.43,128.083 213.96,152.007 		"/>
		<g>
			<path style="fill:#0F041F;" d="M171.286,213.346c-9.06,0-16.404,1.319-16.404,2.946c0,1.627,7.344,2.946,16.404,2.946
				c9.06,0,16.404-1.319,16.404-2.946C187.69,214.665,180.346,213.346,171.286,213.346z"/>
			<g>
				<polygon style="fill:#C56F6C;" points="152.693,197.941 148.691,173.121 165.708,166.607 170.426,195.864 				"/>
				<polygon style="opacity:0.41;fill:#65343B;" points="166.237,189.822 162.681,167.766 161.634,168.167 165.153,189.997 				"/>
				
					<rect x="152.059" y="190.021" transform="matrix(0.9873 -0.1592 0.1592 0.9873 -28.7138 28.0868)" style="fill:#838BDD;" width="17.837" height="6.542"/>
				<g>
					<g>
						<path style="fill:#65343B;" d="M161.498,196.521l-8.805,1.42l0.123,0.762c0.145,0.901,0.712,1.679,1.522,2.1
							c4.715,2.447,5.566,6.787,5.566,6.787l5.486,34.024c0.141,0.876,0.625,1.66,1.344,2.179l0.524,0.379
							c1.202,0.868,2.88,0.598,3.749-0.604l0.379-0.524c0.52-0.719,0.732-1.615,0.591-2.491l-5.486-34.025
							c0,0-0.556-4.388,3.151-8.193c0.637-0.654,0.93-1.57,0.785-2.472l-0.123-0.762L161.498,196.521z M168.763,241.585
							c-0.67,0.108-1.301-0.347-1.409-1.018c-0.108-0.67,0.348-1.301,1.018-1.409c0.67-0.108,1.301,0.348,1.409,1.018
							C169.889,240.846,169.434,241.477,168.763,241.585z"/>
					</g>
					<polygon style="opacity:0.41;fill:#65343B;" points="155.977,191.477 152.766,171.561 151.719,171.962 154.894,191.651 					
						"/>
					<polygon style="opacity:0.41;fill:#65343B;" points="161.107,190.65 157.723,169.663 156.676,170.064 160.023,190.824 					"/>
					
						<rect x="151.699" y="190.049" transform="matrix(0.9873 -0.1592 0.1592 0.9873 -28.3631 28.0011)" style="fill:#6C74C3;" width="17.837" height="2.019"/>
					
						<rect x="152.3" y="194.282" transform="matrix(0.9873 -0.1592 0.1592 0.9873 -28.9487 28.1442)" style="fill:#6C74C3;" width="17.837" height="1.01"/>
				</g>
			</g>
			<g>
				<polygon style="fill:#F0AF46;" points="192.331,194.032 195.607,174.238 177.887,171.561 174.598,191.955 				"/>
				
					<rect x="175.128" y="186.112" transform="matrix(-0.9873 -0.1592 0.1592 -0.9873 335.6022 405.6469)" style="fill:#838BDD;" width="17.837" height="6.542"/>
				<g>
					<g>
						<path style="fill:#3C328C;" d="M174.721,191.193l-0.123,0.763c-0.145,0.901,0.148,1.818,0.785,2.472
							c3.707,3.805,3.151,8.192,3.151,8.192l-5.486,34.025c-0.141,0.876,0.071,1.772,0.591,2.491l0.379,0.524
							c0.868,1.202,2.546,1.473,3.748,0.604l0.524-0.379c0.719-0.52,1.203-1.304,1.344-2.18l5.486-34.024
							c0,0,0.851-4.34,5.566-6.787c0.81-0.421,1.377-1.199,1.522-2.1l0.123-0.762l-8.805-1.42L174.721,191.193z M175.243,236.267
							c0.108-0.67,0.739-1.126,1.409-1.018c0.67,0.108,1.126,0.739,1.018,1.409c-0.108,0.67-0.739,1.126-1.409,1.018
							C175.591,237.568,175.135,236.937,175.243,236.267z"/>
					</g>
					
						<rect x="175.488" y="186.141" transform="matrix(-0.9873 -0.1592 0.1592 -0.9873 336.6729 401.2677)" style="fill:#291942;" width="17.837" height="2.019"/>
					
						<rect x="174.887" y="190.373" transform="matrix(-0.9873 -0.1592 0.1592 -0.9873 334.8852 408.5799)" style="fill:#291942;" width="17.837" height="1.01"/>
				</g>
				<polygon style="opacity:0.41;fill:#65343B;" points="179.983,185.414 182.179,172.209 181.093,172.045 178.899,185.24 				"/>
				<polygon style="opacity:0.41;fill:#65343B;" points="190.243,187.069 192.465,173.764 191.379,173.599 189.159,186.894 				"/>
				<polygon style="opacity:0.41;fill:#65343B;" points="185.113,186.242 187.322,172.986 186.236,172.822 184.03,186.067 				"/>
			</g>
			<path style="fill:#E35756;" d="M187.69,216.292c0,1.627-7.344,2.946-16.404,2.946c-9.06,0-16.404-1.319-16.404-2.946v45.393
				c3.344,4.778,27.234,4.937,32.809,0L187.69,216.292z"/>
		</g>
		<polygon style="fill:#838BDD;" points="145.527,161.819 212.366,161.147 186.735,261.066 179.751,288.292 141.034,439.225 
			153.511,439.225 185.149,315.889 192.138,288.644 228.637,146.359 235.411,119.95 235.412,119.946 145.39,119.946 50.264,439.225 
			62.875,439.225 		"/>
		<g>
			<path style="fill:#F0AF46;" d="M221.504,235.086c-6.031,0-10.921-0.878-10.921-1.962v22.001c3.711,3.287,19.615,3.181,21.842,0
				v-22.001C232.425,234.208,227.535,235.086,221.504,235.086z"/>
			<ellipse style="fill:#3C328C;" cx="221.504" cy="233.125" rx="10.921" ry="1.962"/>
		</g>
		<g>
			<polygon style="fill:#291942;" points="148.27,315.179 155.458,296.448 138.637,290.264 131.317,309.581 			"/>
			
				<rect x="132.171" y="305.689" transform="matrix(-0.9351 -0.3543 0.3543 -0.9351 163.5469 647.8681)" style="fill:#65343B;" width="17.837" height="6.542"/>
			<g>
				<g>
					<path style="fill:#E35756;" d="M131.591,308.859l-0.274,0.722c-0.323,0.854-0.221,1.81,0.272,2.579
						c2.867,4.472,1.44,8.659,1.44,8.659l-12.212,32.228c-0.314,0.83-0.286,1.75,0.078,2.559l0.266,0.59
						c0.609,1.352,2.199,1.954,3.551,1.345l0.59-0.266c0.809-0.364,1.44-1.035,1.755-1.865l12.212-32.228
						c0,0,1.706-4.081,6.816-5.53c0.878-0.249,1.589-0.897,1.913-1.751l0.274-0.722l-8.34-3.16L131.591,308.859z M123.042,353.119
						c0.24-0.635,0.95-0.954,1.585-0.714c0.635,0.24,0.954,0.95,0.714,1.585c-0.241,0.635-0.95,0.954-1.585,0.714
						C123.122,354.463,122.802,353.753,123.042,353.119z"/>
				</g>
				
					<rect x="132.972" y="305.836" transform="matrix(-0.9351 -0.3543 0.3543 -0.9351 165.8466 644.0601)" style="fill:#291942;" width="17.837" height="2.019"/>
				
					<rect x="131.634" y="309.872" transform="matrix(-0.9351 -0.3543 0.3543 -0.9351 162.0068 650.4186)" style="fill:#291942;" width="17.837" height="1.01"/>
			</g>
			<polygon style="fill:#838BDD;" points="137.906,304.256 142.711,291.762 141.68,291.383 136.88,303.867 			"/>
			<polygon style="fill:#838BDD;" points="147.624,307.939 152.476,295.352 151.444,294.973 146.598,307.55 			"/>
			<polygon style="fill:#838BDD;" points="142.765,306.097 147.593,293.557 146.562,293.178 141.739,305.708 			"/>
		</g>
	</g>
	<g>
		<g>
			<path style="fill:#838BDD;" d="M231.958,328.946c2.045,0.063,45.602-7.502,86.108,0.415c0,0-37.194,13.761-37.843,13.761
				S231.958,328.946,231.958,328.946z"/>
			<path style="fill:#FFFFFF;" d="M308.444,445.458c-22.997,7.013-45.406,7.105-67.211,0.084c-3.747-1.207-6.245-4.756-6.245-8.693
				v-98.01h79.864v97.871C314.852,440.71,312.27,444.292,308.444,445.458z"/>
			<path style="fill:#FFFFFF;" d="M316.79,350.309c-27.557,3.778-55.686,3.619-84.324-0.043c-2.77-0.354-4.837-2.737-4.837-5.53
				v-10.224c0-3.396,3.016-6.011,6.374-5.504c27.165,4.106,54.224,4.145,81.174,0.018c3.361-0.515,6.384,2.101,6.384,5.501v10.265
				C321.561,347.561,319.533,349.933,316.79,350.309z"/>
			<path style="fill:#E35756;" d="M260.704,331.731v21.815c0,0,5.295,0.35,9.358,0.43v21.521c0,2.253,1.826,4.079,4.079,4.079l0,0
				c2.253,0,4.079-1.826,4.079-4.079v-4.052c0-1.578,1.279-2.857,2.857-2.857l0,0c1.578,0,2.857,1.279,2.857,2.857v21.14
				c0,2.233,1.81,4.043,4.043,4.043l0,0c2.233,0,4.043-1.81,4.043-4.043v-26.809c0-1.942,1.574-3.516,3.516-3.516l0,0
				c1.942,0,3.516,1.574,3.516,3.516v18.433c0,2.053,1.664,3.718,3.718,3.718l0,0c2.067,0,3.737-1.687,3.717-3.754l-0.311-32.166
				l4.742-0.91c0,0,0.195-10.444-0.737-21.351C310.18,329.745,299.074,332.164,260.704,331.731z"/>
			<path style="opacity:0.24;fill:#838BDD;" d="M234.988,350.579c0,0,40.63,7.727,78.167,0.203c0,0-71.055,18.728-78.167,51.229
				V350.579z"/>
		</g>
		<path style="fill:#838BDD;" d="M303.801,338.439c1.15-0.153,2.008,1.036,1.5,2.079l-16.498,33.883
			c-0.55,1.15-1.731,1.862-3.005,1.814l-61.265-2.345c-2.247-0.086-3.705-2.405-2.809-4.467l8.634-19.867l4.629,1.044l-6.288,14.074
			c-0.92,2.059,0.525,4.398,2.778,4.496l50.387,2.205c1.258,0.055,2.431-0.634,2.996-1.759l14.534-28.06
			C300.27,339.845,301.915,338.69,303.801,338.439L303.801,338.439z"/>
		<path style="fill:#FFFFFF;" d="M307.279,341.057c0,2.294-1.859,4.153-4.153,4.153c-2.294,0-4.153-1.859-4.153-4.153
			c0-2.294,1.86-4.153,4.153-4.153C305.42,336.904,307.279,338.763,307.279,341.057z"/>
	</g>
	<g>
		<g>
			<path style="fill:#E35756;" d="M485.895,109.018l-22.919,58.01c-1.135,2.873,0.187,6.152,2.962,7.349l0,0
				c2.67,1.151,5.748-0.036,7.029-2.712l2.345-4.895c0.647-1.35,2.245-1.884,3.536-1.182l0,0c1.182,0.643,1.697,2.107,1.19,3.382
				l-8.409,21.131c-1.152,2.894,0.333,6.187,3.221,7.144l0,0c2.577,0.854,5.358-0.472,6.396-3.049l9.277-23.024
				c0.668-1.659,2.504-2.458,4.123-1.796l0,0c1.676,0.685,2.469,2.665,1.75,4.371l-4.428,10.505c-0.905,2.091,0.108,4.534,2.2,5.302
				l0,0c1.927,0.708,4.051-0.28,4.813-2.237l8.253-19.869c0.715-1.723,2.666-2.499,4.319-1.719l0,0
				c1.611,0.761,2.328,2.717,1.608,4.387l-10.912,25.291c-1.092,2.615,0.051,5.65,2.568,6.82l0,0
				c2.672,1.242,5.804-0.109,6.824-2.942l29.692-82.529l-53.072-7.253L485.895,109.018z"/>
			<g>
				<path style="fill:#0F041F;" d="M420.153,417.058v21.614l65.695,0.009l-2.889-8.728c-1.282-3.873-4.56-6.748-8.567-7.515
					l-17.305-3.311l-15.622-16.243L420.153,417.058z"/>
				<path style="fill:#241C75;" d="M374.322,310.291c0.621,0.828,17.794,35.382,17.794,35.382l-0.334,12.563
					c-0.12,4.506,0.989,8.96,3.207,12.884l19.887,35.178c0,0-1.759,5.38-1.448,5.69c0.31,0.31,4.966,7.759,5.38,7.552
					c0.414-0.207,29.692-11.484,29.692-11.484l-2.586-9.621l-5.483-3.414l-49.97-145.46L374.322,310.291z"/>
				<path style="fill:#0F041F;" d="M323.779,412.709l-1.631,33.903h63.057l-0.687-6.82c-0.405-4.021-2.982-7.496-6.712-9.051
					l-25.345-8.132l0.203-10.297L323.779,412.709z"/>
				<path style="fill:#C86945;" d="M454.747,192.186l13.705-4.011l11.861-11.608c0.688-0.612,1.774-0.156,1.819,0.764
					c0.093,1.902-0.503,5.198-3.971,9.96l2.806-0.048c1.992-0.034,3.843,1.312,4.176,3.276c0.211,1.242-0.14,2.667-1.895,3.965
					c0,0,3.158,3.333,0,6.491c0,0,2.017,2.368-1.491,5.614l-27.01,7.55V192.186z"/>
				<g>
					<path style="fill:#B7C8D3;" d="M420.791,329.873L420.791,329.873c-1.238-0.513-1.826-1.932-1.313-3.17l74.272-179.165
						c0.513-1.238,1.932-1.825,3.17-1.312l0,0c1.238,0.513,1.825,1.932,1.312,3.17l-74.272,179.165
						C423.448,329.798,422.029,330.386,420.791,329.873z"/>
				</g>
				<path style="fill:#FFFFFF;" d="M535.765,126.508l-48.225-15.351c-1.147-0.365-1.939-1.425-1.961-2.628
					c-0.093-5.115,1.376-9.732,4.409-13.851c0.714-0.969,1.973-1.376,3.119-1.011l48.225,15.352
					C536.273,113.828,534.417,119.658,535.765,126.508z"/>
				<path style="fill:#E35756;" d="M498.01,106.706c9.935-1.513,11.528-0.264,15.444,2.312c3.916,2.575,4.381,2.691,7.872,2.226
					c3.491-0.465,6.37,1.171,6.21,5.065c-0.16,3.894,2.212,6.131,8.103,0.521c0.278-0.265,0.569-0.543,0.859-0.822
					c0.984-2.53,2.594-4.86,4.834-6.99l-48.225-15.352c-1.147-0.365-2.406,0.042-3.119,1.011c-1.947,2.644-3.241,5.496-3.9,8.55
					C487.546,105.025,491.004,107.773,498.01,106.706z"/>
				<path style="fill:#3C328C;" d="M483.905,167.018l7.216,3.126l13.683-31.824l5.095-1.619c0.798-0.254,1.399-0.916,1.575-1.734
					l0.59-2.754c0.251-1.171-0.425-2.341-1.564-2.709l-2.22-0.717c-5.29-1.709-10.982,1.083-12.868,6.313L483.905,167.018z"/>
				<path style="fill:#6C74C3;" d="M392.292,164.107c0.621,0.931,36.003,28.347,36.003,28.347l24.381-2.631
					c2.311-0.249,4.308,1.607,4.227,3.93l-0.668,19.285c-0.064,1.856-1.454,3.397-3.294,3.652l-26.716,3.698l-32.589-19.243
					L392.292,164.107z"/>
				<path style="fill:#E3A382;" d="M373.741,115.748c0.78-0.111,16.045-7.911,16.045-7.911s9.49,14.235,3.188,27.878
					c-1.425,3.085-4.757,4.825-8.103,4.232l-7.386-1.31c0,0,0.378,9.759-0.067,9.759c-0.446,0-17.94-2.34-17.94-2.34l2.229-9.137
					l-3.039-19.988L373.741,115.748z"/>
				<path style="fill:#3C328C;" d="M345.633,222.663c0.472,0.665-3.505,17.547-5.719,26.744c-0.93,3.863-0.94,7.883-0.031,11.751
					l6.784,28.855l-3.104,46.866l-10.888,16.762c-2.291,3.527-3.649,7.579-3.946,11.774l-3.168,44.711l-4.035,1.862v7.966
					l33.83,1.242l0.828-8.173l-4.345-4.138l41.796-162.013l1.035-17.484L345.633,222.663z"/>
				<path style="fill:#838BDD;" d="M535.765,126.508c0,0,7.2-4.448,5.568-17.49C541.333,109.018,532.521,113.974,535.765,126.508z"
					/>
				<g>
					<path style="fill:#BAC0F4;" d="M519.532,136.272c-1.115,0.033-2.236-0.081-3.337-0.341l-6.157-1.457
						c-0.652-0.154-1.055-0.808-0.901-1.46l0,0c0.154-0.652,0.808-1.055,1.46-0.901l6.157,1.457
						c1.937,0.457,3.953,0.355,5.832-0.302l16.346-5.701c0.547-0.191,1.023-0.546,1.361-1.017l2.904-4.041
						c0.343-0.478,0.434-1.071,0.248-1.629c-0.185-0.559-0.613-0.981-1.173-1.159l-3.309-1.05c-0.559-0.177-0.868-0.774-0.691-1.333
						l0.092-0.289c0.177-0.559,0.774-0.868,1.333-0.691l3.155,1.001c1.155,0.367,2.171,1.148,2.69,2.243
						c0.685,1.445,0.534,3.058-0.374,4.322l-2.904,4.041c-0.63,0.877-1.514,1.538-2.534,1.893l-16.345,5.701
						C522.136,135.995,520.837,136.234,519.532,136.272z"/>
				</g>
				<path style="fill:#E3A382;" d="M419.801,251.045l19.643,12.682c1.949,1.259,4.487,1.12,6.288-0.343l0.553-0.449
					c1.913-1.554,4.747-1.136,6.129,0.906l0,0c1.501,2.217,4.946,1.691,5.652-0.891c0.133-0.487,0.22-1.016,0.243-1.59
					c0.002-0.041,0.036-0.071,0.073-0.052c0.499,0.264,3.527,1.583,4.049-5.004c0.002-0.026,0.019-0.05,0.045-0.052
					c0.35-0.038,2.769-0.472,1.63-5.234c-0.569-2.38-3.109-5.362-5.667-7.872c-3.238-3.179-8.255-3.669-12.076-1.221l-2.23,1.428
					c-1.231,0.789-2.824,0.724-3.988-0.162l-12.197-9.29c-0.029-0.022-0.071-0.012-0.086,0.021l-8.082,17.051
					C419.768,250.999,419.777,251.03,419.801,251.045z"/>
				<path style="fill:#838BDD;" d="M350.805,150.864c0.279-0.091,2.664-3.527,4.368-6.024c0.997-1.461,2.833-2.089,4.511-1.528
					c3.788,1.266,11.16,3.249,20.27,3.29c1.434,0.006,2.752,0.803,3.432,2.066l2.077,3.852c0,0,6.513,3.828,9.671,12.725
					c2.755,7.763,9.722,37.656,11.454,45.153c0.258,1.115,0.871,2.112,1.75,2.846l19.739,16.504c2.051,1.715,2.604,4.64,1.321,6.986
					l-6.576,12.02c-1.617,2.956-5.46,3.826-8.192,1.853l-27.821-20.081l-40.526-6.947c-1.845-0.316-3.438-1.472-4.31-3.128
					l-2.651-5.029c0,0-8.483-5.897-8.276-6.828C331.252,207.662,333.972,156.347,350.805,150.864z"/>
				<path style="fill:#6C74C3;" d="M386.808,230.526l-11.556-11.399l-9.916-47.778c0,0,8.769,45.414-19.054,52.23L386.808,230.526z"
					/>
				<path style="fill:#6C74C3;" d="M350.805,150.864c0,0,12.745,6.203,30.6,2.679c0,0-16.997-0.4-27.352-7.072L350.805,150.864z"/>
				<path style="fill:#65343B;" d="M390.514,119.388c0,1.202-0.666,2.177-1.488,2.177s-1.487-0.975-1.487-2.177
					c0-1.202,0.666-2.177,1.487-2.177S390.514,118.185,390.514,119.388z"/>
				<polygon style="fill:#C86945;" points="377.485,138.636 372.248,137.737 377.632,144.721 				"/>
				<path style="fill:#65343B;" d="M388.852,129.572c-0.322-0.105-0.66,0.07-0.765,0.388c-0.104,0.318,0.069,0.661,0.388,0.765
					c1.332,0.435,2.624,0.581,3.755,0.581c0.887,0,1.668-0.09,2.299-0.199c0.097-0.431,0.182-0.86,0.254-1.287
					C393.548,130.079,391.249,130.355,388.852,129.572z"/>
				<path style="fill:#65343B;" d="M390.636,100.481c0,0,9.104-14.484-1.345-14.434c-10.449,0.049-14.794,6.158-14.794,6.158
					s2.69-9.104-5.897-5.173c-8.587,3.931-12.1,18.377-12.829,18.312c-11.587-1.035-1.966,3-1.966,3s-2.483,1.242-5.897,8.794
					c-3.414,7.552,4.242,5.173,4.242,5.173c1.759,12.208,8.566,18.668,8.566,18.668l10.841-7.127
					c-10.638-0.053-10.008-9.408-3.712-10.127c3.148-0.36,5.285-0.022,6.634,0.405c1.01,0.32,2.067-0.316,2.196-1.367l0.771-6.259
					c5.005-1.329,13.163-4.179,16.865-9.297C399.849,99.55,390.636,100.481,390.636,100.481z"/>
			</g>
		</g>
		<polygon style="fill:#0F041F;" points="414.877,406.298 440.431,395.022 407.966,394.075 		"/>
		<path style="fill:#241C75;" d="M325.562,410.126c1.461,0.075,26.278-1.241,26.278-1.241l-25.232-13.525L325.562,410.126z"/>
	</g>
	<g>
		<g>
			<g>
				<path style="fill:#838BDD;" d="M513.285,343.845c1.402,0.043,31.269-5.144,59.044,0.285c0,0-25.504,9.436-25.949,9.436
					S513.285,343.845,513.285,343.845z"/>
				<path style="fill:#FFFFFF;" d="M565.73,423.737c-15.769,4.809-31.135,4.872-46.086,0.058c-2.57-0.827-4.282-3.261-4.282-5.961
					v-67.205h54.762v67.109C570.125,420.481,568.354,422.937,565.73,423.737z"/>
				<path style="fill:#FFFFFF;" d="M571.454,358.494c-18.895,2.59-38.183,2.482-57.821-0.03c-1.899-0.243-3.317-1.877-3.317-3.792
					v-7.01c0-2.329,2.068-4.122,4.371-3.774c18.627,2.816,37.181,2.842,55.661,0.013c2.305-0.353,4.378,1.441,4.378,3.772v7.038
					C574.725,356.61,573.334,358.236,571.454,358.494z"/>
				<path style="fill:#CBD177;" d="M532.995,345.755v14.958c0,0,3.631,0.24,6.417,0.295v14.757c0,1.545,1.252,2.797,2.797,2.797l0,0
					c1.545,0,2.797-1.252,2.797-2.797v-2.778c0-1.082,0.877-1.959,1.959-1.959l0,0c1.082,0,1.959,0.877,1.959,1.959v14.495
					c0,1.531,1.241,2.772,2.773,2.772l0,0c1.531,0,2.773-1.241,2.773-2.772v-18.383c0-1.332,1.079-2.411,2.411-2.411l0,0
					c1.331,0,2.411,1.079,2.411,2.411v12.639c0,1.408,1.141,2.549,2.549,2.549l0,0c1.417,0,2.563-1.156,2.549-2.574l-0.213-22.056
					l3.252-0.624c0,0,0.134-7.161-0.506-14.641C566.921,344.393,559.306,346.052,532.995,345.755z"/>
				<path style="opacity:0.24;fill:#838BDD;" d="M515.362,358.679c0,0,27.86,5.298,53.599,0.139c0,0-48.722,12.841-53.599,35.128
					V358.679z"/>
			</g>
			<path style="fill:#838BDD;" d="M562.547,350.354c0.789-0.105,1.377,0.71,1.029,1.426l-11.313,23.233
				c-0.377,0.788-1.187,1.277-2.06,1.244l-42.009-1.608c-1.541-0.059-2.541-1.649-1.926-3.063l5.921-13.622l3.174,0.716
				l-4.312,9.651c-0.631,1.412,0.36,3.015,1.905,3.083l34.55,1.512c0.863,0.038,1.667-0.435,2.054-1.206l9.966-19.241
				C560.126,351.319,561.254,350.526,562.547,350.354L562.547,350.354z"/>
			<path style="fill:#FFFFFF;" d="M564.932,352.15c0,1.573-1.275,2.848-2.848,2.848c-1.573,0-2.848-1.275-2.848-2.848
				c0-1.573,1.275-2.848,2.848-2.848C563.657,349.302,564.932,350.577,564.932,352.15z"/>
		</g>
		<g>
			<g>
				<g>
					<path style="fill:#838BDD;" d="M585.935,310.594c1.862,0.058,41.521-6.83,78.402,0.378c0,0-33.865,12.529-34.457,12.529
						S585.935,310.594,585.935,310.594z"/>
					<path style="fill:#FFFFFF;" d="M655.576,416.68c-20.939,6.385-41.343,6.469-61.196,0.077c-3.412-1.099-5.686-4.33-5.686-7.915
						v-89.239h72.717v89.112C661.411,412.356,659.06,415.617,655.576,416.68z"/>
					<path style="fill:#FFFFFF;" d="M663.176,330.046c-25.091,3.44-50.702,3.296-76.778-0.039c-2.522-0.323-4.404-2.492-4.404-5.035
						v-9.309c0-3.092,2.746-5.473,5.803-5.011c24.734,3.739,49.372,3.774,73.91,0.017c3.06-0.469,5.813,1.913,5.813,5.009v9.346
						C667.52,327.544,665.673,329.703,663.176,330.046z"/>
					<path style="fill:#F0AF46;" d="M612.109,313.13v19.863c0,0,4.821,0.319,8.521,0.392v20.649c0,2.051,1.663,3.714,3.714,3.714
						l0,0c2.051,0,3.714-1.663,3.714-3.714v-3.689c0-1.437,1.165-2.601,2.601-2.601l0,0c1.436,0,2.601,1.165,2.601,2.601v33.841
						c0,2.033,1.648,3.682,3.682,3.682l0,0c2.033,0,3.682-1.648,3.682-3.682v-24.41c0-1.768,1.433-3.201,3.201-3.201l0,0
						c1.768,0,3.201,1.433,3.201,3.201v16.783c0,1.87,1.516,3.385,3.385,3.385l0,0c1.882,0,3.403-1.535,3.385-3.418l-0.283-44.934
						l4.318-0.829c0,0,0.178-9.509-0.671-19.441C657.158,311.321,647.046,313.524,612.109,313.13z"/>
					<path style="opacity:0.24;fill:#838BDD;" d="M588.694,330.291c0,0,36.994,7.035,71.172,0.185c0,0-64.696,17.052-71.172,46.645
						V330.291z"/>
				</g>
				<path style="fill:#838BDD;" d="M597.861,316.989c-1.047-0.139-1.829,0.943-1.366,1.893l15.021,30.851
					c0.501,1.047,1.576,1.696,2.736,1.651l55.782-2.135c2.046-0.078,3.374-2.19,2.557-4.068l-7.371-15.834l-3.81,0.698l4.83,10.811
					c0.838,1.875-0.478,4.004-2.529,4.094l-45.878,2.008c-1.145,0.05-2.214-0.577-2.728-1.602l-13.233-25.549
					C601.076,318.27,599.578,317.217,597.861,316.989L597.861,316.989z"/>
				<path style="fill:#BBC3FF;" d="M594.694,319.373c0,2.089,1.693,3.782,3.782,3.782c2.089,0,3.782-1.693,3.782-3.782
					c0-2.089-1.693-3.782-3.782-3.782C596.387,315.591,594.694,317.284,594.694,319.373z"/>
			</g>
			<path style="fill:#F0AF46;" d="M641.341,396.139c0,2.092-1.696,3.788-3.788,3.788c-2.092,0-3.788-1.696-3.788-3.788
				c0-2.092,1.696-3.788,3.788-3.788C639.645,392.351,641.341,394.047,641.341,396.139z"/>
		</g>
		<g>
			<path style="fill:#E35756;" d="M500.481,437.62c4.284-1.084,87.17-22.407,87.17-22.407s29.166,9.637,28.837,9.999
				c-0.33,0.361-88.028,24.946-88.488,24.695C527.54,449.658,500.481,437.62,500.481,437.62z"/>
			<path style="fill:#241C75;" d="M581.06,408.709c-0.165,0.361,0.165,10.119,0.165,10.119l46.963,10.842v-11.685L581.06,408.709z"
				/>
			<polygon style="fill:#241C75;" points="581.06,408.709 484.168,432.44 484.168,444.728 581.225,418.828 			"/>
			<polygon style="fill:#8691E2;" points="484.168,432.44 526.892,442.352 528,454.847 484.168,444.728 			"/>
			<polygon style="fill:#6C74C3;" points="526.892,442.352 628.188,417.984 628.188,429.67 528,454.847 			"/>
		</g>
		<g>
			<g>
				<path style="fill:#6C74C3;" d="M644.407,391.809h48.743v49.098c-4.969,7.098-40.461,7.335-48.743,0V391.809z"/>
				<ellipse style="fill:#241C75;" cx="668.778" cy="391.809" rx="24.371" ry="4.377"/>
			</g>
			<g>
				<path style="fill:#241C75;" d="M641.964,419.794c-5.333,13.151-11.742,22.967-14.314,21.924l2.857,1.159
					c2.572,1.043,8.98-8.773,14.314-21.924s7.572-24.658,5.001-25.701l-2.858-1.159
					C649.536,395.136,647.297,406.643,641.964,419.794z"/>
				<path style="fill:#8691E2;" d="M641.964,419.794c5.333-13.151,7.572-24.658,5-25.701c-2.572-1.043-8.98,8.773-14.314,21.924
					c-5.333,13.151-7.572,24.658-5,25.701C630.222,442.761,636.63,432.945,641.964,419.794z"/>
			</g>
			<path style="fill:#0F041F;" d="M658.942,395.814v18.035c0,1.939,1.571,3.51,3.51,3.51c1.938,0,3.51-1.572,3.51-3.51v-3.487
				c0-1.358,1.101-2.458,2.458-2.458c1.358,0,2.458,1.101,2.458,2.458v18.192c0,1.922,1.558,3.48,3.48,3.48s3.48-1.558,3.48-3.48
				v-23.071c0-1.671,1.355-3.026,3.026-3.026c1.671,0,3.026,1.355,3.026,3.026v15.863c0,1.767,1.432,3.199,3.199,3.199
				c1.779,0,3.216-1.451,3.199-3.23l-0.264-27.361c-4.178,1.333-12.124,2.233-21.245,2.233
				C665.277,396.187,661.951,396.053,658.942,395.814z"/>
			<path style="fill:#0F041F;" d="M665.395,423.762c0,1.628-1.319,2.947-2.947,2.947c-1.628,0-2.947-1.319-2.947-2.947
				c0-1.628,1.319-2.947,2.947-2.947C664.075,420.815,665.395,422.135,665.395,423.762z"/>
		</g>
	</g>
</g>
</svg>
