<?xml version="1.0" encoding="utf-8"?>
<!-- Generator: Adobe Illustrator 27.5.0, SVG Export Plug-In . SVG Version: 6.00 Build 0)  -->
<svg version="1.1" xmlns="http://www.w3.org/2000/svg" xmlns:xlink="http://www.w3.org/1999/xlink" x="0px" y="0px"
	 viewBox="0 0 750 500" style="enable-background:new 0 0 750 500;" xml:space="preserve">
<g id="BACKGROUND">
	<g>
		<rect x="0" style="fill:#ADDEEF;" width="750" height="500"/>
	</g>
</g>
<g id="OBJECTS">
	<g>
		<g>
			<g>
				<path style="fill:#BFE7F5;" d="M66.258,452.669h380.283l218.885-0.497c29.547-34.986,36.769-85.208,38.626-131.397
					c5.119-127.328-111.815-119.979-130.622-119.979c-68.765,0-58.989-118.263-162.077-118.263
					c-97.423,0-107.509,111.048-165.579,117.139c-61.386,6.439-67.816-30.45-122.346-28.204
					c-59.103,2.434-90.323,62.26-90.323,139.009C33.105,387.941,51.572,444.747,66.258,452.669z"/>
			</g>
		</g>
		<g>
			<path style="fill:#3687A4;" d="M721.274,456.835H28.726c-2.419,0-4.38-1.961-4.38-4.38l0,0c0-2.419,1.961-4.38,4.38-4.38h692.547
				c2.419,0,4.38,1.961,4.38,4.38l0,0C725.654,454.874,723.693,456.835,721.274,456.835z"/>
		</g>
	</g>
	<g>
		<rect x="411.353" y="43.165" style="fill:#ADDEEF;" width="12.717" height="409.289"/>
	</g>
	<g>
		<g>
			<g>
				<rect x="451.918" y="275.675" style="fill:#FFFFFF;" width="72.594" height="90.573"/>
			</g>
			<g>
				<path style="fill:#FFFFFF;" d="M527.396,283.891h-78.36c-1.75,0-3.169-1.419-3.169-3.169v-1.878c0-1.75,1.419-3.169,3.169-3.169
					h78.36c1.75,0,3.169,1.419,3.169,3.169v1.878C530.564,282.472,529.146,283.891,527.396,283.891z"/>
			</g>
			<g>
				<path style="fill:#FFFFFF;" d="M502.391,402.743H474.04c-16.955,0-30.7-13.745-30.7-30.7V356.22h89.752v15.822
					C533.092,388.998,519.347,402.743,502.391,402.743z"/>
			</g>
			<g>
				<path style="fill:#FFFFFF;" d="M533.101,348.783H443.33c-2.054,0-3.719,1.665-3.719,3.719v0c0,2.054,1.665,3.719,3.719,3.719
					h89.771c2.054,0,3.719-1.665,3.719-3.719v0C536.82,350.448,535.155,348.783,533.101,348.783z"/>
			</g>
			<g>
				<path style="fill:#FCA66F;" d="M523.127,341.345h-69.823c-4.108,0-7.438,3.33-7.438,7.438l0,0h84.698l0,0
					C530.564,344.675,527.234,341.345,523.127,341.345z"/>
			</g>
			<g>
				<path style="fill:#FFFFFF;" d="M514.039,448.259c0,0-25.342,0-25.824,0s-25.824,0-25.824,0
					c10.007-11.395,12.791-28.758,13.39-41.125c0.075-1.554,0.116-3.025,0.133-4.388c0.075-6.309-0.366-10.506-0.366-10.506
					l12.667-12.758l12.667,12.758c0,0-0.44,4.197-0.366,10.506c0.017,1.363,0.058,2.834,0.133,4.388
					C501.248,419.502,504.032,436.864,514.039,448.259z"/>
			</g>
			<g>
				<rect x="524.513" y="293.883" style="fill:#999999;" width="3.026" height="6.052"/>
			</g>
			<g>
				<rect x="527.539" y="293.883" style="fill:#999999;" width="3.026" height="9.787"/>
			</g>
			<g>
				<rect x="451.918" y="283.891" style="fill:#F2F2F2;" width="72.594" height="4.394"/>
			</g>
			<g>
				<rect x="443.339" y="356.22" style="fill:#F2F2F2;" width="89.752" height="4.394"/>
			</g>
			<g>
				<path style="fill:#F2F2F2;" d="M500.649,407.134h-24.868c0.075-1.554,0.116-3.025,0.133-4.388h24.602
					C500.533,404.109,500.574,405.58,500.649,407.134z"/>
			</g>
		</g>
		<g>
			<g>
				<rect x="453.223" y="210.326" style="fill:#FFFFFF;" width="71.29" height="3.972"/>
			</g>
			<g>
				<path style="fill:#FFFFFF;" d="M520.348,192.053h-64.265c-2.3,0-4.165-1.865-4.165-4.165v-82.244c0-2.3,1.865-4.165,4.165-4.165
					h64.265c2.3,0,4.165,1.865,4.165,4.165v82.244C524.513,190.188,522.648,192.053,520.348,192.053z"/>
			</g>
			<g>
				
					<rect x="447.777" y="115.317" transform="matrix(-1.836970e-16 1 -1 -1.836970e-16 634.9814 -341.4497)" style="fill:#BFE7F5;" width="80.878" height="62.898"/>
			</g>
			<g>
				<g>
					<path style="fill:#FFFFFF;" d="M462.396,131.037c-0.128,0-0.256-0.049-0.354-0.146c-0.195-0.195-0.195-0.512,0-0.707
						l20.194-20.194c0.195-0.195,0.512-0.195,0.707,0s0.195,0.512,0,0.707L462.75,130.89
						C462.652,130.988,462.524,131.037,462.396,131.037z"/>
				</g>
				<g>
					<path style="fill:#FFFFFF;" d="M471.544,142.42c-0.128,0-0.256-0.049-0.354-0.146c-0.195-0.195-0.195-0.512,0-0.707
						l20.194-20.194c0.195-0.195,0.512-0.195,0.707,0s0.195,0.512,0,0.707l-20.194,20.194
						C471.8,142.372,471.672,142.42,471.544,142.42z"/>
				</g>
				<g>
					<path style="fill:#FFFFFF;" d="M460.196,141.978c-0.128,0-0.256-0.049-0.354-0.146c-0.195-0.195-0.195-0.512,0-0.707
						l31.609-31.61c0.195-0.195,0.512-0.195,0.707,0s0.195,0.512,0,0.707l-31.609,31.61
						C460.452,141.929,460.324,141.978,460.196,141.978z"/>
				</g>
			</g>
		</g>
	</g>
	<g>
		<g>
			<path style="fill:#CCCCCC;" d="M346.3,288.699h-1.943c-1.914,0-3.465-1.551-3.465-3.465v-30.796c0-1.914,1.551-3.465,3.465-3.465
				h1.943c1.914,0,3.465,1.551,3.465,3.465v30.796C349.766,287.147,348.214,288.699,346.3,288.699z"/>
		</g>
		<g>
			<path style="fill:#F2F2F2;" d="M347.99,274.969h-5.322c-0.981,0-1.776-0.795-1.776-1.776v-27.955
				c0-0.981,0.795-1.776,1.776-1.776h5.322c0.981,0,1.776,0.795,1.776,1.776v27.955C349.766,274.174,348.97,274.969,347.99,274.969z
				"/>
		</g>
		<g>
			<path style="fill:#FFFFFF;" d="M403.74,448.074H177.959V291.787c0-4.177,3.386-7.563,7.563-7.563h210.654
				c4.177,0,7.563,3.386,7.563,7.563V448.074z"/>
		</g>
		<g>
			
				<rect x="219.818" y="265.104" transform="matrix(-1.836970e-16 1 -1 -1.836970e-16 661.2311 79.532)" style="fill:#F2F2F2;" width="142.062" height="210.555"/>
		</g>
		<g>
			<rect x="185.571" y="299.348" style="fill:#FFFFFF;" width="105.279" height="142.07"/>
		</g>
		<g>
			<g>
				<path style="fill:#F2F2F2;" d="M275.281,432.896h-74.141v-1c0-3.337-2.715-6.052-6.052-6.052h-1V314.919h1
					c3.337,0,6.052-2.715,6.052-6.052v-1h74.141v1c0,3.337,2.715,6.052,6.052,6.052h1v110.926h-1c-3.337,0-6.052,2.715-6.052,6.052
					V432.896z M203.079,430.896h70.264c0.453-3.643,3.348-6.537,6.99-6.99V316.857c-3.643-0.453-6.537-3.348-6.99-6.99h-70.264
					c-0.453,3.643-3.348,6.537-6.99,6.99v107.049C199.731,424.359,202.626,427.254,203.079,430.896z"/>
			</g>
		</g>
		<g>
			<rect x="177.958" y="299.348" style="fill:#F2F2F2;" width="112.893" height="4.073"/>
		</g>
		<g>
			<path style="fill:#FCA66F;" d="M403.74,299.35H177.959v-7.563c0-4.177,3.386-7.563,7.563-7.563h210.654
				c4.177,0,7.563,3.386,7.563,7.563V299.35z"/>
		</g>
		<g>
			<path style="fill:#FFFFFF;" d="M403.74,291.787H177.959v0c0-4.177,3.386-7.563,7.563-7.563h210.654
				C400.354,284.223,403.74,287.61,403.74,291.787L403.74,291.787z"/>
		</g>
		<g>
			<path style="fill:#CCCCCC;" d="M345.329,353.226L345.329,353.226c-2.45,0-4.437-1.986-4.437-4.437v-28.852
				c0-2.45,1.986-4.437,4.437-4.437h0c2.45,0,4.437,1.986,4.437,4.437v28.852C349.766,351.239,347.779,353.226,345.329,353.226z"/>
		</g>
		<g>
			<path style="fill:#CCCCCC;" d="M361.156,322.106h-31.655c-12.568,0-22.756-10.188-22.756-22.756v0h77.166v0
				C383.912,311.918,373.724,322.106,361.156,322.106z"/>
		</g>
		<g>
			<path style="fill:#FCA66F;" d="M272.063,382.997L272.063,382.997c-1.477,0-2.675-1.198-2.675-2.675v-21.885
				c0-1.477,1.198-2.675,2.675-2.675l0,0c1.477,0,2.675,1.198,2.675,2.675v21.885C274.738,381.799,273.54,382.997,272.063,382.997z"
				/>
		</g>
		<g>
			<path style="fill:#F2F2F2;" d="M348.932,240.602h-7.207c-1.418,0-2.568-1.15-2.568-2.568v-3.884c0-1.418,1.15-2.568,2.568-2.568
				h7.207c1.418,0,2.568,1.15,2.568,2.568v3.884C351.5,239.453,350.35,240.602,348.932,240.602z"/>
		</g>
		<g>
			<rect x="344.516" y="237.793" style="fill:#F2F2F2;" width="1.625" height="10.443"/>
		</g>
		<g>
			<g>
				<g>
					<path style="fill:#1B1447;" d="M231.504,257.027h-28.591v-10.79c0-2.585,2.102-4.687,4.686-4.687h19.218
						c2.585,0,4.687,2.102,4.687,4.687V257.027z M205.505,254.436h23.408v-8.199c0-1.156-0.94-2.096-2.095-2.096h-19.218
						c-1.155,0-2.095,0.94-2.095,2.096V254.436z"/>
				</g>
			</g>
			<g>
				<g>
					<g>
						<path style="fill:#CC3B3B;" d="M242.944,249.289h-51.47c-1.875,0-3.572,1.232-4.326,3.14l-1.607,9.738h63.336l-1.607-9.738
							C246.516,250.521,244.818,249.289,242.944,249.289z"/>
					</g>
				</g>
				<g>
					<g>
						<path style="fill:#FF4040;" d="M185.54,262.167v17.391c0,2.509,1.709,4.543,3.816,4.543h55.704
							c2.108,0,3.816-2.034,3.816-4.543v-17.391H185.54z"/>
					</g>
				</g>
			</g>
			<g>
				<g>
					<path style="fill:#CC3B3B;" d="M248.877,279.557H185.54v0.379c0,2.299,1.864,4.164,4.164,4.164h55.009
						c2.3,0,4.164-1.864,4.164-4.164V279.557z"/>
				</g>
			</g>
			<g>
				<g>
					<path style="fill:#1B1447;" d="M199.727,265.687h-1.025c-0.848,0-1.535-0.687-1.535-1.535v-3.971
						c0-0.848,0.687-1.535,1.535-1.535h1.025c0.848,0,1.535,0.687,1.535,1.535v3.971C201.262,265,200.575,265.687,199.727,265.687z"
						/>
				</g>
			</g>
			<g>
				<g>
					<path style="fill:#1B1447;" d="M237.265,265.687h-1.025c-0.848,0-1.535-0.687-1.535-1.535v-3.971
						c0-0.848,0.687-1.535,1.535-1.535h1.025c0.848,0,1.535,0.687,1.535,1.535v3.971C238.8,265,238.113,265.687,237.265,265.687z"/>
				</g>
			</g>
			<g>
				<g>
					<rect x="204.886" y="265.08" style="fill:#CC3B3B;" width="24.646" height="1"/>
				</g>
			</g>
			<g>
				<g>
					<rect x="204.886" y="267.596" style="fill:#CC3B3B;" width="24.646" height="1"/>
				</g>
			</g>
			<g>
				<g>
					<rect x="204.886" y="270.111" style="fill:#CC3B3B;" width="24.646" height="1"/>
				</g>
			</g>
			<g>
				<g>
					<rect x="204.886" y="272.627" style="fill:#CC3B3B;" width="24.646" height="1"/>
				</g>
			</g>
		</g>
		<g>
			<g>
				<rect x="294.992" y="365.38" style="fill:#FFFFFF;" width="101.135" height="5.765"/>
			</g>
			<g>
				<rect x="294.992" y="395.557" style="fill:#FFFFFF;" width="101.135" height="5.765"/>
			</g>
			<g>
				<rect x="294.992" y="425.734" style="fill:#FFFFFF;" width="101.135" height="5.765"/>
			</g>
		</g>
	</g>
	<g>
		<g>
			<g>
				<g>
					<path style="fill:#FFFFFF;" d="M633.007,169.222h-67.702c-4.82,0-8.728-3.908-8.728-8.728V72.049
						c0-4.82,3.908-8.728,8.728-8.728h67.702c4.82,0,8.728,3.908,8.728,8.728v88.445
						C641.735,165.314,637.827,169.222,633.007,169.222z"/>
				</g>
				<g>
					<g>
						<path style="fill:#F2F2F2;" d="M633.82,161.308h-69.329V71.235h69.329V161.308z M566.491,159.308h65.329V73.235h-65.329
							V159.308z"/>
					</g>
				</g>
				<g>
					<path style="fill:#F2F2F2;" d="M610.085,87.461H589.69c-1.906,0-3.451-1.545-3.451-3.451v-2.955
						c0-1.906,1.545-3.451,3.451-3.451h20.395c1.906,0,3.451,1.545,3.451,3.451v2.955C613.536,85.916,611.991,87.461,610.085,87.461
						z"/>
				</g>
				<g>
					<circle style="fill:#FCA66F;" cx="599.887" cy="142.734" r="10.322"/>
				</g>
				<g>
					<g>
						<path style="fill:#F2F2F2;" d="M599.888,158.175c-8.515,0-15.441-6.927-15.441-15.441c0-8.514,6.927-15.44,15.441-15.44
							c8.514,0,15.44,6.927,15.44,15.44C615.328,151.248,608.401,158.175,599.888,158.175z M599.888,129.293
							c-7.411,0-13.441,6.029-13.441,13.44s6.03,13.441,13.441,13.441s13.44-6.03,13.44-13.441S607.299,129.293,599.888,129.293z"/>
					</g>
				</g>
			</g>
			<g>
				<g>
					<rect x="597.156" y="169.222" style="fill:#FFFFFF;" width="4" height="114.909"/>
				</g>
			</g>
		</g>
		<g>
			<g>
				<path style="fill:#F2F2F2;" d="M600.128,319.755h-1.943c-1.914,0-3.465-1.551-3.465-3.465v-30.796
					c0-1.914,1.551-3.465,3.465-3.465h1.943c1.914,0,3.465,1.551,3.465,3.465v30.796
					C603.593,318.203,602.041,319.755,600.128,319.755z"/>
			</g>
			<g>
				<g>
					<path style="fill:#F2F2F2;" d="M584.846,288.568h-5.952c-0.807,0-1.461-0.654-1.461-1.461V274.85
						c0-0.807,0.654-1.461,1.461-1.461h5.952c0.807,0,1.461,0.654,1.461,1.461v12.257
						C586.307,287.914,585.653,288.568,584.846,288.568z"/>
				</g>
				<g>
					<path style="fill:#F2F2F2;" d="M577.515,286.487v-4.711c0-1.149,0.932-2.081,2.081-2.081h39.119
						c1.149,0,2.081,0.932,2.081,2.081v4.711c0,1.149-0.932,2.081-2.081,2.081h-39.119
						C578.447,288.568,577.515,287.636,577.515,286.487z"/>
				</g>
				<g>
					<path style="fill:#F2F2F2;" d="M585.474,270.528h-7.207c-1.418,0-2.568-1.15-2.568-2.568v-3.884
						c0-1.418,1.15-2.568,2.568-2.568h7.207c1.418,0,2.568,1.15,2.568,2.568v3.884C588.042,269.379,586.892,270.528,585.474,270.528
						z"/>
				</g>
				<g>
					<rect x="580.422" y="267.719" style="fill:#F2F2F2;" width="2.896" height="10.443"/>
				</g>
				<g>
					<path style="fill:#F2F2F2;" d="M619.34,288.568h-5.952c-0.807,0-1.461-0.654-1.461-1.461V274.85
						c0-0.807,0.654-1.461,1.461-1.461h5.952c0.807,0,1.461,0.654,1.461,1.461v12.257
						C620.801,287.914,620.147,288.568,619.34,288.568z"/>
				</g>
				<g>
					<path style="fill:#F2F2F2;" d="M619.968,270.528h-7.207c-1.418,0-2.568-1.15-2.568-2.568v-3.884
						c0-1.418,1.149-2.568,2.568-2.568h7.207c1.418,0,2.568,1.15,2.568,2.568v3.884
						C622.535,269.379,621.386,270.528,619.968,270.528z"/>
				</g>
				<g>
					<rect x="614.916" y="267.719" style="fill:#F2F2F2;" width="2.896" height="10.443"/>
				</g>
			</g>
		</g>
	</g>
	<g>
		<g>
			<g>
				<path style="fill:#FFFFFF;" d="M45.906,439.409c0,2.907,2.307,5.263,5.152,5.263h112.953c2.845,0,5.152-2.356,5.152-5.263
					V289.486H45.906V439.409z"/>
			</g>
			<g>
				<path style="fill:#FCA66F;" d="M164.011,284.223H51.058c-2.845,0-5.152,2.356-5.152,5.263h123.257
					C169.163,286.58,166.857,284.223,164.011,284.223z"/>
			</g>
		</g>
		<g>
			<g>
				<rect x="59.398" y="444.677" style="fill:#CCCCCC;" width="19.395" height="3.398"/>
			</g>
			<g>
				
					<rect x="136.277" y="444.677" transform="matrix(-1 -2.297819e-11 2.297819e-11 -1 291.948 892.7511)" style="fill:#CCCCCC;" width="19.395" height="3.398"/>
			</g>
		</g>
		<g>
			<ellipse style="fill:#F2F2F2;" cx="107.535" cy="364.448" rx="43.031" ry="43.956"/>
		</g>
		<g>
			<ellipse style="fill:#86D4EF;" cx="107.535" cy="364.448" rx="35.163" ry="35.919"/>
		</g>
		<g>
			<path style="fill:#F2F2F2;" d="M153.359,371.145h-14.77c-1.963,0-3.554-1.591-3.554-3.554v-3.384
				c0-1.963,1.591-3.554,3.554-3.554h14.77c1.963,0,3.554,1.591,3.554,3.554v3.384C156.913,369.554,155.322,371.145,153.359,371.145
				z"/>
		</g>
		<g>
			<path style="fill:#F2F2F2;" d="M154.099,434.617H60.971c-2.794,0-5.059-2.265-5.059-5.059v-0.218
				c0-2.794,2.265-5.059,5.059-5.059h93.128c2.794,0,5.059,2.265,5.059,5.059v0.218
				C159.158,432.352,156.893,434.617,154.099,434.617z"/>
		</g>
		<g>
			<g>
				<path style="fill:#86D4EF;" d="M59.985,295.535c-2.794,0-5.059,2.314-5.059,5.168s2.265,5.168,5.059,5.168h32.349v-10.337
					H59.985z"/>
			</g>
			<g>
				<path style="fill:#F2F2F2;" d="M153.113,295.535H92.334v10.337h60.778c2.794,0,5.059-2.314,5.059-5.168
					S155.907,295.535,153.113,295.535z"/>
			</g>
		</g>
		<g>
			<ellipse style="fill:#FCA66F;" cx="100.982" cy="300.703" rx="2.241" ry="2.289"/>
		</g>
		<g>
			<ellipse style="fill:#FCA66F;" cx="111.442" cy="300.703" rx="2.241" ry="2.289"/>
		</g>
		<g>
			<ellipse style="fill:#FCA66F;" cx="121.902" cy="300.703" rx="2.241" ry="2.289"/>
		</g>
		<g>
			<ellipse style="fill:#FCA66F;" cx="132.363" cy="300.703" rx="2.241" ry="2.289"/>
		</g>
		<g>
			<ellipse style="fill:#FCA66F;" cx="142.823" cy="300.703" rx="2.241" ry="2.289"/>
		</g>
	</g>
	<g>
		<g>
			<g>
				
					<rect x="330.046" y="278.078" transform="matrix(0.9929 0.1188 -0.1188 0.9929 36.8273 -37.4123)" style="fill:#1B1447;" width="4.345" height="24.229"/>
			</g>
			<g>
				<path style="fill:#1B1447;" d="M336.337,272.108l-0.504,4.216c-0.127,1.06-1.098,1.824-2.158,1.697
					c-1.06-0.127-1.824-1.098-1.697-2.158l0.504-4.216c-1.794,0.54-3.19,2.096-3.426,4.075c-0.319,2.665,1.583,5.083,4.248,5.402
					s5.083-1.583,5.402-4.248C338.942,274.898,337.953,273.056,336.337,272.108z"/>
			</g>
			<g>
				<path style="fill:#1B1447;" d="M327.919,309.787l0.504-4.216c0.127-1.06,1.098-1.824,2.158-1.697
					c1.06,0.127,1.824,1.098,1.697,2.158l-0.504,4.216c1.794-0.54,3.19-2.096,3.426-4.075c0.319-2.665-1.583-5.083-4.248-5.402
					s-5.083,1.583-5.402,4.248C325.314,306.998,326.303,308.839,327.919,309.787z"/>
			</g>
		</g>
		<g>
			<g>
				<path style="fill:#1B1447;" d="M205.462,436.885l-2.409-8.368c-0.246-0.171-3.614-1.682-6.219-0.832
					c-0.626,0.204-0.958,0.898-0.791,1.6l4.463,18.789h4.656C204.882,443.658,203.833,438.603,205.462,436.885z"/>
			</g>
			<g>
				<path style="fill:#1B1447;" d="M209.365,446.723c-0.873-1.869-3.999-2.665-7.575-3.179l-1.285,4.53h7.617
					C209.177,448.074,209.715,447.472,209.365,446.723z"/>
			</g>
		</g>
		<g>
			<path style="fill:#F2F2F2;" d="M273.029,268.186l-13.19,13.59c3.096,4.809,10.471,11.867,20.728,18.704
				c4.033-3.185,7.179-7.407,9.614-11.819C283.182,282.976,276.946,276.175,273.029,268.186z"/>
		</g>
		<g>
			<path style="fill:#F79894;" d="M325.961,290.265c-2.283,0.802-11.655,4.288-23.806,6.734c-4.053-2.454-8.128-5.217-11.973-8.339
				c-2.435,4.412-5.582,8.634-9.614,11.819c5.138,3.425,11.112,6.578,17.656,9.323c1.012,0.425,2.147,0.478,3.194,0.148
				c9.161-2.89,18.578-6.966,27.568-12.104C328.423,294.691,327.564,293.035,325.961,290.265z"/>
		</g>
		<g>
			<path style="fill:#F79894;" d="M334.71,298.198c0.378-0.022,0.703-0.155,0.939-0.37c0.346-0.315,0.501-0.806,0.351-1.377
				c0.338-0.103,0.629-0.27,0.863-0.482c0.554-0.505,0.786-1.267,0.567-2.043c0.168-0.063,0.314-0.154,0.437-0.265
				c0.577-0.525,0.622-1.51-0.054-2.252c-0.334-0.367-0.845-0.674-1.555-0.837c0.454-0.89,0.43-1.482,0.097-1.848
				c-1.238-1.359-9.117,0.381-10.393,1.544c-0.001,0.001-0.013,3.037-0.013,3.038l1.458,3.85c0.282,0.423,0.583,0.815,0.903,1.166
				c2.061,2.263,4.556,2.092,5.809,0.951C334.429,298.987,334.659,298.607,334.71,298.198z"/>
		</g>
		<g>
			<g>
				<path style="fill:#F79894;" d="M334.574,442.61l-0.356-8.797l-8.303-0.96c0,0-0.298,7.383,0.111,10.535L334.574,442.61z"/>
			</g>
			<g>
				<path style="fill:#1B1447;" d="M334.495,440.667c2.674,3.343,15.579,1.466,18.048,6.056c0.403,0.749,0.041,1.351-0.842,1.351
					h-25.689c-0.722,0-1.391-0.483-1.541-1.139c-0.626-2.732,1.192-5.659,1.386-5.859L334.495,440.667z"/>
			</g>
		</g>
		<g>
			<path style="fill:#417ABD;" d="M280.901,338.624l-14.96,9.783l-8.443,31.524c0,0,34.382,0.067,60.499,3.065
				c1.324,19.221,3.272,49.645,6.013,58.022c3.912,1.222,8.38,1.408,13.701,0c0,0,3.839-31.225,5.062-68.675
				c0.089-2.724-1.339-5.267-3.701-6.627C324.038,357.066,294.802,344.872,280.901,338.624z"/>
		</g>
		<g>
			<path style="fill:#F79894;" d="M271.077,262.394c0,1.627,0.133,3.245,0.428,4.825c-4.853-2.274-9.155-5.643-13.313-9.155
				c1.304-5.006,1.903-10.154,2.693-15.293c0.305,0.561,0.619,1.113,0.961,1.646c2.646,4.282,6.709,5.034,10.458,8.46
				c-0.285,1.152-0.657,3.454-0.923,5.472c-0.152,1.199-0.266,2.293-0.285,2.998C271.087,261.699,271.077,262.041,271.077,262.394z"
				/>
		</g>
		<g>
			<path style="fill:#1B1447;" d="M271.081,262.572c0-0.06-0.004-0.119-0.004-0.178c0-0.352,0.01-0.695,0.019-1.047
				c0.019-0.704,0.133-1.799,0.285-2.998c0.266-2.017,0.638-4.32,0.923-5.472c-3.539-3.233-7.356-4.088-9.998-7.774
				C260.083,252.456,265.157,258.586,271.081,262.572z"/>
		</g>
		<g>
			<path style="fill:#4A8AD6;" d="M277.026,348.626l-32.793,8.194c0,0,3.069,15.547,7.544,26.262
				c2.905,6.957,3.366,25.75,3.043,39.977c-19.478-0.793-43.721-0.017-52.135,3.657c-0.109,4.942,0.824,9.438,3.166,13.33
				c0,0,36.982,7.968,67.864,8.208c2.626,0.02,4.886-1.855,5.375-4.435c3.869-20.447,11.8-71.666,12.62-86.999L277.026,348.626z"/>
		</g>
		<g>
			<path style="fill:#4A8AD6;" d="M291.708,356.815c0,0-25.218,9.25-47.477,0c0,0,3.702-56.327,3.94-68.813
				c0.095-5.158,0.6-10.125,1.599-14.722c1.304-5.938,3.407-11.258,6.462-15.559c0.561-0.78,1.532-1.161,2.455-0.895
				c4.111,1.19,9.269,3.987,13.57,7.47c0.209,0.171,0.39,0.381,0.533,0.619c0.733,1.256,3.217,5.814,6.167,13.78
				C284.324,293.198,291.204,319.016,291.708,356.815z"/>
		</g>
		<g>
			<g>
				<path style="fill:#417ABD;" d="M290.193,330.44c-0.035,0-0.072-0.005-0.108-0.016c-8.014-2.407-12.433-9.924-12.78-21.739
					c-0.006-0.206,0.156-0.379,0.363-0.387c3.188-0.108,6.178-0.461,9.137-1.078c0.207-0.039,0.402,0.089,0.445,0.291
					c0.042,0.204-0.088,0.402-0.291,0.445c-2.886,0.601-5.798,0.955-8.891,1.079c0.296,7.932,2.688,17.802,12.233,20.668
					c0.198,0.061,0.312,0.27,0.252,0.469C290.504,330.335,290.355,330.44,290.193,330.44z"/>
			</g>
		</g>
		<g>
			<path style="fill:#FFF230;" d="M278.957,278.695c-1.047,1.761-2.56,2.531-3.854,2.531c-6.252,0-2.312-15.666-15.988-15.666
				c-3.673,0-7.269,4.275-9.344,7.72c1.304-5.938,3.407-11.258,6.462-15.559c0.561-0.78,1.532-1.161,2.455-0.895
				c4.111,1.19,9.269,3.987,13.57,7.47c0.209,0.171,0.35,0.41,0.533,0.619C273.783,266.047,276.406,270.539,278.957,278.695z"/>
		</g>
		<g>
			<path style="fill:#FFF230;" d="M269.447,278.821c-0.879-4.465-5.211-7.373-9.676-6.494c-4.465,0.879-7.373,5.211-6.494,9.676
				c0.081,0.414,0.209,0.857,0.347,1.243c1.595,4.356,3.141,8.726,4.67,13.1c4.643-0.214,9.237-2.776,13.627-5.398
				C271.103,287.074,270.283,283.068,269.447,278.821z"/>
		</g>
		<g>
			<g>
				<path style="fill:#417ABD;" d="M249.532,377.397c-0.108,0-0.217-0.048-0.291-0.139c-0.131-0.16-0.107-0.397,0.054-0.528
					c1.436-1.171,2.292-3.191,2.292-5.405c0-1.606-0.363-3.418-1.111-5.53c-1.648,0.22-2.941,0.306-4.231,0.248
					c-0.207-0.008-0.368-0.184-0.359-0.391c0.008-0.207,0.194-0.412,0.391-0.359c1.324,0.05,2.653-0.038,4.398-0.284
					c0.174-0.032,0.344,0.077,0.405,0.243c0.848,2.319,1.26,4.306,1.26,6.073c0,2.437-0.961,4.675-2.569,5.987
					C249.7,377.369,249.616,377.397,249.532,377.397z"/>
			</g>
		</g>
		<g>
			<g>
				<path style="fill:#1B1447;" d="M285.511,236.768c1.145-3.994,1.757-8.117,0.32-12.105c-1.322-3.669-5.719-5.395-9.267-5.841
					c-2.674-0.336-5.372-0.083-8.028,0.295c-2.164,0.308-4.116,0.429-6.03,1.63c-3.28,2.059-5.083,5.826-5.741,9.589
					c-1.182,6.767,1.372,13.721,6.719,17.93l9.767-14.901c2.243,1.675,4.93,2.872,7.709,3.349c1.511,0.259,3.043,0.288,4.542,0.092
					C285.508,236.793,285.508,236.781,285.511,236.768z"/>
			</g>
			<g>
				<path style="fill:#F79894;" d="M269.12,228.278c-0.571,2.704-4.841,9.701-7.208,9.836l-0.73-2.584
					c-0.495-0.895-1.182-1.657-2.197-1.828c-0.043-0.007-0.086-0.013-0.13-0.018c-2.301-0.265-3.457,1.738-3.804,3.803
					c-0.536,3.19,0.494,6.343,4.476,7.032c0.858,5.836,6.154,13.79,12.458,14.85c12.775,2.148,13.547-23.724,13.559-23.788
					c-2.16-0.102-1.713,0.095-3.804-0.256C276.847,234.503,272.166,231.881,269.12,228.278z"/>
			</g>
			<g>
				<g>
					<path style="fill:#1B1447;" d="M277.825,238.766c0.402-0.848,1.272-1.296,2.202-1.351c1.545-0.092,2.709,0.689,3.143,2.262
						c-1.084-0.838-2.508-1.311-3.883-1.23C278.786,238.477,278.293,238.581,277.825,238.766z"/>
				</g>
				<g>
					
						<ellipse transform="matrix(0.1167 -0.9932 0.9932 0.1167 7.3774 492.3205)" style="fill:#1B1447;" cx="280.455" cy="242.013" rx="1.069" ry="0.767"/>
				</g>
			</g>
			<g>
				<path style="fill:#F79894;" d="M283.487,239.99c-1.205,2.066-0.961,5.719-1.353,8.051c-0.158,0.943-0.242,1.897-0.245,2.854
					c0.538,0.155,1.115,0.306,1.691,0.402c2.291,0.385,3.581-0.487,3.686-1.109C287.265,250.189,283.792,243.667,283.487,239.99z"/>
			</g>
			<g>
				<g>
					<path style="fill:#FFF230;" d="M287.786,230.55c-0.705,0.383-1.451,0.727-2.232,1.034c-7.425,2.915-18.003,2.935-25.575,1.454
						l-0.036,0.007c0,0,24.956,8.706,35.685,0.708C301.933,229.052,287.786,230.55,287.786,230.55z"/>
				</g>
				<g>
					<path style="fill:#4A8AD6;" d="M285.554,231.583c0.781-0.307,1.527-0.65,2.232-1.034c-0.582-3.065-0.576-6.189-1.666-8.967
						c-2.852-7.263-10.505-10.346-18.347-8.382c-13.572,3.399-11.464,18.76-11.464,18.76c1.096,0.47,2.34,0.817,3.67,1.077
						C267.551,234.518,278.129,234.499,285.554,231.583z"/>
				</g>
			</g>
			<g>
				<g>
					<g>
						<path style="fill:#040000;" d="M256.527,239.447c-0.102,0-0.198-0.042-0.264-0.133c-0.107-0.151-0.159-0.322-0.157-0.523
							c0.001-0.051,0.005-0.102,0.009-0.153l0.006-0.102c0.005-0.441,0.12-0.919,0.308-1.278c0.278-0.531,0.719-0.823,1.241-0.823
							c0.006,0,0.011,0,0.016,0c0.843,0.009,1.213,0.638,1.51,1.143l0.107,0.181c0.107,0.178,0.051,0.409-0.126,0.517
							c-0.179,0.107-0.408,0.051-0.517-0.126l-0.112-0.19c-0.297-0.505-0.471-0.768-0.87-0.772c-0.087-0.003-0.36-0.005-0.583,0.42
							c-0.159,0.304-0.219,0.684-0.222,0.938c-0.001,0.052-0.005,0.103-0.009,0.154l-0.006,0.101c0.12,0.169,0.09,0.442-0.079,0.563
							C256.702,239.417,256.612,239.447,256.527,239.447z"/>
					</g>
				</g>
				<g>
					<g>
						<path style="fill:#040000;" d="M258.046,241.956c-0.078,0-0.157-0.024-0.225-0.075c-0.166-0.124-0.201-0.359-0.077-0.526
							c0.156-0.209,0.233-0.431,0.236-0.677c0.005-0.444-0.237-0.976-0.72-1.578c-0.13-0.162-0.104-0.398,0.058-0.528
							c0.162-0.128,0.398-0.104,0.528,0.059c0.603,0.752,0.893,1.425,0.886,2.057c-0.006,0.406-0.135,0.782-0.385,1.118
							C258.273,241.903,258.16,241.956,258.046,241.956z"/>
					</g>
				</g>
			</g>
			<g>
				<path style="fill:#1B1447;" d="M279.94,252.512c-0.554,0.683-1.067,1.408-1.403,2.208c-1.457-0.713-2.698-1.997-3.077-3.564
					C276.891,251.811,278.387,252.395,279.94,252.512z"/>
			</g>
		</g>
		<g>
			<path style="fill:#F79894;" d="M312.469,344.03c-0.573-2.432-2.09-3.726-4.689-3.726c-0.149,0-0.307,0.011-0.463,0.019
				c-0.191-0.103-0.375-0.213-0.571-0.311l-27.789-25.489l-7.035-23.575l-13.627,5.398l9.115,25.646
				c0.364,1.025,1.043,1.909,1.94,2.524l33.582,23.064c0.013-0.012,0.024-0.025,0.037-0.038c0.922,2.409,4.625,6.557,6.553,6.797
				c0.036-0.036,0.072-0.072,0.108-0.107c-0.084-0.738-0.44-1.392-0.86-2.026c1.525,1.249,3.515,2.722,4.372,2.722
				c0.334,0,0.431-0.142,0.431-0.346c0-0.804-1.285-2.453-2.566-3.853c1.771,1.174,3.952,2.48,5.097,2.48
				c0.256,0,0.496-0.085,0.496-0.341c0-0.538-2.894-3.167-4.232-4.243c0.867,0.386,4.285,2.452,4.901,2.452
				c0.635,0,0.465-0.448,0.559-0.602C317.767,350.291,315.853,347.129,312.469,344.03z"/>
		</g>
	</g>
	<g>
		<g>
			<g>
				<g>
					
						<rect x="606.42" y="115.954" transform="matrix(1 -0.0086 0.0086 1 -1.0783 5.2355)" style="fill:#1B1447;" width="4.345" height="24.229"/>
				</g>
				<g>
					<path style="fill:#1B1447;" d="M610.376,109.607l0.036,4.246c0.009,1.068-0.857,1.949-1.924,1.958
						c-1.068,0.009-1.949-0.857-1.958-1.925l-0.036-4.246c-1.71,0.764-2.897,2.485-2.88,4.478c0.023,2.684,2.217,4.84,4.901,4.817
						c2.684-0.023,4.84-2.217,4.817-4.901C613.315,112.043,612.099,110.342,610.376,109.607z"/>
				</g>
				<g>
					<path style="fill:#1B1447;" d="M606.823,148.052l-0.036-4.246c-0.009-1.068,0.857-1.949,1.924-1.958
						c1.068-0.009,1.949,0.857,1.958,1.925l0.036,4.246c1.71-0.764,2.897-2.485,2.88-4.478c-0.023-2.684-2.217-4.84-4.901-4.817
						c-2.684,0.023-4.84,2.217-4.817,4.901C603.884,145.616,605.1,147.317,606.823,148.052z"/>
				</g>
			</g>
			<g>
				<g>
					<g>
						<path style="fill:#F2F2F2;" d="M682.331,163.451l-5.93,17.986c-5.696-0.515-15.369-3.779-26.18-9.701
							c0.953-5.05,3.236-9.794,6.018-13.997C664.521,161.308,673.436,163.682,682.331,163.451z"/>
					</g>
					<g>
						<path style="fill:#F79894;" d="M610.785,136.069c1.781-2.666,3.231-3.839,5.81-5.733c2.812,2.623,19.305,18.637,39.644,27.403
							c-2.781,4.203-5.065,8.947-6.018,13.997C636.732,164.348,622.331,151.604,610.785,136.069z"/>
					</g>
				</g>
				<g>
					<path style="fill:#F79894;" d="M605.4,134.096c-0.337-0.172-0.582-0.424-0.712-0.716c-0.191-0.428-0.136-0.94,0.231-1.403
						c-0.269-0.23-0.468-0.499-0.597-0.788c-0.305-0.684-0.212-1.476,0.299-2.099c-0.129-0.125-0.226-0.267-0.294-0.418
						c-0.318-0.712,0.036-1.633,0.952-2.042c0.453-0.202,1.044-0.279,1.76-0.144c-0.059-0.997,0.2-1.53,0.652-1.732
						c1.679-0.749,8.199,4.004,8.902,5.58c0,0.001-1.206,2.788-1.205,2.788l-2.879,2.943c-0.427,0.274-0.861,0.513-1.295,0.707
						c-2.795,1.247-5.013,0.091-5.703-1.458C605.341,134.933,605.283,134.492,605.4,134.096z"/>
				</g>
			</g>
			<g>
				<g>
					<g>
						<path style="fill:#F79894;" d="M662.179,404.019l0.356-8.797l8.303-0.96c0,0,0.298,7.383-0.111,10.535L662.179,404.019z"/>
					</g>
					<g>
						<path style="fill:#1B1447;" d="M662.258,402.076c-2.674,3.343-15.579,1.466-18.048,6.056
							c-0.403,0.749-0.041,1.351,0.842,1.351h25.689c0.722,0,1.391-0.483,1.541-1.139c0.626-2.732-1.192-5.659-1.386-5.859
							L662.258,402.076z"/>
					</g>
				</g>
				<g>
					<path style="fill:#417ABD;" d="M700.713,259.556c0,0-5.352,15.547-11.4,26.262c-6.048,10.715-8.862,28.573-8.82,35.506
						c0.041,6.933-2.869,66.187-7.75,81.104c-3.912,1.222-8.38,1.408-13.701,0c0,0-7.354-126.274-5.805-142.872l15.887-8.194
						L700.713,259.556z"/>
				</g>
			</g>
			<g>
				<path style="fill:#F79894;" d="M673.869,165.13c0,1.627-0.133,3.245-0.428,4.825c4.853-2.274,9.155-5.643,13.313-9.155
					c-1.304-5.006-1.903-10.154-2.693-15.293c-0.305,0.561-0.619,1.113-0.961,1.646c-2.646,4.282-6.709,5.034-10.458,8.46
					c0.285,1.152,0.657,3.454,0.923,5.472c0.152,1.199,0.266,2.293,0.285,2.998C673.859,164.436,673.869,164.778,673.869,165.13z"/>
			</g>
			<g>
				<path style="fill:#1B1447;" d="M672.641,155.614c0.285,1.152,0.657,3.454,0.923,5.472c4.121-3.14,8.508-6.509,9.907-11.439
					c-0.124-0.837-0.247-1.665-0.371-2.493C680.454,151.436,676.391,152.188,672.641,155.614z"/>
			</g>
			<g>
				<g>
					<g>
						<path style="fill:#F79894;" d="M683.391,404.019l-0.936-8.797l8.162-0.96c0,0,1.382,7.383,1.436,10.535L683.391,404.019z"/>
					</g>
					<g>
						<path style="fill:#1B1447;" d="M683.185,402.076c-2.183,3.343-15.363,1.466-17.159,6.056
							c-0.293,0.749,0.157,1.351,1.041,1.351h25.689c0.722,0,1.32-0.483,1.374-1.139c0.225-2.732-2.023-5.659-2.246-5.859
							L683.185,402.076z"/>
					</g>
				</g>
				<g>
					<path style="fill:#4A8AD6;" d="M700.713,259.556c0,0-3.069,15.547-7.544,26.262c-4.475,10.715-4.666,28.573-3.607,35.506
						s6.85,66.187,4.159,81.104c-4.783,1.248-9.373,1.38-13.701,0c0,0-19.24-95.81-22.029-105.055
						c-2.789-9.244-3.867-21.22-4.755-37.817l14.683-8.194L700.713,259.556z"/>
				</g>
			</g>
			<g>
				<path style="fill:#4A8AD6;" d="M653.238,259.552c0,0,25.218,9.25,47.477,0c0,0-3.702-56.327-3.94-68.813
					c-0.095-5.158-0.6-10.125-1.599-14.722c-1.304-5.938-3.407-11.258-6.462-15.559c-0.561-0.78-1.532-1.161-2.455-0.895
					c-4.111,1.19-9.269,3.987-13.57,7.47c-0.209,0.171-0.39,0.381-0.533,0.619c-0.733,1.256-3.216,5.814-6.167,13.78
					C660.622,195.935,653.742,221.753,653.238,259.552z"/>
			</g>
			<g>
				<g>
					<path style="fill:#417ABD;" d="M654.753,233.178c-0.162,0-0.311-0.105-0.36-0.268c-0.06-0.199,0.054-0.408,0.252-0.468
						c9.546-2.866,11.938-12.738,12.232-20.669c-3.091-0.125-6.003-0.479-8.889-1.08c-0.203-0.042-0.334-0.241-0.292-0.444
						c0.043-0.203,0.246-0.334,0.444-0.291c2.961,0.616,5.949,0.969,9.137,1.078c0.207,0.007,0.369,0.18,0.363,0.387
						c-0.347,11.815-4.766,19.333-12.779,21.739C654.825,233.172,654.788,233.178,654.753,233.178z"/>
				</g>
			</g>
			<g>
				<path style="fill:#FFFFFF;" d="M665.99,181.432c1.047,1.761,2.56,2.531,3.854,2.531c6.252,0,2.312-15.666,15.988-15.666
					c3.673,0,7.269,4.275,9.344,7.72c-1.304-5.938-3.407-11.258-6.462-15.559c-0.561-0.78-1.532-1.161-2.455-0.895
					c-4.111,1.19-9.269,3.987-13.57,7.47c-0.209,0.171-0.35,0.41-0.533,0.619C671.163,168.784,668.54,173.276,665.99,181.432z"/>
			</g>
			<g>
				<path style="fill:#FFFFFF;" d="M675.499,181.558c0.879-4.465,5.211-7.373,9.676-6.494c4.465,0.879,7.373,5.211,6.494,9.676
					c-0.081,0.414-0.209,0.857-0.347,1.243c-1.595,4.356-3.141,8.726-4.67,13.1c-4.643-0.214-9.237-2.776-13.627-5.398
					C673.843,189.811,674.663,185.805,675.499,181.558z"/>
			</g>
			<g>
				<g>
					<g>
						<path style="fill:#1B1447;" d="M617.24,240.721c0-2.585,2.102-4.687,4.687-4.687h19.218c2.584,0,4.687,2.102,4.687,4.687
							v10.79H617.24V240.721z M643.24,240.721c0-1.156-0.94-2.096-2.095-2.096h-19.218c-1.155,0-2.095,0.94-2.095,2.096v8.199
							h23.408V240.721z"/>
					</g>
				</g>
				<g>
					<g>
						<g>
							<path style="fill:#CC3B3B;" d="M605.801,243.773h51.47c1.875,0,3.572,1.232,4.326,3.14l1.607,9.738h-63.336l1.607-9.738
								C602.229,245.004,603.926,243.773,605.801,243.773z"/>
						</g>
					</g>
					<g>
						<g>
							<path style="fill:#FF4040;" d="M663.204,256.65v17.391c0,2.509-1.709,4.543-3.816,4.543h-55.704
								c-2.108,0-3.816-2.034-3.816-4.543V256.65H663.204z"/>
						</g>
					</g>
				</g>
				<g>
					<g>
						<path style="fill:#CC3B3B;" d="M599.868,274.041h63.336v0.379c0,2.3-1.864,4.164-4.164,4.164h-55.009
							c-2.299,0-4.164-1.864-4.164-4.164V274.041z"/>
					</g>
				</g>
				<g>
					<g>
						<path style="fill:#1B1447;" d="M649.018,260.171h1.025c0.848,0,1.535-0.687,1.535-1.535v-3.971
							c0-0.848-0.687-1.535-1.535-1.535h-1.025c-0.848,0-1.535,0.687-1.535,1.535v3.971
							C647.482,259.484,648.17,260.171,649.018,260.171z"/>
					</g>
				</g>
				<g>
					<g>
						<path style="fill:#1B1447;" d="M611.479,260.171h1.025c0.848,0,1.535-0.687,1.535-1.535v-3.971
							c0-0.848-0.687-1.535-1.535-1.535h-1.025c-0.848,0-1.535,0.687-1.535,1.535v3.971
							C609.944,259.484,610.632,260.171,611.479,260.171z"/>
					</g>
				</g>
				<g>
					<g>
						<rect x="619.213" y="259.564" style="fill:#CC3B3B;" width="24.646" height="1"/>
					</g>
				</g>
				<g>
					<g>
						<rect x="619.213" y="262.08" style="fill:#CC3B3B;" width="24.646" height="1"/>
					</g>
				</g>
				<g>
					<g>
						<rect x="619.213" y="264.596" style="fill:#CC3B3B;" width="24.646" height="1"/>
					</g>
				</g>
				<g>
					<g>
						<rect x="619.213" y="267.111" style="fill:#CC3B3B;" width="24.646" height="1"/>
					</g>
				</g>
			</g>
			<g>
				<path style="fill:#F79894;" d="M636.387,228c2.333-0.549,4.732-0.644,7.116-0.954c2.295-0.298,4.588-0.615,6.879-0.946
					c3.126-0.451,6.249-0.924,9.367-1.424c0.214-0.034,0.43-0.069,0.644-0.104c0.065-0.011,0.51-0.084,0.445-0.073
					c2.826-0.474,5.781-2.459,6.591-5.563c1.948-8.573,3.766-16.582,5.596-25.252c4.391,2.622,8.984,5.183,13.627,5.398
					c-0.597,1.708-1.199,3.414-1.789,5.124l-6.315,18.687c-1.547,4.012-4.602,7.582-9.131,9.935
					c-5.96,3.082-9.318,0.316-31.866,3.673c-0.313,0.706-1.983,4.525-3.996,4.829c-0.773,0.117-1.262-0.167-1.46-0.709
					c-0.348,0.401-0.792,0.678-1.032,0.715c-0.691,0.104-1.313-0.289-1.501-0.991c-0.356,0.459-0.777,0.849-1.362,0.938
					c-0.025,0.004-0.05,0.007-0.076,0.01c-0.74,0.077-1.12-0.5-1.222-1.174c-0.009-0.059-0.016-0.119-0.02-0.179
					c-0.52,0.624-1.183,1.318-1.762,1.405c-0.455,0.069-1.08-0.065-1.154-0.559c-0.282-3.257,1.673-6.18,3.981-8.285
					c2.015-1.838,4.422-3.241,7.011-4.099C635.431,228.244,635.908,228.113,636.387,228z"/>
			</g>
			<g>
				<g>
					<path style="fill:#417ABD;" d="M695.413,280.135c-0.084,0-0.168-0.028-0.237-0.085c-1.608-1.314-2.569-3.553-2.569-5.987
						c0-1.764,0.412-3.75,1.259-6.074c0.061-0.166,0.23-0.273,0.405-0.243c1.754,0.245,3.075,0.334,4.401,0.284
						c0.172-0.017,0.382,0.154,0.39,0.362c0.007,0.207-0.154,0.382-0.362,0.39c-1.281,0.046-2.574-0.029-4.229-0.25
						c-0.748,2.116-1.111,3.929-1.111,5.531c0,2.212,0.856,4.232,2.292,5.405c0.161,0.132,0.185,0.368,0.054,0.528
						C695.63,280.088,695.522,280.135,695.413,280.135z"/>
				</g>
			</g>
			<g>
				<g>
					<path style="fill:#1B1447;" d="M700.655,135.43c0-0.79-0.444-1.491-1.578-1.935c0.844-1.295,1.318-2.541,1.318-3.635
						c0-1.532-0.93-2.764-3.075-3.405c0.224-0.498,0.354-1.03,0.354-1.676c0-2.509-2.209-4.652-4.584-4.652
						c-0.277,0-0.556,0.029-0.834,0.09c-0.028-2.365-1.318-4.054-3.323-4.054c-0.587,0-1.234,0.144-1.93,0.459
						c-0.806-1.635-2.327-2.569-3.983-2.569c-1.433,0-2.878,0.679-3.839,1.889c-0.939-0.946-2.051-1.348-3.098-1.348
						c-1.945,0-3.67,1.386-3.67,3.256c0,0.096,0.005,0.192,0.014,0.29c-0.654-0.214-1.345-0.327-2.021-0.327
						c-2.134,0-4.125,1.122-4.344,3.723c-0.003,0.035-0.004,0.07-0.004,0.106c0,0.306,0.104,0.644,0.252,0.978
						c-1.912,0.595-2.838,2.186-2.838,3.967c0,1.929,1.085,4.081,3.176,5.437c-0.071,0.343-0.104,0.684-0.104,1.019
						c0,3.208,3.092,5.923,6.316,5.923c0.822,0,1.652-0.177,2.442-0.566c1.087,3.404,5.064,6.11,8.053,6.11
						c0.8,0,1.53-0.194,2.114-0.62c1.014,1.122,2.03,1.593,3.759,1.593c3.145,0,9.95-1.829,9.95-4.643
						c0-0.65-0.295-1.397-0.506-1.988C699.759,137.853,700.655,136.552,700.655,135.43z"/>
				</g>
				<g>
					<path style="fill:#F79894;" d="M685.931,135.412c-0.057,0.253-0.084,0.502-0.084,0.744c0,1.503,1.048,2.756,2.616,3.084
						l0.972-1.262c0.792-0.647,1.713-1.099,2.719-0.88c0.042,0.009,0.085,0.02,0.127,0.031c2.235,0.609,2.563,2.899,2.117,4.945
						c-0.688,3.161-2.818,5.704-6.77,4.863c-2.967,5.098-10.84,10.513-17.087,9.153c-11.758-2.561-4.91-23.716-3.867-26.76
						c0.996,0.292,1.787,0.462,2.501,0.462c1.566,0,2.761-0.816,4.927-2.945c0.184,1.735,2.405,2.889,4.167,3.112
						c-0.04,0.16-0.059,0.316-0.059,0.466c0,1.272,1.372,2.141,3.031,2.141c0.126,0,0.253-0.005,0.382-0.015
						c0.237,1.474,1.766,2.886,3.826,2.886C685.606,135.438,685.767,135.429,685.931,135.412z"/>
				</g>
				<g>
					<path style="fill:#F79894;" d="M667.07,133.823c0.35,2.366-1.234,5.666-1.737,7.977c-0.203,0.934-0.48,1.851-0.834,2.741
						c-0.557-0.056-1.148-0.131-1.719-0.255c-2.27-0.494-3.143-1.784-3.009-2.4C659.77,141.886,665.419,137.123,667.07,133.823z"/>
				</g>
				<g>
					<g>
						<g>
							<path style="fill:#040000;" d="M692.391,143.377c-0.123,0-0.245-0.062-0.316-0.173c-0.112-0.175-0.061-0.407,0.114-0.519
								l0.074-0.158c0.016-0.051,0.032-0.102,0.052-0.152c0.16-0.414,0.313-1.342-0.243-1.558c-0.373-0.146-0.631,0.035-1.093,0.392
								l-0.178,0.136c-0.167,0.125-0.4,0.092-0.526-0.076c-0.124-0.166-0.091-0.401,0.075-0.526l0.169-0.129
								c0.464-0.357,1.037-0.802,1.824-0.499c1.054,0.409,0.979,1.738,0.672,2.532l-0.034,0.101
								c-0.015,0.047-0.029,0.095-0.047,0.141c-0.073,0.188-0.185,0.328-0.341,0.428C692.53,143.358,692.46,143.377,692.391,143.377
								z"/>
						</g>
					</g>
					<g>
						<g>
							<path style="fill:#040000;" d="M690.096,145.135c-0.167,0-0.318-0.111-0.363-0.28c-0.107-0.406-0.088-0.803,0.059-1.18
								c0.229-0.589,0.747-1.106,1.587-1.581c0.18-0.104,0.409-0.038,0.512,0.142c0.103,0.181,0.038,0.41-0.143,0.512
								c-0.672,0.38-1.095,0.783-1.255,1.198c-0.089,0.229-0.1,0.464-0.033,0.716c0.053,0.201-0.066,0.406-0.268,0.459
								C690.159,145.131,690.127,145.135,690.096,145.135z"/>
						</g>
					</g>
				</g>
				<g>
					<path style="fill:#1B1447;" d="M672.073,132.944c-0.123-0.931-0.815-1.623-1.683-1.959c-1.443-0.559-2.79-0.172-3.684,1.193
						c1.288-0.466,2.789-0.482,4.073,0.016C671.245,132.375,671.684,132.624,672.073,132.944z"/>
				</g>
				<g>
					<path style="fill:#1B1447;" d="M665.706,146.766c0.261,0.84,0.467,1.703,0.481,2.571c1.617-0.12,3.247-0.851,4.182-2.164
						C668.798,147.249,667.192,147.235,665.706,146.766z"/>
				</g>
				<g>
					
						<ellipse transform="matrix(0.1926 -0.9813 0.9813 0.1926 407.1181 765.2471)" style="fill:#1B1447;" cx="668.576" cy="135.231" rx="1.069" ry="0.767"/>
				</g>
			</g>
		</g>
		<g>
			<g>
				
					<rect x="630.528" y="428.073" transform="matrix(-1 -4.489488e-11 4.489488e-11 -1 1339.902 863.7928)" style="fill:#80B7F7;" width="78.846" height="7.647"/>
			</g>
			<g>
				<path style="fill:#4A8AD6;" d="M694.06,419h-49.343c-3.545,0-6.533,2.646-6.96,6.166l-2.783,22.909H623.55l5.968-32.833
					c0.606-3.334,3.51-5.758,6.898-5.758h65.946c3.389,0,6.292,2.423,6.898,5.758l5.968,32.833h-11.425l-2.783-22.909
					C700.593,421.646,697.606,419,694.06,419z"/>
			</g>
		</g>
	</g>
	<g>
		<g>
			<g>
				<path style="fill:#FCA66F;" d="M48.758,174.737c0,3.456,2.802,6.258,6.258,6.258h346.427c3.456,0,6.258-2.802,6.258-6.258
					v-0.285H48.758V174.737z"/>
			</g>
			<g>
				<path style="fill:#FCA66F;" d="M407.7,57.806c0-3.456-2.802-6.258-6.258-6.258H55.016c-3.456,0-6.258,2.802-6.258,6.258v0.285
					H407.7V57.806z"/>
			</g>
			<g>
				<rect x="48.758" y="58.091" style="fill:#FFFFFF;" width="358.942" height="116.361"/>
			</g>
		</g>
		<g>
			<g>
				<g>
					<g>
						<path style="fill:#F2F2F2;" d="M163.121,169.415H68.189v-1c0-3.573-2.906-6.48-6.479-6.48h-1V70.608h1
							c3.573,0,6.479-2.907,6.479-6.48v-1h94.932v1c0,3.573,2.906,6.48,6.479,6.48h1v91.327h-1c-3.573,0-6.479,2.907-6.479,6.48
							V169.415z M70.131,167.415h91.049c0.458-3.878,3.543-6.964,7.421-7.421V72.549c-3.878-0.458-6.963-3.543-7.421-7.421H70.131
							c-0.458,3.878-3.543,6.964-7.421,7.421v87.444C66.588,160.451,69.673,163.537,70.131,167.415z"/>
					</g>
				</g>
			</g>
			<g>
				<g>
					<g>
						<path style="fill:#F2F2F2;" d="M276.018,169.415h-94.931v-1c0-3.573-2.907-6.48-6.48-6.48h-1V70.608h1
							c3.573,0,6.48-2.907,6.48-6.48v-1h94.931v1c0,3.573,2.907,6.48,6.48,6.48h1v91.327h-1c-3.573,0-6.48,2.907-6.48,6.48V169.415z
							 M183.029,167.415h91.048c0.458-3.878,3.543-6.964,7.422-7.421V72.549c-3.879-0.458-6.964-3.543-7.422-7.421h-91.048
							c-0.458,3.878-3.543,6.964-7.422,7.421v87.444C179.486,160.451,182.571,163.537,183.029,167.415z"/>
					</g>
				</g>
			</g>
			<g>
				<g>
					<g>
						<path style="fill:#F2F2F2;" d="M388.917,169.415h-94.931v-1c0-3.573-2.907-6.48-6.48-6.48h-1V70.608h1
							c3.573,0,6.48-2.907,6.48-6.48v-1h94.931v1c0,3.573,2.907,6.48,6.48,6.48h1v91.327h-1c-3.573,0-6.48,2.907-6.48,6.48V169.415z
							 M295.928,167.415h91.048c0.458-3.878,3.543-6.964,7.422-7.421V72.549c-3.879-0.458-6.964-3.543-7.422-7.421h-91.048
							c-0.458,3.878-3.543,6.964-7.422,7.421v87.444C292.385,160.451,295.47,163.537,295.928,167.415z"/>
					</g>
				</g>
			</g>
		</g>
		<g>
			<path style="fill:#FCA66F;" d="M161.307,124.781L161.307,124.781c-1.724,0-3.135-1.411-3.135-3.135v-15.189
				c0-1.724,1.411-3.135,3.135-3.135h0c1.724,0,3.135,1.411,3.135,3.135v15.189C164.443,123.371,163.032,124.781,161.307,124.781z"
				/>
		</g>
		<g>
			<path style="fill:#FCA66F;" d="M274.738,124.781L274.738,124.781c-1.724,0-3.135-1.411-3.135-3.135v-15.189
				c0-1.724,1.411-3.135,3.135-3.135h0c1.724,0,3.135,1.411,3.135,3.135v15.189C277.873,123.371,276.462,124.781,274.738,124.781z"
				/>
		</g>
		<g>
			<path style="fill:#FCA66F;" d="M388.169,124.781L388.169,124.781c-1.724,0-3.135-1.411-3.135-3.135v-15.189
				c0-1.724,1.411-3.135,3.135-3.135h0c1.724,0,3.135,1.411,3.135,3.135v15.189C391.304,123.371,389.893,124.781,388.169,124.781z"
				/>
		</g>
	</g>
	<g>
		<g>
			<path style="fill:#FFFFFF;" d="M80.224,232.205c-1.783-7.198-3.464-14.979-6.037-21.366c-4.385-12.235-20.799-9.243-16.739,6.806
				c1.279,4.494,3.451,11.045,5.713,17.553C69.06,235.587,74.879,234.509,80.224,232.205z"/>
		</g>
		<g>
			<path style="fill:#F79894;" d="M127.698,227.303c0-2.453-0.576-4.724-2.437-4.724c-0.04,0-0.081,0.001-0.123,0.003
				c-1.625,0.084-3.399,2.304-4.539,3.822c-0.206-1.086-0.677-1.518-1.305-1.518c-1.925,0-5.592,5.914-7.343,7.649
				c-9.007,2.413-24.955,4.57-29.921,6.44c-0.636-2.149-1.226-4.429-1.806-6.77c-5.345,2.304-11.165,3.382-17.063,2.992
				c2.046,5.886,4.165,11.738,5.764,16c0.75,1.998,2.847,3.138,4.934,2.687c13.707-2.963,28.073-8.12,41.235-12.572
				c0-0.002,0-0.004-0.001-0.006C123.17,240.671,127.698,234.827,127.698,227.303z"/>
		</g>
		<g>
			<g>
				<g>
					<path style="fill:#F79894;" d="M81.756,443.729l-0.356-8.797l-8.303-0.96c0,0-0.298,7.383,0.111,10.535L81.756,443.729z"/>
				</g>
				<g>
					<path style="fill:#1B1447;" d="M81.677,441.785c2.674,3.343,15.579,1.466,18.049,6.056c0.403,0.749,0.041,1.351-0.842,1.351
						l-25.689,0c-0.722,0-1.391-0.483-1.541-1.139c-0.626-2.732,1.192-5.659,1.386-5.859L81.677,441.785z"/>
				</g>
			</g>
			<g>
				<path style="fill:#417ABD;" d="M43.222,299.266c0,0,5.352,15.547,11.4,26.262s8.862,28.573,8.821,35.506
					s2.869,66.187,7.75,81.104c3.912,1.222,8.38,1.408,13.701,0c0,0,7.354-126.274,5.805-142.872l-15.887-8.194L43.222,299.266z"/>
			</g>
		</g>
		<g>
			<path style="fill:#F79894;" d="M70.066,204.84c0,1.627,0.133,3.245,0.428,4.825c-4.853-2.274-9.155-5.643-13.313-9.155
				c1.304-5.006,1.903-10.154,2.693-15.293c0.305,0.561,0.619,1.113,0.961,1.646c2.646,4.282,6.709,5.034,10.458,8.46
				c-0.285,1.152-0.657,3.454-0.923,5.472c-0.152,1.199-0.266,2.293-0.285,2.998C70.075,204.145,70.066,204.488,70.066,204.84z"/>
		</g>
		<g>
			<path style="fill:#1B1447;" d="M71.293,195.324c-0.285,1.152-0.657,3.454-0.923,5.472c-4.121-3.14-8.508-6.509-9.907-11.439
				c0.124-0.837,0.247-1.665,0.371-2.493C63.48,191.146,67.544,191.898,71.293,195.324z"/>
		</g>
		<g>
			<g>
				<g>
					<path style="fill:#F79894;" d="M60.543,443.729l0.936-8.797l-8.162-0.96c0,0-1.382,7.383-1.436,10.535L60.543,443.729z"/>
				</g>
				<g>
					<path style="fill:#1B1447;" d="M60.75,441.785c2.183,3.343,15.363,1.466,17.159,6.056c0.293,0.749-0.157,1.351-1.041,1.351
						l-25.689,0c-0.722,0-1.32-0.483-1.374-1.139c-0.225-2.732,2.023-5.659,2.246-5.859L60.75,441.785z"/>
				</g>
			</g>
			<g>
				<path style="fill:#4A8AD6;" d="M43.222,299.266c0,0,3.069,15.547,7.544,26.262s4.666,28.573,3.607,35.506
					s-6.85,66.187-4.159,81.104c4.783,1.248,9.373,1.38,13.701,0c0,0,19.24-95.81,22.029-105.055
					c2.789-9.244,3.866-21.22,4.755-37.817l-14.683-8.194L43.222,299.266z"/>
			</g>
		</g>
		<g>
			<path style="fill:#4A8AD6;" d="M90.697,299.261c0,0-25.218,9.25-47.477,0c0,0,3.702-56.327,3.94-68.813
				c0.095-5.158,0.6-10.125,1.599-14.722c1.304-5.938,3.407-11.258,6.462-15.559c0.561-0.78,1.532-1.161,2.455-0.895
				c4.111,1.19,9.269,3.987,13.57,7.47c0.209,0.171,0.39,0.381,0.533,0.619c0.733,1.256,3.217,5.814,6.167,13.78
				C83.312,235.644,90.193,261.462,90.697,299.261z"/>
		</g>
		<g>
			<g>
				<path style="fill:#417ABD;" d="M89.182,272.887c-0.035,0-0.072-0.005-0.108-0.016c-8.014-2.406-12.433-9.923-12.779-21.739
					c-0.006-0.207,0.156-0.379,0.363-0.386c3.186-0.109,6.174-0.461,9.137-1.078c0.198-0.042,0.401,0.088,0.444,0.291
					c0.042,0.203-0.089,0.402-0.292,0.444c-2.888,0.602-5.8,0.956-8.889,1.08c0.295,7.932,2.687,17.803,12.232,20.668
					c0.198,0.061,0.312,0.27,0.252,0.469C89.493,272.781,89.344,272.887,89.182,272.887z"/>
			</g>
		</g>
		<g>
			<path style="fill:#FFFFFF;" d="M77.945,221.141c-1.047,1.761-2.56,2.531-3.854,2.531c-6.252,0-2.312-15.666-15.988-15.666
				c-3.673,0-7.269,4.275-9.344,7.72c1.304-5.938,3.407-11.258,6.462-15.559c0.561-0.78,1.532-1.161,2.455-0.895
				c4.111,1.19,9.269,3.987,13.57,7.47c0.209,0.171,0.35,0.41,0.533,0.619C72.772,208.493,75.394,212.985,77.945,221.141z"/>
		</g>
		<g>
			<g>
				<path style="fill:#417ABD;" d="M48.521,319.844c-0.108,0-0.217-0.047-0.291-0.139c-0.131-0.16-0.107-0.397,0.054-0.528
					c1.436-1.172,2.292-3.192,2.292-5.405c0-1.604-0.364-3.416-1.112-5.53c-1.647,0.22-2.94,0.305-4.23,0.248
					c-0.207-0.008-0.368-0.184-0.359-0.391c0.008-0.207,0.167-0.403,0.391-0.359c1.324,0.053,2.652-0.039,4.397-0.284
					c0.173-0.03,0.345,0.076,0.405,0.243c0.849,2.321,1.261,4.308,1.261,6.073c0,2.436-0.961,4.674-2.569,5.987
					C48.689,319.815,48.605,319.844,48.521,319.844z"/>
			</g>
		</g>
		<g>
			<g>
				<g>
					<path style="fill:#1B1447;" d="M87.535,159.69c-6.543-6.111-17.254-0.582-23.025-1.058c-12.072-0.997-17.248,20.9-3.037,30.141
						l8.95-16.047c2.476,1.522,5.375,2.519,8.312,2.772c1.848,0.159,3.704,0.021,5.471-0.447c0.012-0.003,0.024-0.006,0.036-0.01
						c2.339-0.625,4.207-2.236,5.143-4.295C90.671,167.915,91.588,163.475,87.535,159.69z"/>
				</g>
				<g>
					<path style="fill:#F79894;" d="M66.534,168.31c-0.351,2.742-4.043,10.059-6.392,10.385l-0.936-2.516
						c-0.565-0.852-1.311-1.557-2.337-1.645c-0.043-0.004-0.087-0.006-0.131-0.008c-2.315-0.079-3.306,2.011-3.485,4.097
						c-0.278,3.223,1.004,6.282,5.028,6.648c1.326,5.748,7.244,13.25,13.614,13.798c12.906,1.112,11.592-24.738,11.598-24.803
						c-2.161,0.072-1.699,0.233-3.812,0.051C74.737,173.892,69.861,171.655,66.534,168.31z"/>
				</g>
				<g>
					<path style="fill:#F79894;" d="M81.798,178.826c-1.035,2.157-0.498,5.778-0.701,8.134c-0.082,0.952-0.089,1.91-0.014,2.865
						c0.549,0.111,1.136,0.215,1.718,0.265c2.314,0.199,3.531-0.774,3.585-1.402C86.386,188.688,82.399,182.467,81.798,178.826z"/>
				</g>
			</g>
			<g>
				<g>
					<g>
						<path style="fill:#040000;" d="M54.852,180.458c-0.092,0-0.179-0.035-0.244-0.113c-0.12-0.142-0.185-0.308-0.198-0.509
							c-0.003-0.051-0.004-0.102-0.004-0.153l-0.002-0.102c-0.031-0.44,0.045-0.926,0.203-1.298
							c0.236-0.558,0.658-0.885,1.187-0.922c0.846-0.045,1.259,0.536,1.596,1.015l0.123,0.174c0.122,0.168,0.085,0.403-0.083,0.525
							c-0.166,0.122-0.402,0.085-0.524-0.083l-0.131-0.183c-0.336-0.478-0.551-0.726-0.928-0.697
							c-0.089,0.006-0.36,0.025-0.548,0.465c-0.134,0.316-0.162,0.699-0.145,0.953c0.003,0.052,0.004,0.103,0.004,0.154l0.002,0.102
							c0.134,0.159,0.124,0.434-0.034,0.568C55.045,180.419,54.946,180.458,54.852,180.458z"/>
					</g>
				</g>
				<g>
					<g>
						<path style="fill:#040000;" d="M56.567,182.836c-0.068,0-0.138-0.019-0.199-0.058c-0.176-0.11-0.229-0.342-0.119-0.518
							c0.139-0.223,0.198-0.45,0.181-0.693c-0.031-0.445-0.315-0.955-0.845-1.516c-0.143-0.151-0.136-0.389,0.016-0.531
							c0.15-0.141,0.388-0.136,0.531,0.016c0.66,0.7,1.003,1.347,1.048,1.979c0.028,0.402-0.07,0.788-0.294,1.145
							C56.814,182.774,56.692,182.836,56.567,182.836z"/>
					</g>
				</g>
			</g>
			<g>
				<path style="fill:#1B1447;" d="M77.28,176.506c0.393-0.853,1.258-1.309,2.188-1.374c1.543-0.108,2.716,0.661,3.166,2.229
					c-1.092-0.826-2.522-1.285-3.895-1.189C78.238,176.207,77.746,176.315,77.28,176.506z"/>
			</g>
			<g>
				<path style="fill:#1B1447;" d="M79.272,191.593c-0.497,0.725-0.95,1.489-1.22,2.314c-1.509-0.593-2.85-1.773-3.354-3.305
					C76.176,191.14,77.714,191.602,79.272,191.593z"/>
			</g>
			<g>
				
					<ellipse transform="matrix(0.1064 -0.9943 0.9943 0.1064 -107.2647 240.1003)" style="fill:#1B1447;" cx="79.943" cy="179.725" rx="1.069" ry="0.767"/>
			</g>
		</g>
		<g>
			<path style="fill:#FFFFFF;" d="M74.864,243.266c-1.783-7.198-3.464-14.979-6.037-21.366c-4.385-12.235-20.799-9.243-16.739,6.806
				c1.279,4.494,3.451,11.045,5.713,17.553C63.699,246.648,69.518,245.57,74.864,243.266z"/>
		</g>
		<g>
			<g>
				
					<rect x="92.118" y="218.844" transform="matrix(0.7644 -0.6447 0.6447 0.7644 -120.1812 128.3822)" style="fill:#CC3B3B;" width="46.946" height="19.613"/>
			</g>
			<g>
				
					<rect x="90.862" y="217.335" transform="matrix(0.7644 -0.6447 0.6447 0.7644 -119.5041 127.2164)" style="fill:#FF4040;" width="46.946" height="19.613"/>
			</g>
			<g>
				
					<rect x="93.634" y="218.493" transform="matrix(0.7644 -0.6447 0.6447 0.7644 -119.5041 127.2164)" style="fill:#FFFFFF;" width="41.401" height="17.296"/>
			</g>
			<g>
				
					<rect x="90.862" y="217.335" transform="matrix(0.7644 -0.6447 0.6447 0.7644 -119.5041 127.2164)" style="fill:#FF4040;" width="46.946" height="19.613"/>
			</g>
			<g>
				
					<rect x="93.913" y="218.61" transform="matrix(0.7644 -0.6447 0.6447 0.7644 -119.5041 127.2164)" style="fill:#FFFFFF;" width="40.843" height="17.063"/>
			</g>
			<g>
				
					<rect x="93.913" y="218.61" transform="matrix(0.7644 -0.6447 0.6447 0.7644 -119.5041 127.2164)" style="fill:#FFFFFF;" width="40.843" height="17.063"/>
			</g>
			<g>
				<polygon style="fill:#CC3B3B;" points="126.435,211.673 131.235,216.894 134.353,214.468 129.928,209.22 				"/>
			</g>
			<g>
				<g>
					<g>
						<path style="fill:#1B1447;" d="M129.193,222.687c-0.071,0-0.142-0.03-0.191-0.089l-6.399-7.588
							c-0.089-0.105-0.075-0.263,0.03-0.352c0.105-0.089,0.264-0.076,0.353,0.03l6.399,7.588c0.089,0.105,0.075,0.263-0.03,0.352
							C129.308,222.667,129.25,222.687,129.193,222.687z"/>
					</g>
				</g>
				<g>
					<g>
						<path style="fill:#1B1447;" d="M120.806,215.421c-0.074,0-0.148-0.034-0.198-0.097l-1.632-2.114
							c-0.04-0.053-0.059-0.12-0.05-0.186s0.043-0.125,0.097-0.166l2.381-1.819c0.101-0.076,0.243-0.066,0.332,0.026l1.873,1.966
							c0.05,0.052,0.074,0.122,0.068,0.193c-0.006,0.071-0.042,0.137-0.099,0.18l-2.622,1.967
							C120.911,215.405,120.858,215.421,120.806,215.421z M119.525,213.103l1.327,1.72l2.2-1.65l-1.524-1.6L119.525,213.103z"/>
					</g>
				</g>
			</g>
			<g>
				<g>
					<g>
						<path style="fill:#1B1447;" d="M124.553,226.674c-0.071,0-0.142-0.03-0.191-0.089l-6.363-7.545
							c-0.089-0.105-0.075-0.263,0.03-0.352c0.104-0.089,0.263-0.076,0.353,0.03l6.363,7.545c0.089,0.105,0.075,0.263-0.03,0.352
							C124.667,226.654,124.609,226.674,124.553,226.674z"/>
					</g>
				</g>
				<g>
					<g>
						<path style="fill:#1B1447;" d="M116.201,219.451c-0.074,0-0.148-0.034-0.198-0.097l-1.632-2.113
							c-0.04-0.053-0.059-0.119-0.05-0.186c0.009-0.066,0.043-0.125,0.097-0.166l2.381-1.82c0.101-0.077,0.244-0.066,0.332,0.026
							l1.873,1.967c0.05,0.052,0.074,0.122,0.068,0.193c-0.006,0.071-0.042,0.136-0.099,0.179l-2.622,1.966
							C116.307,219.435,116.254,219.451,116.201,219.451z M114.921,217.133l1.327,1.719l2.2-1.649l-1.524-1.601L114.921,217.133z"/>
					</g>
				</g>
			</g>
			<g>
				<g>
					<g>
						<path style="fill:#1B1447;" d="M119.752,230.669c-0.071,0-0.142-0.03-0.191-0.089l-6.168-7.313
							c-0.089-0.105-0.075-0.263,0.03-0.352c0.104-0.09,0.263-0.075,0.353,0.03l6.168,7.313c0.089,0.105,0.075,0.263-0.03,0.352
							C119.866,230.649,119.809,230.669,119.752,230.669z"/>
					</g>
				</g>
				<g>
					<g>
						<path style="fill:#1B1447;" d="M111.597,223.679c-0.074,0-0.148-0.034-0.198-0.097l-1.633-2.114
							c-0.04-0.053-0.059-0.119-0.05-0.186c0.009-0.066,0.043-0.125,0.097-0.166l2.382-1.82c0.101-0.076,0.244-0.066,0.332,0.026
							l1.873,1.967c0.05,0.052,0.074,0.122,0.068,0.193c-0.006,0.071-0.042,0.136-0.099,0.179l-2.622,1.967
							C111.702,223.663,111.649,223.679,111.597,223.679z M110.315,221.361l1.328,1.72l2.2-1.65l-1.524-1.601L110.315,221.361z"/>
					</g>
				</g>
			</g>
			<g>
				<g>
					<g>
						<path style="fill:#1B1447;" d="M114.335,235.022c-0.071,0-0.142-0.03-0.191-0.089l-6.045-7.167
							c-0.089-0.105-0.075-0.263,0.03-0.352c0.105-0.09,0.262-0.075,0.353,0.03l6.045,7.167c0.089,0.105,0.075,0.263-0.03,0.352
							C114.449,235.002,114.392,235.022,114.335,235.022z"/>
					</g>
				</g>
				<g>
					<g>
						<path style="fill:#1B1447;" d="M106.302,228.177c-0.074,0-0.148-0.034-0.198-0.097l-1.632-2.114
							c-0.04-0.053-0.059-0.12-0.05-0.186c0.009-0.066,0.043-0.125,0.097-0.166l2.382-1.819c0.101-0.077,0.244-0.066,0.332,0.026
							l1.872,1.967c0.05,0.052,0.074,0.122,0.068,0.193c-0.006,0.071-0.042,0.136-0.099,0.179l-2.622,1.966
							C106.407,228.161,106.354,228.177,106.302,228.177z M105.021,225.859l1.327,1.72l2.2-1.649l-1.523-1.601L105.021,225.859z"/>
					</g>
				</g>
			</g>
		</g>
		<g>
			<path style="fill:#F79894;" d="M122.337,238.363c0-2.452-0.576-4.724-2.437-4.724c-0.04,0-0.081,0.001-0.123,0.003
				c-1.625,0.084-3.399,2.304-4.539,3.822c-0.206-1.086-0.677-1.518-1.305-1.518c-1.925,0-5.592,5.914-7.343,7.649
				c-9.007,2.413-24.955,4.57-29.921,6.44c-0.636-2.149-1.226-4.429-1.806-6.77c-5.345,2.304-11.165,3.382-17.063,2.992
				c2.046,5.886,4.165,11.738,5.764,16c0.75,1.998,2.847,3.138,4.934,2.687c13.707-2.963,28.073-8.12,41.235-12.572
				c0-0.002,0-0.004-0.001-0.006C117.81,251.732,122.337,245.888,122.337,238.363z"/>
		</g>
	</g>
	<g>
		<g>
			<g>
				<circle style="fill:#ADDEEF;" cx="19.802" cy="203.319" r="5.506"/>
			</g>
			<g>
				<circle style="fill:#ADDEEF;" cx="595.793" cy="379.481" r="5.506"/>
			</g>
			<g>
				<circle style="fill:#ADDEEF;" cx="129.443" cy="257.027" r="4.966"/>
			</g>
			<g>
				<polygon style="fill:#ADDEEF;" points="570.858,343.629 560.614,343.629 555.491,352.502 560.614,361.374 570.858,361.374 
					575.98,352.502 				"/>
			</g>
			<g>
				<polygon style="fill:#ADDEEF;" points="325.253,200.348 315.009,200.348 309.887,209.22 315.009,218.092 325.253,218.092 
					330.376,209.22 				"/>
			</g>
			<g>
				<rect x="371.643" y="206.713" style="fill:#ADDEEF;" width="9.434" height="9.434"/>
			</g>
			<g>
				<rect x="514.948" y="233.908" style="fill:#ADDEEF;" width="9.434" height="9.434"/>
			</g>
			<g>
				<g>
					<path style="fill:#ADDEEF;" d="M467.741,244.413v-3.285l-3.592-0.571c-0.151-0.505-0.35-0.988-0.596-1.443l2.135-2.942
						l-2.323-2.323l-2.942,2.135c-0.455-0.246-0.939-0.445-1.443-0.596l-0.571-3.592h-3.285l-0.571,3.592
						c-0.505,0.151-0.988,0.35-1.443,0.596l-2.942-2.135l-2.323,2.323l2.135,2.942c-0.246,0.455-0.445,0.939-0.596,1.443
						l-3.592,0.571v3.285l3.592,0.571c0.151,0.505,0.35,0.988,0.596,1.443l-2.135,2.942l2.323,2.323l2.942-2.135
						c0.455,0.246,0.939,0.445,1.443,0.596l0.571,3.592h3.285l0.571-3.592c0.505-0.151,0.988-0.35,1.443-0.596l2.942,2.135
						l2.323-2.323l-2.135-2.942c0.246-0.455,0.445-0.939,0.596-1.443L467.741,244.413z M460.456,242.771
						c0,2.038-1.652,3.689-3.689,3.689s-3.689-1.652-3.689-3.689s1.652-3.689,3.689-3.689S460.456,240.733,460.456,242.771z"/>
				</g>
			</g>
			<g>
				<rect x="379.195" y="233.908" style="fill:#ADDEEF;" width="9.434" height="9.434"/>
			</g>
			<g>
				<g>
					<path style="fill:#ADDEEF;" d="M189.51,216.28v-3.285l-3.592-0.571c-0.151-0.504-0.35-0.988-0.596-1.443l2.135-2.942
						l-2.323-2.323l-2.942,2.135c-0.455-0.246-0.939-0.445-1.443-0.596l-0.571-3.592h-3.285l-0.571,3.592
						c-0.505,0.151-0.988,0.35-1.443,0.596l-2.942-2.135l-2.323,2.323l2.135,2.942c-0.246,0.455-0.445,0.939-0.596,1.443
						l-3.592,0.571v3.285l3.592,0.571c0.151,0.504,0.35,0.988,0.596,1.443l-2.135,2.942l2.323,2.323l2.942-2.135
						c0.455,0.246,0.939,0.445,1.443,0.596l0.571,3.592h3.285l0.571-3.592c0.505-0.151,0.988-0.35,1.443-0.596l2.942,2.135
						l2.323-2.323l-2.135-2.942c0.246-0.455,0.445-0.939,0.596-1.443L189.51,216.28z M182.226,214.638
						c0,2.038-1.652,3.689-3.689,3.689c-2.038,0-3.689-1.652-3.689-3.689s1.652-3.689,3.689-3.689
						C180.574,210.948,182.226,212.6,182.226,214.638z"/>
				</g>
			</g>
		</g>
		<g>
			<g>
				<circle style="fill:#BFE7F5;" cx="604.662" cy="43.165" r="5.506"/>
			</g>
			<g>
				<circle style="fill:#BFE7F5;" cx="170.601" cy="35.697" r="5.506"/>
			</g>
			<g>
				<circle style="fill:#BFE7F5;" cx="706.416" cy="145.508" r="5.506"/>
			</g>
			<g>
				<circle style="fill:#BFE7F5;" cx="288.506" cy="28.558" r="7.139"/>
			</g>
			<g>
				<polygon style="fill:#BFE7F5;" points="545.565,19.686 535.32,19.686 530.198,28.558 535.32,37.43 545.565,37.43 
					550.687,28.558 				"/>
			</g>
			<g>
				<polygon style="fill:#BFE7F5;" points="120.002,33.664 120.002,25.501 112.932,21.419 105.863,25.501 105.863,33.664 
					112.932,37.746 				"/>
			</g>
			<g>
				<polygon style="fill:#BFE7F5;" points="17.953,92.087 17.953,100.58 25.308,104.826 32.663,100.58 32.663,92.087 25.308,87.84 
									"/>
			</g>
			<g>
				<rect x="704.028" y="43.954" style="fill:#BFE7F5;" width="9.434" height="9.434"/>
			</g>
			<g>
				<rect x="707.205" y="215.113" style="fill:#BFE7F5;" width="9.434" height="9.434"/>
			</g>
			<g>
				<g>
					<path style="fill:#BFE7F5;" d="M59.092,31.664v-3.285L55.5,27.808c-0.151-0.504-0.35-0.988-0.596-1.443l2.135-2.942
						L54.716,21.1l-2.942,2.135c-0.455-0.246-0.939-0.445-1.443-0.596l-0.571-3.592h-3.285l-0.571,3.592
						c-0.505,0.151-0.988,0.35-1.443,0.596L41.519,21.1l-2.323,2.323l2.135,2.942c-0.246,0.455-0.445,0.939-0.596,1.443
						l-3.592,0.571v3.285l3.592,0.571c0.151,0.505,0.35,0.988,0.596,1.443l-2.135,2.942l2.323,2.323l2.942-2.135
						c0.455,0.246,0.939,0.445,1.443,0.596l0.571,3.592h3.285l0.571-3.592c0.505-0.151,0.988-0.35,1.443-0.596l2.942,2.135
						l2.323-2.323l-2.135-2.942c0.246-0.455,0.445-0.939,0.596-1.443L59.092,31.664z M51.807,30.022
						c0,2.038-1.652,3.689-3.689,3.689s-3.689-1.652-3.689-3.689s1.652-3.689,3.689-3.689S51.807,27.984,51.807,30.022z"/>
				</g>
			</g>
			<g>
				<g>
					<path style="fill:#BFE7F5;" d="M374.763,27.975V24.69l-3.592-0.571c-0.151-0.504-0.35-0.988-0.596-1.443l2.135-2.942
						l-2.323-2.323l-2.942,2.135c-0.455-0.246-0.939-0.445-1.443-0.596l-0.571-3.592h-3.285l-0.571,3.592
						c-0.504,0.151-0.988,0.35-1.443,0.596l-2.942-2.135l-2.323,2.323l2.135,2.942c-0.246,0.455-0.445,0.939-0.596,1.443
						l-3.592,0.571v3.285l3.592,0.571c0.151,0.504,0.35,0.988,0.596,1.443l-2.135,2.942l2.323,2.323l2.942-2.135
						c0.455,0.246,0.939,0.445,1.444,0.596l0.571,3.592h3.285l0.571-3.592c0.504-0.151,0.988-0.35,1.443-0.596l2.942,2.135
						l2.323-2.323l-2.135-2.942c0.246-0.455,0.445-0.939,0.596-1.443L374.763,27.975z M367.478,26.332
						c0,2.038-1.652,3.689-3.689,3.689c-2.038,0-3.689-1.652-3.689-3.689s1.652-3.689,3.689-3.689
						C365.826,22.643,367.478,24.295,367.478,26.332z"/>
				</g>
			</g>
			<g>
				<g>
					<path style="fill:#BFE7F5;" d="M683.101,79.246v-3.285l-3.592-0.571c-0.151-0.505-0.35-0.988-0.596-1.443l2.135-2.942
						l-2.323-2.323l-2.942,2.135c-0.455-0.246-0.939-0.445-1.443-0.596l-0.571-3.592h-3.285l-0.571,3.592
						c-0.505,0.151-0.988,0.35-1.443,0.596l-2.942-2.135l-2.323,2.323l2.135,2.942c-0.246,0.455-0.445,0.939-0.596,1.443
						l-3.592,0.571v3.285l3.592,0.571c0.151,0.505,0.35,0.988,0.596,1.443l-2.135,2.942l2.323,2.323l2.942-2.135
						c0.455,0.246,0.939,0.445,1.444,0.596l0.571,3.592h3.285l0.571-3.592c0.505-0.151,0.988-0.35,1.443-0.596l2.942,2.135
						l2.323-2.323l-2.135-2.942c0.246-0.455,0.445-0.939,0.596-1.443L683.101,79.246z M675.817,77.604
						c0,2.038-1.652,3.689-3.689,3.689c-2.037,0-3.689-1.652-3.689-3.689c0-2.038,1.652-3.689,3.689-3.689
						C674.165,73.914,675.817,75.566,675.817,77.604z"/>
				</g>
			</g>
			<g>
				<g>
					<path style="fill:#BFE7F5;" d="M474.015,45.419v-4.508l-4.929-0.783c-0.207-0.692-0.48-1.356-0.817-1.981l2.93-4.036
						l-3.187-3.188l-4.036,2.93c-0.625-0.337-1.288-0.61-1.981-0.817l-0.783-4.929h-4.508l-0.783,4.929
						c-0.692,0.207-1.356,0.48-1.981,0.817l-4.036-2.93l-3.188,3.188l2.93,4.036c-0.337,0.625-0.61,1.288-0.817,1.981l-4.929,0.783
						v4.508l4.929,0.783c0.207,0.692,0.48,1.356,0.817,1.981l-2.93,4.036l3.188,3.188l4.036-2.93
						c0.625,0.337,1.288,0.61,1.981,0.817l0.783,4.929h4.508l0.783-4.929c0.692-0.207,1.356-0.48,1.981-0.817l4.036,2.93
						l3.187-3.188l-2.93-4.036c0.337-0.625,0.61-1.288,0.817-1.981L474.015,45.419z M464.018,43.165
						c0,2.796-2.267,5.062-5.062,5.062s-5.062-2.267-5.062-5.062s2.266-5.062,5.062-5.062S464.018,40.369,464.018,43.165z"/>
				</g>
			</g>
		</g>
	</g>
</g>
</svg>
