<?xml version="1.0" encoding="utf-8"?>
<!-- Generator: Adobe Illustrator 27.5.0, SVG Export Plug-In . SVG Version: 6.00 Build 0)  -->
<svg version="1.1" xmlns="http://www.w3.org/2000/svg" xmlns:xlink="http://www.w3.org/1999/xlink" x="0px" y="0px"
	 viewBox="125 -500 750 500" style="enable-background:new 125 -500 750 500;" xml:space="preserve">
<g id="BACKGROUND">
	<rect x="125" y="-500" style="fill:#DFF5F7;" width="750" height="500"/>
</g>
<g id="OBJECTS">
	<g>
		<defs>
			<rect id="SVGID_1_" x="125" y="-500" width="750" height="500"/>
		</defs>
		<clipPath id="SVGID_00000168811786713060372380000011745547905654318473_">
			<use xlink:href="#SVGID_1_"  style="overflow:visible;"/>
		</clipPath>
		<g style="clip-path:url(#SVGID_00000168811786713060372380000011745547905654318473_);">
			<g>
				<g>
					<g>
						<path style="fill:#FFFFFF;" d="M186.01-469.26c-1.28,0-2.51,0.1-3.66,0.3c-1.88-3.7-7.34-11.45-13.86-6.38
							c-0.37,0.29-0.89,0.01-1.32,0.04c0-0.01,0-0.03,0-0.04c0-5.34-4.47-9.66-9.98-9.66c-4.85,0-8.88,3.34-9.79,7.77
							c-1.39-0.33-2.86-0.51-4.4-0.51c-0.87,0-1.71,0.06-2.54,0.17c-0.95-4.19-4.51-7.3-8.77-7.3c-4.77,0-8.67,3.91-9,8.85
							c-0.97-0.2-1.98-0.31-3.03-0.31c-6.51,0-11.81,4.16-12.02,9.34c-0.69-0.14-1.42-0.22-2.17-0.22
							c-9.02-0.44-9.62,9.93-9.62,9.93s13.66,0.28,23.8,0.28c4.77,0,17.93,0,23.33,0c5.29,0,19.69,0,25.5,0c3.35,0,14.12,0,17.52,0
							c6.58,0,13.83-0.23,13.83-0.23S200.22-469.14,186.01-469.26z"/>
					</g>
					<g>
						<path style="fill:#FFFFFF;" d="M582.9-481.08c-2.21,0-4.34,0.21-6.34,0.58c-3.25-7.26-12.7-22.5-23.99-12.53
							c-0.63,0.56-1.54,0.03-2.29,0.08c0-0.03,0-0.05,0-0.08c0-10.47-7.74-18.97-17.28-18.97c-8.39,0-15.38,6.56-16.95,15.27
							c-2.4-0.65-4.96-1-7.62-1c-1.5,0-2.96,0.12-4.39,0.33c-1.64-8.22-7.81-14.33-15.18-14.33c-8.25,0-15,7.68-15.57,17.39
							c-1.68-0.4-3.43-0.61-5.25-0.61c-11.27,0-20.44,8.16-20.8,18.36c-1.19-0.28-2.45-0.43-3.76-0.43
							c-15.62-0.86-16.65,19.5-16.65,19.5s23.68,0.52,41.22,0.52c8.25,0,31.03,0,40.38,0c9.15,0,34.07,0,44.13,0
							c5.8,0,24.44,0,30.33,0c11.38,0,23.94-0.44,23.94-0.44S607.49-480.84,582.9-481.08z"/>
					</g>
					<path style="fill:#FFFFFF;" d="M233.74-380.42c-2.96-5.17-2.46-12.72,1.15-17.29c3.6-4.56,9.95-5.67,14.52-2.53
						c-2.68-11.52,3.4-24.89,13-28.6c9.61-3.72,21.2,2.82,24.8,13.98c5.27-6.26,14.99-6.04,20.06,0.44
						c0.91-13.68,12.03-25.27,23.64-24.63c11.61,0.64,21.76,13.4,21.59,27.13c5.69-4.64,14.63-1.95,17.75,5.34
						c6.48-5.82,16.15-6.06,22.84-0.58s9.87,16.27,6.16,27.08C343.02-381.04,286.8-382,233.74-380.42z"/>
					<path style="fill:#FFFFFF;" d="M683.62-345.25c-1.94-2.63-1.61-6.47,0.75-8.79c2.37-2.32,6.54-2.88,9.54-1.29
						c-1.76-5.86,2.23-12.66,8.54-14.54c6.31-1.89,13.93,1.43,16.29,7.11c3.46-3.18,9.85-3.07,13.18,0.22
						c0.6-6.96,7.9-12.85,15.52-12.52c7.62,0.33,14.29,6.81,14.18,13.79c3.74-2.36,9.61-0.99,11.66,2.72
						c4.26-2.96,10.61-3.08,15-0.29c4.39,2.79,6.48,8.27,4.04,13.77C755.39-345.57,718.47-346.05,683.62-345.25z"/>
					<path style="fill:#FFFFFF;" d="M792.48-454.67c-1.94-2.63-1.61-6.47,0.75-8.79c2.37-2.32,6.54-2.88,9.54-1.29
						c-1.76-5.86,2.23-12.66,8.54-14.54c6.31-1.89,13.93,1.43,16.29,7.11c3.46-3.18,9.85-3.07,13.18,0.22
						c0.6-6.96,7.9-12.85,15.52-12.52c7.62,0.33,14.29,6.81,14.18,13.79c3.74-2.36,9.61-0.99,11.66,2.72
						c4.26-2.96,10.61-3.08,15-0.29c4.39,2.79,6.48,8.27,4.04,13.77C864.26-454.99,827.33-455.48,792.48-454.67z"/>
				</g>
				<g>
					<g>
						<g>
							<g>
								<rect x="183.61" y="-308.4" style="fill:#ABE6F6;" width="258" height="221.12"/>
								<g>
									<rect x="183.61" y="-404.08" style="fill:#ABE6F6;" width="5.81" height="102.66"/>
									<rect x="335.85" y="-404.08" style="fill:#ABE6F6;" width="5.81" height="102.66"/>
									<rect x="435.8" y="-404.08" style="fill:#ABE6F6;" width="5.81" height="102.66"/>
								</g>
							</g>
							<g>
								<g>
									<rect x="198.82" y="-296.55" style="fill:#8AC8E3;" width="125.51" height="6.32"/>
									<rect x="198.82" y="-273.54" style="fill:#8AC8E3;" width="125.51" height="6.32"/>
									<rect x="198.82" y="-250.52" style="fill:#8AC8E3;" width="125.51" height="6.32"/>
									<rect x="198.82" y="-227.51" style="fill:#8AC8E3;" width="125.51" height="6.32"/>
									<rect x="198.82" y="-204.49" style="fill:#8AC8E3;" width="125.51" height="6.32"/>
									<rect x="198.82" y="-181.48" style="fill:#8AC8E3;" width="125.51" height="6.32"/>
									<rect x="198.82" y="-158.46" style="fill:#8AC8E3;" width="125.51" height="6.32"/>
									<rect x="198.82" y="-135.44" style="fill:#8AC8E3;" width="125.51" height="6.32"/>
									<rect x="198.82" y="-112.43" style="fill:#8AC8E3;" width="125.51" height="6.32"/>
								</g>
								<g>
									<rect x="350.34" y="-296.55" style="fill:#8AC8E3;" width="77.86" height="6.32"/>
									<rect x="350.34" y="-273.54" style="fill:#8AC8E3;" width="77.86" height="6.32"/>
									<rect x="350.34" y="-250.52" style="fill:#8AC8E3;" width="77.86" height="6.32"/>
									<rect x="350.34" y="-227.51" style="fill:#8AC8E3;" width="77.86" height="6.32"/>
									<rect x="350.34" y="-204.49" style="fill:#8AC8E3;" width="77.86" height="6.32"/>
									<rect x="350.34" y="-181.48" style="fill:#8AC8E3;" width="77.86" height="6.32"/>
									<rect x="350.34" y="-158.46" style="fill:#8AC8E3;" width="77.86" height="6.32"/>
									<rect x="350.34" y="-135.44" style="fill:#8AC8E3;" width="77.86" height="6.32"/>
									<rect x="350.34" y="-112.43" style="fill:#8AC8E3;" width="77.86" height="6.32"/>
								</g>
							</g>
						</g>
						<g>
							<g>
								<rect x="827.14" y="-323.98" style="fill:#ABE6F6;" width="285.02" height="271.48"/>
								<g>
									<rect x="827.14" y="-441.44" style="fill:#ABE6F6;" width="6.42" height="126.04"/>
									<rect x="995.33" y="-441.44" style="fill:#ABE6F6;" width="6.42" height="126.04"/>
									<rect x="1105.75" y="-441.44" style="fill:#ABE6F6;" width="6.42" height="126.04"/>
								</g>
							</g>
							<g>
								<g>
									<rect x="843.95" y="-309.43" style="fill:#8AC8E3;" width="138.66" height="7.76"/>
									<rect x="843.95" y="-281.18" style="fill:#8AC8E3;" width="138.66" height="7.76"/>
									<rect x="843.95" y="-252.92" style="fill:#8AC8E3;" width="138.66" height="7.76"/>
									<rect x="843.95" y="-224.66" style="fill:#8AC8E3;" width="138.66" height="7.76"/>
									<rect x="843.95" y="-196.4" style="fill:#8AC8E3;" width="138.66" height="7.76"/>
									<rect x="843.95" y="-168.15" style="fill:#8AC8E3;" width="138.66" height="7.76"/>
									<rect x="843.95" y="-139.89" style="fill:#8AC8E3;" width="138.66" height="7.76"/>
									<rect x="843.95" y="-111.63" style="fill:#8AC8E3;" width="138.66" height="7.76"/>
									<rect x="843.95" y="-83.38" style="fill:#8AC8E3;" width="138.66" height="7.76"/>
								</g>
								<g>
									<rect x="1011.34" y="-309.43" style="fill:#8AC8E3;" width="86.02" height="7.76"/>
									<rect x="1011.34" y="-281.18" style="fill:#8AC8E3;" width="86.02" height="7.76"/>
									<rect x="1011.34" y="-252.92" style="fill:#8AC8E3;" width="86.02" height="7.76"/>
									<rect x="1011.34" y="-224.66" style="fill:#8AC8E3;" width="86.02" height="7.76"/>
									<rect x="1011.34" y="-196.4" style="fill:#8AC8E3;" width="86.02" height="7.76"/>
									<rect x="1011.34" y="-168.15" style="fill:#8AC8E3;" width="86.02" height="7.76"/>
									<rect x="1011.34" y="-139.89" style="fill:#8AC8E3;" width="86.02" height="7.76"/>
									<rect x="1011.34" y="-111.63" style="fill:#8AC8E3;" width="86.02" height="7.76"/>
									<rect x="1011.34" y="-83.38" style="fill:#8AC8E3;" width="86.02" height="7.76"/>
								</g>
							</g>
						</g>
						<g>
							<g>
								<rect x="616.66" y="-262.61" style="fill:#ABE6F6;" width="131.82" height="190.42"/>
								<rect x="616.66" y="-323.85" style="fill:#ABE6F6;" width="8.24" height="66.3"/>
								<rect x="682.57" y="-323.85" style="fill:#ABE6F6;" width="8.24" height="66.3"/>
								<rect x="740.24" y="-323.85" style="fill:#ABE6F6;" width="8.24" height="66.3"/>
							</g>
							<g>
								<g>
									<rect x="627.4" y="-252.69" style="fill:#8AC8E3;" width="50.12" height="3.89"/>
									<rect x="627.4" y="-238.53" style="fill:#8AC8E3;" width="50.12" height="3.89"/>
									<rect x="627.4" y="-224.37" style="fill:#8AC8E3;" width="50.12" height="3.89"/>
									<rect x="627.4" y="-210.21" style="fill:#8AC8E3;" width="50.12" height="3.89"/>
									<rect x="627.4" y="-196.05" style="fill:#8AC8E3;" width="50.12" height="3.89"/>
									<rect x="627.4" y="-181.89" style="fill:#8AC8E3;" width="50.12" height="3.89"/>
									<rect x="627.4" y="-167.73" style="fill:#8AC8E3;" width="50.12" height="3.89"/>
									<rect x="627.4" y="-153.57" style="fill:#8AC8E3;" width="50.12" height="3.89"/>
									<rect x="627.4" y="-139.41" style="fill:#8AC8E3;" width="50.12" height="3.89"/>
									<rect x="627.4" y="-125.25" style="fill:#8AC8E3;" width="50.12" height="3.89"/>
									<rect x="627.4" y="-111.09" style="fill:#8AC8E3;" width="50.12" height="3.89"/>
								</g>
								<g>
									<rect x="693.55" y="-252.69" style="fill:#8AC8E3;" width="44.63" height="3.89"/>
									<rect x="693.55" y="-238.53" style="fill:#8AC8E3;" width="44.63" height="3.89"/>
									<rect x="693.55" y="-224.37" style="fill:#8AC8E3;" width="44.63" height="3.89"/>
									<rect x="693.55" y="-210.21" style="fill:#8AC8E3;" width="44.63" height="3.89"/>
									<rect x="693.55" y="-196.05" style="fill:#8AC8E3;" width="44.63" height="3.89"/>
									<rect x="693.55" y="-181.89" style="fill:#8AC8E3;" width="44.63" height="3.89"/>
									<rect x="693.55" y="-167.73" style="fill:#8AC8E3;" width="44.63" height="3.89"/>
									<rect x="693.55" y="-153.57" style="fill:#8AC8E3;" width="44.63" height="3.89"/>
									<rect x="693.55" y="-139.41" style="fill:#8AC8E3;" width="44.63" height="3.89"/>
									<rect x="693.55" y="-125.25" style="fill:#8AC8E3;" width="44.63" height="3.89"/>
									<rect x="693.55" y="-111.09" style="fill:#8AC8E3;" width="44.63" height="3.89"/>
								</g>
							</g>
						</g>
						<g>
							<g>
								<rect x="18.85" y="-288.28" style="fill:#ABE6F6;" width="140.14" height="201.96"/>
								<rect x="18.85" y="-353.24" style="fill:#ABE6F6;" width="8.76" height="70.32"/>
								<rect x="88.92" y="-353.24" style="fill:#ABE6F6;" width="8.76" height="70.32"/>
								<rect x="150.23" y="-353.24" style="fill:#ABE6F6;" width="8.76" height="70.32"/>
							</g>
							<g>
								<g>
									<rect x="30.27" y="-277.76" style="fill:#8AC8E3;" width="53.28" height="4.12"/>
									<rect x="30.27" y="-262.75" style="fill:#8AC8E3;" width="53.28" height="4.12"/>
									<rect x="30.27" y="-247.73" style="fill:#8AC8E3;" width="53.28" height="4.12"/>
									<rect x="30.27" y="-232.71" style="fill:#8AC8E3;" width="53.28" height="4.12"/>
									<rect x="30.27" y="-217.69" style="fill:#8AC8E3;" width="53.28" height="4.12"/>
									<rect x="30.27" y="-202.67" style="fill:#8AC8E3;" width="53.28" height="4.12"/>
									<rect x="30.27" y="-187.66" style="fill:#8AC8E3;" width="53.28" height="4.12"/>
									<rect x="30.27" y="-172.64" style="fill:#8AC8E3;" width="53.28" height="4.12"/>
									<rect x="30.27" y="-157.62" style="fill:#8AC8E3;" width="53.28" height="4.12"/>
									<rect x="30.27" y="-142.6" style="fill:#8AC8E3;" width="53.28" height="4.12"/>
									<rect x="30.27" y="-127.58" style="fill:#8AC8E3;" width="53.28" height="4.12"/>
								</g>
								<g>
									<rect x="100.6" y="-277.76" style="fill:#8AC8E3;" width="47.44" height="4.12"/>
									<rect x="100.6" y="-262.75" style="fill:#8AC8E3;" width="47.44" height="4.12"/>
									<rect x="100.6" y="-247.73" style="fill:#8AC8E3;" width="47.44" height="4.12"/>
									<rect x="100.6" y="-232.71" style="fill:#8AC8E3;" width="47.44" height="4.12"/>
									<rect x="100.6" y="-217.69" style="fill:#8AC8E3;" width="47.44" height="4.12"/>
									<rect x="100.6" y="-202.67" style="fill:#8AC8E3;" width="47.44" height="4.12"/>
									<rect x="100.6" y="-187.66" style="fill:#8AC8E3;" width="47.44" height="4.12"/>
									<rect x="100.6" y="-172.64" style="fill:#8AC8E3;" width="47.44" height="4.12"/>
									<rect x="100.6" y="-157.62" style="fill:#8AC8E3;" width="47.44" height="4.12"/>
									<rect x="100.6" y="-142.6" style="fill:#8AC8E3;" width="47.44" height="4.12"/>
									<rect x="100.6" y="-127.58" style="fill:#8AC8E3;" width="47.44" height="4.12"/>
								</g>
							</g>
						</g>
					</g>
					<g>
						<g>
							<g>
								<g>
									<polygon style="fill:none;stroke:#87C2DE;stroke-width:3;stroke-miterlimit:10;" points="524,-409.51 555.12,-450.18 
										799.63,-450.18 799.63,-409.51 									"/>
									<g>
										
											<line style="fill:none;stroke:#87C2DE;stroke-width:2;stroke-miterlimit:10;" x1="556.32" y1="-449.31" x2="585.66" y2="-409.91"/>
										
											<line style="fill:none;stroke:#87C2DE;stroke-width:2;stroke-miterlimit:10;" x1="585.66" y1="-450.18" x2="556.32" y2="-409.91"/>
									</g>
									
										<line style="fill:none;stroke:#87C2DE;stroke-width:2;stroke-miterlimit:10;" x1="539.66" y1="-430.04" x2="555.5" y2="-409.9"/>
									<g>
										
											<line style="fill:none;stroke:#87C2DE;stroke-width:2;stroke-miterlimit:10;" x1="586.89" y1="-449.31" x2="616.23" y2="-409.9"/>
										
											<line style="fill:none;stroke:#87C2DE;stroke-width:2;stroke-miterlimit:10;" x1="616.23" y1="-450.17" x2="586.89" y2="-409.9"/>
									</g>
									<g>
										
											<line style="fill:none;stroke:#87C2DE;stroke-width:2;stroke-miterlimit:10;" x1="617.45" y1="-449.11" x2="646.8" y2="-409.71"/>
										
											<line style="fill:none;stroke:#87C2DE;stroke-width:2;stroke-miterlimit:10;" x1="646.8" y1="-449.98" x2="617.45" y2="-409.71"/>
									</g>
									<g>
										
											<line style="fill:none;stroke:#87C2DE;stroke-width:2;stroke-miterlimit:10;" x1="648.02" y1="-449.11" x2="677.36" y2="-409.7"/>
										
											<line style="fill:none;stroke:#87C2DE;stroke-width:2;stroke-miterlimit:10;" x1="677.36" y1="-449.97" x2="648.02" y2="-409.7"/>
									</g>
									<g>
										
											<line style="fill:none;stroke:#87C2DE;stroke-width:2;stroke-miterlimit:10;" x1="678.58" y1="-449.2" x2="707.93" y2="-409.8"/>
										
											<line style="fill:none;stroke:#87C2DE;stroke-width:2;stroke-miterlimit:10;" x1="707.93" y1="-450.07" x2="678.58" y2="-409.8"/>
									</g>
									<g>
										
											<line style="fill:none;stroke:#87C2DE;stroke-width:2;stroke-miterlimit:10;" x1="709.15" y1="-449.2" x2="738.49" y2="-409.8"/>
										
											<line style="fill:none;stroke:#87C2DE;stroke-width:2;stroke-miterlimit:10;" x1="738.49" y1="-450.07" x2="709.15" y2="-409.8"/>
									</g>
									<g>
										
											<line style="fill:none;stroke:#87C2DE;stroke-width:2;stroke-miterlimit:10;" x1="739.72" y1="-449.01" x2="769.06" y2="-409.6"/>
										
											<line style="fill:none;stroke:#87C2DE;stroke-width:2;stroke-miterlimit:10;" x1="769.06" y1="-449.87" x2="739.72" y2="-409.6"/>
									</g>
									<g>
										
											<line style="fill:none;stroke:#87C2DE;stroke-width:2;stroke-miterlimit:10;" x1="770.28" y1="-449" x2="799.63" y2="-409.6"/>
										
											<line style="fill:none;stroke:#87C2DE;stroke-width:2;stroke-miterlimit:10;" x1="799.63" y1="-449.87" x2="770.28" y2="-409.6"/>
									</g>
								</g>
								<g>
									<g>
										<g>
											
												<line style="fill:none;stroke:#87C2DE;stroke-width:2;stroke-miterlimit:10;" x1="818.63" y1="-448.88" x2="837.63" y2="-430.36"/>
											
												<line style="fill:none;stroke:#87C2DE;stroke-width:2;stroke-miterlimit:10;" x1="837.63" y1="-431" x2="818.63" y2="-409.51"/>
										</g>
										<g>
											
												<line style="fill:none;stroke:#87C2DE;stroke-width:2;stroke-miterlimit:10;" x1="818.63" y1="-449.21" x2="799.63" y2="-429.74"/>
											
												<line style="fill:none;stroke:#87C2DE;stroke-width:2;stroke-miterlimit:10;" x1="799.63" y1="-429.74" x2="818.63" y2="-409.51"/>
										</g>
									</g>
									
										<rect x="799.63" y="-450.18" style="fill:none;stroke:#87C2DE;stroke-width:3;stroke-miterlimit:10;" width="38" height="40.67"/>
								</g>
							</g>
							<g>
								<g>
									<polygon style="fill:none;stroke:#87C2DE;stroke-width:3;stroke-miterlimit:10;" points="788.76,-87.96 762.63,-87.93 
										762.63,-409.51 788.76,-409.51 									"/>
									<g>
										<g>
											
												<line style="fill:none;stroke:#87C2DE;stroke-width:2;stroke-miterlimit:10;" x1="763.19" y1="-123.39" x2="788.5" y2="-157.9"/>
											
												<line style="fill:none;stroke:#87C2DE;stroke-width:2;stroke-miterlimit:10;" x1="762.63" y1="-157.9" x2="788.5" y2="-123.39"/>
										</g>
										<g>
											
												<line style="fill:none;stroke:#87C2DE;stroke-width:2;stroke-miterlimit:10;" x1="763.19" y1="-88.29" x2="788.5" y2="-122.8"/>
											
												<line style="fill:none;stroke:#87C2DE;stroke-width:2;stroke-miterlimit:10;" x1="762.63" y1="-122.8" x2="788.5" y2="-88.29"/>
										</g>
										<g>
											
												<line style="fill:none;stroke:#87C2DE;stroke-width:2;stroke-miterlimit:10;" x1="763.19" y1="-159.34" x2="788.5" y2="-193.84"/>
											
												<line style="fill:none;stroke:#87C2DE;stroke-width:2;stroke-miterlimit:10;" x1="762.63" y1="-193.84" x2="788.5" y2="-159.34"/>
										</g>
										<g>
											
												<line style="fill:none;stroke:#87C2DE;stroke-width:2;stroke-miterlimit:10;" x1="763.31" y1="-195.28" x2="788.63" y2="-229.79"/>
											
												<line style="fill:none;stroke:#87C2DE;stroke-width:2;stroke-miterlimit:10;" x1="762.76" y1="-229.79" x2="788.63" y2="-195.28"/>
										</g>
										<g>
											
												<line style="fill:none;stroke:#87C2DE;stroke-width:2;stroke-miterlimit:10;" x1="763.32" y1="-231.22" x2="788.63" y2="-265.73"/>
											
												<line style="fill:none;stroke:#87C2DE;stroke-width:2;stroke-miterlimit:10;" x1="762.76" y1="-265.73" x2="788.63" y2="-231.22"/>
										</g>
										<g>
											
												<line style="fill:none;stroke:#87C2DE;stroke-width:2;stroke-miterlimit:10;" x1="763.26" y1="-267.17" x2="788.57" y2="-301.67"/>
											
												<line style="fill:none;stroke:#87C2DE;stroke-width:2;stroke-miterlimit:10;" x1="762.7" y1="-301.67" x2="788.57" y2="-267.17"/>
										</g>
										<g>
											
												<line style="fill:none;stroke:#87C2DE;stroke-width:2;stroke-miterlimit:10;" x1="763.26" y1="-303.11" x2="788.57" y2="-337.62"/>
											
												<line style="fill:none;stroke:#87C2DE;stroke-width:2;stroke-miterlimit:10;" x1="762.7" y1="-337.62" x2="788.57" y2="-303.11"/>
										</g>
										<g>
											
												<line style="fill:none;stroke:#87C2DE;stroke-width:2;stroke-miterlimit:10;" x1="763.38" y1="-339.05" x2="788.69" y2="-373.56"/>
											
												<line style="fill:none;stroke:#87C2DE;stroke-width:2;stroke-miterlimit:10;" x1="762.83" y1="-373.56" x2="788.69" y2="-339.05"/>
										</g>
										<g>
											
												<line style="fill:none;stroke:#87C2DE;stroke-width:2;stroke-miterlimit:10;" x1="763.39" y1="-375" x2="788.7" y2="-409.51"/>
											
												<line style="fill:none;stroke:#87C2DE;stroke-width:2;stroke-miterlimit:10;" x1="762.83" y1="-409.51" x2="788.7" y2="-375"/>
										</g>
									</g>
								</g>
								<g>
									<polygon style="fill:none;stroke:#87C2DE;stroke-width:3;stroke-miterlimit:10;" points="814.47,-87.96 788.34,-87.93 
										788.34,-409.5 814.47,-409.5 									"/>
									<g>
										<g>
											
												<line style="fill:none;stroke:#87C2DE;stroke-width:2;stroke-miterlimit:10;" x1="788.9" y1="-123.39" x2="814.21" y2="-157.9"/>
											
												<line style="fill:none;stroke:#87C2DE;stroke-width:2;stroke-miterlimit:10;" x1="788.34" y1="-157.9" x2="814.21" y2="-123.39"/>
										</g>
										<g>
											
												<line style="fill:none;stroke:#87C2DE;stroke-width:2;stroke-miterlimit:10;" x1="788.91" y1="-88.29" x2="814.22" y2="-122.79"/>
											
												<line style="fill:none;stroke:#87C2DE;stroke-width:2;stroke-miterlimit:10;" x1="788.35" y1="-122.79" x2="814.22" y2="-88.29"/>
										</g>
										<g>
											
												<line style="fill:none;stroke:#87C2DE;stroke-width:2;stroke-miterlimit:10;" x1="788.9" y1="-159.34" x2="814.22" y2="-193.84"/>
											
												<line style="fill:none;stroke:#87C2DE;stroke-width:2;stroke-miterlimit:10;" x1="788.35" y1="-193.84" x2="814.22" y2="-159.34"/>
										</g>
										<g>
											
												<line style="fill:none;stroke:#87C2DE;stroke-width:2;stroke-miterlimit:10;" x1="789.03" y1="-195.28" x2="814.34" y2="-229.79"/>
											
												<line style="fill:none;stroke:#87C2DE;stroke-width:2;stroke-miterlimit:10;" x1="788.47" y1="-229.79" x2="814.34" y2="-195.28"/>
										</g>
										<g>
											
												<line style="fill:none;stroke:#87C2DE;stroke-width:2;stroke-miterlimit:10;" x1="789.03" y1="-231.22" x2="814.34" y2="-265.73"/>
											
												<line style="fill:none;stroke:#87C2DE;stroke-width:2;stroke-miterlimit:10;" x1="788.48" y1="-265.73" x2="814.34" y2="-231.22"/>
										</g>
										<g>
											
												<line style="fill:none;stroke:#87C2DE;stroke-width:2;stroke-miterlimit:10;" x1="788.97" y1="-267.17" x2="814.28" y2="-301.67"/>
											
												<line style="fill:none;stroke:#87C2DE;stroke-width:2;stroke-miterlimit:10;" x1="788.41" y1="-301.67" x2="814.28" y2="-267.17"/>
										</g>
										<g>
											
												<line style="fill:none;stroke:#87C2DE;stroke-width:2;stroke-miterlimit:10;" x1="788.97" y1="-303.11" x2="814.28" y2="-337.62"/>
											
												<line style="fill:none;stroke:#87C2DE;stroke-width:2;stroke-miterlimit:10;" x1="788.42" y1="-337.62" x2="814.28" y2="-303.11"/>
										</g>
										<g>
											
												<line style="fill:none;stroke:#87C2DE;stroke-width:2;stroke-miterlimit:10;" x1="789.1" y1="-339.05" x2="814.41" y2="-373.56"/>
											
												<line style="fill:none;stroke:#87C2DE;stroke-width:2;stroke-miterlimit:10;" x1="788.54" y1="-373.56" x2="814.41" y2="-339.05"/>
										</g>
										<g>
											
												<line style="fill:none;stroke:#87C2DE;stroke-width:2;stroke-miterlimit:10;" x1="789.1" y1="-375" x2="814.41" y2="-409.5"/>
											
												<line style="fill:none;stroke:#87C2DE;stroke-width:2;stroke-miterlimit:10;" x1="788.54" y1="-409.5" x2="814.41" y2="-375"/>
										</g>
									</g>
								</g>
							</g>
							<g>
								<g>
									
										<line style="fill:none;stroke:#5F9FC7;stroke-width:2;stroke-linecap:round;stroke-miterlimit:10;" x1="809.7" y1="-465.6" x2="809.77" y2="-486.57"/>
									<line style="fill:none;stroke:#87C2DE;stroke-miterlimit:10;" x1="809.46" y1="-486.39" x2="578.16" y2="-450.33"/>
									
										<line style="fill:none;stroke:#5F9FC7;stroke-width:2;stroke-linecap:round;stroke-miterlimit:10;" x1="772.7" y1="-465.6" x2="809.77" y2="-486.57"/>
								</g>
								<g>
									<rect x="764.07" y="-467.34" style="fill:#75B2D1;" width="53.74" height="7.63"/>
									<rect x="745.55" y="-459.71" style="fill:#5F9FC7;" width="78.98" height="7.63"/>
								</g>
							</g>
							<g>
								<g>
									<rect x="549.79" y="-394.23" style="fill:#5F9FC7;" width="30.76" height="10.8"/>
									<rect x="544.28" y="-407.6" style="fill:#75B2D1;" width="39.49" height="13.37"/>
								</g>
								<g>
									<polyline style="fill:none;stroke:#5F9FC7;stroke-miterlimit:10;" points="604.79,-358.58 564.67,-366.52 523.1,-358.89 
																			"/>
									
										<path style="fill:none;stroke:#5F9FC7;stroke-width:2;stroke-linecap:round;stroke-linejoin:round;stroke-miterlimit:10;" d="
										M564.77-387.67l0.03,12.16c0,0,6.06,2.17,3.75,7.58c-1.59,3.72-6.17,3.4-8.28,1.3"/>
									<g>
										<g>
											<rect x="508.73" y="-359.53" style="fill:#87C2DE;" width="111.81" height="1.91"/>
											<rect x="508.73" y="-348.72" style="fill:#87C2DE;" width="111.81" height="1.91"/>
											<rect x="511.96" y="-357.62" style="fill:#5F9FC7;" width="105.36" height="8.9"/>
										</g>
										<g>
											<rect x="495.79" y="-346.79" style="fill:#75B2D1;" width="138.06" height="1.91"/>
											<rect x="495.79" y="-335.99" style="fill:#75B2D1;" width="138.06" height="1.91"/>
											<rect x="499.78" y="-344.88" style="fill:#5F9FC7;" width="130.09" height="8.9"/>
										</g>
									</g>
								</g>
							</g>
						</g>
						<g>
							<g>
								<rect x="460.84" y="-371.55" style="fill:#4E5E61;" width="4.52" height="99.99"/>
								<rect x="514.13" y="-371.55" style="fill:#4E5E61;" width="4.52" height="99.99"/>
								<rect x="606.25" y="-371.55" style="fill:#4E5E61;" width="4.52" height="99.99"/>
								<rect x="659.54" y="-371.55" style="fill:#4E5E61;" width="4.52" height="99.99"/>
							</g>
							<g>
								<g>
									<rect x="459.74" y="-275.66" style="fill:#7E9291;" width="74.58" height="177.18"/>
									<rect x="521.55" y="-275.66" style="fill:#B3D0CE;" width="146.32" height="177.18"/>
								</g>
								<g>
									<rect x="458.13" y="-278.61" style="fill:#56696B;" width="211.35" height="7.05"/>
									<rect x="458.13" y="-221.56" style="fill:#56696B;" width="211.35" height="6.47"/>
									<rect x="458.13" y="-163.94" style="fill:#56696B;" width="211.35" height="6.47"/>
								</g>
								<g>
									<g>
										<g>
											<rect x="570.8" y="-262.13" style="fill:#263338;" width="17.53" height="32.87"/>
											<rect x="604.69" y="-262.13" style="fill:#263338;" width="17.53" height="32.87"/>
											<rect x="536.72" y="-262.13" style="fill:#263338;" width="17.53" height="32.87"/>
											<rect x="637.51" y="-262.13" style="fill:#263338;" width="17.53" height="32.87"/>
										</g>
										<g>
											<rect x="495.38" y="-262.13" style="fill:#263338;" width="14.28" height="32.87"/>
											<rect x="469.02" y="-262.13" style="fill:#263338;" width="14.28" height="32.87"/>
										</g>
									</g>
									<g>
										<g>
											<rect x="570.8" y="-206.12" style="fill:#263338;" width="17.53" height="32.87"/>
											<rect x="604.69" y="-206.12" style="fill:#263338;" width="17.53" height="32.87"/>
											<rect x="536.72" y="-206.12" style="fill:#263338;" width="17.53" height="32.87"/>
											<rect x="637.51" y="-206.12" style="fill:#263338;" width="17.53" height="32.87"/>
										</g>
										<g>
											<rect x="495.38" y="-206.12" style="fill:#263338;" width="14.28" height="32.87"/>
											<rect x="469.02" y="-206.12" style="fill:#263338;" width="14.28" height="32.87"/>
										</g>
									</g>
									<g>
										<g>
											<rect x="570.8" y="-145.22" style="fill:#263338;" width="53.29" height="46.74"/>
											<rect x="536.72" y="-145.22" style="fill:#263338;" width="17.53" height="33.2"/>
											<rect x="637.51" y="-145.22" style="fill:#263338;" width="17.53" height="33.2"/>
										</g>
										<g>
											<rect x="495.38" y="-145.22" style="fill:#263338;" width="14.28" height="33.2"/>
											<rect x="469.02" y="-145.22" style="fill:#263338;" width="14.28" height="33.2"/>
										</g>
									</g>
								</g>
							</g>
						</g>
					</g>
				</g>
				<g>
					<rect x="125" y="-105" style="fill:#926B59;" width="750" height="105"/>
					<polyline style="fill:#A3816A;" points="125,-76.15 875,-96.13 875,-100.41 125,-93.24 					"/>
					<polygon style="fill:#A3816A;" points="875,-83.44 875,-31.86 763.96,0 125,0 125,-9.06 					"/>
				</g>
			</g>
			<g>
				<g>
					<g>
						<path style="fill:#342C4F;" d="M259.45-349.74c-0.99,4.16-0.95,8.56,0.09,12.71c0.28,1.09,0.61,2.3,0.07,3.29
							c-0.53,0.98-1.75,1.39-2.43,2.27c-1.3,1.68,0.01,4.33,1.96,5.16c1.95,0.83,4.19,0.4,6.27-0.04c-0.45,1.89,0.24,4.06,1.82,5.18
							c1.58,1.12,4.01,0.99,5.31-0.45c1.75-1.92,1.03-4.93,0.39-7.44c-1.3-5.07-1.9-10.33-1.76-15.56c0.03-1.18-0.02-2.6-1.02-3.23
							c-0.69-0.43-1.56-0.3-2.37-0.23C264.9-347.82,261.94-348.47,259.45-349.74z"/>
						<g>
							<path style="fill:#FDBCAA;" d="M255.18-311.04c4.66,11.19,12.65,19.58,21.99,27.13c1.54,1.23,3.22,2.45,5.17,2.68
								c2.59,0.29,5.03-1.24,7.06-2.91c5.64-4.64,9.99-10.89,12.45-17.84c-2.2-0.78-4.4-1.56-6.6-2.34
								c-0.03-0.85-0.05-1.71-0.03-2.55c0.03-3.9,0.52-7.62,1.46-11.25c-8.64-4.52-17.41-9.64-25.72-15.47
								c-0.71-0.48-1.41-0.98-2.1-1.48c0.83,7.96-0.9,15.91-4.53,22.82C262.55-311.64,260.03-311.73,255.18-311.04z"/>
							<path style="fill:#DE8C87;" d="M270.96-333.59c0.83,6.9,4.18,13.51,9.37,18.48c4.08,3.9,9.28,6.75,14.89,8.24
								c0.03-3.9,0.52-7.62,1.46-11.25C288.04-322.64,279.27-327.76,270.96-333.59z"/>
						</g>
						<g>
							<path style="fill:#DE8C87;" d="M319.72-348.49c4.987-1.031,9.656,1.167,10.43,4.91c0.774,3.743-2.641,7.613-7.628,8.644
								c-4.987,1.031-9.656-1.167-10.43-4.91S314.733-347.459,319.72-348.49z"/>
						</g>
						<g>
							<path style="fill:#FDBCAA;" d="M296.26-315.35c19.13,1.18,24.93-15.1,27.31-37.81c0.01-0.15,0.03-0.3,0.05-0.45
								c0.46-4.66,0.41-9.04-0.09-13.08c-2.16-17.6-12.92-29-28.38-30.03c-13.27-0.89-22.34,7.33-27.17,20.04
								c-0.43,1.14-0.83,2.33-1.19,3.54c-1.44,4.76-2.35,10.03-2.72,15.59C262.56-334.78,278.87-316.43,296.26-315.35z"/>
							<path style="fill:#DE8C87;" d="M266.8-373.14c0.67,2.52,1.48,5.32,2.71,8.91c12,4.81,24.56,8.18,37.35,10.05
								c5.56,0.81,11.21,1.34,16.76,0.58c0.46-4.66,0.41-9.04-0.09-13.08c-18.37-4.02-36.92-7.35-55.54-9.99
								C267.56-375.54,267.16-374.35,266.8-373.14z"/>
						</g>
						<path style="fill:#342C4F;" d="M265.83-345.78c6.76-3.05,11.98-9.56,14.9-22.74c-7.07-0.75-11.36-0.8-18.04,0.51
							c-2.04,3.08-4.23,4.75-5.08,10.45c-0.8,5.35,1.8,10.8,3.17,11.24c3.88,1.25,0.65,0.61,1.89,1.11
							C263.91-344.7,265.64-345.19,265.83-345.78z"/>
						<path style="fill:#FDBCAA;" d="M256.555-350.094c1.646-3.741,6.824-5.082,11.565-2.996c4.742,2.086,7.251,6.81,5.605,10.551
							c-1.646,3.741-6.824,5.082-11.565,2.996C257.418-341.629,254.909-346.353,256.555-350.094z"/>
						<g>
							<path style="fill:#F9D50F;" d="M258.48-361.38l69.15,0.29c0.09-1.03-2.24-34.47-29.82-36.28
								C274.29-398.91,260.84-387.25,258.48-361.38z"/>
							<path style="fill:#E6B00E;" d="M297.97-361.09c-2.18-13.95-12.62-22.39-17.63-25.27c-4.42-2.54-8.6-3.05-12.66-1.49
								c-3.22,1.23-4.08,4.04-3.68,6.2c4.45-2.69,10.62-2.28,15.09,0.37C290.07-374.76,296.09-364.26,297.97-361.09z"/>
							<path style="fill:#E6B00E;" d="M314.89-363.98c-0.24-7.69-1.62-15.58-5.76-22.07c-4.14-6.49-11.46-11.33-19.17-11.34
								c1.21-2.95,6.12-4.17,10.76-2.23c4.18,1.75,9.05,6.9,11.14,10.93C315.89-380.99,317.11-371.87,314.89-363.98z"/>
							<path style="fill:#E6B00E;" d="M322.96-361.51c3.2-6.7,2.4-15.13-2.19-21.54c4.09,1.8,6.44,5.93,6.85,10.38
								C328.04-368.22,326.5-363.62,322.96-361.51z"/>
							<path style="fill:#FAE864;" d="M279.08-361.38c0,0,25.44-9.75,36.43-9.75c8.39,0,20.45,8.69,21.75,12.41
								C338.57-355,279.08-361.38,279.08-361.38z"/>
						</g>
						<g>
							<path style="fill:#202B42;" d="M313.049-340.596c0.268-1.422,1.119-2.455,1.9-2.308c0.781,0.147,1.198,1.419,0.93,2.841
								c-0.268,1.422-1.118,2.455-1.9,2.308C313.198-337.902,312.781-339.174,313.049-340.596z"/>
							<path style="fill:#202B42;" d="M292.264-341.976c0.268-1.422,1.119-2.455,1.9-2.308c0.781,0.147,1.198,1.419,0.93,2.841
								c-0.268,1.422-1.118,2.455-1.9,2.308C292.412-339.282,291.996-340.555,292.264-341.976z"/>
							<path style="fill:none;stroke:#342C4F;stroke-width:2;stroke-linecap:round;stroke-miterlimit:10;" d="M297.48-352.52
								c-2.79-2.38-7.09-2.77-10.27-0.94"/>
							<path style="fill:none;stroke:#342C4F;stroke-width:2;stroke-linecap:round;stroke-miterlimit:10;" d="M321.27-351.85
								c-2.67-1.72-6.32-1.78-9.04-0.14"/>
							<path style="fill:none;stroke:#9C4E5D;stroke-width:2;stroke-linecap:round;stroke-miterlimit:10;" d="M308.94-343.94
								c0.43,2.85,0.13,4.83-1.15,7.2"/>
						</g>
						<g>
							<path style="fill:#342C4F;" d="M322.13-342.12c-0.22,7.03-1.66,13.28-4.1,19.89c-1.59,4.31-5.17,8.91-9.19,10.74
								c-4.6,2.09-11.69,1.57-16.48,0.08c-3.41-1.06-17.25-8.24-21.23-19.65c-2.48-7.1-3.48-12.68-2.02-23.54
								c0.68,0.05,4.7,0.45,5.39,0.49c-1.37,5.74-0.9,11.91,1.3,17.38c1.63,4.01,4.16,7.64,7.36,10.55c0.56-1.07,4.46-6.04,8.18-7.8
								c3.62-1.71,15.79-1.08,23.12-0.7c1.66,0.09,2.25,3.72,1.96,6.41C318.96-332.6,320.88-337.27,322.13-342.12z"/>
							<path style="fill:#FFFFFF;" d="M309.17-329.75c-4.97-0.09-9.92-0.98-14.73-2.6c-1.38,2.32-0.84,5.32,1.3,7.21
								c2.14,1.89,5.74,2.54,8.65,1.56C307.3-324.56,309.32-327.09,309.17-329.75z"/>
						</g>
					</g>
					<g>
						<g>
							<path style="fill:#DE8C87;" d="M310.09-175.96c4.67-4.09,19.56-13.38,22.07-27.56c-3.94-10.49-11.77-26.45-15.56-37.8
								c9.75-5.33,20.1-11.48,29.3-16.44c3.58,14.24,17.36,53.52,15.89,60.5c-2.44,11.58-27.33,29.94-42.99,42.61
								C312.95-156.96,307.48-166.03,310.09-175.96z"/>
							<path style="fill:#8E99DE;" d="M313.44-264.93c2.02-10.98,4.99-21.79,8.92-30.58c4.51,2.65,9.51,4.74,13.41,8.64
								c6.59,6.59,19.55,37.27,23.39,58.32c-13.75,4.09-27.66,7.54-41.97,8.55C314.51-234.05,310.43-248.56,313.44-264.93z"/>
						</g>
						<path style="fill:#1C1515;" d="M343.85,14.68c-7.72-47.77-19.17-95.09-23.15-143.32c-1.68-20.28,0.58-40.52,0.11-60.66
							c-32.88-0.51-67.4-1.79-99.48-4.63c-6,19.22-9.28,30.61-12.76,56c-3.43,25.03,1.08,114.55,8.33,173.53
							c14.96-0.36,35.07,0.42,50.48-0.56c0.06-43.94,0.11-87.89,1.04-132.6c8.03,41.88,16.07,83.77,24.1,125.65
							C308.86,22.97,326.06,20.61,343.85,14.68z"/>
						<g>
							<path style="fill:#AEBDF3;" d="M329.84-289.94c-4.98,24.78-10.38,53.68-15.61,80.82c-2.09,10.85-4.15,21.4-6.13,31.29
								c-14.25,11.25-76.26,3.28-91.2-3.69c11.18-19.33,9.02-41.97,6.63-62.8c-0.37-3.17-0.63-6.28-0.82-9.34
								c-1.13-19.07,1.28-35.9,6.51-52.07c8.75-4.1,19.11-6.05,29.49-6.11c5.75,17.86,13.06,26.87,25.92,27.35
								c9.39,0.35,13.57-8.57,13.57-20.19C307.73-301.5,319.19-296.57,329.84-289.94z"/>
							<path style="fill:#8E99DE;" d="M314.23-205.33c-2.09,9.73-4.15,19.2-6.13,28.07c-14.25,10.09-76.26,2.95-91.2-3.31
								c11.18-17.34,9.02-37.66,6.63-56.34c-0.37-2.84-0.63-5.64-0.82-8.38c9.87-9.2,20.12-17.9,31.22-25.47
								c-0.1,8.99-0.21,18.04,1.54,26.88c1.75,8.85,5.5,17.58,12.23,24.24c8.42,8.34,20.9,12.74,33.37,13.97
								C305.45-205.23,309.84-205.15,314.23-205.33z"/>
						</g>
						<g>
							<path style="fill:#FF921F;" d="M326.31-175.88c0.45,3.72,1.08,7.38,1.91,10.96c-9.65,2.96-19.3,5.91-28.95,8.86
								c-0.81-5.11-1.41-10.32-1.84-15.59c-0.44-5.16-0.71-10.41-0.88-15.7c-0.27-8.91-0.2-17.96,0.02-27.07
								c0.08-3.46,0.18-6.94,0.3-10.41v-0.01c0.02-0.53,0.03-1.07,0.06-1.6l0.09-2.79c0.22-6.14,0.46-12.3,0.67-18.42
								c0.15-4.31,0.28-8.61,0.37-12.89c0.36-15.59,0.23-30.89-1.3-45.41c4.96,1.45,9.72,3.05,14.31,4.84
								c1.46,0.56,2.92,1.15,4.35,1.76c1.45,0.62,2.9,1.27,4.32,1.92c1.28,0.59,2.54,1.2,3.78,1.83c2.19,1.08,4.35,2.24,6.47,3.45
								c1.84,18.24-0.22,38.16-2.17,58.11c-0.51,5.15-1,10.3-1.42,15.44v0.01c-0.75,9.01-1.24,17.96-1.12,26.66
								C325.35-186.46,325.67-181.11,326.31-175.88z"/>
							<path style="fill:#FDD21B;" d="M327.82-234.02c-0.51,5.15-1,10.3-1.42,15.44v0.01c-9.83,2.05-19.81,3.43-29.83,4.15
								c0.08-3.46,0.18-6.94,0.3-10.41v-0.01c0.02-0.53,0.03-1.07,0.06-1.6l0.09-2.79c0.76-0.01,1.51-0.03,2.27-0.06
								c1.74-0.07,3.48-0.16,5.22-0.3C312.5-230.2,320.34-231.56,327.82-234.02z"/>
							<path style="fill:#FDD21B;" d="M326.31-175.88c-9.53,2.03-19.18,3.43-28.88,4.23c-0.44-5.16-0.71-10.41-0.88-15.7
								c9.67-0.81,19.28-2.33,28.73-4.56C325.35-186.46,325.67-181.11,326.31-175.88z"/>
							<path style="fill:#FDD21B;" d="M319.74-297.41c-2.4,22.92-8.98,45.37-19.33,65.92c-0.37,0.74-0.74,1.48-1.12,2.2
								c-0.78,1.5-1.59,2.97-2.42,4.45c0.02-0.53,0.03-1.07,0.06-1.6l0.09-2.79c0.22-6.14,0.46-12.3,0.67-18.42
								c0.15-4.31,0.28-8.61,0.37-12.89c5.58-13.09,10.02-26.67,13.01-40.57c1.46,0.56,2.92,1.15,4.35,1.76
								C316.87-298.71,318.32-298.07,319.74-297.41z"/>
						</g>
						<g>
							<path style="fill:#FF921F;" d="M265.42-257.96c-0.07,4.26-0.2,8.54-0.39,12.83c-0.21,4.62-0.47,9.25-0.82,13.89
								c-0.07,0.9-0.13,1.8-0.22,2.7c-0.24,3.26-0.53,6.53-0.85,9.78c-0.13,1.39-0.28,2.8-0.43,4.2c-0.97,9.07-2.17,18.07-3.6,26.92
								c-0.85,5.31-1.79,10.57-2.8,15.74c-1.15,5.87-2.39,11.62-3.72,17.25c-16.11-2.17-44.03-11.19-44.03-11.19
								c0.27-4.96,0.58-10.12,0.91-15.42c0.36-5.69,0.75-11.55,1.15-17.5v-0.01c0.59-8.44,1.21-17.06,1.83-25.69
								c0.38-5.37,0.76-10.74,1.14-16.07c1.06-15.06,2.05-29.75,2.77-43.01c0.25-4.7,2.73-14.78,4.86-18.97
								c0.77-1.52,4.68-3.3,9.92-4.97c1.66-0.53,3.46-1.05,5.32-1.54c2.18-0.58,4.45-1.12,6.74-1.61c1.83-0.4,3.68-0.77,5.49-1.09
								c5.37-0.97,10.4-1.58,13.89-1.58C264.88-295.79,265.76-277.05,265.42-257.96z"/>
							<path style="fill:#FDD21B;" d="M264.21-231.24c-3.02-0.37-6.04-0.76-9.05-1.2c-13.98-1.99-27.85-4.69-41.56-8.08
								c-0.38,5.32-0.76,10.7-1.14,16.07c16.3,5.22,33.19,8.53,50.25,9.89c0.15-1.39,0.3-2.8,0.43-4.2L264.21-231.24z"/>
							<path style="fill:#FDD21B;" d="M210.63-198.75c15.61,5.72,31.95,9.43,48.49,11.11c-0.85,5.31-1.79,10.57-2.8,15.74
								c-15.88-1.5-31.6-4.63-46.84-9.36C209.84-186.95,210.23-192.81,210.63-198.75z"/>
							<path style="fill:#FDD21B;" d="M265.42-257.96c-0.07,4.26-0.2,8.54-0.39,12.83c-0.21,4.62-0.47,9.25-0.82,13.89
								c-0.07,0.9-0.13,1.8-0.22,2.7c0-0.01-0.01-0.02-0.01-0.02c-0.56-0.97-1.12-1.94-1.66-2.92c-0.67-1.2-1.33-2.41-1.97-3.63
								c-12.06-22.66-20.7-48.92-23.87-73.9c2.18-0.58,4.45-1.12,6.74-1.61c1.83-0.4,3.68-0.77,5.49-1.09
								C252.15-293.23,257.77-275.16,265.42-257.96z"/>
						</g>
						<g>
							<g>
								<g>
									<path style="fill:#FDBCAA;" d="M203.33-225.85c-1.91,2.47-3.8,4.99-5.71,7.62c2.72,16.61,11.36,36.21,19.28,51.07
										c-4.86,2.62-10.28,6.97-14.73,9.36c-16.92-20.02-38.55-60.42-36.87-69.94c0.83-4.67,9.42-15.06,18.45-26.04
										c3.5-4.24,7.06-8.57,10.26-12.69c1.83-2.35,3.55-4.63,5.06-6.79c8.07,9.25,12.69,16.2,21.76,26.22
										c-0.97,1.14-1.94,2.26-2.88,3.37C212.78-237.62,208-231.9,203.33-225.85z"/>
									<path style="fill:#DE8C87;" d="M217.95-243.67c-5.17,6.05-9.95,11.77-14.63,17.82c-8.08-8.08-14.73-17.59-19.57-27.93
										c3.5-4.24,7.06-8.57,10.26-12.69C201.11-258.03,209.16-250.36,217.95-243.67z"/>
								</g>
								<path style="fill:#AEBDF3;" d="M234.41-265.11c3.25-12.39,1.6-40.27-11.47-38.6c-9.13,1.17-27.23,28.2-41,47.87
									c10.15,11.96,21.56,22.82,33.96,32.34C225.84-235.88,230.4-249.84,234.41-265.11z"/>
							</g>
							<path style="fill:#FDBCAA;" d="M212.44-168.23c6.46-0.68,15.35-3.26,19.77-3.72c2.98-0.31,5.95,0.77,8.92,1.16
								c0.61,0.08,1.25,0.17,1.74,0.54c0.65,0.49,0.88,1.35,1.06,2.14c0.89,3.77,1.93,10.47,1.52,11.59
								c-0.57,1.56-1.82,1.15-3.15,0.17c-2.54-1.87-2.82-5.6-4.12-8.55c-1.65-0.25-3.36-0.14-4.82,0.51c2.76,3,6.32,7,7.02,8.54
								c1.4,3.08,0.11,9.12-0.88,10.7c-1.39,2.21-2.98,1.89-3.68,0.42c-0.85-1.76,0.62-5.21-0.4-7.75c-0.64-1.6-3.31-4.45-5.87-5.69
								c2.68,3.66,3.45,7.24,3.86,9.4c0.42,2.22,1.08,10.84-3.01,11.22c-2.74,0.25-1.17-6.52-1.91-9.07
								c-0.6-2.06-1.62-3.33-3.85-6.53c1.51,3.79,1.78,7.44,1.99,9.29c0.3,2.72-1.25,9.89-3.64,9.39c-2.59-0.55-0.77-7.26-1.14-8.35
								c-0.36-1.1-0.81-3.42-2.59-6.56c-7.48,0.96-15.33-3.6-18.21-10.57C204.83-162.88,207.91-167.75,212.44-168.23z"/>
						</g>
					</g>
				</g>
				<g>
					<g>
						<g>
							<path style="fill:#FDBCAA;" d="M456.01-303.94c-4.36,11.19-11.85,19.58-20.59,27.13c-1.44,1.23-3.01,2.45-4.84,2.68
								c-2.42,0.29-4.71-1.24-6.61-2.91c-5.28-4.64-9.35-10.89-11.66-17.84c2.06-0.78,4.12-1.56,6.18-2.34
								c0.03-0.85,0.04-1.71,0.03-2.55c-0.03-3.9-0.48-7.62-1.37-11.25c8.09-4.52,16.3-9.64,24.09-15.47
								c0.66-0.48,1.32-0.98,1.97-1.48c-0.78,7.96,0.84,15.91,4.24,22.82C449.1-304.54,451.46-304.63,456.01-303.94z"/>
							<path style="fill:#DE8C87;" d="M441.24-326.49c-0.78,6.9-3.92,13.51-8.77,18.48c-3.82,3.9-8.69,6.75-13.94,8.24
								c-0.03-3.9-0.48-7.62-1.37-11.25C425.24-315.53,433.45-320.65,441.24-326.49z"/>
						</g>
						<g>
							<g>
								<path style="fill:#DE8C87;" d="M381.038-335.09c0.774-3.743,5.444-5.941,10.43-4.91c4.987,1.031,8.402,4.901,7.628,8.644
									c-0.774,3.743-5.444,5.941-10.431,4.91C383.679-327.477,380.264-331.347,381.038-335.09z"/>
								<path style="fill:#4F242F;" d="M386.38-358.57c-1.93,3.98-2.21,8.9-1.28,13.35c0.93,4.46,2.99,8.48,5.47,12
									c0.49-6.87,0.97-13.74,1.46-20.61c0.07-0.94,0.12-1.96-0.33-2.74c-0.58-1.01-1.75-1.21-2.77-1.21
									C387.9-357.78,386.78-357.7,386.38-358.57z"/>
							</g>
							<g>
								<path style="fill:#FDBCAA;" d="M414.92-306.84c-19.13,1.18-24.93-15.1-27.31-37.81c-0.01-0.15-0.03-0.3-0.05-0.45
									c-0.46-4.66-0.41-9.04,0.09-13.08c2.16-17.6,12.92-29,28.38-30.03c13.27-0.89,22.34,7.33,27.17,20.04
									c0.43,1.14,0.83,2.33,1.19,3.54c1.44,4.76,2.35,10.03,2.72,15.59C448.62-326.27,432.32-307.92,414.92-306.84z"/>
								<path style="fill:#DE8C87;" d="M444.38-364.64c-0.67,2.52-1.48,5.32-2.71,8.91c-12,4.81-24.56,8.18-37.35,10.05
									c-5.56,0.81-11.21,1.34-16.76,0.58c-0.46-4.66-0.41-9.04,0.09-13.08c18.37-4.02,36.92-7.35,55.54-9.99
									C443.62-367.03,444.03-365.85,444.38-364.64z"/>
							</g>
							<path style="fill:#4F242F;" d="M450.4-357.33c0.93,4.38,4,6.02,7.8,8.38c1.26,0.78,2.64,1.41,3.76,2.38
								c1.12,0.98,1.97,2.44,1.72,3.91c-0.35,2.05-2.57,3.17-3.64,4.95c-1.43,2.38,1.75,5.73-1.28,9.74
								c-2.87,3.8-5.85,0.52-7.74,1.92c-2.42,1.81-1.96,7.15-7.81,6.26c-0.75-3.33-1.24-8.1-0.23-11.73
								c0.92-3.27-0.77-11.07-3.21-11.37c-9.93-1.25-13.34-9.55-15.43-13.2C431.21-357.16,442.21-357.33,450.4-357.33z"/>
							<path style="fill:#FDBCAA;" d="M443.048-344.583c4.742-2.086,9.92-0.745,11.565,2.996c1.646,3.741-0.864,8.464-5.606,10.551
								c-4.742,2.086-9.92,0.745-11.566-2.996C435.797-337.773,438.307-342.496,443.048-344.583z"/>
							<g>
								<path style="fill:#F9D50F;" d="M452.71-352.87l-69.15,0.29c-0.09-1.03,2.24-34.47,29.82-36.28
									C436.9-390.4,450.35-378.74,452.71-352.87z"/>
								<path style="fill:#E6B00E;" d="M413.22-352.58c2.18-13.95,12.62-22.39,17.63-25.27c4.42-2.54,8.6-3.05,12.66-1.49
									c3.22,1.23,4.08,4.04,3.68,6.2c-4.45-2.69-10.62-2.28-15.09,0.37C421.12-366.25,415.1-355.75,413.22-352.58z"/>
								<path style="fill:#E6B00E;" d="M396.29-355.48c0.24-7.69,1.62-15.58,5.76-22.07c4.14-6.49,11.46-11.33,19.17-11.34
									c-1.21-2.95-6.12-4.17-10.76-2.23c-4.18,1.75-9.05,6.9-11.14,10.93C395.3-372.48,394.08-363.37,396.29-355.48z"/>
								<path style="fill:#E6B00E;" d="M388.22-353c-3.2-6.7-2.4-15.13,2.19-21.54c-4.09,1.8-6.44,5.93-6.85,10.38
									C383.14-359.71,384.69-355.11,388.22-353z"/>
								<path style="fill:#FAE864;" d="M432.1-352.87c0,0-25.44-9.75-36.43-9.75c-8.39,0-20.45,8.69-21.75,12.41
									C372.62-346.49,432.1-352.87,432.1-352.87z"/>
							</g>
							<g>
								<path style="fill:#202B42;" d="M396.233-334.415c0.782-0.147,1.632,0.886,1.9,2.308c0.268,1.422-0.149,2.694-0.93,2.841
									c-0.782,0.147-1.632-0.886-1.9-2.308C395.036-332.996,395.452-334.268,396.233-334.415z"/>
								<path style="fill:#202B42;" d="M417.022-335.797c0.781-0.147,1.632,0.886,1.9,2.308c0.268,1.422-0.149,2.694-0.93,2.841
									c-0.782,0.147-1.632-0.886-1.9-2.308C415.824-334.378,416.241-335.65,417.022-335.797z"/>
								<path style="fill:none;stroke:#4F242F;stroke-width:2;stroke-linecap:round;stroke-miterlimit:10;" d="M413.71-344.01
									c2.79-2.38,7.09-2.77,10.27-0.94"/>
								<path style="fill:none;stroke:#4F242F;stroke-width:2;stroke-linecap:round;stroke-miterlimit:10;" d="M389.91-343.34
									c2.67-1.72,6.32-1.78,9.04-0.14"/>
								<g>
									<path style="fill:none;stroke:#9C4E5D;stroke-width:2;stroke-linecap:round;stroke-miterlimit:10;" d="M402.84-332.15
										c-0.57,3.39,0.17,6.99,2.02,9.89"/>
									<path style="fill:none;stroke:#9C4E5D;stroke-width:2;stroke-linecap:round;stroke-miterlimit:10;" d="M410.24-316.94
										c4.51-0.67,8.68-3.37,11.14-7.2"/>
								</g>
							</g>
						</g>
					</g>
					<g>
						<path style="fill:#191A1A;" d="M484.7,10.86c4.48-41.52,7.71-101.91,7.71-151.42c0-16.95-0.85-29.82-4.03-42.55
							c-30.53,1.65-61.57,7.38-91.01,13.62c-3.53,50.78-18.87,138.32-21.54,190.21c13.01-0.49,26.02-0.99,39.64-0.71
							c3.99-26.08,20.66-99.57,26.36-136.79c1.36,41.97,1.02,96.72,2.21,133.48C458.45,15.6,472.87,14.51,484.7,10.86z"/>
						<g>
							<path style="fill:#1B334E;" d="M448.89-305.51c0,0-10.56,30.29-19.62,30.29s-11.97-21.99-11.97-21.99
								s-24.43,10.39-26.1,17.77c-1.67,7.38,12.46,119.27,12.46,119.27l83.21-7.19c0,0,3.7-118.64-0.5-125.23
								C482.17-299.18,448.89-305.51,448.89-305.51z"/>
							<path style="fill:#1B334E;" d="M402.39-269.8c-1.35-6.8-1.22-13.27-8.61-16.81c-6.02,2.37-16.43,19.64-19.46,30.51
								c-3.03,10.87-5.64,21.89-6.92,33.11c9.64,4.01,20.16,5.86,30.59,5.38C401.65-235.04,405.72-252.99,402.39-269.8z"/>
							<g>
								<path style="fill:#FF921F;" d="M502.43-161.38c-15.54,4.62-32.23,5.39-47.48,2.38c-2.79-11.69-5.02-23.24-6.66-34.74
									c-0.66-4.54-1.22-9.07-1.67-13.6c-0.86-8.27-1.41-16.52-1.65-24.79c-0.09-3.44-0.14-6.89-0.14-10.33
									c0-0.64,0.01-1.3,0.01-1.94c0.08-9.18,0.55-18.38,1.41-27.64c1.02-11.05,2.6-22.19,4.76-33.47
									c4.98,0.62,9.42,1.33,13.72,2.21c2.97,0.61,5.87,1.3,8.84,2.1c3.23,0.86,6.55,1.85,10.11,3c-1.86,15.42,1.65,30.5,8.9,44.77
									c0.54,1.06,1.1,2.13,1.67,3.18c-0.4,3.65-0.71,7.32-0.92,10.98c-0.44,7.37-0.52,14.78-0.22,22.16
									c0.18,4.53,0.49,9.06,0.96,13.56C495.5-189.26,498.29-175.12,502.43-161.38z"/>
								<path style="fill:#FDD21B;" d="M494.08-203.54c-14.87,4.82-30.24,8.12-45.78,9.8c-0.66-4.54-1.22-9.07-1.67-13.6
									c15.83-1.24,31.5-4.53,46.5-9.77C493.3-212.58,493.62-208.05,494.08-203.54z"/>
								<path style="fill:#FDD21B;" d="M494.26-250.25c-0.4,3.65-0.71,7.32-0.92,10.98c-15.83,4-32.06,6.4-48.37,7.14
									c-0.09-3.44-0.14-6.89-0.14-10.33c0-0.64,0.01-1.3,0.01-1.94c0.18-0.01,0.35-0.01,0.53-0.02
									c16.07-0.61,32.05-3.66,47.21-9.01C493.12-252.37,493.68-251.3,494.26-250.25z"/>
								<path style="fill:#FDD21B;" d="M473.58-301.2c-12.88,16.91-22.51,36.3-28.2,56.79c-0.18,0.65-0.36,1.31-0.54,1.96
									c0-0.64,0.01-1.3,0.01-1.94c0.08-9.18,0.55-18.38,1.41-27.64c4.58-10.69,9.9-21.01,17.31-29.9
									c0.38-0.46,0.77-0.92,1.17-1.36C467.71-302.69,470.61-302,473.58-301.2z"/>
							</g>
							<g>
								<path style="fill:#FF921F;" d="M418.54-156.55c-9.08,3.93-19.51,4.69-28.65,1.97c0.88-12.94,1.16-25.92,0.81-38.88
									c-0.11-4.05-0.27-8.1-0.49-12.15c-0.45-7.91-1.13-15.81-2.03-23.67c-0.17-1.47-0.34-2.96-0.53-4.43
									c-0.29-2.36-0.57-4.88-0.8-7.47c-1.52-16.63-1.63-36.59,1.98-41.45c0.92-1.23,2.9-2.93,5.5-4.76
									c2.85-2,6.46-4.17,10.28-6.05c4.43-2.19,9.15-4,13.27-4.75c-3.73,11.58-5.36,23.63-5.75,35.8c0,0.01,0,0.01,0,0.01
									c-0.22,7-0.03,14.05,0.41,21.07c0.13,2.04,0.27,4.1,0.44,6.14c0.15,1.7,0.29,3.4,0.46,5.1c0.06,0.75,0.14,1.48,0.21,2.23
									c0.9,8.91,2.01,17.81,2.99,26.75c0.44,4.12,0.85,8.24,1.2,12.36C418.74-178.11,419.18-167.4,418.54-156.55z"/>
								<path style="fill:#FDD21B;" d="M412.98-235.18c-0.17-2.04-0.32-4.1-0.44-6.14c-1.15,0.14-2.29,0.25-3.42,0.35
									c-7.57,0.67-14.99,0.59-22.26-0.22c0.23,2.59,0.51,5.11,0.8,7.47c0.19,1.47,0.36,2.96,0.53,4.43
									c8.36,1.39,17.01,1.12,25.26-0.79"/>
								<path style="fill:#FDD21B;" d="M417.85-188.74c-1.55,0.23-3.14,0.28-4.7,0.21c-3.94-0.19-7.79-1.18-11.62-2.16
									c-3.61-0.93-7.21-1.85-10.83-2.78c-0.11-4.05-0.27-8.1-0.49-12.15c8.5,2.91,17.46,4.43,26.43,4.52
									C417.09-196.98,417.5-192.86,417.85-188.74z"/>
								<path style="fill:#FDD21B;" d="M412.98-235.18c-1.36-1.89-2.65-3.81-3.87-5.79c-8.64-13.95-13.79-30.07-14.79-46.43
									c2.85-2,6.46-4.17,10.28-6.05c0.49,10.7,3.06,21.31,7.52,31.05c0,0.01,0,0.01,0,0.01c-0.22,7-0.03,14.05,0.41,21.07
									C412.67-239.28,412.81-237.22,412.98-235.18z"/>
							</g>
						</g>
						<g>
							<g>
								<path style="fill:#FFFFFF;" d="M445.99-155.74c-34.13,34.12-75.99,33.48-110.84,13.47L298.7-249.62
									c3.78,2.8,7.93,5,12.33,6.72c41.38,16.07,105.78-11.88,105.78-11.88c3.25,22.5,19.24,70.33,26.08,90.15
									C444.8-159.09,445.99-155.74,445.99-155.74z"/>
								<path style="fill:#E1EAF0;" d="M445.99-155.74c-34.13,34.12-75.99,33.48-110.84,13.47L298.7-249.62
									c3.78,2.8,7.93,5,12.33,6.72c4.38,16.02,9.27,31.95,17.17,46.53c9.29,17.13,23.27,32.46,41.45,39.49
									c15.37,5.95,32.65,5.55,48.63,1.56c8.52-2.14,16.8-5.28,24.6-9.31C444.8-159.09,445.99-155.74,445.99-155.74z"/>
							</g>
							<g>
								<path style="fill:#FDBCAA;" d="M309.3-202.53c-0.66-0.87-1.34-1.76-1.7-2.82c-0.36-1.06-0.36-2.32,0.28-3.22
									c0.59-0.83,1.61-1.2,2.58-1.19c0.97,0.01,1.91,0.33,2.84,0.65c4.32,1.51,8.73,3.13,12.24,6.22c0.91,0.8,1.82,1.94,1.54,3.16
									c-0.2,0.9-1.04,1.52-1.89,1.69c-0.85,0.17-1.73-0.01-2.57-0.21C318.79-199.15,315.02-200.36,309.3-202.53z"/>
								<path style="fill:#FDBCAA;" d="M311.57-194.07c-0.66-0.87-1.34-1.76-1.7-2.82c-0.36-1.06-0.36-2.32,0.28-3.22
									c0.59-0.83,1.61-1.2,2.58-1.19c0.97,0.01,1.91,0.33,2.84,0.65c4.32,1.51,8.73,3.13,12.24,6.22c0.91,0.8,1.82,1.94,1.54,3.16
									c-0.2,0.9-1.04,1.52-1.89,1.69s-1.73-0.01-2.57-0.21C321.05-190.69,317.29-191.89,311.57-194.07z"/>
								<path style="fill:#FDBCAA;" d="M313.38-186.26c-0.66-0.87-1.34-1.76-1.7-2.82c-0.36-1.06-0.36-2.32,0.28-3.22
									c0.59-0.83,1.61-1.2,2.58-1.19c0.97,0.01,1.91,0.33,2.84,0.65c4.32,1.51,8.73,3.13,12.24,6.22c0.91,0.8,1.82,1.94,1.54,3.16
									c-0.2,0.9-1.04,1.52-1.89,1.69c-0.85,0.17-1.73-0.01-2.57-0.21C322.86-182.88,319.1-184.08,313.38-186.26z"/>
								<path style="fill:#FDBCAA;" d="M314.28-177.99c-0.66-0.87-1.34-1.76-1.7-2.82c-0.36-1.06-0.36-2.32,0.28-3.22
									c0.59-0.83,1.61-1.2,2.58-1.19s1.91,0.33,2.84,0.65c4.32,1.51,8.73,3.13,12.24,6.22c0.91,0.8,1.82,1.94,1.54,3.16
									c-0.2,0.9-1.04,1.52-1.89,1.69c-0.85,0.17-1.73-0.01-2.57-0.21C323.77-174.61,320-175.82,314.28-177.99z"/>
							</g>
							<g>
								<g>
									<g>
										<path style="fill:#FDBCAA;" d="M502.43-189.87c-5.47,5.47-35.92,7.85-56.46,6.76c-0.41-5.15-1.28-9.55-1.14-15.59
											c13.71-3.25,32.44-9.95,33.57-12.04c0.24-0.45,0.38-1.13,0.41-1.97c0.18-3.78-1.38-11.07-1.97-17.69
											c8.77-1.3,17.39-3.64,25.75-7.18c0.52,5.82,1.03,11.65,1.56,17.47C504.97-210.9,505.78-193.22,502.43-189.87z"/>
										<path style="fill:#DE8C87;" d="M478.82-212.71c0.18-3.78-1.38-11.07-1.97-17.69c8.77-1.3,17.39-3.64,25.75-7.18
											c0.52,5.82,1.03,11.65,1.56,17.47C496.45-215.71,487.69-213.15,478.82-212.71z"/>
									</g>
									<path style="fill:#FDBCAA;" d="M447.24-197.1c-4.84-5.25-13.9-10.33-17.64-11.77c-2.36-0.91-8.35,1.55-11.48,4.33
										c-3.13,2.78-5.19,6.73-5.66,10.89c-0.05,0.41-0.08,0.85,0.1,1.22c0.4,0.84,1.67,0.89,2.43,0.36
										c0.76-0.53,1.18-1.42,1.64-2.24c2.22-3.95,6.3-6.79,10.98-7.37c-5.51,2.58-9.91,7.46-11.9,13.21
										c-0.39,1.12-0.58,2.6,0.4,3.27c1.04,0.72,2.42-0.14,3.45-0.71c2.21-4.15,5.95-7.47,10.78-9.39
										c-4.72,2.86-8.64,7.03-11.19,11.92c-0.37,0.71-0.73,1.5-0.61,2.29c0.11,0.8,0.89,1.55,1.67,1.33
										c0.28-0.08,0.51-0.27,0.74-0.45c3.75-3.04,7.5-6.08,11.74-9.06c-3.49,3.73-7.08,7.62-8.62,12.49
										c-0.28,0.89-0.37,2.11,0.48,2.53c0.66,0.33,1.43-0.11,2.03-0.54c3.39-2.44,6.42-5.36,9.04-8.57
										c4.03,2.4,9.56,1.96,13.1-0.79C448.58-188.14,448.45-192.13,447.24-197.1z"/>
								</g>
								<path style="fill:#1B334E;" d="M483.44-298.2c9.55,3.54,16.41,15.82,19,31.22c2.49,14.79,4.11,30.74,4.18,43.31
									c-10.28,1.88-18.62,3.27-32.98,3.27C472.97-231.31,469.8-294.7,483.44-298.2z"/>
							</g>
						</g>
					</g>
				</g>
			</g>
		</g>
	</g>
</g>
</svg>
